<svg width="269" height="418" viewBox="0 0 269 418" fill="none" xmlns="http://www.w3.org/2000/svg">
<g clip-path="url(#clip0_342_22)">
<g filter="url(#filter0_f_342_22)">
<path d="M191.033 359.555L92.9459 303.229C89.1652 301.06 89.1652 295.628 92.9459 293.46L102.621 287.391C106.022 285.441 110.203 285.448 113.604 287.391L211.69 343.718C215.471 345.886 215.471 351.318 211.69 353.487L202.015 359.555C198.614 361.505 194.434 361.498 191.033 359.555Z" fill="#B884C1" fill-opacity="0.2"/>
<path d="M36.0822 278.936C47.8373 278.936 57.3666 273.493 57.3666 266.779C57.3666 260.065 47.8373 254.622 36.0822 254.622C24.3272 254.622 14.7979 260.065 14.7979 266.779C14.7979 273.493 24.3272 278.936 36.0822 278.936Z" fill="#BA68C8" fill-opacity="0.2"/>
</g>
<path d="M220.801 352.824L132.497 303.288C126.265 299.793 121.214 290.416 121.214 282.344V98.6285C121.214 90.5572 126.265 86.8499 132.497 90.345L220.801 139.88C227.032 143.375 232.083 152.753 232.083 160.824V344.547C232.083 352.618 227.032 356.325 220.801 352.83V352.824Z" fill="#455A64"/>
<path d="M230.971 134.117L142.667 84.5817C140.005 83.0895 137.554 82.917 135.63 83.8323C135.391 83.945 135.165 84.0776 134.94 84.2235L125.05 89.8144C127.036 88.6604 129.643 88.74 132.503 90.345L220.807 139.88C227.039 143.375 232.09 152.753 232.09 160.824V344.547C232.09 348.811 230.677 351.862 228.425 353.268L238.185 347.743C240.67 346.457 242.254 343.307 242.254 338.79V155.061C242.254 146.99 237.203 137.612 230.971 134.117Z" fill="#37474F"/>
<path d="M232.083 160.818V344.54C232.083 348.805 230.67 351.855 228.418 353.261L238.179 347.737C240.663 346.45 242.247 343.3 242.247 338.783V155.061C242.247 155.061 242.247 155.054 242.247 155.048L232.077 160.784C232.077 160.784 232.077 160.811 232.077 160.824L232.083 160.818Z" fill="#263238"/>
<path d="M242.254 169.32L232.083 175.024V179.48L242.254 173.777V169.32Z" fill="#37474F"/>
<path d="M237.796 198.966C236.889 199.476 236.151 198.932 236.151 197.759V188.175C236.151 186.995 236.889 185.628 237.796 185.118C238.704 184.607 239.441 185.151 239.441 186.325V195.908C239.441 197.089 238.704 198.455 237.796 198.966Z" fill="#37474F"/>
<path d="M236.151 197.752V188.168C236.151 186.988 236.889 185.622 237.796 185.111C238.192 184.886 238.554 184.879 238.834 185.018V185.005L237.605 184.388V184.401C237.312 184.242 236.943 184.249 236.534 184.481C235.626 184.992 234.889 186.358 234.889 187.538V197.122C234.889 197.759 235.107 198.196 235.448 198.402L236.738 199.065V199.052C236.384 198.859 236.145 198.415 236.145 197.759L236.151 197.752Z" fill="#455A64"/>
<path d="M237.796 222.158C236.889 222.669 236.151 222.125 236.151 220.951V211.368C236.151 210.187 236.889 208.821 237.796 208.31C238.704 207.799 239.441 208.343 239.441 209.517V219.101C239.441 220.281 238.704 221.647 237.796 222.158Z" fill="#37474F"/>
<path d="M236.151 220.951V211.368C236.151 210.187 236.889 208.821 237.796 208.31C238.192 208.085 238.554 208.078 238.834 208.217V208.204L237.605 207.587V207.601C237.312 207.441 236.943 207.448 236.534 207.68C235.626 208.191 234.889 209.557 234.889 210.738V220.321C234.889 220.958 235.107 221.395 235.448 221.601L236.738 222.264V222.251C236.384 222.059 236.145 221.614 236.145 220.958L236.151 220.951Z" fill="#455A64"/>
<path d="M217.736 145.04L130.947 96.347C129.35 95.4516 127.357 96.5725 127.357 98.3631V282.344C127.357 288.486 131.835 296.026 137.316 299.097L221.988 346.596C223.742 347.584 225.94 346.351 225.94 344.381V158.861C225.94 153.794 222.248 147.573 217.729 145.04H217.736Z" fill="#BA68C8"/>
<path opacity="0.9" d="M217.736 145.04L130.947 96.347C129.35 95.4516 127.357 96.5725 127.357 98.3631V282.344C127.357 288.486 131.835 296.026 137.316 299.097L221.988 346.596C223.742 347.584 225.94 346.351 225.94 344.381V158.861C225.94 153.794 222.248 147.573 217.729 145.04H217.736Z" fill="white"/>
<path d="M156.898 109.061L158.243 114.565L187.007 130.675L191.976 128.108L156.898 109.061Z" fill="#455A64"/>
<path d="M165.355 114.38C165.355 115.295 164.693 115.66 163.881 115.209C163.069 114.758 162.407 113.644 162.407 112.728C162.407 111.813 163.069 111.448 163.881 111.899C164.693 112.357 165.355 113.464 165.355 114.38Z" fill="#263238"/>
<path d="M184.733 126.012C184.583 126.012 184.426 125.973 184.283 125.9L169.594 117.921C169.15 117.683 168.993 117.132 169.239 116.701C169.485 116.27 170.051 116.117 170.495 116.356L185.184 124.335C185.627 124.573 185.784 125.124 185.539 125.555C185.368 125.847 185.054 126.012 184.733 126.012Z" fill="#263238"/>
<path d="M145.554 134.641C144.66 134.137 144.012 134.574 144.012 135.682C144.012 136.79 144.66 137.977 145.554 138.481C146.087 138.779 146.756 138.786 147.247 138.481L148.674 140.988C147.841 141.538 146.578 141.485 145.432 140.835C143.145 139.555 141.486 136.796 141.486 134.303C141.486 131.809 143.186 131.013 145.527 132.32C146.667 132.956 147.909 134.249 148.674 135.616L147.247 136.71C146.804 135.782 146.128 134.959 145.554 134.641Z" fill="#A156FF"/>
<path d="M156.878 142.951C156.878 145.431 155.158 146.293 152.783 144.96C150.414 143.627 148.688 140.848 148.688 138.355C148.688 135.861 150.408 135.065 152.783 136.392C155.151 137.725 156.878 140.477 156.878 142.951ZM151.22 139.787C151.22 140.935 151.964 142.195 152.817 142.672C153.67 143.15 154.346 142.686 154.346 141.538C154.346 140.391 153.663 139.19 152.817 138.713C151.957 138.229 151.22 138.64 151.22 139.787Z" fill="#A156FF"/>
<path d="M159.629 140.325L162.577 146.274V141.976L164.809 143.229V151.592L162.748 150.438L159.813 144.523V148.794L157.567 147.534V139.171L159.629 140.331V140.325Z" fill="#A156FF"/>
<path d="M172.106 147.321V149.503L169.977 148.31V154.491L167.512 153.105V146.923L165.396 145.736V143.554L172.106 147.321Z" fill="#A156FF"/>
<path d="M176.912 157.203L174.113 155.631L173.731 156.6L171.199 155.18L174.345 148.581L176.878 150.001L179.908 160.062L177.28 158.589L176.905 157.197L176.912 157.203ZM176.304 154.882L175.54 152.004L174.755 154.006L176.304 154.875V154.882Z" fill="#A156FF"/>
<path d="M183.826 156.116C182.932 155.611 182.283 156.049 182.283 157.157C182.283 158.264 182.932 159.451 183.826 159.955C184.358 160.254 185.027 160.261 185.519 159.955L186.945 162.462C186.113 163.013 184.85 162.96 183.703 162.31C181.416 161.03 179.758 158.271 179.758 155.777C179.758 153.284 181.457 152.488 183.799 153.794C184.939 154.431 186.181 155.724 186.945 157.09L185.519 158.185C185.075 157.256 184.406 156.434 183.826 156.116Z" fill="#A156FF"/>
<path d="M193.675 159.418V161.6L191.546 160.406V166.588L189.082 165.201V159.02L186.966 157.833V155.651L193.675 159.418Z" fill="#A156FF"/>
<path d="M200.958 169.685C201.566 170.023 202.03 169.764 202.03 168.929V164.107L204.501 165.493V170.315C204.501 172.537 203.109 173.193 200.952 171.986C198.781 170.766 197.348 168.517 197.348 166.302V161.481L199.812 162.867V167.688C199.812 168.511 200.344 169.347 200.958 169.691V169.685Z" fill="#A156FF"/>
<path d="M208.48 169.718C208.2 169.565 208.023 169.559 208.023 169.811C208.023 170.859 211.886 172.371 211.886 175.402C211.886 177.265 210.432 177.272 208.746 176.324C207.449 175.594 206.002 174.294 205.013 172.895L205.927 171.33C206.692 172.477 208.009 173.797 208.767 174.221C209.129 174.427 209.361 174.427 209.361 174.128C209.361 173.041 205.497 171.595 205.497 168.657C205.497 166.986 206.753 166.641 208.685 167.728C209.866 168.392 211.088 169.473 211.927 170.54L211.033 172.139C210.275 171.25 209.122 170.089 208.473 169.725L208.48 169.718Z" fill="#A156FF"/>
<path d="M133.139 175.859C135.603 172.921 137.084 169.174 137.084 165.095C137.084 155.684 129.228 148.051 119.542 148.051C109.856 148.051 102 155.684 102 165.095C102 174.506 109.856 182.14 119.542 182.14C122.832 182.14 125.91 181.258 128.545 179.726L137.084 183.327L133.139 175.859Z" fill="#A056FF"/>
<path opacity="0.4" d="M133.139 175.859C135.603 172.921 137.084 169.174 137.084 165.095C137.084 155.684 129.228 148.051 119.542 148.051C109.856 148.051 102 155.684 102 165.095C102 174.506 109.856 182.14 119.542 182.14C122.832 182.14 125.91 181.258 128.545 179.726L137.084 183.327L133.139 175.859Z" fill="black"/>
<path d="M113.044 164.187C113.044 163.921 112.853 163.782 112.505 163.782C111.904 163.782 111.119 164.167 110.348 164.77L109.378 162.94C110.505 162.184 111.665 161.733 112.907 161.733C114.545 161.733 115.781 162.568 115.781 163.815C115.781 164.704 115.112 165.559 114.225 166.415L113.01 167.589H115.897V169.539H109.692L109.679 167.94L112.443 165.168C112.771 164.836 113.044 164.458 113.044 164.193V164.187Z" fill="white"/>
<path d="M120.948 161.839L119.064 166.236H119.828V164.757H122.211V166.236H123.112V168.046H122.211V169.539H119.828V168.046H116.457V166.402L118.484 161.845H120.941L120.948 161.839Z" fill="white"/>
<path d="M130.443 165.712V169.539H127.904V166.428C127.904 165.924 127.61 165.606 127.173 165.606C126.675 165.606 126.361 165.99 126.361 166.567V169.539H123.822V161.408H126.361V164.399C126.777 163.782 127.419 163.437 128.231 163.437C129.528 163.437 130.443 164.339 130.443 165.719V165.712Z" fill="white"/>
<path d="M213.238 227.337V309.741C213.238 313.833 208.679 316.393 205.027 314.344L159.35 288.717L151.261 284.181C149.555 283.226 148.039 282.019 146.763 280.626C143.801 277.41 142.087 273.198 142.087 268.748V186.338C142.087 182.246 146.64 179.692 150.299 181.735L204.065 211.904C209.744 215.088 213.238 220.971 213.238 227.337Z" fill="#A156FF"/>
<path opacity="0.5" d="M213.238 227.337V309.741C213.238 313.833 208.679 316.393 205.027 314.344L159.35 288.717L151.261 284.181C149.555 283.226 148.039 282.019 146.763 280.626C143.801 277.41 142.087 273.198 142.087 268.748V186.338C142.087 182.246 146.64 179.692 150.299 181.735L204.065 211.904C209.744 215.088 213.238 220.971 213.238 227.337Z" fill="white"/>
<path d="M186.925 276.09C186.925 276.09 195.478 289.871 189.294 305.41L159.343 288.711L186.919 276.09H186.925Z" fill="#263238"/>
<path d="M200.56 214.173C201.208 209.065 197.471 204.415 192.214 203.786C186.958 203.157 182.171 206.788 181.524 211.895C180.877 217.003 184.613 221.653 189.87 222.282C195.127 222.911 199.913 219.28 200.56 214.173Z" fill="#263238"/>
<path d="M191.089 186.895C191.089 186.895 194.031 182.233 194.939 182.591C195.84 182.949 194.352 187.353 194.352 187.353C194.352 187.353 198.802 188.254 197.969 189.329C197.136 190.41 191.703 190.158 191.703 190.158L191.089 186.888V186.895Z" fill="#263238"/>
<path d="M193.157 198.859C191.089 213.808 178.141 213.808 178.141 213.808L150.961 202.189C150.961 202.189 148.913 200.444 148.285 196.432C148.067 195.059 148.019 193.414 148.285 191.484C148.285 191.471 148.285 191.451 148.285 191.438C149.152 185.151 153.991 178.393 164.53 176.317C166.633 175.892 168.967 175.667 171.54 175.667C172.714 175.667 173.847 175.72 174.933 175.833C183.158 176.609 188.864 180.329 191.601 186.099C192.202 187.366 192.652 188.725 192.952 190.178C193.512 192.797 193.58 195.702 193.15 198.853L193.157 198.859Z" fill="#263238"/>
<path d="M127.924 227.775C127.924 227.775 118.28 227.457 114.56 236.589C114.56 236.589 118.662 239.275 124.034 236.602C129.399 233.93 127.924 227.782 127.924 227.782V227.775Z" fill="#A156FF"/>
<path opacity="0.5" d="M127.924 227.775C127.924 227.775 118.28 227.457 114.56 236.589C114.56 236.589 118.662 239.275 124.034 236.602C129.399 233.93 127.924 227.782 127.924 227.782V227.775Z" fill="black"/>
<path d="M127.651 232.172C127.651 232.172 124.928 220.652 123.487 220.506C121.972 220.354 121.767 224.021 121.883 226.084L118.443 218.954C117.993 218.013 116.819 217.648 115.877 218.152C112.457 219.976 106.478 225.52 119.099 239.229L127.644 232.172H127.651Z" fill="#945959"/>
<path d="M162.599 224.207L160.565 223.948C156.36 223.405 152.183 225.109 149.637 228.405L137.453 244.163L127.924 227.775C127.924 227.775 126.771 238.917 114.56 236.589L127.679 258.031C131.262 263.887 139.753 264.497 144.183 259.205L155.404 245.801L162.599 224.207Z" fill="#A156FF"/>
<path d="M188.605 260.982C185.874 267.707 185.574 269.02 187.274 272.383C188.959 275.738 190.017 280.102 190.017 280.102C190.017 280.102 177.363 293.884 159.35 288.717L151.261 284.181C149.555 283.226 148.04 282.019 146.763 280.626L149.179 262.806C149.302 261.864 149.207 260.902 148.893 260.007L146.313 252.645C143.739 245.297 145.726 237.166 151.446 231.741L160.141 223.484L182.98 226.283L186.373 227.231C190.987 228.518 193.929 232.915 193.273 237.538C192.147 245.397 190.325 256.744 188.605 260.975V260.982Z" fill="#A156FF"/>
<path opacity="0.5" d="M188.605 260.982C185.874 267.707 185.574 269.02 187.274 272.383C188.959 275.738 190.017 280.102 190.017 280.102C190.017 280.102 177.363 293.884 159.35 288.717L151.261 284.181C149.555 283.226 148.04 282.019 146.763 280.626L149.179 262.806C149.302 261.864 149.207 260.902 148.893 260.007L146.313 252.645C143.739 245.297 145.726 237.166 151.446 231.741L160.141 223.484L182.98 226.283L186.373 227.231C190.987 228.518 193.929 232.915 193.273 237.538C192.147 245.397 190.325 256.744 188.605 260.975V260.982Z" fill="black"/>
<path d="M174.83 240.913L170.257 237.126C169.267 236.311 167.909 236.059 166.68 236.47L161.151 238.314L160.407 235.303C159.916 233.326 157.834 232.146 155.821 232.709L153.425 233.379L157.486 225.832C158.81 223.371 160.844 221.349 163.343 220.009L164.933 219.16L178.072 219.817C178.072 219.817 182.973 221.786 182.973 226.283L174.83 240.907" fill="#A156FF"/>
<path d="M178.134 225.447L164.96 235.422V203.667H178.134V225.447Z" fill="#945959"/>
<path d="M165.165 222.834L161.158 238.314L178.079 225.447L165.165 222.834Z" fill="#945959"/>
<path d="M164.96 220.533C170.032 218.63 175.329 214.816 178.141 208.356V203.667H164.96V220.533Z" fill="#703838"/>
<path d="M167.8 180.13C162.803 180.13 152.176 182.836 150.947 195.543C149.719 208.25 150.906 218.106 157.65 219.054C164.394 220.002 180.066 215.254 182.161 198.806C184.256 182.359 172.666 180.137 167.793 180.137L167.8 180.13Z" fill="#945959"/>
<path d="M159.937 200.915V208.409L155.418 207.063L159.937 200.915Z" fill="#703838"/>
<path d="M164.961 203.74C165.828 203.74 166.53 203.058 166.53 202.215C166.53 201.373 165.828 200.69 164.961 200.69C164.093 200.69 163.391 201.373 163.391 202.215C163.391 203.058 164.093 203.74 164.961 203.74Z" fill="#263238"/>
<path d="M156.196 201.147C156.196 201.99 155.493 202.673 154.627 202.673C153.76 202.673 153.057 201.99 153.057 201.147C153.057 200.305 153.76 199.622 154.627 199.622C155.493 199.622 156.196 200.305 156.196 201.147Z" fill="#263238"/>
<path d="M152.708 197.971L155.78 196.2C155.78 196.2 154.599 195.013 153.425 195.722C152.251 196.432 152.708 197.971 152.708 197.971Z" fill="#263238"/>
<path d="M157.814 211.447C157.814 211.447 160.305 211.666 162.046 210.346C162.046 210.346 162.333 212.508 160.469 212.926C158.606 213.337 157.814 211.447 157.814 211.447Z" fill="#703838"/>
<path d="M155.131 184.448C155.131 184.448 157.008 201.99 181.56 202.54C181.56 202.54 188.98 185.104 174.318 179.44C159.657 173.777 155.131 184.448 155.131 184.448Z" fill="#263238"/>
<path d="M188.789 199.914L188.775 199.907C188.775 199.907 188.768 199.907 188.761 199.907L185.745 198.216C184.605 197.559 183.014 197.646 181.26 198.634C177.779 200.59 174.953 205.339 174.953 209.245C174.953 211.202 175.663 212.574 176.803 213.211L179.765 214.862C179.82 214.896 179.881 214.929 179.936 214.962L180.038 215.015C181.158 215.532 182.652 215.413 184.297 214.484C187.779 212.528 190.604 207.779 190.604 203.873C190.604 201.93 189.908 200.564 188.775 199.92L188.789 199.914Z" fill="#A156FF"/>
<path d="M188.767 209.904C191.228 205.761 191.228 201.283 188.767 199.902C186.305 198.521 182.314 200.76 179.853 204.903C177.391 209.046 177.391 213.524 179.853 214.904C182.314 216.285 186.305 214.046 188.767 209.904Z" fill="#A156FF"/>
<path opacity="0.5" d="M188.767 209.904C191.228 205.761 191.228 201.283 188.767 199.902C186.305 198.521 182.314 200.76 179.853 204.903C177.391 209.046 177.391 213.524 179.853 214.904C182.314 216.285 186.305 214.046 188.767 209.904Z" fill="black"/>
<path d="M189.997 203.594H189.99C189.99 203.594 189.99 203.594 189.983 203.594L187.915 202.434C187.13 201.989 186.052 202.043 184.85 202.719C182.468 204.059 180.537 207.308 180.537 209.981C180.537 211.321 181.021 212.263 181.806 212.694L183.833 213.828C183.874 213.854 183.909 213.874 183.949 213.894L184.018 213.934C184.789 214.292 185.806 214.206 186.932 213.576C189.314 212.236 191.246 208.986 191.246 206.314C191.246 204.987 190.768 204.052 189.997 203.608V203.594Z" fill="#A156FF"/>
<path d="M191.253 206.3C191.253 208.973 189.321 212.223 186.939 213.563C184.557 214.902 182.625 213.815 182.625 211.142C182.625 208.469 184.557 205.219 186.939 203.88C189.321 202.54 191.253 203.628 191.253 206.3Z" fill="#A156FF"/>
<path opacity="0.3" d="M191.253 206.3C191.253 208.973 189.321 212.223 186.939 213.563C184.557 214.902 182.625 213.815 182.625 211.142C182.625 208.469 184.557 205.219 186.939 203.88C189.321 202.54 191.253 203.628 191.253 206.3Z" fill="black"/>
<path d="M179.417 176.701C177.472 175.222 175.062 174.44 172.591 174.407C172.393 174.407 172.196 174.407 171.998 174.407C169.26 174.407 166.776 174.652 164.537 175.096C164.988 175.076 165.438 175.083 165.882 175.096H164.537V176.323H165.807C168.523 176.416 171.219 177.139 173.649 178.499C178.864 181.423 182.1 186.875 182.1 192.724V197.944C182.1 198.813 182.864 199.502 183.772 199.41C183.826 199.41 183.874 199.39 183.929 199.376L185.274 198.972C185.185 198.998 185.089 199.018 184.994 199.025C185.833 198.939 186.441 198.196 186.441 197.374V192.532C186.441 183.771 182.543 179.062 179.424 176.695L179.417 176.701Z" fill="#A156FF"/>
<path d="M170.824 218.682C170.271 218.682 169.711 218.57 169.192 218.331L164.926 216.414C164.674 216.302 164.558 216.003 164.681 215.758C164.797 215.512 165.104 215.406 165.356 215.519L169.622 217.436C170.735 217.94 172.059 217.694 172.912 216.832L176.981 212.72C177.178 212.521 177.499 212.515 177.697 212.707C177.902 212.899 177.909 213.211 177.711 213.403L173.643 217.515C172.892 218.278 171.868 218.676 170.831 218.676L170.824 218.682Z" fill="#A156FF"/>
<path opacity="0.5" d="M170.824 218.682C170.271 218.682 169.711 218.57 169.192 218.331L164.926 216.414C164.674 216.302 164.558 216.003 164.681 215.758C164.797 215.512 165.104 215.406 165.356 215.519L169.622 217.436C170.735 217.94 172.059 217.694 172.912 216.832L176.981 212.72C177.178 212.521 177.499 212.515 177.697 212.707C177.902 212.899 177.909 213.211 177.711 213.403L173.643 217.515C172.892 218.278 171.868 218.676 170.831 218.676L170.824 218.682Z" fill="black"/>
<path d="M166.046 215.008C166.046 216.076 165.152 216.945 164.053 216.945C162.954 216.945 162.06 216.076 162.06 215.008C162.06 213.941 162.954 213.072 164.053 213.072C165.152 213.072 166.046 213.941 166.046 215.008Z" fill="#A156FF"/>
<path opacity="0.5" d="M166.046 215.008C166.046 216.076 165.152 216.945 164.053 216.945C162.954 216.945 162.06 216.076 162.06 215.008C162.06 213.941 162.954 213.072 164.053 213.072C165.152 213.072 166.046 213.941 166.046 215.008Z" fill="black"/>
<path d="M186.434 192.539V197.38C186.434 198.203 185.826 198.945 184.987 199.032C184.024 199.131 183.212 198.395 183.212 197.473V192.539C183.212 186.318 179.765 180.521 174.223 177.411C171.24 175.74 167.868 174.964 164.537 175.096C166.776 174.645 169.254 174.407 171.998 174.407C172.196 174.407 172.393 174.407 172.591 174.407C175.062 174.44 177.472 175.222 179.417 176.701C182.536 179.069 186.434 183.784 186.434 192.539Z" fill="#A156FF"/>
<path opacity="0.5" d="M186.434 192.539V197.38C186.434 198.203 185.826 198.945 184.987 199.032C184.024 199.131 183.212 198.395 183.212 197.473V192.539C183.212 186.318 179.765 180.521 174.223 177.411C171.24 175.74 167.868 174.964 164.537 175.096C166.776 174.645 169.254 174.407 171.998 174.407C172.196 174.407 172.393 174.407 172.591 174.407C175.062 174.44 177.472 175.222 179.417 176.701C182.536 179.069 186.434 183.784 186.434 192.539Z" fill="black"/>
<path d="M178.762 283.783C178.762 283.783 175.458 292.637 187.266 296.59C187.266 296.59 191.123 291.092 187.266 286.589C183.41 282.085 178.762 283.783 178.762 283.783Z" fill="#A156FF"/>
<path opacity="0.7" d="M178.762 283.783C178.762 283.783 175.458 292.637 187.266 296.59C187.266 296.59 191.123 291.092 187.266 286.589C183.41 282.085 178.762 283.783 178.762 283.783Z" fill="black"/>
<path d="M182.885 284.181C182.885 284.181 171.356 288.293 171.411 289.878C171.465 291.463 176.312 290.389 176.312 290.389L174.544 291.516C172.68 292.697 171.24 294.408 170.414 296.411C170.039 297.326 170.428 298.367 171.329 298.831L175.711 301.086C176.755 301.624 178.045 301.219 178.571 300.191C179.056 299.236 179.929 298.526 180.967 298.188C183.349 297.419 187.772 295.197 189.574 289.142L182.885 284.188V284.181Z" fill="#945959"/>
<path d="M186.366 227.238C186.366 227.238 180.229 230.567 183.485 240.621C186.741 250.682 192.877 266.308 192.877 266.308L178.762 283.783C178.762 283.783 183.485 284.088 186.345 288.18C189.205 292.272 187.267 296.59 187.267 296.59L204.781 274.73C208.071 270.618 209.006 265.174 207.266 260.252L199.73 238.95C197.867 233.678 193.567 229.553 188.12 227.802L186.366 227.238Z" fill="#A156FF"/>
<path d="M49.2814 192.63L22.1357 177.402C21.3166 176.945 20.5658 176.892 19.9719 177.17C19.8969 177.203 19.8286 177.243 19.7603 177.29L13.8561 180.652C13.8561 180.652 13.8834 180.639 13.8903 180.632C13.1463 181.043 12.6753 181.998 12.6753 183.358V212.685C12.6753 215.166 14.2247 218.051 16.1427 219.125L43.2885 234.352C44.2168 234.87 45.0563 234.87 45.6774 234.452C45.6638 234.465 45.6501 234.478 45.6297 234.485L51.4929 231.142C52.2574 230.744 52.742 229.776 52.742 228.39V199.063C52.742 196.582 51.1926 193.697 49.2746 192.623L49.2814 192.63Z" fill="#A156FF"/>
<path d="M51.7794 195.409C51.1515 194.208 50.2641 193.18 49.2812 192.63L22.1355 177.402C21.3164 176.945 20.5656 176.892 19.9718 177.17C19.8967 177.203 19.8284 177.243 19.7602 177.29L13.856 180.652C14.4703 180.294 15.2689 180.321 16.1494 180.818L43.2951 196.045C44.3121 196.616 45.22 197.697 45.8547 198.95L51.7794 195.409Z" fill="#A156FF"/>
<path d="M46.763 231.806C46.763 233.119 46.3261 234.054 45.6367 234.485L51.5 231.142C52.2645 230.744 52.7491 229.776 52.7491 228.39V199.063C52.7491 197.856 52.3805 196.549 51.7798 195.402L45.8551 198.944C46.4148 200.058 46.763 201.311 46.763 202.472V231.799V231.806Z" fill="#A156FF"/>
<path opacity="0.3" d="M51.7794 195.409C51.1515 194.208 50.2641 193.18 49.2812 192.63L22.1355 177.402C21.3164 176.945 20.5656 176.892 19.9718 177.17C19.8967 177.203 19.8284 177.243 19.7602 177.29L13.856 180.652C14.4703 180.294 15.2689 180.321 16.1494 180.818L43.2951 196.045C44.3121 196.616 45.22 197.697 45.8547 198.95L51.7794 195.409Z" fill="black"/>
<path opacity="0.6" d="M46.763 231.806C46.763 233.119 46.3261 234.054 45.6367 234.485L51.5 231.142C52.2645 230.744 52.7491 229.776 52.7491 228.39V199.063C52.7491 197.856 52.3805 196.549 51.7798 195.402L45.8551 198.944C46.4148 200.058 46.763 201.311 46.763 202.472V231.799V231.806Z" fill="black"/>
<path d="M38.8039 210.888C38.8039 214.681 37.2545 215.981 34.9269 214.675C33.6437 213.952 32.7359 212.811 32.34 211.379C31.6779 212.194 30.5994 212.247 29.1046 211.412C26.6678 210.046 24.7362 206.796 24.7362 203.599C24.7362 200.403 26.6474 199.328 29.1046 200.701C30.3537 201.404 31.3366 202.439 32.0192 203.732V202.478L34.5924 203.918V210.788C34.5924 211.81 34.9883 212.367 35.5003 212.652C36.3671 213.143 36.8995 212.314 36.8995 209.853C36.8995 205.549 34.0669 200.986 29.8691 198.632C25.6508 196.264 22.8386 197.909 22.8386 202.346C22.8386 206.783 25.5962 211.617 29.794 213.972C30.9817 214.642 32.3263 215.119 33.5208 215.126L34.1283 217.414C32.9748 217.427 31.2888 216.844 29.8008 216.001C24.3334 212.937 20.7295 206.756 20.7295 201.152C20.7295 195.548 24.3812 193.525 29.8759 196.616C35.1863 199.593 38.8175 205.556 38.8175 210.881L38.8039 210.888ZM32.0533 207.698C32.0533 205.854 31.0499 204.249 29.6916 203.486C28.3128 202.711 27.3504 203.254 27.3504 205.058C27.3504 206.862 28.3128 208.527 29.6916 209.303C31.0499 210.066 32.0533 209.568 32.0533 207.704V207.698Z" fill="#A156FF"/>
<g opacity="0.9">
<path d="M38.8039 210.888C38.8039 214.681 37.2545 215.981 34.9269 214.675C33.6437 213.952 32.7359 212.811 32.34 211.379C31.6779 212.194 30.5994 212.247 29.1046 211.412C26.6678 210.046 24.7362 206.796 24.7362 203.599C24.7362 200.403 26.6474 199.328 29.1046 200.701C30.3537 201.404 31.3366 202.439 32.0192 203.732V202.478L34.5924 203.918V210.788C34.5924 211.81 34.9883 212.367 35.5003 212.652C36.3671 213.143 36.8995 212.314 36.8995 209.853C36.8995 205.549 34.0669 200.986 29.8691 198.632C25.6508 196.264 22.8386 197.909 22.8386 202.346C22.8386 206.783 25.5962 211.617 29.794 213.972C30.9817 214.642 32.3263 215.119 33.5208 215.126L34.1283 217.414C32.9748 217.427 31.2888 216.844 29.8008 216.001C24.3334 212.937 20.7295 206.756 20.7295 201.152C20.7295 195.548 24.3812 193.525 29.8759 196.616C35.1863 199.593 38.8175 205.556 38.8175 210.881L38.8039 210.888ZM32.0533 207.698C32.0533 205.854 31.0499 204.249 29.6916 203.486C28.3128 202.711 27.3504 203.254 27.3504 205.058C27.3504 206.862 28.3128 208.527 29.6916 209.303C31.0499 210.066 32.0533 209.568 32.0533 207.704V207.698Z" fill="white"/>
</g>
<path d="M49.2819 244.87L22.1362 229.643C21.3171 229.186 20.5663 229.132 19.9724 229.411C19.8973 229.444 19.8291 229.484 19.7608 229.53L13.8566 232.893C13.8566 232.893 13.8839 232.88 13.8908 232.873C13.1468 233.284 12.6758 234.239 12.6758 235.599V264.926C12.6758 267.406 14.2252 270.291 16.1432 271.366L43.2889 286.593C44.2172 287.11 45.0568 287.11 45.6779 286.692C45.6643 286.706 45.6506 286.719 45.6302 286.726L51.4934 283.383C52.2579 282.985 52.7425 282.017 52.7425 280.631V251.304C52.7425 248.823 51.1931 245.938 49.2751 244.864L49.2819 244.87Z" fill="#A156FF"/>
<path d="M51.7799 247.649C51.152 246.449 50.2646 245.421 49.2817 244.87L22.136 229.643C21.3169 229.186 20.5661 229.132 19.9723 229.411C19.8972 229.444 19.8289 229.484 19.7607 229.53L13.8564 232.893C14.4708 232.535 15.2694 232.561 16.1499 233.059L43.2956 248.286C44.3126 248.856 45.2204 249.937 45.8552 251.191L51.7799 247.649Z" fill="#A156FF"/>
<path d="M46.7634 284.053C46.7634 285.366 46.3266 286.301 45.6372 286.732L51.5005 283.39C52.2649 282.992 52.7496 282.023 52.7496 280.637V251.31C52.7496 250.103 52.381 248.797 51.7803 247.649L45.8556 251.191C46.4153 252.305 46.7634 253.558 46.7634 254.719V284.046V284.053Z" fill="#A156FF"/>
<path opacity="0.3" d="M51.7799 247.649C51.152 246.449 50.2646 245.421 49.2817 244.87L22.136 229.643C21.3169 229.186 20.5661 229.132 19.9723 229.411C19.8972 229.444 19.8289 229.484 19.7607 229.53L13.8564 232.893C14.4708 232.535 15.2694 232.561 16.1499 233.059L43.2956 248.286C44.3126 248.856 45.2204 249.937 45.8552 251.191L51.7799 247.649Z" fill="black"/>
<path opacity="0.6" d="M46.7634 284.053C46.7634 285.366 46.3266 286.301 45.6372 286.732L51.5005 283.39C52.2649 282.992 52.7496 282.023 52.7496 280.637V251.31C52.7496 250.103 52.381 248.797 51.7803 247.649L45.8556 251.191C46.4153 252.305 46.7634 253.558 46.7634 254.719V284.046V284.053Z" fill="black"/>
<path d="M26.6889 257.982L20.1431 247.649V261.656L26.6889 257.982Z" fill="#A156FF"/>
<path d="M32.7705 260.96L39.3027 271.956V257.976L32.7705 260.96Z" fill="#A156FF"/>
<path d="M21.1328 247.198L27.8561 257.81C27.8561 257.81 27.9107 257.863 27.9312 257.896C27.9448 257.922 27.9517 257.949 27.9585 257.976L29.9311 261.086L31.6239 260.31C31.6239 260.31 31.6785 260.257 31.7126 260.237C31.7809 260.197 31.856 260.177 31.931 260.171L38.7294 257.067L21.1396 247.198H21.1328Z" fill="#A156FF"/>
<path d="M31.7807 261.418L29.9582 262.253C29.8832 262.286 29.8012 262.306 29.7262 262.306C29.5419 262.306 29.3644 262.213 29.262 262.054L27.2621 258.897L20.689 262.585L38.3606 272.5L31.7807 261.431V261.418Z" fill="#A156FF"/>
<g opacity="0.9">
<path d="M26.6889 257.982L20.1431 247.649V261.656L26.6889 257.982Z" fill="white"/>
<path d="M32.7705 260.96L39.3027 271.956V257.976L32.7705 260.96Z" fill="white"/>
<path d="M21.1328 247.198L27.8561 257.81C27.8561 257.81 27.9107 257.863 27.9312 257.896C27.9448 257.922 27.9517 257.949 27.9585 257.976L29.9311 261.086L31.6239 260.31C31.6239 260.31 31.6785 260.257 31.7126 260.237C31.7809 260.197 31.856 260.177 31.931 260.171L38.7294 257.067L21.1396 247.198H21.1328Z" fill="white"/>
<path d="M31.7807 261.418L29.9582 262.253C29.8832 262.286 29.8012 262.306 29.7262 262.306C29.5419 262.306 29.3644 262.213 29.262 262.054L27.2621 258.897L20.689 262.585L38.3606 272.5L31.7807 261.431V261.418Z" fill="white"/>
</g>
<path d="M55.5304 110.525L18.1469 89.5545C17.0189 88.9243 15.985 88.8512 15.1672 89.2348C15.0638 89.2805 14.9698 89.3353 14.8758 89.3992L6.74484 94.0298C6.74484 94.0298 6.78244 94.0116 6.79184 94.0024C5.76725 94.5687 5.11865 95.8839 5.11865 97.7562V138.144C5.11865 141.56 7.25243 145.533 9.89381 147.012L47.2773 167.982C48.5556 168.695 49.7118 168.695 50.5672 168.119C50.5484 168.138 50.5296 168.156 50.5014 168.165L58.576 163.562C59.6288 163.014 60.2961 161.68 60.2961 159.772V119.384C60.2961 115.968 58.1624 111.995 55.521 110.515L55.5304 110.525Z" fill="#A156FF"/>
<path d="M58.971 114.351C58.1062 112.698 56.8843 111.283 55.5307 110.525L18.1472 89.5545C17.0192 88.9243 15.9852 88.8512 15.1674 89.2348C15.064 89.2805 14.97 89.3353 14.876 89.3992L6.74512 94.0298C7.59111 93.5366 8.6909 93.5731 9.90349 94.2581L47.2869 115.228C48.6875 116.014 49.9377 117.502 50.8119 119.229L58.971 114.351Z" fill="#A156FF"/>
<path d="M52.0617 164.484C52.0617 166.293 51.4601 167.58 50.5107 168.174L58.5853 163.571C59.6381 163.023 60.3055 161.689 60.3055 159.781V119.393C60.3055 117.731 59.7979 115.932 58.9707 114.351L50.8115 119.229C51.5823 120.763 52.0617 122.489 52.0617 124.088V164.475V164.484Z" fill="#A156FF"/>
<path opacity="0.3" d="M58.971 114.351C58.1062 112.698 56.8843 111.283 55.5307 110.525L18.1472 89.5545C17.0192 88.9243 15.9852 88.8512 15.1674 89.2348C15.064 89.2805 14.97 89.3353 14.876 89.3992L6.74512 94.0298C7.59111 93.5366 8.6909 93.5731 9.90349 94.2581L47.2869 115.228C48.6875 116.014 49.9377 117.502 50.8119 119.229L58.971 114.351Z" fill="black"/>
<path opacity="0.6" d="M52.0617 164.484C52.0617 166.293 51.4601 167.58 50.5107 168.174L58.5853 163.571C59.6381 163.023 60.3055 161.689 60.3055 159.781V119.393C60.3055 117.731 59.7979 115.932 58.9707 114.351L50.8115 119.229C51.5823 120.763 52.0617 122.489 52.0617 124.088V164.475V164.484Z" fill="black"/>
<path d="M39.8327 147.058C38.3945 144.765 36.9469 142.473 35.5087 140.181C34.8507 139.13 34.1081 138.518 33.2433 138.336C32.5477 138.189 31.8427 138.043 31.1377 137.833C30.9497 137.778 30.6489 137.541 30.5173 137.322C28.1204 133.285 26.2498 129.147 24.9432 124.9C24.8868 124.7 24.9244 124.444 25.0184 124.343C25.4602 123.914 25.9302 123.521 26.4002 123.138C26.983 122.663 27.0864 121.868 26.7574 120.717C26.0618 118.279 25.3944 115.84 24.6988 113.402C24.2476 111.803 23.2324 110.652 22.0104 110.36C20.309 109.958 18.7675 110.013 17.4045 110.525C16.8311 110.744 16.5303 111.246 16.5303 112.105C16.7653 113.776 16.9345 115.429 17.2541 117.128C19.5758 129.376 25.1688 140.665 33.9953 150.958C34.6909 151.771 35.3865 152.154 36.0915 152.127C37.6425 152.063 38.9679 151.57 40.0583 150.638C40.8948 149.926 40.8102 148.629 39.8233 147.049L39.8327 147.058Z" fill="#A156FF"/>
<path d="M39.7197 134.646C39.5693 132.207 38.8267 129.686 37.5013 127.12C36.5425 125.257 35.3675 123.585 33.9764 122.088C33.6004 121.686 33.2902 121.558 33.1116 121.868C32.933 122.179 33.1116 122.599 33.4688 122.992C33.591 123.129 33.7132 123.266 33.8354 123.403C36.5613 126.618 38.1217 130.061 38.5165 133.751C38.5447 134.034 38.4977 134.308 38.6011 134.582C38.7139 134.874 38.9489 135.267 39.1557 135.413C39.3531 135.55 39.5693 135.413 39.7385 135.404C39.7385 135.048 39.7385 134.856 39.7197 134.664V134.646Z" fill="#A156FF"/>
<path d="M31.2037 127.148C32.4538 128.554 33.1118 130.052 33.2434 131.678C33.2622 131.924 33.469 132.253 33.5348 132.408C34.1082 132.865 34.3902 132.71 34.3902 132.143C34.3902 130.426 33.1682 127.723 31.7489 126.289C31.3917 125.933 31.1003 125.823 30.9311 126.125C30.7713 126.399 30.8935 126.8 31.2037 127.148Z" fill="#A156FF"/>
<g opacity="0.9">
<path d="M39.8327 147.058C38.3945 144.765 36.9469 142.473 35.5087 140.181C34.8507 139.13 34.1081 138.518 33.2433 138.336C32.5477 138.189 31.8427 138.043 31.1377 137.833C30.9497 137.778 30.6489 137.541 30.5173 137.322C28.1204 133.285 26.2498 129.147 24.9432 124.9C24.8868 124.7 24.9244 124.444 25.0184 124.343C25.4602 123.914 25.9302 123.521 26.4002 123.138C26.983 122.663 27.0864 121.868 26.7574 120.717C26.0618 118.279 25.3944 115.84 24.6988 113.402C24.2476 111.803 23.2324 110.652 22.0104 110.36C20.309 109.958 18.7675 110.013 17.4045 110.525C16.8311 110.744 16.5303 111.246 16.5303 112.105C16.7653 113.776 16.9345 115.429 17.2541 117.128C19.5758 129.376 25.1688 140.665 33.9953 150.958C34.6909 151.771 35.3865 152.154 36.0915 152.127C37.6425 152.063 38.9679 151.57 40.0583 150.638C40.8948 149.926 40.8102 148.629 39.8233 147.049L39.8327 147.058Z" fill="white"/>
<path d="M39.7197 134.646C39.5693 132.207 38.8267 129.686 37.5013 127.12C36.5425 125.257 35.3675 123.585 33.9764 122.088C33.6004 121.686 33.2902 121.558 33.1116 121.868C32.933 122.179 33.1116 122.599 33.4688 122.992C33.591 123.129 33.7132 123.266 33.8354 123.403C36.5613 126.618 38.1217 130.061 38.5165 133.751C38.5447 134.034 38.4977 134.308 38.6011 134.582C38.7139 134.874 38.9489 135.267 39.1557 135.413C39.3531 135.55 39.5693 135.413 39.7385 135.404C39.7385 135.048 39.7385 134.856 39.7197 134.664V134.646Z" fill="white"/>
<path d="M31.2037 127.148C32.4538 128.554 33.1118 130.052 33.2434 131.678C33.2622 131.924 33.469 132.253 33.5348 132.408C34.1082 132.865 34.3902 132.71 34.3902 132.143C34.3902 130.426 33.1682 127.723 31.7489 126.289C31.3917 125.933 31.1003 125.823 30.9311 126.125C30.7713 126.399 30.8935 126.8 31.2037 127.148Z" fill="white"/>
</g>
</g>
<path d="M41.7772 407.393L51.34 412.784C51.34 412.784 46.4596 397.736 49.0602 382.562C50.0431 376.836 52.1522 373.983 52.8894 372.45C53.6334 370.916 59.3397 361.44 54.2545 357.101C49.1762 352.761 37.3405 361.487 37.9821 384.832C38.3097 396.812 41.784 407.386 41.784 407.386L41.7772 407.393Z" fill="#A056FF"/>
<path opacity="0.5" d="M41.7772 407.393L51.34 412.784C51.34 412.784 46.4596 397.736 49.0602 382.562C50.0431 376.836 52.1522 373.983 52.8894 372.45C53.6334 370.916 59.3397 361.44 54.2545 357.101C49.1762 352.761 37.3405 361.487 37.9821 384.832C38.3097 396.812 41.784 407.386 41.784 407.386L41.7772 407.393Z" fill="black"/>
<path d="M46.2208 410.232C46.0843 410.232 45.9546 410.152 45.9 410.011C45.8659 409.917 42.2142 400.12 42.337 384.383C42.4531 368.565 50.876 360.101 50.9647 360.02C51.1012 359.886 51.3128 359.886 51.4493 360.02C51.5858 360.148 51.5858 360.362 51.4493 360.496C51.3674 360.576 43.1356 368.867 43.0196 384.39C42.9035 400 46.5075 409.683 46.5416 409.783C46.6099 409.957 46.5143 410.152 46.3437 410.212C46.3027 410.225 46.2618 410.232 46.2277 410.232H46.2208Z" fill="white"/>
<path d="M45.7634 409.696L58.8278 417.035C61.6604 418.623 65.3599 417.94 67.1687 415.274C67.9196 414.176 68.3769 412.723 68.1994 410.821C67.5715 404.164 64.6228 402.631 68.2404 399.664C71.8512 396.698 72.7931 396.49 72.5815 393.624C72.3699 390.758 70.3905 389.526 69.4485 388.4C68.5066 387.275 65.8992 384.918 67.6738 381.436C69.4485 377.954 71.8648 374.585 68.1926 373.038C66.0016 372.114 62.3498 373.346 59.9472 375.904C57.5445 378.463 55.5651 380.304 53.2717 380.92C50.9782 381.536 46.1729 381.637 46.3845 385.528C46.5961 389.418 47.6405 390.751 46.6985 392.492C44.9239 395.767 37.204 397.608 45.7566 409.696H45.7634Z" fill="#A056FF"/>
<path d="M52.2205 413.654C52.0499 413.654 51.8997 413.527 51.8793 413.353C51.8588 413.125 49.8725 390.142 65.9743 374.847C66.1108 374.72 66.3224 374.72 66.4589 374.854C66.5886 374.988 66.5886 375.202 66.4521 375.329C50.5755 390.404 52.5414 413.065 52.5618 413.293C52.5823 413.474 52.439 413.641 52.2547 413.654C52.241 413.654 52.2342 413.654 52.2205 413.654Z" fill="white"/>
<path d="M54.8075 393.873C54.63 393.873 54.4867 393.739 54.4662 393.564C53.9338 387.464 49.5722 384.397 49.5312 384.37C49.3742 384.263 49.3401 384.055 49.4493 383.901C49.5585 383.747 49.7701 383.714 49.9271 383.821C50.1182 383.955 54.5891 387.102 55.1488 393.511C55.1624 393.698 55.0259 393.859 54.8416 393.873C54.8348 393.873 54.8211 393.873 54.8143 393.873H54.8075Z" fill="white"/>
<path d="M53.695 397.823C53.6131 397.823 53.5312 397.796 53.4697 397.743C53.3264 397.622 53.3128 397.408 53.4356 397.274C53.5994 397.086 57.6334 392.72 67.0938 393.879C67.2781 393.899 67.4146 394.066 67.3873 394.254C67.3668 394.435 67.1894 394.562 67.0051 394.542C57.9269 393.423 53.9885 397.669 53.9475 397.709C53.8793 397.783 53.7837 397.823 53.6882 397.823H53.695Z" fill="white"/>
<path d="M187.143 76.6428L191.798 79.216V77.6177C191.792 77.5049 191.785 77.3922 191.785 77.2794C191.785 77.1667 191.792 77.0606 191.798 76.9545V76.9147C191.969 74.7924 193.621 73.9833 195.634 75.1174C196.494 75.6015 197.286 76.3642 197.928 77.2529C198.385 74.3746 200.801 73.3333 203.723 74.9715C206.972 76.7953 209.6 81.2189 209.6 84.8666V88.2954C209.6 88.8458 209.907 89.3565 210.392 89.635L213.129 91.1936C214.337 91.8833 215.081 93.1434 215.081 94.503C215.081 95.7167 213.729 96.4794 212.644 95.8692L187.218 81.5969C185.846 80.8276 185 79.4017 185 77.8564C185 76.782 186.194 76.1122 187.15 76.6428H187.143Z" fill="#E6E6E6"/>
<path d="M110.962 3.40417L117.358 6.9735V4.7502C117.351 4.58948 117.338 4.43546 117.338 4.28144C117.338 4.12741 117.344 3.98009 117.358 3.83276V3.77919C117.59 0.839345 119.863 -0.292393 122.634 1.28133C123.815 1.95099 124.9 3.00907 125.781 4.24795C126.409 0.250038 129.733 -1.19644 133.746 1.08043C138.21 3.61177 141.828 9.75932 141.828 14.8153V19.5766C141.828 20.3401 142.244 21.0499 142.92 21.4383L146.681 23.6014C148.34 24.559 149.364 26.3068 149.364 28.1953C149.364 29.8828 147.5 30.9409 146.012 30.0904L111.051 10.275C109.16 9.20349 108 7.22798 108 5.08504C108 3.59838 109.638 2.66084 110.956 3.39748L110.962 3.40417Z" fill="#E6E6E6"/>
<defs>
<filter id="filter0_f_342_22" x="-35.2021" y="204.622" width="299.728" height="206.393" filterUnits="userSpaceOnUse" color-interpolation-filters="sRGB">
<feFlood flood-opacity="0" result="BackgroundImageFix"/>
<feBlend mode="normal" in="SourceGraphic" in2="BackgroundImageFix" result="shape"/>
<feGaussianBlur stdDeviation="25" result="effect1_foregroundBlur_342_22"/>
</filter>
<clipPath id="clip0_342_22">
<rect width="269" height="303.717" fill="white" transform="translate(0 83.2684)"/>
</clipPath>
</defs>
</svg>
