<svg width="509" height="560" viewBox="0 0 509 560" fill="none" xmlns="http://www.w3.org/2000/svg">
<g clip-path="url(#clip0_290_152)">
<g filter="url(#filter0_f_290_152)">
<path d="M64.0994 220.041L41.8871 234.867C38.6834 236.99 38.8341 241.726 42.1635 243.649L169.181 316.983C173.917 319.722 179.747 319.71 184.483 316.958L433.757 171.859C436.094 170.503 436.157 167.148 433.87 165.703L418.14 155.853L183.83 287.484L64.112 220.029L64.0994 220.041Z" fill="#F2F2F2"/>
</g>
<path d="M52.8802 199.299V228.622C52.8802 230.884 54.0863 232.97 56.0337 234.1L164.382 297.082L165.349 297.648L167.699 299.017C169.558 299.846 171.38 300.11 173.051 300.06L172.322 268.286L52.8677 199.299H52.8802Z" fill="#252B3D"/>
<path d="M172.334 268.286L173.063 300.06C176.141 299.972 178.654 298.841 179.747 298.263C179.76 298.263 179.785 298.251 179.797 298.238L180.325 297.937L413.994 163.027C416.557 161.545 418.128 158.818 418.128 155.853V127.384L172.334 268.286Z" fill="#121212"/>
<path d="M97.1919 192.778L200.427 252.77L401.18 136.869L297.254 77.2922L97.1919 192.778Z" fill="white"/>
<path d="M97.1919 192.778L200.427 252.77L401.18 136.869L297.254 77.2922L97.1919 192.778Z" fill="white"/>
<path d="M85.269 238.56V242.87C85.269 243.209 85.4449 243.536 85.7465 243.699L127.131 267.595C127.772 267.96 128.563 267.507 128.563 266.766V262.457C128.563 262.117 128.375 261.791 128.086 261.627L86.7013 237.731C86.0605 237.367 85.269 237.819 85.269 238.56Z" fill="#6B749B"/>
<path d="M85.269 238.56V241.01C85.269 241.35 85.4449 241.676 85.7465 241.84L127.131 265.736C127.772 266.1 128.563 265.648 128.563 264.907V262.457C128.563 262.117 128.375 261.791 128.086 261.627L86.7013 237.731C86.0605 237.367 85.269 237.819 85.269 238.56Z" fill="#222222"/>
<path d="M146.051 276.804C146.177 279.367 147.345 281.39 148.665 281.327C148.828 281.327 148.979 281.277 149.117 281.214C150.185 280.75 150.926 278.827 150.813 276.566C150.7 274.392 149.846 272.596 148.778 272.156C148.589 272.068 148.388 272.03 148.2 272.043C146.881 272.106 145.913 274.241 146.039 276.804H146.051Z" fill="#6B749B"/>
<path d="M147.094 276.804C147.207 278.978 148.061 280.775 149.129 281.214C150.197 280.749 150.939 278.827 150.825 276.566C150.712 274.392 149.858 272.596 148.79 272.156C147.71 272.621 146.981 274.543 147.094 276.804Z" fill="#222222"/>
<path d="M416.319 130.424L181.405 266.05C176.254 269.028 169.897 269.015 164.746 266.025L54.7521 202.151C52.2645 200.706 52.2771 197.113 54.7521 195.68L295.357 56.7756C296.513 56.1097 297.932 56.1097 299.088 56.7756L416.294 123.954C418.794 125.386 418.806 128.992 416.294 130.437L416.319 130.424Z" fill="#222222"/>
<path d="M111.112 220.682C111.112 225.13 118.135 228.736 126.804 228.736C135.473 228.736 142.496 225.13 142.496 220.682C142.496 216.235 135.473 212.629 126.804 212.629C118.135 212.629 111.112 216.235 111.112 220.682Z" fill="#6B749B"/>
<path d="M97.1792 183.142L137.018 206.309L155.072 216.762L192.21 238.372L200.427 243.134L233.632 223.987L266.486 205.003L284.54 194.575L329.517 168.618L370.939 144.697L401.167 127.233L370.939 109.908L329.517 86.1497L297.241 67.6558L284.54 74.9679L266.486 85.3958L233.632 104.38L192.21 128.301L155.072 149.735L137.018 160.163L97.1792 183.142Z" fill="white"/>
<path d="M200.577 220.682C200.125 220.682 199.66 220.569 199.233 220.318L129.92 180.039C128.651 179.297 128.211 177.664 128.952 176.395C129.694 175.126 131.327 174.686 132.596 175.428L201.909 215.707C203.178 216.448 203.618 218.082 202.876 219.35C202.386 220.205 201.482 220.682 200.565 220.682H200.577Z" fill="#E5E5E5"/>
<path d="M219.322 210.367C218.87 210.367 218.405 210.254 217.978 210.003L148.664 169.724C147.396 168.982 146.956 167.349 147.697 166.08C148.438 164.811 150.072 164.372 151.341 165.113L220.654 205.392C221.923 206.133 222.362 207.767 221.621 209.036C221.131 209.89 220.226 210.367 219.309 210.367H219.322Z" fill="#E5E5E5"/>
<path d="M238.054 200.04C237.602 200.04 237.137 199.927 236.71 199.676L167.397 159.396C166.128 158.655 165.688 157.022 166.43 155.753C167.171 154.484 168.804 154.044 170.073 154.785L239.386 195.065C240.655 195.806 241.095 197.439 240.353 198.708C239.863 199.563 238.959 200.04 238.042 200.04H238.054Z" fill="#E5E5E5"/>
<path d="M256.787 189.713C256.334 189.713 255.87 189.6 255.442 189.348L186.129 149.069C184.86 148.328 184.421 146.694 185.162 145.425C185.903 144.156 187.536 143.717 188.805 144.458L258.118 184.737C259.387 185.479 259.827 187.112 259.086 188.381C258.596 189.235 257.691 189.713 256.774 189.713H256.787Z" fill="#E5E5E5"/>
<path d="M275.531 179.385C275.079 179.385 274.614 179.272 274.187 179.021L204.874 138.742C203.605 138 203.165 136.367 203.907 135.098C204.648 133.829 206.281 133.389 207.55 134.131L276.863 174.41C278.132 175.151 278.572 176.785 277.831 178.053C277.341 178.908 276.436 179.385 275.519 179.385H275.531Z" fill="#E5E5E5"/>
<path d="M294.264 169.058C293.812 169.058 293.347 168.945 292.92 168.693L223.606 128.414C222.337 127.673 221.898 126.04 222.639 124.771C223.38 123.502 225.013 123.062 226.282 123.803L295.596 164.083C296.864 164.824 297.304 166.457 296.563 167.726C296.073 168.58 295.168 169.058 294.251 169.058H294.264Z" fill="#E5E5E5"/>
<path d="M312.996 158.73C312.544 158.73 312.079 158.617 311.652 158.366L242.339 118.087C241.07 117.345 240.63 115.712 241.371 114.443C242.113 113.174 243.746 112.735 245.015 113.476L314.328 153.755C315.597 154.496 316.037 156.13 315.295 157.399C314.805 158.253 313.901 158.73 312.984 158.73H312.996Z" fill="#E5E5E5"/>
<path d="M331.741 148.403C331.289 148.403 330.824 148.29 330.397 148.039L261.083 107.759C259.815 107.018 259.375 105.385 260.116 104.116C260.857 102.847 262.491 102.407 263.759 103.148L333.073 143.428C334.342 144.169 334.781 145.802 334.04 147.071C333.55 147.926 332.645 148.403 331.728 148.403H331.741Z" fill="#E5E5E5"/>
<path d="M350.473 138.076C350.021 138.076 349.556 137.963 349.129 137.711L279.816 97.4319C278.547 96.6906 278.107 95.0573 278.848 93.7884C279.59 92.5195 281.223 92.0797 282.492 92.821L351.805 133.1C353.074 133.842 353.514 135.475 352.772 136.744C352.282 137.598 351.378 138.076 350.461 138.076H350.473Z" fill="#E5E5E5"/>
<path d="M369.218 127.748C368.766 127.748 368.301 127.635 367.874 127.384L298.56 87.1045C297.292 86.3632 296.852 84.73 297.593 83.461C298.334 82.1795 299.968 81.7524 301.237 82.4936L370.55 122.773C371.819 123.514 372.258 125.148 371.517 126.416C371.027 127.271 370.122 127.748 369.205 127.748H369.218Z" fill="#E5E5E5"/>
<path opacity="0.1" d="M126.125 154.484L205.376 200.254L302.945 143.918L223.682 98.1605L126.125 154.484Z" fill="#252B3D"/>
<path d="M307.481 54.7779V140.362L220.139 196.221L212.249 201.271C212.249 201.271 212.161 201.334 212.111 201.359C211.432 201.749 210.503 202 209.598 202.038C208.844 202.075 208.103 201.962 207.563 201.648L195.024 194.148C193.768 193.394 193.001 192.037 193.001 190.579V134.482C193.001 133.276 193.517 132.145 194.409 131.367C194.61 131.178 194.836 131.015 195.074 130.877L251.661 98.3741L261.322 72.2164C262.063 70.1936 263.496 68.4975 265.368 67.4171L297.367 48.9358C301.865 46.3351 307.481 49.5891 307.481 54.7779Z" fill="#8800B5"/>
<path d="M193.077 133.628C193.014 133.904 192.989 134.193 192.989 134.482V190.592C192.989 192.049 193.755 193.406 195.012 194.16L207.55 201.661C208.806 202.364 211.043 202.063 212.249 201.284L220.139 196.233L209.824 146.606C204.585 144.156 195.162 137.07 193.077 133.641V133.628Z" fill="#A156FF"/>
<path d="M266.737 93.1099L219.196 120.851C217.186 122.032 215.942 124.18 215.942 126.517V157.072C215.942 162.135 221.433 165.289 225.805 162.738L279.162 131.593V100.246C279.162 93.8638 272.24 89.8936 266.724 93.1099H266.737Z" fill="#E5E5E5"/>
<path d="M271.926 94.4291L223.443 122.723C221.433 123.904 220.189 126.052 220.189 128.389V158.944C220.189 164.007 225.679 167.161 230.051 164.61L273.283 139.382C276.926 137.259 279.175 133.352 279.175 129.13V98.6003C279.175 94.8814 275.142 92.5571 271.926 94.4417V94.4291Z" fill="white"/>
<path d="M229.825 159.308C228.958 159.308 228.267 158.517 228.267 157.549V130.738C228.267 129.771 228.971 128.979 229.825 128.979C230.679 128.979 231.383 129.771 231.383 130.738V157.549C231.383 158.517 230.679 159.308 229.825 159.308Z" fill="#E5E5E5"/>
<path d="M238.054 153.743C237.187 153.743 236.496 152.951 236.496 151.984V125.173C236.496 124.205 237.2 123.414 238.054 123.414C238.908 123.414 239.612 124.205 239.612 125.173V151.984C239.612 152.951 238.908 153.743 238.054 153.743Z" fill="#E5E5E5"/>
<path d="M246.296 148.189C245.429 148.189 244.738 147.398 244.738 146.43V119.619C244.738 118.652 245.441 117.86 246.296 117.86C247.15 117.86 247.854 118.652 247.854 119.619V146.43C247.854 147.398 247.15 148.189 246.296 148.189Z" fill="#E5E5E5"/>
<path d="M254.525 142.624C253.658 142.624 252.967 141.832 252.967 140.865V114.054C252.967 113.086 253.671 112.295 254.525 112.295C255.379 112.295 256.083 113.086 256.083 114.054V140.865C256.083 141.832 255.379 142.624 254.525 142.624Z" fill="#E5E5E5"/>
<path d="M262.767 137.058C261.9 137.058 261.209 136.266 261.209 135.299V108.488C261.209 107.521 261.913 106.729 262.767 106.729C263.621 106.729 264.325 107.521 264.325 108.488V135.299C264.325 136.266 263.621 137.058 262.767 137.058Z" fill="#E5E5E5"/>
<path d="M271.008 131.505C270.141 131.505 269.45 130.713 269.45 129.746V102.935C269.45 101.967 270.154 101.176 271.008 101.176C271.862 101.176 272.566 101.967 272.566 102.935V129.746C272.566 130.713 271.862 131.505 271.008 131.505Z" fill="#E5E5E5"/>
<path d="M312.506 64.4394V144.307C312.506 144.42 312.456 144.508 312.355 144.558L212.098 201.359C211.42 201.749 210.49 202 209.585 202.038V147.021C209.585 146.845 209.673 146.694 209.824 146.606L215.943 143.088L220.189 140.651L228.255 136.015L231.371 134.218L236.484 131.279L239.6 129.482L244.713 126.542L247.829 124.745L252.942 121.806L256.058 120.021L261.171 117.082L264.287 115.285L265.544 114.556L269.401 104.128L270.456 101.276L273.17 93.9014L273.697 92.4817L276.361 85.2701L307.43 67.3291L312.456 64.4269L312.506 64.4394Z" fill="#C65EFF"/>
<path d="M252.728 142.938L258.395 139.169L258.533 160.238C258.545 162.989 260.518 163.919 262.93 162.324C265.342 160.728 267.29 157.198 267.264 154.446L267.126 133.377L272.792 129.608L267.742 127.334L262.691 125.06L257.704 133.992L252.716 142.925L252.728 142.938Z" fill="#A156FF"/>
<g filter="url(#filter1_f_290_152)">
<path d="M68.0946 354.926C70.6953 363.419 57.6292 374.94 38.9095 380.656C20.2024 386.386 2.92747 384.137 0.326815 375.644C-2.27384 367.15 10.7923 355.629 29.512 349.913C48.2317 344.196 65.494 346.433 68.0946 354.926Z" fill="#ECECEC"/>
</g>
<path d="M58.8105 149.772C58.8231 149.886 58.8357 149.986 58.8608 150.099C58.8859 150.288 58.9236 150.476 58.9613 150.652C60.984 160.628 75.5703 177.287 75.5703 177.287L83.0582 172.915C75.9472 163.379 68.095 143.604 68.095 143.604L63.1701 146.883L58.8231 149.772H58.8105Z" fill="#A156FF"/>
<path d="M53.0437 137.862C53.9608 142.435 56.2474 146.506 58.4963 149.609C58.6219 149.772 58.735 149.936 58.8606 150.099C58.9611 150.225 59.0491 150.35 59.1496 150.476C59.8029 151.33 60.4436 152.097 61.0341 152.775C62.0643 151.494 63.195 150.3 64.2504 149.031C65.0921 148.014 65.758 146.87 66.4993 145.79C66.9892 145.061 67.5043 144.307 68.0823 143.604C63.2956 133.1 56.461 110.586 56.461 110.586C56.461 110.586 50.9833 127.623 53.0311 137.862H53.0437Z" fill="#A156FF"/>
<path d="M58.4961 149.609C58.6217 149.772 58.7348 149.936 58.8604 150.099C58.8856 150.288 58.9233 150.476 58.9609 150.652C59.0238 150.589 59.0866 150.539 59.1494 150.476C60.0917 149.609 61.4988 148.541 63.22 147.913C63.421 147.838 63.5592 147.649 63.5718 147.448C63.5718 147.373 63.5718 147.297 63.5466 147.222C63.4838 147.046 63.3331 146.92 63.1572 146.883C63.0567 146.858 62.9562 146.87 62.8431 146.908C61.0088 147.586 59.5137 148.679 58.4961 149.609Z" fill="#A200CB"/>
<path d="M9.09662 352.928C7.90308 353.318 7.04876 354.398 6.8603 355.667C6.69698 356.773 6.57134 358.356 6.63416 360.454C6.77236 365.128 6.83518 367.037 6.83518 367.037C6.83518 367.037 8.24229 369.5 12.3129 370.178L13.5064 370.341C13.5064 370.341 22.6904 375.87 26.9871 376.284C32.5905 376.837 38.3069 374.261 33.6835 368.821C29.3114 363.683 22.8788 361.61 20.9817 357.489C20.7556 357.011 19.3234 355.981 18.959 355.604C15.8558 352.388 13.4687 351.483 9.10918 352.916L9.09662 352.928Z" fill="#050406"/>
<path d="M18.4691 362.816C18.6701 362.816 18.8586 362.703 18.9465 362.502C18.9465 362.489 19.6626 360.881 20.9818 360.441C22.2507 360.014 23.6076 361.12 23.6202 361.132C23.8463 361.321 24.173 361.283 24.3488 361.057C24.5373 360.831 24.4996 360.504 24.286 360.328C24.2106 360.265 22.4769 358.846 20.6552 359.449C18.8837 360.039 18.0294 361.999 17.9917 362.087C17.8786 362.351 17.9917 362.665 18.2681 362.778C18.3309 362.803 18.4063 362.816 18.4691 362.816Z" fill="white"/>
<path d="M20.3036 364.122C20.5046 364.122 20.693 364.009 20.781 363.808C20.781 363.796 21.4971 362.188 22.8163 361.748C24.0852 361.321 25.4421 362.426 25.4546 362.439C25.6808 362.627 26.0074 362.59 26.1833 362.364C26.3718 362.137 26.3341 361.811 26.1205 361.635C26.0451 361.572 24.3113 360.152 22.4896 360.755C20.7182 361.346 19.8638 363.306 19.8262 363.394C19.7131 363.658 19.8262 363.972 20.1026 364.085C20.1654 364.11 20.2408 364.122 20.3036 364.122Z" fill="white"/>
<path d="M22.3763 365.291C22.5773 365.291 22.7658 365.178 22.8537 364.977C22.8537 364.964 23.5699 363.356 24.889 362.916C26.158 362.489 27.5148 363.595 27.5274 363.607C27.7535 363.796 28.0802 363.758 28.2561 363.532C28.4445 363.306 28.4068 362.979 28.1932 362.803C28.1179 362.74 26.3841 361.321 24.5624 361.924C22.7909 362.514 21.9366 364.474 21.8989 364.562C21.7858 364.826 21.8989 365.14 22.1753 365.253C22.2381 365.278 22.3135 365.291 22.3763 365.291Z" fill="white"/>
<path d="M9.68689 343.832L9.20947 355.391C9.20947 355.391 12.1242 358.356 16.6597 356.396L17.7778 343.907C17.7778 343.907 12.8906 342.161 9.68689 343.832Z" fill="#FCB38F"/>
<path d="M6.99835 279.945C10.6543 260.886 7.75217 230.758 7.47577 216.888L38.1434 221.599L39.048 240.533C39.0354 240.47 36.7614 240.684 36.7489 240.621C36.7489 240.621 35.4297 240.043 33.8718 240.093C31.6857 240.181 31.0199 243.799 30.7309 244.83C29.663 258.512 29.6002 275.259 28.369 285.7C25.9316 306.367 18.205 352.237 18.205 352.237C14.4737 353.054 12.3002 352.853 8.54367 351.458C8.54367 351.458 4.67409 291.944 6.97323 279.933L6.99835 279.945Z" fill="#222222"/>
<path d="M10.4281 350.83C10.7548 350.83 11.0186 350.554 11.0186 350.227C10.9935 348.116 10.3276 298.364 9.93815 294.62C9.53611 290.8 10.7799 277.056 11.9986 269.605C12.8655 264.316 12.2498 239.465 12.2247 238.41C12.2247 238.083 11.9483 237.832 11.6342 237.832C11.6342 237.832 11.6342 237.832 11.6217 237.832C11.295 237.832 11.0312 238.108 11.0437 238.435C11.0437 238.686 11.6845 264.241 10.8302 269.417C9.59893 276.943 8.35514 290.851 8.75717 294.745C9.14664 298.439 9.82507 349.737 9.82507 350.252C9.82507 350.579 10.0889 350.843 10.4156 350.843L10.4281 350.83Z" fill="#252B3D"/>
<path d="M19.1723 348.493C19.1723 348.493 12.6267 349.184 7.67662 347.89C7.29972 349.837 7.50073 351.873 7.95302 352.991C7.95302 352.991 13.8579 354.524 18.6069 353.368C19.1597 351.91 19.5743 350.202 19.1597 348.506L19.1723 348.493Z" fill="#6B749B"/>
<path d="M35.8188 344.611C34.6252 345 33.7709 346.081 33.5825 347.35C33.4191 348.456 33.2935 350.039 33.3563 352.137C33.4945 356.81 33.5573 358.72 33.5573 358.72C33.5573 358.72 34.9645 361.183 39.0351 361.861L40.2286 362.024C40.2286 362.024 49.4126 367.552 53.7093 367.967C59.3126 368.52 65.0291 365.944 60.4057 360.504C56.0336 355.353 49.601 353.293 47.7039 349.172C47.4778 348.694 46.0455 347.664 45.6812 347.287C42.578 344.071 40.1909 343.166 35.8313 344.598L35.8188 344.611Z" fill="#050406"/>
<path d="M45.204 354.499C45.405 354.499 45.5934 354.386 45.6814 354.185C45.6814 354.172 46.3975 352.564 47.7167 352.124C48.9856 351.697 50.3425 352.803 50.355 352.815C50.5812 353.004 50.9078 352.966 51.0837 352.74C51.2722 352.514 51.2345 352.187 51.0209 352.011C50.9455 351.948 49.2117 350.529 47.39 351.132C45.6186 351.722 44.7642 353.682 44.7265 353.77C44.6135 354.034 44.7265 354.348 45.0029 354.461C45.0658 354.486 45.1411 354.499 45.204 354.499Z" fill="white"/>
<path d="M47.0257 355.805C47.2268 355.805 47.4152 355.692 47.5032 355.491C47.5032 355.479 48.2193 353.87 49.5384 353.431C50.8074 353.004 52.1642 354.109 52.1768 354.122C52.4029 354.31 52.7296 354.272 52.9055 354.046C53.0939 353.82 53.0562 353.494 52.8427 353.318C52.7673 353.255 51.0335 351.835 49.2118 352.438C47.4403 353.029 46.586 354.989 46.5483 355.077C46.4352 355.34 46.5483 355.655 46.8247 355.768C46.8875 355.793 46.9629 355.805 47.0257 355.805Z" fill="white"/>
<path d="M49.1112 356.974C49.3122 356.974 49.5007 356.861 49.5886 356.66C49.5886 356.647 50.3047 355.039 51.6239 354.599C52.8928 354.172 54.2497 355.278 54.2622 355.29C54.4884 355.479 54.815 355.441 54.9909 355.215C55.1794 354.989 55.1417 354.662 54.9281 354.486C54.8527 354.423 53.119 353.004 51.2972 353.607C49.5258 354.197 48.6715 356.157 48.6338 356.245C48.5207 356.509 48.6338 356.823 48.9102 356.936C48.973 356.961 49.0484 356.974 49.1112 356.974Z" fill="white"/>
<path d="M36.4091 335.515L35.9316 347.073C35.9316 347.073 38.8464 350.038 43.3818 348.079L44.5 335.59C44.5 335.59 39.6128 333.844 36.4091 335.515Z" fill="#FCB38F"/>
<path d="M57.5285 237.756C56.4606 251.363 54.2495 266.753 53.0308 277.156C50.5935 297.824 44.9524 343.945 44.9524 343.945C41.221 344.762 39.0476 344.561 35.291 343.166C35.291 343.166 31.2205 283.451 32.5648 271.302C34.7759 251.35 34.7759 231.273 34.4995 217.39L58.9734 213.898L57.516 237.769L57.5285 237.756Z" fill="#222222"/>
<path d="M38.52 237.342C38.1933 237.342 37.9169 237.618 37.9295 237.945C38.0426 245.973 38.1179 257.758 37.5777 261.087C36.3465 268.613 35.1027 282.521 35.5047 286.416C35.8942 290.109 36.5726 341.407 36.5726 341.922C36.5726 342.249 36.8365 342.513 37.1631 342.513C37.4898 342.513 37.7536 342.236 37.7536 341.91C37.7285 339.799 37.0626 290.047 36.6731 286.303C36.2711 282.483 37.5149 268.739 38.7336 261.288C39.2989 257.833 39.2361 245.998 39.1105 237.932C39.1105 237.606 38.8466 237.354 38.52 237.354V237.342Z" fill="#252B3D"/>
<path d="M45.8944 340.189C45.8944 340.189 39.3488 340.88 34.3988 339.586C34.0219 341.533 34.2229 343.568 34.6752 344.686C34.6752 344.686 40.5801 346.219 45.3291 345.063C45.8819 343.606 46.2965 341.897 45.8819 340.201L45.8944 340.189Z" fill="#6B749B"/>
<path d="M56.4734 110.586C48.9102 109.016 36.133 108.048 29.3361 110.41C19.7502 113.752 15.1519 116.943 8.61884 121.592C8.3927 125.361 7.28711 143.44 7.23685 147.436C7.23685 148.403 7.22429 149.345 7.23685 150.275C7.23685 150.664 7.23685 151.054 7.23685 151.431C7.41274 163.63 5.90511 190.818 5.62872 197.389C5.13874 209.199 4.71158 215.343 4.98797 216.084C6.62124 220.343 17.3254 224.275 33.2183 223.358C49.1112 222.429 56.888 222.089 58.6092 216.247C60.343 210.405 59.4384 205.945 57.6293 188.582C56.0965 173.945 56.1593 123.301 56.4609 110.599L56.4734 110.586Z" fill="#C65EFF"/>
<path d="M49.2995 187.288C49.5885 187.376 49.9152 187.225 50.0282 186.936C50.1539 186.622 50.0157 186.257 49.7016 186.132C49.4377 186.019 22.8533 174.699 21.3456 160.741C21.3079 160.401 21.0064 160.163 20.6672 160.188C20.328 160.225 20.0893 160.527 20.127 160.866C20.7928 167.073 25.9188 173.405 35.3414 179.699C42.3016 184.335 49.1613 187.237 49.2242 187.263C49.2493 187.263 49.2744 187.275 49.2995 187.288Z" fill="#A156FF"/>
<path d="M45.3673 189.65C45.694 189.738 46.0332 189.562 46.1211 189.235C46.2216 188.908 46.0332 188.569 45.7065 188.469C45.6186 188.444 37.0628 185.83 29.399 180.403C29.1226 180.202 28.7332 180.277 28.5447 180.554C28.3437 180.83 28.4191 181.219 28.6955 181.408C36.5351 186.961 45.2794 189.625 45.3673 189.65Z" fill="#A156FF"/>
<path d="M21.5215 78.7621C21.5215 78.7621 23.7578 70.1183 27.2253 67.9322L28.4943 69.8921C29.8009 69.4775 33.1553 64.9546 38.6079 64.54C38.6079 64.54 38.0049 65.8717 38.4446 66.6758C38.8843 67.4799 43.6082 63.2333 49.1236 63.3339C49.1236 63.3339 47.6537 67.304 48.307 69.1006C48.307 69.1006 50.6564 66.0602 52.8801 65.633C52.8801 65.633 50.9705 71.651 51.9755 74.0256C52.9806 76.4001 52.1137 78.1465 50.9076 79.9934L21.5215 78.7621Z" fill="#252B3D"/>
<path d="M38.8591 106.729L38.2811 112.207L38.0801 114.054C31.9742 115.586 27.2755 111.428 27.2755 111.428L26.7227 102.96C26.8357 102.885 26.9488 102.822 27.0744 102.771C30.3661 101.327 38.8465 106.716 38.8465 106.716L38.8591 106.729Z" fill="#FCB38F"/>
<path d="M38.859 106.729L38.281 112.207C32.037 110.008 28.6071 105.422 27.0869 102.784C30.3786 101.339 38.859 106.729 38.859 106.729Z" fill="#FD8471"/>
<path d="M48.6085 88.8006C48.6085 88.8006 51.3222 85.5591 53.056 88.4614C54.7898 91.351 51.674 99.4546 47.1763 97.1932L48.6085 88.8131V88.8006Z" fill="#FD8471"/>
<path d="M48.3196 94.693C48.4955 94.693 48.6462 94.5925 48.7091 94.4292C49.5634 91.929 52.252 91.0369 52.2771 91.0244C52.4781 90.9615 52.5912 90.7354 52.5284 90.5344C52.4656 90.3334 52.2394 90.2203 52.0384 90.2831C51.9128 90.3208 48.9478 91.2882 47.9678 94.1779C47.905 94.3789 48.0055 94.605 48.2065 94.6679C48.2442 94.6679 48.2819 94.6804 48.307 94.693H48.3196Z" fill="#D6615D"/>
<path d="M51.0459 93.5497C51.1213 93.5497 51.1967 93.5497 51.2595 93.4994C51.4479 93.3989 51.5108 93.1602 51.4102 92.9718C51.3977 92.9466 50.9705 92.2054 50.0157 91.7154C49.8272 91.6149 49.5885 91.6903 49.488 91.8787C49.3875 92.0672 49.4629 92.3059 49.6514 92.4064C50.3926 92.7833 50.7193 93.3487 50.7318 93.3612C50.7946 93.4869 50.9203 93.5497 51.0459 93.5623V93.5497Z" fill="#D6615D"/>
<path d="M50.4552 92.9968C50.3924 93.8135 50.317 94.5673 50.2039 95.2583C49.1863 101.465 43.7714 114.079 32.8411 107.684C30.2153 106.151 28.268 104.631 26.7478 102.972C25.6045 101.729 24.6874 100.397 23.9084 98.9269C23.6069 98.3616 23.4687 97.7208 23.2802 97.1052C23.2425 96.9921 23.2174 96.8916 23.1797 96.7785C23.1546 96.7157 23.142 96.6529 23.1169 96.6026C22.5641 94.8186 22.1495 93.022 21.8354 91.3133C21.4334 89.1775 21.1696 87.1798 21.0188 85.5465C20.7298 82.5312 22.049 79.5913 24.4863 77.7947C31.1073 72.9451 38.7585 73.5607 43.9096 74.8799C47.4777 75.7971 50.0657 78.9003 50.317 82.5689C50.4426 84.3153 50.5432 86.3004 50.5683 88.2729C50.5934 89.8936 50.5683 91.5269 50.4552 92.9843V92.9968Z" fill="#FCB38F"/>
<path d="M27.6147 96.6027C27.6147 96.6027 26.484 98.8013 23.9085 98.9269C23.6823 98.3239 23.4687 97.7208 23.2803 97.1052C24.5241 97.3314 26.4337 97.4696 27.6273 96.5901L27.6147 96.6027Z" fill="#FD8471"/>
<path d="M26.7355 102.985C25.5922 101.741 24.6751 100.409 23.8962 98.9395C23.5946 98.3742 23.4564 97.7334 23.268 97.1178C23.2303 97.0047 23.2052 96.9042 23.1675 96.7911C23.4313 96.7911 23.8585 96.8917 24.5746 97.1178C24.5746 97.1178 27.5019 100.46 26.7481 102.985H26.7355Z" fill="#252B3D"/>
<path d="M43.8844 100.51C43.3568 102.08 41.8868 104.92 38.2936 104.442C34.6879 103.965 34.0346 101.113 33.9341 99.1908L43.897 100.497L43.8844 100.51Z" fill="white"/>
<path d="M35.379 91.0118C35.3288 91.8912 34.8388 92.5697 34.286 92.5446C33.7332 92.5194 33.3186 91.7782 33.3689 90.9113C33.4191 90.0318 33.9091 89.3534 34.4619 89.3785C35.0147 89.4036 35.4293 90.1449 35.379 91.0118Z" fill="#252B3D"/>
<path d="M46.3595 91.3636C46.3093 92.243 45.8193 92.9215 45.2665 92.8963C44.7137 92.8712 44.2991 92.13 44.3493 91.2631C44.3996 90.3962 44.8896 89.7052 45.4424 89.7303C45.9952 89.7554 46.4098 90.4967 46.3595 91.3636Z" fill="#252B3D"/>
<path d="M29.6251 86.6145C29.6251 86.6145 33.2434 84.5666 36.3717 85.4335L36.3089 87.117C36.3089 87.117 31.9368 87.3557 29.8764 88.5367C29.6 87.9337 29.4743 87.3055 29.6377 86.6145H29.6251Z" fill="#252B3D"/>
<path d="M49.9656 87.3934C49.9656 87.3934 46.5608 85.0189 43.3697 85.5717L43.2817 87.2552C43.2817 87.2552 47.6162 87.9085 49.551 89.278C49.8902 88.7 50.0661 88.0844 49.9781 87.3934H49.9656Z" fill="#252B3D"/>
<path d="M40.4801 97.9847C39.8268 97.9596 39.1861 97.6706 39.0856 97.6329C38.8846 97.545 38.8092 97.3188 38.8971 97.1178C38.9851 96.9168 39.2238 96.8414 39.4122 96.9293C39.764 97.0801 40.5932 97.3439 40.9701 97.1429C41.0455 97.1052 41.146 97.0173 41.1711 96.7911C41.3722 95.4343 41.1711 90.861 41.1711 90.8108C41.1711 90.5972 41.3345 90.4088 41.548 90.4088C41.7616 90.4088 41.9501 90.5721 41.9501 90.7857C41.9501 90.9741 42.1385 95.4845 41.9501 96.9042C41.8747 97.4444 41.5732 97.7083 41.347 97.8339C41.0958 97.9721 40.7942 98.0098 40.4927 97.9973L40.4801 97.9847Z" fill="#FD8471"/>
<path d="M23.984 88.7503C23.984 88.7503 21.0315 85.735 19.5239 88.7503C18.0288 91.7656 21.0567 99.3415 26.2957 97.1554L23.984 88.7503Z" fill="#FCB38F"/>
<path d="M24.7253 94.605C24.562 94.6301 24.3861 94.5422 24.3107 94.3663C23.268 91.9289 20.5165 91.263 20.4914 91.2505C20.2778 91.2002 20.1522 90.9866 20.2024 90.7856C20.2527 90.572 20.4663 90.4464 20.6673 90.4966C20.7929 90.5218 23.8333 91.263 25.0269 94.0647C25.1148 94.2658 25.0269 94.4919 24.8258 94.5799C24.7881 94.5924 24.763 94.605 24.7253 94.605Z" fill="#FD8471"/>
<path d="M21.911 93.6753C21.8356 93.6753 21.7602 93.6753 21.6974 93.6376C21.4964 93.5497 21.421 93.311 21.5089 93.1225C21.5215 93.0848 21.8984 92.3184 22.803 91.7656C22.9914 91.6525 23.2302 91.7154 23.3432 91.8912C23.4563 92.0797 23.3935 92.3184 23.2176 92.4315C22.514 92.8712 22.2251 93.4617 22.2125 93.4617C22.1497 93.5874 22.0366 93.6627 21.911 93.6879V93.6753Z" fill="#FD8471"/>
<path d="M21.1949 87.3431C21.1949 87.3431 23.5569 86.3255 24.5745 88.5995C25.5796 90.8736 26.0696 92.1676 26.0696 92.1676L27.841 92.2053C27.841 92.2053 26.4339 88.9262 26.8485 86.9537C27.2506 84.9812 28.7707 84.5037 28.3813 82.4182C27.9918 80.32 29.0095 77.6691 31.1829 77.3173C33.3564 76.9529 42.7666 76.3122 46.0833 77.8073C49.4001 79.3023 48.7719 82.7825 49.6137 84.0514C50.4555 85.3204 50.556 88.298 50.556 88.298C51.0711 87.5693 51.36 86.7024 51.3726 85.8104C51.3977 84.7299 51.36 83.084 51.1088 80.9482C50.6313 76.9404 44.8395 72.1661 35.9948 72.1661C27.15 72.1661 21.8734 76.3373 20.7426 80.6592C19.6119 84.9812 21.1949 87.3557 21.1949 87.3557V87.3431Z" fill="#252B3D"/>
<path d="M86.0356 151.041L47.1137 173.518L21.1699 158.529L59.8531 135.927L86.0356 151.041Z" fill="#6B749B"/>
<mask id="mask0_290_152" style="mask-type:luminance" maskUnits="userSpaceOnUse" x="27" y="117" width="53" height="53">
<path d="M27.9164 158.517L47.1135 169.598L79.2637 151.041L78.5601 123.816L61.436 117.76L27.0244 135.839L27.9164 158.517Z" fill="white"/>
</mask>
<g mask="url(#mask0_290_152)">
<path d="M79.2638 151.041L59.8656 139.847L27.9165 158.517L47.1136 169.598L79.2638 151.041Z" fill="#252B3D"/>
<path d="M53.433 134.344L32.1629 146.757C31.2584 147.285 30.7056 148.252 30.7056 149.295V162.977C30.7056 165.238 33.168 166.658 35.1154 165.515L58.9987 151.582V137.548C58.9987 134.696 55.8955 132.912 53.433 134.357V134.344Z" fill="#E5E5E5"/>
<path d="M55.745 134.935L34.0477 147.599C33.1431 148.127 32.5903 149.094 32.5903 150.137V163.819C32.5903 166.08 35.0528 167.5 37.0001 166.357L56.348 155.062C57.9813 154.107 58.9864 152.361 58.9864 150.476V136.807C58.9864 135.136 57.1772 134.105 55.745 134.947V134.935Z" fill="white"/>
<path d="M36.8994 163.969C36.5099 163.969 36.1958 163.618 36.1958 163.178V151.18C36.1958 150.74 36.5099 150.388 36.8994 150.388C37.2888 150.388 37.6029 150.74 37.6029 151.18V163.178C37.6029 163.618 37.2888 163.969 36.8994 163.969Z" fill="#E5E5E5"/>
<path d="M40.5932 161.482C40.2037 161.482 39.8896 161.13 39.8896 160.69V148.692C39.8896 148.252 40.2037 147.9 40.5932 147.9C40.9827 147.9 41.2968 148.252 41.2968 148.692V160.69C41.2968 161.13 40.9827 161.482 40.5932 161.482Z" fill="#E5E5E5"/>
<path d="M44.2744 158.994C43.8849 158.994 43.5708 158.642 43.5708 158.203V146.204C43.5708 145.765 43.8849 145.413 44.2744 145.413C44.6638 145.413 44.9779 145.765 44.9779 146.204V158.203C44.9779 158.642 44.6638 158.994 44.2744 158.994Z" fill="#E5E5E5"/>
<path d="M47.9677 156.507C47.5783 156.507 47.2642 156.155 47.2642 155.715V143.717C47.2642 143.277 47.5783 142.925 47.9677 142.925C48.3572 142.925 48.6713 143.277 48.6713 143.717V155.715C48.6713 156.155 48.3572 156.507 47.9677 156.507Z" fill="#E5E5E5"/>
<path d="M51.6489 154.019C51.2594 154.019 50.9453 153.667 50.9453 153.227V141.229C50.9453 140.789 51.2594 140.438 51.6489 140.438C52.0383 140.438 52.3524 140.789 52.3524 141.229V153.227C52.3524 153.667 52.0383 154.019 51.6489 154.019Z" fill="#E5E5E5"/>
<path d="M55.3427 151.531C54.9532 151.531 54.6392 151.18 54.6392 150.74V138.741C54.6392 138.302 54.9532 137.95 55.3427 137.95C55.7322 137.95 56.0463 138.302 56.0463 138.741V150.74C56.0463 151.18 55.7322 151.531 55.3427 151.531Z" fill="#E5E5E5"/>
<path d="M61.725 138.214L40.4549 150.627C39.5504 151.154 38.9976 152.122 38.9976 153.165V166.847C38.9976 169.108 41.46 170.528 43.4074 169.384L67.2907 155.451V141.418C67.2907 138.566 64.1875 136.782 61.725 138.226V138.214Z" fill="#E5E5E5"/>
<path d="M64.0492 138.804L42.3519 151.469C41.4473 151.996 40.8945 152.964 40.8945 154.006V167.688C40.8945 169.95 43.357 171.37 45.3043 170.226L64.6522 158.931C66.2855 157.977 67.2906 156.23 67.2906 154.346V140.676C67.2906 139.005 65.4814 137.975 64.0492 138.817V138.804Z" fill="white"/>
<path d="M45.204 167.852C44.8146 167.852 44.5005 167.5 44.5005 167.06V155.062C44.5005 154.622 44.8146 154.27 45.204 154.27C45.5935 154.27 45.9076 154.622 45.9076 155.062V167.06C45.9076 167.5 45.5935 167.852 45.204 167.852Z" fill="#E5E5E5"/>
<path d="M48.8852 165.364C48.4957 165.364 48.1816 165.012 48.1816 164.573V152.574C48.1816 152.134 48.4957 151.783 48.8852 151.783C49.2747 151.783 49.5888 152.134 49.5888 152.574V164.573C49.5888 165.012 49.2747 165.364 48.8852 165.364Z" fill="#E5E5E5"/>
<path d="M52.579 162.864C52.1896 162.864 51.8755 162.512 51.8755 162.072V150.074C51.8755 149.634 52.1896 149.282 52.579 149.282C52.9685 149.282 53.2826 149.634 53.2826 150.074V162.072C53.2826 162.512 52.9685 162.864 52.579 162.864Z" fill="#E5E5E5"/>
<path d="M56.2602 160.376C55.8707 160.376 55.5566 160.024 55.5566 159.585V147.586C55.5566 147.147 55.8707 146.795 56.2602 146.795C56.6497 146.795 56.9638 147.147 56.9638 147.586V159.585C56.9638 160.024 56.6497 160.376 56.2602 160.376Z" fill="#E5E5E5"/>
<path d="M59.9536 157.889C59.5641 157.889 59.25 157.537 59.25 157.097V145.099C59.25 144.659 59.5641 144.307 59.9536 144.307C60.343 144.307 60.6571 144.659 60.6571 145.099V157.097C60.6571 157.537 60.343 157.889 59.9536 157.889Z" fill="#E5E5E5"/>
<path d="M63.6347 155.401C63.2452 155.401 62.9312 155.049 62.9312 154.609V142.611C62.9312 142.171 63.2452 141.82 63.6347 141.82C64.0242 141.82 64.3383 142.171 64.3383 142.611V154.609C64.3383 155.049 64.0242 155.401 63.6347 155.401Z" fill="#E5E5E5"/>
<path d="M69.4643 141.33L48.1942 153.743C47.2896 154.27 46.7368 155.238 46.7368 156.28V169.962C46.7368 172.224 49.1993 173.644 51.1466 172.5L75.0299 158.567V144.533C75.0299 141.681 71.9267 139.897 69.4643 141.342V141.33Z" fill="#E5E5E5"/>
<path d="M71.7884 141.92L50.0912 154.584C49.1866 155.112 48.6338 156.079 48.6338 157.122V170.804C48.6338 173.066 51.0962 174.485 53.0436 173.342L72.3915 162.047C74.0247 161.092 75.0298 159.346 75.0298 157.461V143.792C75.0298 142.121 73.2207 141.091 71.7884 141.933V141.92Z" fill="white"/>
<path d="M52.9433 170.967C52.5538 170.967 52.2397 170.616 52.2397 170.176V158.178C52.2397 157.738 52.5538 157.386 52.9433 157.386C53.3328 157.386 53.6469 157.738 53.6469 158.178V170.176C53.6469 170.616 53.3328 170.967 52.9433 170.967Z" fill="#E5E5E5"/>
<path d="M56.6245 168.48C56.235 168.48 55.9209 168.128 55.9209 167.688V155.69C55.9209 155.25 56.235 154.898 56.6245 154.898C57.0139 154.898 57.328 155.25 57.328 155.69V167.688C57.328 168.128 57.0139 168.48 56.6245 168.48Z" fill="#E5E5E5"/>
<path d="M60.3183 165.992C59.9288 165.992 59.6147 165.64 59.6147 165.201V153.202C59.6147 152.763 59.9288 152.411 60.3183 152.411C60.7078 152.411 61.0219 152.763 61.0219 153.202V165.201C61.0219 165.64 60.7078 165.992 60.3183 165.992Z" fill="#E5E5E5"/>
<path d="M63.9995 163.492C63.61 163.492 63.2959 163.14 63.2959 162.7V150.702C63.2959 150.262 63.61 149.911 63.9995 149.911C64.3889 149.911 64.703 150.262 64.703 150.702V162.7C64.703 163.14 64.3889 163.492 63.9995 163.492Z" fill="#E5E5E5"/>
<path d="M67.6928 161.004C67.3033 161.004 66.9893 160.653 66.9893 160.213V148.214C66.9893 147.775 67.3033 147.423 67.6928 147.423C68.0823 147.423 68.3964 147.775 68.3964 148.214V160.213C68.3964 160.653 68.0823 161.004 67.6928 161.004Z" fill="#E5E5E5"/>
<path d="M71.374 158.517C70.9845 158.517 70.6704 158.165 70.6704 157.725V145.727C70.6704 145.287 70.9845 144.935 71.374 144.935C71.7634 144.935 72.0775 145.287 72.0775 145.727V157.725C72.0775 158.165 71.7634 158.517 71.374 158.517Z" fill="#E5E5E5"/>
</g>
<path d="M86.0357 151.041V195.982L47.1138 218.458V173.518L86.0357 151.041Z" fill="#121212"/>
<path d="M47.1137 218.458L21.1699 203.168V158.529L47.1137 173.518V218.458Z" fill="#252B3D"/>
<path d="M6.16895 170.251C9.79982 169.736 13.883 168.241 17.4762 167.462C17.3882 167.022 17.3003 166.545 17.2249 166.043C17.1998 165.867 17.1621 165.691 17.1369 165.502C17.0993 165.276 17.0616 165.037 17.0364 164.799C14.9383 150.677 13.6191 118.112 13.6191 118.112C13.6191 118.112 3.73162 122.572 2.224 134.52C1.23148 142.485 4.41006 161.331 6.18152 170.239L6.16895 170.251Z" fill="#A156FF"/>
<path d="M6.16881 170.251C7.11108 179.335 30.2406 203.583 38.4195 209.111L40.7689 199.198C24.2478 177.224 18.6444 168.103 17.4132 166.005C17.2122 165.666 17.1242 165.515 17.1242 165.515L11.9104 167.764L6.15625 170.251H6.16881Z" fill="#A156FF"/>
<path d="M11.8476 167.676C11.8476 167.676 11.8979 167.739 11.923 167.764C11.9607 167.801 11.9984 167.839 12.0361 167.864C12.2371 167.99 12.5009 168.002 12.7145 167.864C14.2221 166.897 15.868 166.357 17.2123 166.055C17.2751 166.043 17.3379 166.03 17.4133 166.017C17.2123 165.678 17.1243 165.527 17.1243 165.527C17.0866 165.301 17.0489 165.063 17.0238 164.824C15.5413 165.138 13.7322 165.728 12.0361 166.821C11.7471 167.01 11.6592 167.399 11.8476 167.688V167.676Z" fill="#A200CB"/>
<path d="M40.769 199.198C40.769 199.198 46.2467 199.826 46.6362 201.887V213.609C46.6362 213.609 42.9299 215.154 38.4196 209.124C37.6407 205.43 38.5829 202.163 40.769 199.211V199.198Z" fill="#FCB38F"/>
<path d="M46.6112 199.525C46.6112 199.525 53.9734 200.492 53.1819 202.415C52.9055 203.08 47.2394 203.043 47.2394 203.043L47.3399 203.96C47.3399 203.96 53.4709 204.462 54.2373 206.146C55.0036 207.83 47.6539 206.85 47.6539 206.85L47.7796 208.005C47.7796 208.005 52.6542 208.332 53.4583 209.752C54.2624 211.171 47.2394 210.744 47.2394 210.744L47.3399 211.649C47.3399 211.649 50.1792 212.214 51.1717 213.546C52.1643 214.878 47.2896 214.262 45.3171 213.496C43.3446 212.729 43.7467 211.247 44.0105 210.568C44.0105 210.568 43.0557 208.119 44.2492 206.762C44.2492 206.762 43.0557 204.802 44.3874 203.457C44.3874 203.457 43.0306 199.349 46.6489 199.525H46.6112Z" fill="#FCB38F"/>
<path d="M40.7688 199.198C40.7688 199.198 41.598 197.816 42.1131 196.359C42.6282 194.901 43.872 193.004 44.3494 194.047C44.9399 195.341 44.5127 196.723 44.3871 197.967C44.1107 200.832 45.1158 200.342 44.9022 201.259C44.6886 202.176 40.5929 200.932 40.7562 199.186L40.7688 199.198Z" fill="#FCB38F"/>
<path d="M86.6386 171.307C86.6386 171.307 79.2889 172.362 80.1055 174.272C80.3819 174.938 86.0607 174.837 86.0607 174.837L85.9727 175.754C85.9727 175.754 79.8543 176.332 79.1005 178.028C78.3592 179.712 85.6963 178.656 85.6963 178.656L85.5833 179.825C85.5833 179.825 80.7212 180.214 79.9297 181.634C79.1381 183.054 86.1612 182.551 86.1612 182.551L86.0732 183.456C86.0732 183.456 83.2339 184.046 82.2665 185.391C81.2865 186.735 86.1612 186.069 88.1211 185.278C90.081 184.486 89.6539 183.016 89.4026 182.338C89.4026 182.338 90.3197 179.888 89.1136 178.531C89.1136 178.531 90.282 176.558 88.9377 175.227C88.9377 175.227 90.2443 171.106 86.6386 171.332V171.307Z" fill="#FCB38F"/>
<path d="M88.2468 172.148C88.1966 173.015 87.1161 173.593 86.0356 173.832V166.269C86.5884 166.495 87.1664 167.965 87.3799 169.121C87.6438 170.641 88.2468 172.136 88.2468 172.136V172.148Z" fill="#FCB38F"/>
<path d="M153.728 54.8784C153.69 57.5922 152.723 60.5949 151.203 63.2584C149.682 65.922 147.584 68.2337 145.31 69.5654L85.5328 104.38C80.9723 107.031 77.3037 104.769 77.3665 99.3415C77.3791 98.1857 77.5675 96.9795 77.8816 95.7734C78.3213 94.1276 79.0123 92.4817 79.8918 90.9489C81.0225 88.9764 82.4673 87.1798 84.0755 85.8481C84.7288 69.9424 95.6968 51.1344 108.964 43.4077C117.645 38.3571 125.196 39.2743 129.455 44.8149C130.686 43.6464 131.98 42.6413 133.337 41.8498C133.752 41.6111 134.166 41.3975 134.568 41.1965C141.039 38.1561 146.026 41.6991 145.926 49.6017C150.323 47.2522 153.816 49.5388 153.74 54.8282L153.728 54.8784Z" fill="#F0F0F0"/>
<path d="M210.188 9.8751C210.163 11.6843 209.523 13.707 208.505 15.4785C207.487 17.25 206.093 18.8079 204.56 19.7L164.583 42.9806C161.53 44.7521 159.08 43.2444 159.118 39.6135C159.118 38.8471 159.256 38.0305 159.469 37.2264C159.758 36.1333 160.223 35.0277 160.814 33.9975C161.568 32.6783 162.535 31.4847 163.603 30.5927C164.043 19.9512 171.38 7.37492 180.25 2.21122C186.054 -1.16843 191.104 -0.552806 193.944 3.1535C194.76 2.37455 195.64 1.6961 196.532 1.16843C196.808 1.0051 197.085 0.866898 197.361 0.728696C201.696 -1.30663 205.025 1.06792 204.949 6.35726C207.889 4.78679 210.226 6.31956 210.176 9.84998L210.188 9.8751Z" fill="#F0F0F0"/>
<path d="M421.533 86.4385C421.57 89.1523 422.538 92.1551 424.058 94.8186C425.578 97.4821 427.676 99.7938 429.95 101.126L489.728 135.94C494.288 138.591 497.957 136.329 497.894 130.902C497.882 129.746 497.693 128.54 497.379 127.334C496.939 125.688 496.248 124.042 495.369 122.509C494.238 120.537 492.793 118.74 491.185 117.408C490.532 101.502 479.564 82.6945 466.297 74.9678C457.615 69.9172 450.065 70.8344 445.806 76.375C444.574 75.2066 443.28 74.2015 441.923 73.4099C441.509 73.1712 441.094 72.9576 440.692 72.7566C434.222 69.7162 429.234 73.2592 429.335 81.1618C424.938 78.8123 421.445 81.099 421.52 86.3883L421.533 86.4385Z" fill="#F0F0F0"/>
<path d="M370.688 36.0328C370.713 37.842 371.354 39.8648 372.372 41.6362C373.389 43.4203 374.784 44.9656 376.316 45.8577L416.294 69.1383C419.347 70.9098 421.797 69.4021 421.759 65.7712C421.759 65.0048 421.621 64.1882 421.407 63.3841C421.118 62.2911 420.653 61.1854 420.063 60.1552C419.309 58.836 418.342 57.6425 417.274 56.7504C416.834 46.1089 409.497 33.5326 400.627 28.3689C394.823 24.9893 389.772 25.6049 386.933 29.3112C386.116 28.5323 385.237 27.8538 384.345 27.3261C384.068 27.1628 383.792 27.0246 383.515 26.8864C379.181 24.8511 375.852 27.2256 375.927 32.515C372.987 30.9571 370.65 32.4773 370.701 36.0203L370.688 36.0328Z" fill="#F0F0F0"/>
<g filter="url(#filter2_f_290_152)">
<path d="M128.588 434.429L106.376 449.254C103.172 451.378 103.323 456.114 106.652 458.037L233.67 531.371C238.406 534.11 244.236 534.097 248.972 531.346L498.246 386.247C500.583 384.89 500.645 381.536 498.359 380.091L482.629 370.241L248.319 501.871L128.601 434.417L128.588 434.429Z" fill="#E5E5E5"/>
</g>
<path d="M117.382 413.686V443.01C117.382 445.272 118.588 447.357 120.535 448.488L228.883 511.47L229.851 512.035L232.2 513.392C234.059 514.222 235.881 514.485 237.552 514.435L236.823 482.661L117.369 413.674L117.382 413.686Z" fill="#252B3D"/>
<path d="M236.823 482.674L237.552 514.448C240.63 514.36 243.143 513.229 244.236 512.651C244.248 512.651 244.273 512.639 244.286 512.626L244.814 512.324L478.483 377.415C481.046 375.932 482.617 373.206 482.617 370.241V341.772L236.823 482.674Z" fill="#121212"/>
<path d="M161.681 407.178L264.928 467.17L465.668 351.257L361.743 291.68L161.681 407.178Z" fill="white"/>
<path d="M161.681 407.178L264.928 467.17L465.668 351.257L361.743 291.68L161.681 407.178Z" fill="white"/>
<path d="M149.758 452.961V457.27C149.758 457.609 149.946 457.936 150.235 458.099L191.62 481.996C192.26 482.36 193.052 481.908 193.052 481.166V476.857C193.052 476.518 192.863 476.191 192.574 476.028L151.19 452.132C150.549 451.767 149.758 452.22 149.758 452.961Z" fill="#6B749B"/>
<path d="M149.758 452.961V455.411C149.758 455.75 149.946 456.077 150.235 456.24L191.62 480.136C192.26 480.501 193.052 480.048 193.052 479.307V476.857C193.052 476.518 192.863 476.191 192.574 476.028L151.19 452.132C150.549 451.767 149.758 452.22 149.758 452.961Z" fill="#222222"/>
<path d="M210.541 491.205C210.666 493.768 211.835 495.791 213.154 495.728C213.317 495.728 213.468 495.678 213.606 495.615C214.674 495.15 215.415 493.228 215.302 490.966C215.189 488.793 214.335 486.996 213.267 486.556C213.078 486.468 212.877 486.431 212.689 486.443C211.37 486.506 210.402 488.642 210.528 491.205H210.541Z" fill="#6B749B"/>
<path d="M211.583 491.205C211.696 493.378 212.551 495.175 213.619 495.615C214.687 495.15 215.428 493.228 215.315 490.966C215.202 488.793 214.347 486.996 213.279 486.556C212.199 487.021 211.47 488.943 211.583 491.205Z" fill="#222222"/>
<path d="M480.808 344.825L245.894 480.45C240.743 483.428 234.386 483.415 229.235 480.425L119.241 416.551C116.753 415.106 116.766 411.513 119.241 410.081L359.846 271.163C361.001 270.497 362.421 270.497 363.577 271.163L480.782 338.342C483.283 339.774 483.295 343.38 480.782 344.825H480.808Z" fill="#222222"/>
<path d="M175.601 435.083C175.601 439.53 182.624 443.136 191.293 443.136C199.962 443.136 206.985 439.53 206.985 435.083C206.985 430.635 199.962 427.029 191.293 427.029C182.624 427.029 175.601 430.635 175.601 435.083Z" fill="#6B749B"/>
<path d="M161.668 397.542L201.508 420.697L219.561 431.163L256.699 452.76L264.916 457.534L298.121 438.374L330.975 419.39L349.029 408.963L394.006 383.006L435.428 359.084L465.669 341.621L435.428 324.295L394.006 300.55L361.731 282.044L349.029 289.356L330.975 299.784L298.121 318.767L256.699 342.689L219.561 364.123L201.508 374.55L161.668 397.542Z" fill="white"/>
<path d="M259.689 441.754C259.237 441.754 258.772 441.641 258.345 441.39L189.032 401.11C187.763 400.369 187.323 398.736 188.064 397.467C188.806 396.198 190.439 395.758 191.708 396.499L261.021 436.779C262.29 437.52 262.729 439.153 261.988 440.422C261.498 441.276 260.594 441.754 259.677 441.754H259.689Z" fill="#E5E5E5"/>
<path d="M278.422 431.427C277.969 431.427 277.504 431.313 277.077 431.062L207.764 390.783C206.495 390.042 206.055 388.408 206.797 387.139C207.538 385.87 209.171 385.431 210.44 386.172L279.753 426.451C281.022 427.193 281.462 428.826 280.721 430.095C280.231 430.949 279.326 431.427 278.409 431.427H278.422Z" fill="#E5E5E5"/>
<path d="M297.153 421.099C296.701 421.099 296.236 420.986 295.809 420.735L226.496 380.455C225.227 379.714 224.787 378.081 225.529 376.812C226.27 375.543 227.903 375.103 229.172 375.844L298.485 416.124C299.754 416.865 300.194 418.498 299.453 419.78C298.963 420.634 298.058 421.112 297.141 421.112L297.153 421.099Z" fill="#E5E5E5"/>
<path d="M315.899 410.772C315.446 410.772 314.981 410.659 314.554 410.407L245.241 370.128C243.972 369.387 243.532 367.753 244.274 366.485C245.015 365.216 246.648 364.776 247.917 365.517L317.23 405.796C318.499 406.538 318.939 408.171 318.198 409.453C317.708 410.307 316.803 410.784 315.886 410.784L315.899 410.772Z" fill="#E5E5E5"/>
<path d="M334.631 400.444C334.178 400.444 333.713 400.331 333.286 400.08L263.973 359.801C262.704 359.059 262.264 357.426 263.006 356.157C263.747 354.888 265.38 354.448 266.649 355.19L335.962 395.469C337.231 396.21 337.671 397.844 336.93 399.125C336.44 399.979 335.535 400.457 334.618 400.457L334.631 400.444Z" fill="#E5E5E5"/>
<path d="M353.376 390.117C352.923 390.117 352.459 390.004 352.031 389.753L282.718 349.473C281.449 348.732 281.01 347.099 281.751 345.83C282.492 344.561 284.125 344.121 285.394 344.862L354.707 385.142C355.976 385.883 356.416 387.516 355.675 388.785C355.185 389.639 354.28 390.117 353.363 390.117H353.376Z" fill="#E5E5E5"/>
<path d="M372.108 379.789C371.656 379.789 371.191 379.676 370.764 379.425L301.451 339.146C300.182 338.404 299.742 336.771 300.483 335.502C301.224 334.233 302.858 333.794 304.127 334.535L373.44 374.814C374.709 375.555 375.148 377.189 374.407 378.458C373.917 379.312 373.013 379.789 372.096 379.789H372.108Z" fill="#E5E5E5"/>
<path d="M390.84 369.462C390.388 369.462 389.923 369.349 389.496 369.098L320.183 328.818C318.914 328.077 318.474 326.444 319.215 325.175C319.956 323.893 321.59 323.466 322.859 324.207L392.172 364.487C393.441 365.228 393.88 366.861 393.139 368.13C392.649 368.985 391.745 369.462 390.827 369.462H390.84Z" fill="#E5E5E5"/>
<path d="M409.585 359.135C409.133 359.135 408.668 359.022 408.241 358.77L338.928 318.491C337.659 317.75 337.219 316.116 337.96 314.847C338.702 313.566 340.335 313.139 341.604 313.88L410.917 354.159C412.186 354.901 412.625 356.534 411.884 357.803C411.394 358.657 410.49 359.135 409.573 359.135H409.585Z" fill="#E5E5E5"/>
<path d="M428.317 348.807C427.865 348.807 427.4 348.694 426.973 348.443L357.66 308.164C356.391 307.422 355.951 305.789 356.692 304.52C357.433 303.251 359.067 302.811 360.348 303.553L429.661 343.832C430.93 344.573 431.37 346.207 430.629 347.476C430.139 348.33 429.234 348.807 428.317 348.807Z" fill="#E5E5E5"/>
<path opacity="0.1" d="M190.614 368.872L269.865 414.641L367.434 358.305L288.183 312.548L190.614 368.872Z" fill="#252B3D"/>
<path d="M371.969 269.166V354.75L284.628 410.608L276.738 415.659C276.738 415.659 276.65 415.722 276.599 415.747C275.921 416.136 274.991 416.388 274.087 416.425C273.333 416.463 272.592 416.337 272.051 416.036L259.513 408.535C258.257 407.782 257.49 406.437 257.49 404.967V348.87C257.49 347.664 258.005 346.521 258.897 345.742C259.098 345.553 259.325 345.39 259.563 345.252L316.149 312.749L325.811 286.592C326.552 284.569 327.984 282.873 329.856 281.792L361.856 263.311C366.353 260.71 371.969 263.964 371.969 269.153V269.166Z" fill="#8800B5"/>
<path d="M257.565 348.016C257.503 348.292 257.478 348.581 257.478 348.87V404.98C257.478 406.437 258.244 407.794 259.5 408.548L272.039 416.048C273.295 416.752 275.531 416.45 276.737 415.672L284.627 410.621L274.313 360.994C269.074 358.544 259.651 351.458 257.565 348.028V348.016Z" fill="#A156FF"/>
<path d="M331.226 307.498L283.685 335.238C281.675 336.419 280.431 338.568 280.431 340.905V371.46C280.431 376.523 285.921 379.676 290.294 377.126L343.651 345.98V314.634C343.651 308.252 336.728 304.281 331.213 307.498H331.226Z" fill="#E5E5E5"/>
<path d="M336.414 308.817L287.932 337.11C285.922 338.291 284.678 340.44 284.678 342.777V373.332C284.678 378.395 290.168 381.548 294.54 378.998L337.771 353.77C341.415 351.647 343.664 347.739 343.664 343.518V312.988C343.664 309.269 339.631 306.945 336.414 308.829V308.817Z" fill="white"/>
<path d="M294.314 373.696C293.447 373.696 292.756 372.905 292.756 371.937V345.126C292.756 344.159 293.459 343.367 294.314 343.367C295.168 343.367 295.872 344.159 295.872 345.126V371.937C295.872 372.905 295.168 373.696 294.314 373.696Z" fill="#E5E5E5"/>
<path d="M302.543 368.143C301.676 368.143 300.985 367.351 300.985 366.384V339.573C300.985 338.606 301.688 337.814 302.543 337.814C303.397 337.814 304.101 338.606 304.101 339.573V366.384C304.101 367.351 303.397 368.143 302.543 368.143Z" fill="#E5E5E5"/>
<path d="M310.784 362.577C309.918 362.577 309.227 361.786 309.227 360.818V334.007C309.227 333.04 309.93 332.248 310.784 332.248C311.639 332.248 312.342 333.04 312.342 334.007V360.818C312.342 361.786 311.639 362.577 310.784 362.577Z" fill="#E5E5E5"/>
<path d="M319.026 357.011C318.159 357.011 317.468 356.22 317.468 355.252V328.441C317.468 327.474 318.172 326.682 319.026 326.682C319.88 326.682 320.584 327.474 320.584 328.441V355.252C320.584 356.22 319.88 357.011 319.026 357.011Z" fill="#E5E5E5"/>
<path d="M327.255 351.458C326.388 351.458 325.697 350.667 325.697 349.699V322.888C325.697 321.921 326.401 321.129 327.255 321.129C328.109 321.129 328.813 321.921 328.813 322.888V349.699C328.813 350.667 328.109 351.458 327.255 351.458Z" fill="#E5E5E5"/>
<path d="M335.497 345.892C334.63 345.892 333.939 345.101 333.939 344.134V317.323C333.939 316.355 334.643 315.564 335.497 315.564C336.351 315.564 337.055 316.355 337.055 317.323V344.134C337.055 345.101 336.351 345.892 335.497 345.892Z" fill="#E5E5E5"/>
<path d="M377.007 278.827V358.695C377.007 358.795 376.957 358.896 376.856 358.946L276.599 415.747C275.921 416.136 274.991 416.388 274.086 416.425V361.409C274.086 361.233 274.174 361.082 274.325 360.994L280.444 357.476L284.69 355.039L292.756 350.403L295.872 348.619L300.985 345.679L304.101 343.895L309.214 340.955L312.33 339.171L317.443 336.231L320.559 334.447L325.672 331.507L328.788 329.71L330.045 328.982L333.902 318.554L334.957 315.702L337.671 308.339L338.198 306.92L340.862 299.721L371.931 281.78L376.957 278.877L377.007 278.827Z" fill="#C65EFF"/>
<path d="M318.787 372.766L324.454 368.997L324.315 347.928C324.303 345.176 326.238 341.646 328.65 340.05C331.062 338.455 333.035 339.384 333.047 342.123L333.185 363.193L338.851 359.424L333.864 368.356L328.876 377.289L323.825 375.015L318.775 372.741L318.787 372.766Z" fill="#A156FF"/>
<g filter="url(#filter3_f_290_152)">
<path d="M460.291 498.801C482.28 492.074 498.001 479.741 495.404 471.255C492.808 462.768 472.878 461.342 450.889 468.069C428.901 474.796 413.18 487.129 415.776 495.615C418.372 504.102 438.302 505.528 460.291 498.801Z" fill="#E5E5E5"/>
</g>
<path d="M382.736 248.875C382.736 248.875 374.03 250.546 370.374 273.563C366.718 296.58 358.438 290.926 359.23 302.384C360.021 313.842 370.512 317.549 379.407 310.111C388.302 302.661 400.363 302.724 408.919 304.445C417.487 306.166 413.932 296.404 411.004 285.976C408.077 275.536 411.155 269.442 409.371 261.929C407.587 254.416 396.657 245.772 382.736 248.875Z" fill="#252B3D"/>
<path d="M410.263 333.819C410.275 333.932 410.3 334.057 410.313 334.171C410.338 334.372 410.376 334.573 410.426 334.774C412.612 345.566 428.392 363.582 428.392 363.582L436.483 358.858C428.794 348.543 420.288 327.16 420.288 327.16L414.961 330.703L410.263 333.831V333.819Z" fill="#6729B5"/>
<path d="M404.019 320.928C405.011 325.866 407.486 330.276 409.924 333.63C410.062 333.806 410.188 333.995 410.313 334.158C410.414 334.296 410.527 334.434 410.627 334.573C411.343 335.502 412.034 336.332 412.675 337.06C413.781 335.666 415.012 334.384 416.143 333.015C417.06 331.922 417.776 330.678 418.58 329.509C419.108 328.73 419.673 327.914 420.289 327.147C415.112 315.777 410.64 291.969 410.64 291.969C410.64 291.969 401.795 309.86 404.006 320.928H404.019Z" fill="#6729B5"/>
<path d="M409.924 333.643C410.062 333.819 410.188 334.007 410.313 334.171C410.338 334.372 410.376 334.573 410.426 334.774C410.489 334.711 410.552 334.648 410.627 334.585C411.645 333.643 413.165 332.5 415.025 331.821C415.251 331.733 415.389 331.532 415.414 331.319C415.414 331.231 415.414 331.155 415.376 331.067C415.313 330.879 415.15 330.741 414.962 330.69C414.861 330.665 414.736 330.678 414.622 330.716C412.637 331.444 411.029 332.638 409.911 333.643H409.924Z" fill="#BE74D1"/>
<path d="M468.633 460.637C467.653 461.391 467.213 462.685 467.452 463.916C467.666 464.997 468.068 466.517 468.821 468.439C470.505 472.749 471.208 474.558 471.208 474.558C471.208 474.558 473.319 476.329 477.314 475.613L478.847 475.337C478.847 475.337 488.848 477.485 492.981 476.468C498.371 475.136 502.843 470.852 496.738 467.309C490.971 463.967 484.312 464.168 481.184 460.964C480.82 460.587 479.149 460.11 478.684 459.883C474.739 457.924 472.226 457.861 468.645 460.637H468.633Z" fill="#0C0B0E"/>
<path d="M480.845 466.768C481.033 466.706 481.172 466.53 481.184 466.316C481.184 466.303 481.31 464.57 482.403 463.728C483.433 462.924 485.066 463.489 485.079 463.502C485.343 463.602 485.644 463.464 485.745 463.2C485.845 462.936 485.707 462.635 485.443 462.534C485.355 462.497 483.27 461.755 481.775 462.911C480.33 464.042 480.179 466.153 480.167 466.241C480.154 466.53 480.368 466.768 480.644 466.793C480.719 466.793 480.782 466.793 480.845 466.768Z" fill="white"/>
<path d="M482.981 467.384C483.169 467.321 483.307 467.145 483.32 466.932C483.32 466.919 483.446 465.185 484.539 464.344C485.569 463.539 487.202 464.105 487.215 464.117C487.478 464.218 487.78 464.08 487.88 463.816C487.981 463.552 487.843 463.251 487.579 463.15C487.491 463.112 485.405 462.371 483.91 463.527C482.466 464.658 482.315 466.768 482.302 466.856C482.29 467.145 482.503 467.384 482.78 467.409C482.855 467.409 482.918 467.409 482.981 467.384Z" fill="white"/>
<path d="M485.305 467.773C485.493 467.711 485.632 467.535 485.644 467.321C485.644 467.309 485.77 465.575 486.863 464.733C487.893 463.929 489.526 464.494 489.539 464.507C489.803 464.607 490.104 464.469 490.205 464.205C490.305 463.942 490.167 463.64 489.903 463.54C489.815 463.502 487.73 462.761 486.235 463.916C484.79 465.047 484.639 467.158 484.627 467.246C484.614 467.535 484.828 467.773 485.104 467.799C485.179 467.799 485.242 467.799 485.305 467.773Z" fill="white"/>
<path d="M464.135 452.835L470.128 462.572C470.128 462.572 474.55 464.042 477.754 460.889L471.862 450.159C471.862 450.159 466.246 450.373 464.148 452.835H464.135Z" fill="#FCB38F"/>
<path d="M475.028 448.475L477.503 453.576C477.503 453.576 472.917 458.426 466.145 459.896L463.721 455.448C463.721 455.448 470.982 452.219 475.015 448.475H475.028Z" fill="#222222"/>
<path d="M408.001 376.85C408.001 376.85 428.065 392.906 432.676 396.411C437.275 399.917 440.931 408.598 443.984 416.564C446.873 424.102 466.422 456.541 466.422 456.541L474.5 451.491C474.5 451.491 457.703 396.926 453.934 390.481C450.165 384.036 427.123 363.18 427.123 363.18C427.123 363.18 411.08 368.52 408.014 376.837L408.001 376.85Z" fill="#252B3D"/>
<path d="M372.145 366.309C372.145 366.309 368.69 381.825 371.643 394.489C374.042 404.741 414.937 393.698 415.791 384.199C416.645 374.701 411.783 361.446 411.783 361.446L372.145 366.296V366.309Z" fill="#252B3D"/>
<path d="M414.61 367.879C399.483 373.03 383.691 376.347 371.215 368.067C373.439 355.692 375.499 339.56 374.243 332.273C372.145 320.112 360.385 299.57 370.273 295.198C372.622 294.155 376.303 293.15 380.5 292.22C386.09 290.989 392.636 289.908 398.403 289.067C401.116 288.665 404.22 288.765 406.016 289.029C410.099 289.607 411.544 291.416 410.401 295.474C408.994 300.437 408.805 305.776 411.18 311.191C415.162 320.3 408.994 325.25 408.089 333.341C407.373 339.862 412.198 357.841 414.61 367.866V367.879Z" fill="#C65EFF"/>
<path d="M392.95 304.445C394.018 304.445 395.048 304.143 396.003 303.528C402.109 299.608 398.704 289.054 398.553 288.602L397.46 288.966C397.498 289.067 400.727 299.118 395.375 302.56C393.817 303.565 392.058 303.553 390.148 302.51C386.078 300.286 382.774 294.218 382.774 291.429H381.63C381.63 294.833 385.387 301.203 389.608 303.515C390.739 304.131 391.87 304.445 392.95 304.445Z" fill="white"/>
<path d="M391.43 333.819C401.946 333.819 407.574 330.803 407.85 330.653C408.139 330.502 408.24 330.138 408.077 329.861C407.926 329.572 407.561 329.472 407.285 329.635C407.21 329.673 399.257 333.907 384.834 332.273C384.507 332.236 384.218 332.474 384.181 332.789C384.143 333.115 384.382 333.404 384.696 333.442C387.121 333.718 389.369 333.831 391.417 333.831L391.43 333.819Z" fill="#A156FF"/>
<path d="M393.918 312.561C393.918 312.561 394.031 312.561 394.093 312.536C400.664 310.538 402.147 306.028 402.209 305.839C402.31 305.525 402.134 305.198 401.82 305.098C401.518 304.997 401.179 305.173 401.091 305.475C401.041 305.651 399.697 309.596 393.754 311.405C393.44 311.505 393.264 311.832 393.365 312.134C393.44 312.385 393.679 312.548 393.93 312.548L393.918 312.561Z" fill="#A156FF"/>
<path d="M385.613 365.228C400.048 365.228 408.227 357.288 408.567 356.949C408.793 356.722 408.793 356.346 408.567 356.119C408.34 355.893 407.964 355.893 407.737 356.119C407.662 356.195 399.546 364.06 385.613 364.06C385.286 364.06 385.022 364.323 385.022 364.65C385.022 364.977 385.286 365.241 385.613 365.241V365.228Z" fill="#A156FF"/>
<path d="M387.284 362.527C387.284 362.527 387.284 362.527 387.296 362.527C392.686 362.401 399.458 358.054 399.747 357.866C400.023 357.69 400.099 357.326 399.923 357.062C399.747 356.785 399.383 356.71 399.106 356.886C399.043 356.923 392.309 361.233 387.259 361.358C386.932 361.358 386.681 361.635 386.693 361.962C386.693 362.276 386.957 362.539 387.284 362.539V362.527Z" fill="#A156FF"/>
<path d="M384.998 281.554C384.998 281.554 377.258 278.702 375.713 270.774C374.168 262.834 374.62 251.174 385.45 247.757C396.28 244.327 406.293 247.619 408.705 257.62C408.705 257.62 400.401 277.533 384.985 281.566L384.998 281.554Z" fill="#252B3D"/>
<path d="M397.147 285.335L396.556 290.826L396.23 294.042C389.96 296.743 383.553 292.698 383.616 292.132C384.294 289.695 384.822 285.524 384.998 281.541C385.111 281.466 385.224 281.403 385.349 281.353C388.654 279.92 397.147 285.335 397.147 285.335Z" fill="#FCB38F"/>
<path d="M397.147 285.335L396.556 290.826C390.3 288.614 386.87 284.004 385.35 281.353C388.654 279.92 397.147 285.335 397.147 285.335Z" fill="#FD8471"/>
<path d="M406.82 267.972C406.82 267.972 409.258 265.07 410.803 267.671C412.348 270.271 409.547 277.521 405.514 275.485L406.82 267.972Z" fill="#FD8471"/>
<path d="M408.001 274.292C408.052 274.581 408.315 274.769 408.604 274.719C408.893 274.669 409.082 274.405 409.031 274.116C408.981 273.827 408.717 273.638 408.428 273.689C408.139 273.739 407.951 274.003 408.001 274.292Z" fill="white"/>
<path d="M406.557 273.249C406.707 273.249 406.858 273.161 406.908 273.01C407.675 270.761 410.099 269.97 410.112 269.97C410.3 269.907 410.401 269.719 410.338 269.53C410.275 269.342 410.087 269.241 409.898 269.304C409.785 269.342 407.122 270.208 406.242 272.784C406.18 272.973 406.28 273.161 406.456 273.224C406.481 273.224 406.519 273.236 406.544 273.236L406.557 273.249Z" fill="#D6615D"/>
<path d="M409.006 272.231C409.069 272.231 409.132 272.231 409.195 272.181C409.358 272.081 409.421 271.867 409.32 271.704C409.308 271.678 408.918 271.013 408.064 270.573C407.888 270.485 407.687 270.548 407.599 270.724C407.511 270.9 407.574 271.101 407.75 271.201C408.403 271.54 408.705 272.055 408.717 272.055C408.78 272.168 408.893 272.231 409.006 272.231Z" fill="#D6615D"/>
<path d="M408.793 271.591C408.73 272.407 408.655 273.174 408.542 273.865C407.511 280.084 402.046 292.723 391.091 286.29C388.465 284.745 386.518 283.212 384.985 281.554C383.829 280.297 382.924 278.965 382.146 277.495C381.844 276.93 381.706 276.289 381.517 275.674C381.48 275.561 381.455 275.46 381.417 275.347C381.404 275.284 381.379 275.221 381.354 275.159C380.814 273.375 380.399 271.565 380.073 269.844C379.671 267.696 379.419 265.698 379.268 264.052C378.98 261.024 380.311 258.084 382.774 256.288C389.42 251.438 397.096 252.079 402.26 253.411C405.84 254.34 408.428 257.456 408.667 261.137C408.78 262.884 408.881 264.881 408.906 266.867C408.931 268.5 408.906 270.121 408.78 271.591H408.793Z" fill="#FCB38F"/>
<path d="M404.195 265.623C404.195 265.296 404.484 265.057 404.798 265.057C405.652 265.083 406.733 265.196 407.7 265.535C409.735 266.226 410.012 266.816 410.012 266.816C410.012 266.816 409.76 267.055 407.084 266.515C406.393 266.377 405.489 266.314 404.71 266.238C404.396 266.213 404.17 265.937 404.182 265.635L404.195 265.623Z" fill="#252B3D"/>
<path d="M397.134 265.221C397.197 264.844 396.933 264.479 396.556 264.429C395.538 264.266 394.257 264.153 393.038 264.316C390.488 264.668 390.023 265.284 390.023 265.284C390.023 265.284 390.262 265.623 393.528 265.598C394.37 265.598 395.438 265.736 396.38 265.824C396.744 265.861 397.084 265.598 397.134 265.233C397.134 265.233 397.134 265.233 397.134 265.221Z" fill="#252B3D"/>
<path d="M399.119 276.402C399.119 276.402 399.182 276.39 399.207 276.377L401.493 275.485L400.564 269.932C400.526 269.681 400.275 269.505 400.023 269.543C399.772 269.58 399.596 269.832 399.634 270.083L400.438 274.895L398.868 275.51C398.629 275.598 398.503 275.875 398.604 276.113C398.692 276.327 398.905 276.44 399.119 276.402Z" fill="#FD8471"/>
<path d="M385.877 275.159C385.877 275.159 384.733 277.357 382.158 277.483C381.932 276.88 381.718 276.277 381.53 275.661C382.774 275.887 384.696 276.026 385.889 275.159H385.877Z" fill="#FD8471"/>
<path d="M384.998 281.554C383.842 280.297 382.937 278.965 382.158 277.495C381.857 276.93 381.719 276.289 381.53 275.674C381.492 275.561 381.467 275.46 381.43 275.347C381.694 275.347 382.133 275.448 382.837 275.674C382.837 275.674 385.764 279.028 384.998 281.554Z" fill="#252B3D"/>
<path d="M403.001 278.815C402.461 280.398 400.991 283.237 397.385 282.747C393.767 282.257 393.113 279.405 393.025 277.47L403.013 278.802L403.001 278.815Z" fill="white"/>
<path d="M394.897 270.372C394.847 271.251 394.357 271.93 393.792 271.905C393.239 271.88 392.824 271.138 392.875 270.259C392.925 269.379 393.415 268.701 393.98 268.726C394.533 268.764 394.948 269.492 394.897 270.372Z" fill="#252B3D"/>
<path d="M406.393 271.025C406.343 271.905 405.853 272.583 405.287 272.558C404.735 272.52 404.32 271.792 404.37 270.912C404.421 270.033 404.911 269.354 405.476 269.379C406.029 269.417 406.443 270.146 406.393 271.025Z" fill="#252B3D"/>
<path d="M382.623 268.613C382.623 268.613 380.123 266.05 378.841 268.613C377.56 271.163 380.11 277.508 384.545 275.661L382.61 268.625L382.623 268.613Z" fill="#FCB38F"/>
<path d="M381.693 275.184C381.743 275.473 382.007 275.661 382.296 275.611C382.585 275.561 382.774 275.297 382.723 275.008C382.673 274.719 382.409 274.53 382.12 274.581C381.831 274.631 381.643 274.895 381.693 275.184Z" fill="white"/>
<path d="M383.239 273.563C383.1 273.576 382.95 273.5 382.887 273.362C382.007 271.302 379.67 270.724 379.658 270.711C379.482 270.673 379.369 270.485 379.419 270.309C379.457 270.133 379.645 270.02 379.821 270.058C379.934 270.083 382.497 270.711 383.515 273.086C383.59 273.249 383.515 273.45 383.339 273.525C383.314 273.525 383.276 273.55 383.251 273.55L383.239 273.563Z" fill="#FD8471"/>
<path d="M380.864 272.784C380.864 272.784 380.738 272.784 380.676 272.759C380.512 272.684 380.437 272.483 380.512 272.319C380.525 272.294 380.839 271.641 381.618 271.163C381.769 271.063 381.982 271.113 382.07 271.276C382.171 271.427 382.12 271.641 381.957 271.729C381.354 272.093 381.115 272.596 381.103 272.596C381.052 272.696 380.952 272.772 380.851 272.784H380.864Z" fill="#FD8471"/>
<path d="M379.721 267.633C380.726 267.344 381.568 267.457 382.171 267.733C382.585 267.922 382.925 268.211 383.226 268.588C383.289 268.663 383.352 268.739 383.415 268.827C383.553 268.776 383.679 268.701 383.804 268.6C384.081 268.399 384.319 268.098 384.545 267.759C385.111 266.841 385.802 266.176 386.003 265.321C386.317 264.027 387.737 262.846 387.737 262.846C398.767 266.276 407.499 256.765 407.499 256.765C404.082 246.262 385.525 251.262 380.739 253.813C375.952 256.351 374.444 269.178 379.721 267.646V267.633Z" fill="#252B3D"/>
<path d="M404.999 257.494C404.999 257.494 404.057 264.794 409.082 267.369C409.082 267.369 411.243 252.556 404.999 257.494Z" fill="#252B3D"/>
<path d="M393.139 275.096C390.488 274.945 388.44 272.671 388.591 270.02C388.742 267.369 391.016 265.321 393.666 265.472C396.317 265.623 398.365 267.897 398.214 270.56C398.064 273.211 395.79 275.259 393.139 275.108V275.096ZM385.312 267.809C386.166 267.884 388.704 268.412 389.181 268.512C389.118 268.789 388.804 269.794 388.855 269.518C388.892 269.329 387.247 268.977 387.247 269.002C386.694 268.889 385.714 268.701 384.583 268.651C384.395 268.651 383.641 268.663 383.415 268.801C383.113 268.424 382.724 268.035 382.397 267.821C383.226 267.759 384.596 267.721 385.312 267.796V267.809ZM393.629 266.201C391.392 266.075 389.458 267.796 389.345 270.045C389.219 272.282 390.94 274.216 393.189 274.329C395.425 274.455 397.36 272.734 397.473 270.485C397.586 268.236 395.878 266.314 393.629 266.201Z" fill="white"/>
<path d="M406.305 275.812C403.654 275.661 401.607 273.387 401.757 270.724C401.908 268.073 404.182 266.025 406.833 266.176C409.484 266.326 411.532 268.6 411.381 271.251C411.23 273.902 408.956 275.95 406.305 275.799V275.812ZM406.795 266.929C404.559 266.804 402.624 268.525 402.511 270.774C402.386 273.01 404.107 274.945 406.356 275.058C408.592 275.184 410.527 273.463 410.64 271.214C410.765 268.977 409.044 267.042 406.795 266.929Z" fill="white"/>
<path d="M402.084 269.668C402.084 269.668 401.255 268.399 400.074 268.337C398.918 268.274 398.038 269.43 398.026 269.442L397.423 269.002C397.423 269.002 398.541 267.507 400.111 267.583C401.669 267.671 402.674 269.191 402.712 269.254L402.084 269.656V269.668Z" fill="white"/>
<path d="M423.266 474.043C422.085 474.432 421.243 475.487 421.055 476.744C420.891 477.837 420.766 479.395 420.828 481.468C420.967 486.091 421.03 487.976 421.03 487.976C421.03 487.976 422.424 490.413 426.432 491.079L427.613 491.242C427.613 491.242 436.684 496.695 440.918 497.11C446.446 497.663 452.087 495.112 447.526 489.735C443.204 484.659 436.86 482.624 434.988 478.553C434.774 478.076 433.354 477.071 432.99 476.694C429.925 473.528 427.575 472.623 423.278 474.043H423.266Z" fill="#0C0B0E"/>
<path d="M432.525 483.792C432.726 483.792 432.914 483.679 433.002 483.478C433.002 483.465 433.706 481.882 435.013 481.443C436.256 481.028 437.601 482.109 437.613 482.121C437.827 482.297 438.153 482.272 438.342 482.058C438.518 481.845 438.493 481.518 438.279 481.33C438.204 481.267 436.495 479.86 434.699 480.463C432.952 481.041 432.11 482.988 432.073 483.063C431.96 483.327 432.073 483.629 432.349 483.742C432.412 483.767 432.487 483.78 432.55 483.78L432.525 483.792Z" fill="white"/>
<path d="M434.334 485.086C434.535 485.086 434.724 484.973 434.812 484.772C434.812 484.76 435.515 483.177 436.822 482.737C438.065 482.322 439.41 483.403 439.422 483.415C439.636 483.591 439.963 483.566 440.151 483.352C440.327 483.139 440.302 482.812 440.088 482.624C440.013 482.561 438.304 481.154 436.508 481.757C434.761 482.335 433.92 484.282 433.882 484.357C433.769 484.621 433.882 484.923 434.158 485.036C434.221 485.061 434.296 485.074 434.359 485.074L434.334 485.086Z" fill="white"/>
<path d="M436.382 486.242C436.583 486.242 436.771 486.129 436.859 485.928C436.859 485.915 437.563 484.332 438.87 483.893C440.113 483.478 441.458 484.559 441.47 484.571C441.684 484.747 442.01 484.722 442.199 484.508C442.375 484.295 442.35 483.968 442.136 483.78C442.061 483.717 440.352 482.31 438.555 482.913C436.809 483.491 435.967 485.438 435.93 485.513C435.817 485.777 435.93 486.079 436.206 486.192C436.269 486.217 436.344 486.23 436.407 486.23L436.382 486.242Z" fill="white"/>
<path d="M421.318 465.173L423.278 476.38C423.278 476.38 426.834 479.257 430.967 477.347L429.472 465.248C429.472 465.248 424.195 463.565 421.318 465.185V465.173Z" fill="#FCB38F"/>
<path d="M388.716 379.777C388.716 379.777 424.321 394.879 426.319 403.12C428.317 411.362 431.784 468.64 431.784 468.64C431.784 468.64 426.457 471.643 420.552 470.475C420.552 470.475 416.984 451.29 415.326 446.139C413.655 440.987 409.886 422.393 409.27 415.533C409.27 415.533 378.226 407.317 373.74 399.653C363.878 382.83 388.716 379.764 388.716 379.764V379.777Z" fill="#252B3D"/>
<path d="M432.312 464.18L432.94 469.809C432.94 469.809 426.997 472.849 420.125 471.97L419.333 466.969C419.333 466.969 427.261 466.354 432.312 464.168V464.18Z" fill="#222222"/>
<path d="M404.534 401.801L379.281 387.391C377.962 386.637 377.962 384.727 379.294 383.986L408.956 367.339C409.534 367.012 410.238 367 410.828 367.314L436.157 380.707C437.501 381.423 437.551 383.332 436.244 384.111L406.494 401.776C405.891 402.14 405.137 402.14 404.521 401.789L404.534 401.801Z" fill="#86A0C8"/>
<path d="M404.534 398.824L379.281 384.413C377.962 383.659 377.962 381.749 379.294 381.008L408.956 364.361C409.534 364.035 410.238 364.022 410.828 364.336L436.157 377.729C437.501 378.445 437.551 380.355 436.244 381.134L406.494 398.798C405.891 399.163 405.137 399.163 404.521 398.811L404.534 398.824Z" fill="#121212"/>
<path d="M378.327 385.607V382.817L404.434 397.203V401.814L379.42 387.479C378.754 387.089 378.339 386.385 378.339 385.607H378.327Z" fill="#222222"/>
<path d="M404.434 367.929V400.13C404.434 401.814 405.816 402.995 407.323 402.982H412.876V400.193L453.419 376.799C454.298 376.284 454.851 375.342 454.851 374.324V343.857H457.464V339.259H451.949C451.484 339.259 451.007 339.372 450.567 339.636L405.866 365.442C404.986 365.944 404.434 366.899 404.434 367.917V367.929Z" fill="#222222"/>
<path d="M456.019 339.648L411.331 365.454C410.451 365.969 409.898 366.912 409.898 367.929V400.13C409.898 402.329 412.286 403.711 414.183 402.605L458.871 376.799C459.751 376.284 460.303 375.342 460.303 374.324V342.123C460.303 339.925 457.916 338.543 456.019 339.648Z" fill="#6B749B"/>
<path d="M433.895 372.427C433.895 374.952 435.365 377 437.199 377.013C439.034 377.025 440.529 374.978 440.541 372.465C440.541 369.94 439.071 367.892 437.237 367.879C435.403 367.879 433.908 369.914 433.895 372.427Z" fill="#9CA6C8"/>
<path d="M366.466 342.149C369.871 341.659 373.703 340.264 377.07 339.535C376.995 339.121 376.907 338.681 376.831 338.204C376.806 338.04 376.781 337.877 376.743 337.701C376.706 337.487 376.681 337.274 376.643 337.048C374.67 323.805 373.716 293.967 373.716 293.967C373.716 293.967 363.577 294.13 362.17 305.324C361.24 312.8 364.808 333.794 366.454 342.149H366.466Z" fill="#6729B5"/>
<path d="M366.466 342.149C369.833 352.338 392.975 376.548 392.975 376.548L398.931 369.299C383.44 348.682 378.176 340.138 377.02 338.166C376.831 337.852 376.756 337.701 376.756 337.701L371.869 339.812L366.479 342.149H366.466Z" fill="#6729B5"/>
<path d="M371.793 339.724C371.793 339.724 371.831 339.787 371.856 339.812C371.894 339.849 371.932 339.874 371.969 339.9C372.158 340.013 372.396 340.025 372.597 339.9C374.017 338.982 375.55 338.48 376.819 338.203C376.882 338.191 376.944 338.178 377.007 338.166C376.819 337.852 376.743 337.701 376.743 337.701C376.706 337.487 376.681 337.274 376.643 337.048C375.248 337.349 373.552 337.902 371.969 338.92C371.693 339.096 371.617 339.46 371.793 339.736V339.724Z" fill="#BE74D1"/>
<path d="M398.918 369.299C398.918 369.299 404.057 369.889 404.421 371.824V382.817C404.421 382.817 397.197 382.227 392.963 376.561L398.918 369.311V369.299Z" fill="#FCB38F"/>
<path d="M310.961 276.252C310.421 275.938 309.767 275.938 309.24 276.252L153.502 366.17L111.137 342.613L111.803 111.491L236.333 39.0355L236.497 113.174L239.763 111.34L239.788 36.0328C239.788 35.4172 239.462 34.8392 238.921 34.5377C238.381 34.2236 237.728 34.2362 237.188 34.5377L109.203 108.99C108.675 109.305 108.348 109.87 108.348 110.473L107.67 343.606C107.67 344.234 108.009 344.812 108.562 345.126L152.673 369.65C152.936 369.801 153.225 369.864 153.514 369.864C153.803 369.864 154.105 369.789 154.381 369.638L308.373 280.724V322.574L311.828 320.476V277.734C311.828 277.119 311.501 276.541 310.961 276.239V276.252Z" fill="#C65EFF"/>
<path d="M115.547 109.669C115.547 113.061 112.796 115.825 109.391 115.825C105.986 115.825 103.235 113.074 103.235 109.669C103.235 106.264 105.986 103.513 109.391 103.513C112.796 103.513 115.547 106.264 115.547 109.669Z" fill="#A200CB"/>
<path d="M244.211 36.0328C244.211 39.425 241.459 42.1891 238.055 42.1891C234.65 42.1891 231.898 39.4376 231.898 36.0328C231.898 32.628 234.65 29.8766 238.055 29.8766C241.459 29.8766 244.211 32.628 244.211 36.0328Z" fill="#A200CB"/>
<path d="M109.391 348.506C112.791 348.506 115.547 345.75 115.547 342.35C115.547 338.95 112.791 336.193 109.391 336.193C105.991 336.193 103.235 338.95 103.235 342.35C103.235 345.75 105.991 348.506 109.391 348.506Z" fill="#A200CB"/>
<path d="M160.738 368.206C160.738 371.598 157.987 374.362 154.582 374.362C151.177 374.362 148.426 371.61 148.426 368.206C148.426 364.801 151.177 362.049 154.582 362.049C157.987 362.049 160.738 364.801 160.738 368.206Z" fill="#A200CB"/>
<path d="M316.25 277.747C316.25 281.139 313.498 283.903 310.094 283.903C306.689 283.903 303.938 281.152 303.938 277.747C303.938 274.342 306.689 271.591 310.094 271.591C313.498 271.591 316.25 274.342 316.25 277.747Z" fill="#A200CB"/>
<path d="M137.722 216.021V255.635L97.2924 281.491L93.6364 283.828C93.6364 283.828 93.5987 283.853 93.5736 283.865C93.2595 284.041 92.8324 284.154 92.4052 284.179C92.0534 284.192 91.7142 284.142 91.4629 284.003L85.6586 280.536C85.0807 280.184 84.7163 279.556 84.7163 278.89V252.921C84.7163 252.355 84.955 251.84 85.3696 251.476C85.4701 251.388 85.5706 251.313 85.6837 251.25L111.879 236.198L116.351 224.087C116.703 223.145 117.356 222.366 118.223 221.863L133.036 213.307C135.121 212.101 137.722 213.609 137.722 216.008V216.021Z" fill="#A156FF"/>
<path d="M84.7667 252.519C84.7416 252.644 84.729 252.783 84.729 252.908V278.877C84.729 279.556 85.0808 280.184 85.6587 280.523L91.4631 283.991C92.041 284.318 93.0712 284.179 93.6366 283.815L97.2926 281.478L92.5184 258.512C90.0936 257.381 85.7341 254.102 84.7667 252.506V252.519Z" fill="#A200CB"/>
<path d="M118.864 233.761L96.865 246.601C95.9353 247.141 95.3574 248.146 95.3574 249.227V263.374C95.3574 265.711 97.8953 267.181 99.918 266L124.618 251.589V237.078C124.618 234.125 121.414 232.278 118.864 233.774V233.761Z" fill="#E5E5E5"/>
<path d="M121.264 234.377L98.825 247.468C97.8953 248.008 97.3174 249.013 97.3174 250.094V264.241C97.3174 266.578 99.8552 268.047 101.878 266.867L121.892 255.195C123.575 254.215 124.618 252.406 124.618 250.446V236.311C124.618 234.59 122.746 233.522 121.264 234.389V234.377Z" fill="white"/>
<path d="M101.777 264.417C101.375 264.417 101.061 264.052 101.061 263.6V251.187C101.061 250.735 101.388 250.37 101.777 250.37C102.167 250.37 102.493 250.735 102.493 251.187V263.6C102.493 264.052 102.167 264.417 101.777 264.417Z" fill="#E5E5E5"/>
<path d="M105.584 261.841C105.182 261.841 104.868 261.477 104.868 261.024V248.611C104.868 248.159 105.194 247.795 105.584 247.795C105.973 247.795 106.3 248.159 106.3 248.611V261.024C106.3 261.477 105.973 261.841 105.584 261.841Z" fill="#E5E5E5"/>
<path d="M109.403 259.265C109.001 259.265 108.687 258.901 108.687 258.449V246.036C108.687 245.583 109.014 245.219 109.403 245.219C109.793 245.219 110.119 245.583 110.119 246.036V258.449C110.119 258.901 109.793 259.265 109.403 259.265Z" fill="#E5E5E5"/>
<path d="M113.21 256.69C112.808 256.69 112.494 256.325 112.494 255.873V243.46C112.494 243.008 112.82 242.644 113.21 242.644C113.599 242.644 113.926 243.008 113.926 243.46V255.873C113.926 256.325 113.599 256.69 113.21 256.69Z" fill="#E5E5E5"/>
<path d="M117.029 254.114C116.627 254.114 116.313 253.75 116.313 253.298V240.885C116.313 240.432 116.64 240.068 117.029 240.068C117.419 240.068 117.745 240.432 117.745 240.885V253.298C117.745 253.75 117.419 254.114 117.029 254.114Z" fill="#E5E5E5"/>
<path d="M120.836 251.539C120.434 251.539 120.12 251.174 120.12 250.722V238.309C120.12 237.857 120.447 237.492 120.836 237.492C121.226 237.492 121.552 237.857 121.552 238.309V250.722C121.552 251.174 121.226 251.539 120.836 251.539Z" fill="#E5E5E5"/>
<path d="M140.059 220.494V257.469C140.059 257.469 140.034 257.569 139.996 257.582L93.5864 283.878C93.2723 284.054 92.8451 284.167 92.418 284.192V258.725C92.418 258.65 92.4557 258.574 92.531 258.537L95.3704 256.903L97.3303 255.773L101.062 253.624L102.507 252.795L104.881 251.438L106.326 250.609L108.7 249.252L110.145 248.423L112.52 247.066L113.964 246.237L116.339 244.88L117.784 244.051L118.374 243.712L120.158 238.887L120.648 237.568L121.905 234.15L122.143 233.497L123.375 230.168L137.76 221.863L140.084 220.519L140.059 220.494Z" fill="#C65EFF"/>
<path d="M335.736 281.415L331.276 291.165V283.991L335.736 281.415Z" fill="#A200CB"/>
<path d="M331.276 291.165L329.078 289.883V285.26L331.276 283.991V291.165Z" fill="#8800B5"/>
<path d="M310.584 257.117V289.519L316.187 292.76L315.697 260.095L310.584 257.117Z" fill="#8800B5"/>
<path d="M344.719 243.335V276.277L316.187 292.76L315.697 260.095L344.719 243.335Z" fill="#A200CB"/>
<path d="M310.584 257.117L339.593 240.357L344.719 243.335L315.697 260.095L310.584 257.117Z" fill="#A156FF"/>
<path d="M321.288 268.726L324.278 266.741L324.354 277.86C324.354 279.305 325.396 279.807 326.678 278.953C327.947 278.111 328.977 276.252 328.964 274.794L328.889 263.675L331.879 261.69L329.216 260.497L326.552 259.303L323.926 264.015L321.301 268.726H321.288Z" fill="#C65EFF"/>
<path d="M330.673 273.048L333.663 271.063L333.588 259.944C333.588 258.499 334.606 256.627 335.875 255.785C337.144 254.944 338.186 255.434 338.199 256.878L338.274 267.997L341.264 266.012L338.639 270.724L336.013 275.435L333.349 274.241L330.686 273.048H330.673Z" fill="#C65EFF"/>
<g filter="url(#filter4_f_290_152)">
<path d="M74.5 546C93.5538 546 109 540.18 109 533C109 525.82 93.5538 520 74.5 520C55.4462 520 40 525.82 40 533C40 540.18 55.4462 546 74.5 546Z" fill="#E0E0E0"/>
</g>
<path d="M99.114 479.973V523.883C99.114 531.208 87.9701 537.138 74.2381 537.138C60.5062 537.138 49.3623 531.208 49.3623 523.883V479.973H99.114Z" fill="#222222"/>
<path d="M74.2255 493.24C87.964 493.24 99.1013 487.3 99.1013 479.973C99.1013 472.645 87.964 466.706 74.2255 466.706C60.4869 466.706 49.3496 472.645 49.3496 479.973C49.3496 487.3 60.4869 493.24 74.2255 493.24Z" fill="#121212"/>
<path d="M95.9855 479.973C95.9855 480.425 95.8347 480.928 95.5081 481.455C93.5859 484.722 85.8341 489.094 74.2254 489.094C62.6167 489.094 54.865 484.722 52.9427 481.455C52.6161 480.915 52.4653 480.425 52.4653 479.973C52.4653 476.757 60.7322 470.826 74.2254 470.826C87.7187 470.826 95.9855 476.744 95.9855 479.973Z" fill="#252B3D"/>
<path d="M73.7482 481.166C73.7482 481.166 73.6854 481.166 73.6602 481.166C72.9944 481.116 72.5044 480.538 72.5546 479.885C72.5798 479.445 75.5699 435.598 64.6898 409.49C64.4386 408.875 64.7275 408.171 65.3306 407.92C65.9462 407.668 66.6498 407.957 66.901 408.561C78.0072 435.196 74.9794 479.609 74.9417 480.048C74.8915 480.676 74.3638 481.166 73.7482 481.166Z" fill="#A200CB"/>
<path d="M73.748 455.348C73.1826 455.348 72.6801 454.946 72.567 454.38C69.4261 438.5 54.1237 433.952 53.973 433.902C53.3322 433.713 52.9679 433.06 53.1438 432.419C53.3322 431.778 53.9855 431.414 54.6263 431.59C55.3173 431.791 71.4866 436.603 74.9164 453.903C75.0421 454.556 74.6275 455.185 73.9742 455.31C73.8988 455.323 73.8108 455.335 73.7354 455.335L73.748 455.348Z" fill="#A200CB"/>
<path d="M72.2907 436.352C71.65 436.352 71.1223 435.849 71.0972 435.208C70.3811 418.963 78.3589 406.965 78.6982 406.462C79.0751 405.91 79.8163 405.771 80.3691 406.136C80.9219 406.513 81.0601 407.254 80.6958 407.807C80.5953 407.957 72.8184 419.705 73.5094 435.108C73.5345 435.774 73.0194 436.326 72.3661 436.364C72.3536 436.364 72.3284 436.364 72.3159 436.364L72.2907 436.352Z" fill="#A200CB"/>
<path d="M73.3206 445.699C73.2452 445.699 73.1698 445.699 73.0944 445.674C72.4411 445.548 72.014 444.92 72.1396 444.279C73.2326 438.399 77.2404 434.002 83.7232 431.565C88.4973 429.781 92.9072 429.68 93.0956 429.68C93.0956 429.68 93.1082 429.68 93.1207 429.68C93.774 429.68 94.3143 430.208 94.3268 430.861C94.3268 431.527 93.8117 432.067 93.1459 432.08C92.9825 432.08 76.763 432.52 74.5015 444.719C74.3885 445.297 73.8859 445.699 73.3206 445.699Z" fill="#A200CB"/>
<path d="M46.3092 452.395C31.9239 454.72 28.2051 448.375 28.2051 448.375C28.2051 448.375 35.1653 427.331 45.0654 425.321C52.8673 423.737 54.1363 429.253 54.3247 431.665C54.375 432.318 54.3498 432.733 54.3498 432.733C54.3498 432.733 55.267 432.57 56.4856 432.683C58.2068 432.834 60.5311 433.525 61.6241 435.987C63.3705 439.92 61.0462 450.008 46.3092 452.383V452.395Z" fill="#C65EFF"/>
<path d="M56.4984 432.695C48.4829 435.133 38.3943 446.754 38.2938 446.88C38.1179 447.081 37.8792 447.181 37.6405 447.181C37.4395 447.181 37.2385 447.119 37.0752 446.968C36.7234 446.654 36.6731 446.114 36.9872 445.762C37.4269 445.259 46.2214 435.12 54.3375 431.678C54.3877 432.331 54.3626 432.746 54.3626 432.746C54.3626 432.746 55.2798 432.582 56.4984 432.695Z" fill="#A156FF"/>
<path d="M66.461 409.101C66.2474 409.088 66.0213 409.063 65.7951 409.025C65.5187 409.339 65.2423 409.628 64.9408 409.905C61.1466 413.372 55.2794 413.699 51.2591 410.345C49.4876 408.862 47.3769 405.721 46.2085 402.743C41.3088 390.23 45.5301 378.998 53.9728 373.281C53.9728 373.281 64.1744 370.668 71.8759 383.822C79.3763 396.638 74.8158 409.792 66.461 409.113V409.101Z" fill="#C65EFF"/>
<path d="M66.461 409.101C66.2475 409.088 66.0213 409.063 65.7952 409.025C65.5188 409.339 65.2424 409.628 64.9408 409.905C60.6567 401.914 55.6564 379.501 55.4428 378.495C55.3423 378.031 55.6312 377.578 56.0961 377.478C56.5609 377.377 57.0132 377.666 57.1263 378.131C57.1766 378.382 62.3276 401.462 66.4736 409.126L66.461 409.101Z" fill="#A156FF"/>
<path d="M109.855 398.07C109.855 398.07 96.0481 420.144 86.0224 418.901C77.655 417.858 78.836 410.357 79.4642 407.895C79.5898 407.405 79.6903 407.116 79.6903 407.116C79.6903 407.116 79.0621 407.015 78.2078 406.714C76.9766 406.261 75.268 405.357 74.3885 403.648C74.0995 403.095 73.8985 402.455 73.8357 401.726C73.7226 400.469 74.3508 398.673 75.6826 396.876C78.8611 392.542 86.0224 388.107 96.224 390.758C104.24 392.843 109.868 398.07 109.868 398.07H109.855Z" fill="#C65EFF"/>
<path d="M101.727 397.705C101.765 398.17 101.425 398.598 100.948 398.635C89.7035 399.678 82.178 405.457 79.4517 407.895C79.5773 407.405 79.6778 407.116 79.6778 407.116C79.6778 407.116 79.0496 407.015 78.1953 406.714C81.0095 404.138 88.8241 398.045 100.785 396.927C101.249 396.889 101.677 397.228 101.714 397.705H101.727Z" fill="#A156FF"/>
<path d="M111.489 456.014C111.489 456.014 85.9344 450.951 83.5473 441.138C81.7256 433.65 87.7687 431.716 90.7463 431.213C91.676 431.05 92.3041 431.037 92.3041 431.037C92.3041 431.037 92.2288 430.66 92.1785 430.057C92.0654 428.411 92.2539 425.12 95.2566 423.637C99.1136 421.74 111.828 425.823 113.461 440.661C114.366 448.903 111.464 456.014 111.464 456.014H111.489Z" fill="#C65EFF"/>
<path d="M107.142 448.714C107.041 448.752 106.928 448.777 106.815 448.777C106.476 448.777 106.149 448.576 106.024 448.237C101.777 437.708 91.9649 431.879 90.7588 431.2C91.6885 431.037 92.3167 431.025 92.3167 431.025C92.3167 431.025 92.2413 430.648 92.191 430.045C94.8168 431.628 103.511 437.445 107.607 447.584C107.782 448.023 107.569 448.526 107.129 448.702L107.142 448.714Z" fill="#A156FF"/>
<path d="M481.573 271.276C496.297 271.276 508.233 267.418 508.233 262.658C508.233 257.898 496.297 254.039 481.573 254.039C466.85 254.039 454.914 257.898 454.914 262.658C454.914 267.418 466.85 271.276 481.573 271.276Z" fill="#E5E5E5"/>
<path d="M500.758 223.459V257.306C500.758 262.947 492.165 267.532 481.574 267.532C470.983 267.532 462.402 262.959 462.402 257.306V223.459H500.758Z" fill="#222222"/>
<path d="M481.574 233.686C492.169 233.686 500.758 229.107 500.758 223.459C500.758 217.811 492.169 213.232 481.574 213.232C470.978 213.232 462.389 217.811 462.389 223.459C462.389 229.107 470.978 233.686 481.574 233.686Z" fill="#121212"/>
<path d="M498.346 223.459C498.346 223.811 498.22 224.188 497.982 224.602C496.499 227.115 490.531 230.495 481.574 230.495C472.616 230.495 466.648 227.115 465.166 224.602C464.914 224.188 464.801 223.811 464.801 223.459C464.801 220.971 471.171 216.411 481.574 216.411C491.976 216.411 498.346 220.971 498.346 223.459Z" fill="#252B3D"/>
<path d="M481.448 221.537L480.066 220.431L479.325 219.84L477.239 218.169C477.239 218.169 482.214 169.862 502.743 168.04C509.063 167.475 513.686 175.214 500.758 189.662C488.773 203.055 481.448 221.537 481.448 221.537Z" fill="#A156FF"/>
<path d="M480.066 220.431L479.325 219.84C481.875 209.124 486.586 199.073 490.255 192.276C494.602 184.21 498.472 178.87 498.509 178.82C498.647 178.631 498.911 178.581 499.1 178.732C499.288 178.87 499.338 179.134 499.2 179.322C499.163 179.373 495.331 184.674 490.996 192.703C487.315 199.525 482.566 209.676 480.066 220.443V220.431Z" fill="#A200CB"/>
<path d="M471.271 206.221L472.327 204.789L472.88 204.035L474.463 201.887C474.463 201.887 457.2 156.494 436.898 160.024C430.653 161.105 428.178 169.774 444.398 180.403C459.437 190.253 471.271 206.221 471.271 206.221Z" fill="#A156FF"/>
<path d="M472.327 204.789L472.88 204.035C467.653 194.336 460.504 185.843 455.215 180.227C448.933 173.556 443.82 169.384 443.77 169.347C443.581 169.196 443.318 169.221 443.167 169.41C443.016 169.598 443.041 169.862 443.23 170.013C443.28 170.05 448.356 174.184 454.6 180.817C459.914 186.459 467.113 195.04 472.314 204.802L472.327 204.789Z" fill="#A200CB"/>
<path d="M486.473 224.539C485.192 218.81 480.254 194.612 482.792 171.998C485.921 144.094 473.973 138.855 466.987 144.822C445.855 162.876 474.5 217.19 478.521 224.539H486.473Z" fill="#C65EFF"/>
<path d="M483.747 224.539C477.98 210.053 475.166 194.625 473.822 183.77C472.189 170.679 472.264 161.205 472.264 161.105C472.264 160.766 471.988 160.489 471.648 160.489C471.309 160.489 471.033 160.753 471.033 161.105C471.033 161.205 470.957 170.741 472.591 183.908C473.935 194.738 476.711 210.078 482.415 224.552H483.735L483.747 224.539Z" fill="#A156FF"/>
</g>
<defs>
<filter id="filter0_f_290_152" x="29.5728" y="145.853" width="415.975" height="183.176" filterUnits="userSpaceOnUse" color-interpolation-filters="sRGB">
<feFlood flood-opacity="0" result="BackgroundImageFix"/>
<feBlend mode="normal" in="SourceGraphic" in2="BackgroundImageFix" result="shape"/>
<feGaussianBlur stdDeviation="5" result="effect1_foregroundBlur_290_152"/>
</filter>
<filter id="filter1_f_290_152" x="-4.00293" y="342.748" width="76.4272" height="45.0798" filterUnits="userSpaceOnUse" color-interpolation-filters="sRGB">
<feFlood flood-opacity="0" result="BackgroundImageFix"/>
<feBlend mode="normal" in="SourceGraphic" in2="BackgroundImageFix" result="shape"/>
<feGaussianBlur stdDeviation="2" result="effect1_foregroundBlur_290_152"/>
</filter>
<filter id="filter2_f_290_152" x="94.0615" y="360.241" width="415.975" height="183.176" filterUnits="userSpaceOnUse" color-interpolation-filters="sRGB">
<feFlood flood-opacity="0" result="BackgroundImageFix"/>
<feBlend mode="normal" in="SourceGraphic" in2="BackgroundImageFix" result="shape"/>
<feGaussianBlur stdDeviation="5" result="effect1_foregroundBlur_290_152"/>
</filter>
<filter id="filter3_f_290_152" x="405.496" y="453.826" width="100.189" height="59.2176" filterUnits="userSpaceOnUse" color-interpolation-filters="sRGB">
<feFlood flood-opacity="0" result="BackgroundImageFix"/>
<feBlend mode="normal" in="SourceGraphic" in2="BackgroundImageFix" result="shape"/>
<feGaussianBlur stdDeviation="5" result="effect1_foregroundBlur_290_152"/>
</filter>
<filter id="filter4_f_290_152" x="30" y="510" width="89" height="46" filterUnits="userSpaceOnUse" color-interpolation-filters="sRGB">
<feFlood flood-opacity="0" result="BackgroundImageFix"/>
<feBlend mode="normal" in="SourceGraphic" in2="BackgroundImageFix" result="shape"/>
<feGaussianBlur stdDeviation="5" result="effect1_foregroundBlur_290_152"/>
</filter>
<clipPath id="clip0_290_152">
<rect width="509" height="560" fill="white"/>
</clipPath>
</defs>
</svg>
