<svg width="489" height="569" viewBox="0 0 489 569" fill="none" xmlns="http://www.w3.org/2000/svg">
<g clip-path="url(#clip0_290_16)" filter="url(#filter0_d_290_16)">
<g filter="url(#filter1_f_290_16)">
<path d="M347.268 517.611L168.961 412.086C162.088 408.023 162.088 397.847 168.961 393.784L186.55 382.415C192.731 378.762 200.332 378.774 206.514 382.415L384.82 487.94C391.693 492.003 391.693 502.179 384.82 506.242L367.232 517.611C361.05 521.264 353.45 521.251 347.268 517.611Z" fill="#B884C1" fill-opacity="0.2"/>
<path d="M65.5916 366.574C86.9604 366.574 104.283 356.377 104.283 343.799C104.283 331.22 86.9604 321.024 65.5916 321.024C44.2228 321.024 26.8999 331.22 26.8999 343.799C26.8999 356.377 44.2228 366.574 65.5916 366.574Z" fill="#BA68C8" fill-opacity="0.2"/>
</g>
<path d="M401.961 504.999L241.439 412.197C230.11 405.649 220.928 388.081 220.928 372.959V28.7762C220.928 13.655 230.11 6.70948 241.439 13.2574L401.961 106.059C413.29 112.607 422.472 130.176 422.472 145.297V489.493C422.472 504.614 413.29 511.56 401.961 505.012V504.999Z" fill="#455A64"/>
<path d="M420.449 95.262L259.927 2.46013C255.088 -0.335476 250.633 -0.658525 247.134 1.05612C246.7 1.26734 246.291 1.51584 245.881 1.78919L227.902 12.2634C231.513 10.1015 236.252 10.2506 241.451 13.2574L401.974 106.059C413.302 112.607 422.484 130.176 422.484 145.297V489.493C422.484 497.482 419.916 503.197 415.821 505.832L433.565 495.482C438.081 493.071 440.96 487.169 440.96 478.708V134.5C440.96 119.379 431.778 101.81 420.449 95.262Z" fill="#37474F"/>
<path d="M422.472 145.285V489.48C422.472 497.47 419.903 503.185 415.809 505.819L433.552 495.469C438.069 493.059 440.947 487.157 440.947 478.696V134.5C440.947 134.5 440.947 134.488 440.947 134.475L422.46 145.223C422.46 145.223 422.46 145.272 422.46 145.297L422.472 145.285Z" fill="#263238"/>
<path d="M440.96 161.214L422.472 171.899V180.249L440.96 169.563V161.214Z" fill="#37474F"/>
<path d="M432.857 216.753C431.207 217.71 429.867 216.691 429.867 214.492V196.538C429.867 194.326 431.207 191.766 432.857 190.81C434.508 189.853 435.848 190.872 435.848 193.071V211.025C435.848 213.237 434.508 215.796 432.857 216.753Z" fill="#37474F"/>
<path d="M429.867 214.479V196.525C429.867 194.314 431.207 191.754 432.857 190.797C433.577 190.375 434.235 190.362 434.743 190.623V190.599L432.51 189.443V189.468C431.976 189.17 431.306 189.182 430.562 189.617C428.912 190.574 427.572 193.133 427.572 195.345V213.299C427.572 214.492 427.969 215.312 428.589 215.697L430.934 216.939V216.915C430.289 216.554 429.855 215.722 429.855 214.492L429.867 214.479Z" fill="#455A64"/>
<path d="M432.857 260.203C431.207 261.16 429.867 260.141 429.867 257.942V239.988C429.867 237.776 431.207 235.216 432.857 234.26C434.508 233.303 435.848 234.322 435.848 236.521V254.475C435.848 256.687 434.508 259.246 432.857 260.203Z" fill="#37474F"/>
<path d="M429.867 257.942V239.988C429.867 237.776 431.207 235.216 432.857 234.26C433.577 233.837 434.235 233.825 434.743 234.086V234.061L432.51 232.905V232.93C431.976 232.632 431.306 232.644 430.562 233.079C428.912 234.036 427.572 236.596 427.572 238.807V256.761C427.572 257.954 427.969 258.774 428.589 259.159L430.934 260.402V260.377C430.289 260.017 429.855 259.184 429.855 257.954L429.867 257.942Z" fill="#455A64"/>
<path d="M396.39 115.726L238.622 24.5019C235.719 22.8246 232.096 24.9244 232.096 28.2791V372.959C232.096 384.465 240.235 398.592 250.199 404.345L404.12 493.332C407.309 495.183 411.305 492.872 411.305 489.182V141.619C411.305 132.127 404.592 120.472 396.378 115.726H396.39Z" fill="#BA68C8"/>
<path opacity="0.9" d="M396.39 115.726L238.622 24.5019C235.719 22.8246 232.096 24.9244 232.096 28.2791V372.959C232.096 384.465 240.235 398.592 250.199 404.345L404.12 493.332C407.309 495.183 411.305 492.872 411.305 489.182V141.619C411.305 132.127 404.592 120.472 396.378 115.726H396.39Z" fill="white"/>
<path d="M285.798 48.3206L288.242 58.6333L340.529 88.8134L349.562 84.005L285.798 48.3206Z" fill="#455A64"/>
<path d="M301.171 58.2854C301.171 60 299.967 60.6834 298.491 59.8385C297.014 58.9936 295.811 56.9062 295.811 55.1916C295.811 53.4769 297.014 52.7936 298.491 53.6385C299.967 54.4958 301.171 56.5707 301.171 58.2854Z" fill="#263238"/>
<path d="M336.397 80.0788C336.124 80.0788 335.839 80.0042 335.578 79.8675L308.876 64.9203C308.07 64.473 307.784 63.4418 308.231 62.6341C308.678 61.8265 309.708 61.5407 310.514 61.988L337.216 76.9352C338.023 77.3825 338.308 78.4138 337.861 79.2214C337.551 79.7681 336.98 80.0788 336.397 80.0788Z" fill="#263238"/>
<path d="M265.175 96.2436C263.55 95.2993 262.371 96.1193 262.371 98.1943C262.371 100.269 263.55 102.493 265.175 103.438C266.143 103.997 267.359 104.009 268.253 103.438L270.846 108.134C269.332 109.166 267.037 109.066 264.952 107.848C260.795 105.45 257.78 100.282 257.78 95.6099C257.78 90.9381 260.87 89.4471 265.126 91.8948C267.198 93.0876 269.456 95.5105 270.846 98.07L268.253 100.12C267.446 98.3807 266.218 96.84 265.175 96.2436Z" fill="#A156FF"/>
<path d="M285.76 111.812C285.76 116.459 282.634 118.074 278.316 115.577C274.01 113.079 270.871 107.873 270.871 103.202C270.871 98.5298 273.998 97.0388 278.316 99.5238C282.621 102.021 285.76 107.178 285.76 111.812ZM275.474 105.885C275.474 108.035 276.827 110.396 278.378 111.29C279.929 112.185 281.157 111.315 281.157 109.166C281.157 107.016 279.916 104.767 278.378 103.872C276.814 102.965 275.474 103.736 275.474 105.885Z" fill="#A156FF"/>
<path d="M290.761 106.892L296.121 118.037V109.986L300.179 112.334V128.002L296.431 125.84L291.096 114.757V122.758L287.014 120.398V104.73L290.761 106.904V106.892Z" fill="#A156FF"/>
<path d="M313.443 120V124.088L309.571 121.851V133.431L305.092 130.835V119.255L301.246 117.03V112.943L313.443 120Z" fill="#A156FF"/>
<path d="M322.178 138.513L317.091 135.568L316.396 137.383L311.792 134.724L317.513 122.361L322.116 125.02L327.625 143.868L322.848 141.11L322.166 138.501L322.178 138.513ZM321.074 134.164L319.684 128.772L318.257 132.524L321.074 134.152V134.164Z" fill="#A156FF"/>
<path d="M334.747 136.475C333.122 135.531 331.943 136.351 331.943 138.426C331.943 140.501 333.122 142.725 334.747 143.67C335.715 144.229 336.931 144.241 337.824 143.67L340.418 148.366C338.904 149.397 336.608 149.298 334.524 148.08C330.367 145.682 327.352 140.514 327.352 135.842C327.352 131.17 330.442 129.679 334.698 132.127C336.77 133.32 339.028 135.742 340.418 138.302L337.824 140.352C337.018 138.613 335.802 137.072 334.747 136.475Z" fill="#A156FF"/>
<path d="M352.652 142.663V146.751L348.781 144.514V156.094L344.301 153.498V141.918L340.455 139.694V135.606L352.652 142.663Z" fill="#A156FF"/>
<path d="M365.891 161.897C366.996 162.531 367.839 162.046 367.839 160.48V151.448L372.331 154.044V163.077C372.331 167.24 369.8 168.47 365.879 166.208C361.933 163.922 359.327 159.71 359.327 155.56V146.527L363.807 149.124V158.157C363.807 159.698 364.775 161.263 365.891 161.909V161.897Z" fill="#A156FF"/>
<path d="M379.565 161.959C379.056 161.673 378.734 161.661 378.734 162.133C378.734 164.096 385.757 166.929 385.757 172.607C385.757 176.099 383.114 176.111 380.049 174.334C377.691 172.968 375.061 170.532 373.262 167.911L374.924 164.978C376.314 167.128 378.709 169.6 380.086 170.396C380.744 170.781 381.166 170.781 381.166 170.222C381.166 168.184 374.143 165.475 374.143 159.971C374.143 156.84 376.426 156.194 379.937 158.232C382.084 159.474 384.305 161.499 385.831 163.5L384.206 166.494C382.828 164.829 380.731 162.655 379.553 161.971L379.565 161.959Z" fill="#A156FF"/>
<path d="M242.605 173.464C247.085 167.96 249.777 160.94 249.777 153.299C249.777 135.668 235.496 121.367 217.889 121.367C200.282 121.367 186 135.668 186 153.299C186 170.93 200.282 185.231 217.889 185.231C223.869 185.231 229.465 183.578 234.255 180.708L249.777 187.455L242.605 173.464Z" fill="#A056FF"/>
<path opacity="0.4" d="M242.605 173.464C247.085 167.96 249.777 160.94 249.777 153.299C249.777 135.668 235.496 121.367 217.889 121.367C200.282 121.367 186 135.668 186 153.299C186 170.93 200.282 185.231 217.889 185.231C223.869 185.231 229.465 183.578 234.255 180.708L249.777 187.455L242.605 173.464Z" fill="black"/>
<path d="M206.076 151.597C206.076 151.1 205.729 150.839 205.096 150.839C204.004 150.839 202.577 151.559 201.175 152.69L199.413 149.261C201.46 147.844 203.57 146.999 205.828 146.999C208.806 146.999 211.052 148.565 211.052 150.901C211.052 152.566 209.836 154.169 208.223 155.771L206.014 157.971H211.263V161.623H199.984L199.959 158.629L204.984 153.435C205.58 152.814 206.076 152.106 206.076 151.609V151.597Z" fill="white"/>
<path d="M220.445 147.198L217.02 155.436H218.41V152.665H222.74V155.436H224.378V158.828H222.74V161.623H218.41V158.828H212.28V155.746L215.965 147.211H220.432L220.445 147.198Z" fill="white"/>
<path d="M237.704 154.454V161.623H233.088V155.796C233.088 154.852 232.555 154.255 231.761 154.255C230.855 154.255 230.284 154.976 230.284 156.057V161.623H225.668V146.391H230.284V151.994C231.041 150.839 232.207 150.193 233.684 150.193C236.042 150.193 237.704 151.882 237.704 154.467V154.454Z" fill="white"/>
<path d="M388.213 269.907V424.287C388.213 431.953 379.925 436.749 373.286 432.91L290.252 384.9L275.548 376.401C272.446 374.612 269.692 372.35 267.372 369.741C261.986 363.715 258.872 355.825 258.872 347.488V193.096C258.872 185.43 267.148 180.646 273.799 184.473L371.537 240.994C381.86 246.958 388.213 257.979 388.213 269.907Z" fill="#A156FF"/>
<path opacity="0.5" d="M388.213 269.907V424.287C388.213 431.953 379.925 436.749 373.286 432.91L290.252 384.9L275.548 376.401C272.446 374.612 269.692 372.35 267.372 369.741C261.986 363.715 258.872 355.825 258.872 347.488V193.096C258.872 185.43 267.148 180.646 273.799 184.473L371.537 240.994C381.86 246.958 388.213 257.979 388.213 269.907Z" fill="white"/>
<path d="M340.381 361.243C340.381 361.243 355.928 387.062 344.686 416.173L290.24 384.887L340.368 361.243H340.381Z" fill="#263238"/>
<path d="M365.167 245.243C366.344 235.674 359.551 226.962 349.995 225.784C340.439 224.605 331.738 231.407 330.562 240.976C329.385 250.545 336.178 259.258 345.734 260.436C355.29 261.614 363.99 254.812 365.167 245.243Z" fill="#263238"/>
<path d="M347.949 194.14C347.949 194.14 353.297 185.405 354.947 186.076C356.585 186.747 353.88 194.997 353.88 194.997C353.88 194.997 361.97 196.687 360.457 198.7C358.943 200.725 349.066 200.253 349.066 200.253L347.949 194.127V194.14Z" fill="#263238"/>
<path d="M351.709 216.554C347.949 244.56 324.411 244.56 324.411 244.56L275.002 222.791C275.002 222.791 271.28 219.524 270.139 212.007C269.741 209.435 269.655 206.353 270.139 202.738C270.139 202.713 270.139 202.675 270.139 202.651C271.714 190.872 280.512 178.211 299.67 174.322C303.491 173.527 307.735 173.104 312.413 173.104C314.547 173.104 316.607 173.204 318.579 173.415C333.531 174.868 343.904 181.839 348.88 192.649C349.972 195.022 350.791 197.569 351.337 200.29C352.354 205.198 352.478 210.64 351.696 216.542L351.709 216.554Z" fill="#263238"/>
<path d="M233.125 270.727C233.125 270.727 215.593 270.13 208.831 287.24C208.831 287.24 216.288 292.272 226.053 287.264C235.806 282.257 233.125 270.739 233.125 270.739V270.727Z" fill="#A156FF"/>
<path opacity="0.5" d="M233.125 270.727C233.125 270.727 215.593 270.13 208.831 287.24C208.831 287.24 216.288 292.272 226.053 287.264C235.806 282.257 233.125 270.739 233.125 270.739V270.727Z" fill="black"/>
<path d="M232.629 278.965C232.629 278.965 227.678 257.383 225.06 257.109C222.306 256.823 221.933 263.694 222.144 267.559L215.891 254.202C215.072 252.437 212.938 251.754 211.225 252.698C205.009 256.115 194.14 266.502 217.082 292.185L232.617 278.965H232.629Z" fill="#945959"/>
<path d="M296.158 264.042L292.461 263.558C284.817 262.539 277.224 265.732 272.595 271.907L250.447 301.429L233.125 270.727C233.125 270.727 231.029 291.601 208.831 287.24L232.679 327.409C239.193 338.381 254.629 339.524 262.681 329.609L283.08 304.498L296.158 264.042Z" fill="#A156FF"/>
<path d="M343.433 332.939C338.47 345.537 337.924 347.998 341.013 354.297C344.078 360.584 346.001 368.76 346.001 368.76C346.001 368.76 322.997 394.579 290.252 384.9L275.549 376.401C272.447 374.612 269.692 372.35 267.372 369.741L271.764 336.355C271.987 334.591 271.814 332.789 271.243 331.112L266.553 317.32C261.875 303.554 265.486 288.321 275.884 278.157L291.691 262.688L333.209 267.931L339.375 269.708C347.763 272.118 353.111 280.356 351.92 289.016C349.873 303.74 346.56 324.999 343.433 332.926V332.939Z" fill="#A156FF"/>
<path opacity="0.5" d="M343.433 332.939C338.47 345.537 337.924 347.998 341.013 354.297C344.078 360.584 346.001 368.76 346.001 368.76C346.001 368.76 322.997 394.579 290.252 384.9L275.549 376.401C272.447 374.612 269.692 372.35 267.372 369.741L271.764 336.355C271.987 334.591 271.814 332.789 271.243 331.112L266.553 317.32C261.875 303.554 265.486 288.321 275.884 278.157L291.691 262.688L333.209 267.931L339.375 269.708C347.763 272.118 353.111 280.356 351.92 289.016C349.873 303.74 346.56 324.999 343.433 332.926V332.939Z" fill="black"/>
<path d="M318.393 295.341L310.08 288.246C308.281 286.718 305.812 286.246 303.578 287.016L293.528 290.47L292.175 284.829C291.282 281.127 287.498 278.915 283.837 279.971L279.482 281.226L286.865 267.086C289.272 262.477 292.969 258.687 297.511 256.177L300.402 254.587L324.287 255.817C324.287 255.817 333.196 259.507 333.196 267.931L318.393 295.328" fill="#A156FF"/>
<path d="M324.399 266.366L300.452 285.053V225.562H324.399V266.366Z" fill="#945959"/>
<path d="M300.824 261.47L293.54 290.47L324.3 266.366L300.824 261.47Z" fill="#945959"/>
<path d="M300.451 257.159C309.671 253.593 319.299 246.449 324.411 234.347V225.562H300.451V257.159Z" fill="#703838"/>
<path d="M305.613 181.466C296.53 181.466 277.211 186.535 274.978 210.342C272.744 234.148 274.903 252.611 287.162 254.388C299.422 256.165 327.91 247.269 331.72 216.455C335.529 185.641 314.46 181.479 305.601 181.479L305.613 181.466Z" fill="#945959"/>
<path d="M291.319 220.406V234.446L283.105 231.924L291.319 220.406Z" fill="#703838"/>
<path d="M300.451 225.699C302.027 225.699 303.305 224.419 303.305 222.841C303.305 221.263 302.027 219.983 300.451 219.983C298.875 219.983 297.597 221.263 297.597 222.841C297.597 224.419 298.875 225.699 300.451 225.699Z" fill="#263238"/>
<path d="M284.519 220.841C284.519 222.419 283.241 223.698 281.666 223.698C280.09 223.698 278.812 222.419 278.812 220.841C278.812 219.263 280.09 217.983 281.666 217.983C283.241 217.983 284.519 219.263 284.519 220.841Z" fill="#263238"/>
<path d="M278.179 214.889L283.763 211.572C283.763 211.572 281.616 209.348 279.482 210.677C277.348 212.007 278.179 214.889 278.179 214.889Z" fill="#263238"/>
<path d="M287.46 240.137C287.46 240.137 291.989 240.547 295.153 238.074C295.153 238.074 295.674 242.125 292.287 242.907C288.9 243.678 287.46 240.137 287.46 240.137Z" fill="#703838"/>
<path d="M282.584 189.555C282.584 189.555 285.996 222.419 330.628 223.45C330.628 223.45 344.115 190.785 317.463 180.174C290.811 169.563 282.584 189.555 282.584 189.555Z" fill="#263238"/>
<path d="M343.768 218.53L343.743 218.517C343.743 218.517 343.731 218.517 343.718 218.517L338.234 215.349C336.162 214.119 333.271 214.28 330.082 216.132C323.754 219.797 318.617 228.693 318.617 236.012C318.617 239.677 319.907 242.249 321.979 243.442L327.364 246.535C327.464 246.598 327.575 246.66 327.675 246.722L327.861 246.821C329.896 247.79 332.613 247.567 335.603 245.827C341.931 242.162 347.068 233.266 347.068 225.947C347.068 222.307 345.803 219.747 343.743 218.542L343.768 218.53Z" fill="#A156FF"/>
<path d="M343.727 237.246C348.202 229.484 348.202 221.095 343.727 218.508C339.253 215.921 331.998 220.116 327.523 227.877C323.048 235.638 323.048 244.027 327.523 246.614C331.997 249.201 339.252 245.007 343.727 237.246Z" fill="#A156FF"/>
<path opacity="0.5" d="M343.727 237.246C348.202 229.484 348.202 221.095 343.727 218.508C339.253 215.921 331.998 220.116 327.523 227.877C323.048 235.638 323.048 244.027 327.523 246.614C331.997 249.201 339.252 245.007 343.727 237.246Z" fill="black"/>
<path d="M345.964 225.426H345.951C345.951 225.426 345.951 225.426 345.939 225.426L342.179 223.251C340.752 222.419 338.792 222.518 336.608 223.785C332.278 226.295 328.766 232.383 328.766 237.391C328.766 239.901 329.647 241.665 331.074 242.473L334.759 244.597C334.834 244.647 334.896 244.684 334.97 244.721L335.094 244.796C336.497 245.467 338.345 245.305 340.393 244.125C344.723 241.615 348.235 235.527 348.235 230.52C348.235 228.035 347.366 226.283 345.964 225.45V225.426Z" fill="#A156FF"/>
<path d="M348.247 230.495C348.247 235.502 344.736 241.59 340.405 244.1C336.075 246.61 332.563 244.572 332.563 239.565C332.563 234.558 336.075 228.47 340.405 225.96C344.736 223.45 348.247 225.488 348.247 230.495Z" fill="#A156FF"/>
<path opacity="0.3" d="M348.247 230.495C348.247 235.502 344.736 241.59 340.405 244.1C336.075 246.61 332.563 244.572 332.563 239.565C332.563 234.558 336.075 228.47 340.405 225.96C344.736 223.45 348.247 225.488 348.247 230.495Z" fill="black"/>
<path d="M326.732 175.042C323.195 172.272 318.815 170.806 314.324 170.743C313.964 170.743 313.604 170.743 313.244 170.743C308.268 170.743 303.752 171.203 299.682 172.036C300.501 171.998 301.32 172.011 302.127 172.036H299.682V174.334H301.99C306.928 174.508 311.83 175.862 316.247 178.41C325.727 183.889 331.608 194.102 331.608 205.061V214.84C331.608 216.467 332.998 217.759 334.648 217.585C334.747 217.585 334.834 217.548 334.933 217.523L337.378 216.765C337.216 216.815 337.043 216.852 336.869 216.865C338.395 216.703 339.499 215.312 339.499 213.771V204.701C339.499 188.287 332.414 179.466 326.744 175.03L326.732 175.042Z" fill="#A156FF"/>
<path d="M311.11 253.692C310.105 253.692 309.087 253.481 308.144 253.034L300.389 249.443C299.93 249.232 299.719 248.673 299.943 248.213C300.154 247.753 300.712 247.554 301.171 247.766L308.926 251.356C310.949 252.301 313.356 251.841 314.907 250.226L322.302 242.522C322.662 242.15 323.245 242.137 323.605 242.497C323.977 242.858 323.989 243.442 323.63 243.802L316.234 251.505C314.869 252.934 313.008 253.68 311.122 253.68L311.11 253.692Z" fill="#A156FF"/>
<path opacity="0.5" d="M311.11 253.692C310.105 253.692 309.087 253.481 308.144 253.034L300.389 249.443C299.93 249.232 299.719 248.673 299.943 248.213C300.154 247.753 300.712 247.554 301.171 247.766L308.926 251.356C310.949 252.301 313.356 251.841 314.907 250.226L322.302 242.522C322.662 242.15 323.245 242.137 323.605 242.497C323.977 242.858 323.989 243.442 323.63 243.802L316.234 251.505C314.869 252.934 313.008 253.68 311.122 253.68L311.11 253.692Z" fill="black"/>
<path d="M302.424 246.809C302.424 248.809 300.799 250.437 298.801 250.437C296.803 250.437 295.178 248.809 295.178 246.809C295.178 244.808 296.803 243.181 298.801 243.181C300.799 243.181 302.424 244.808 302.424 246.809Z" fill="#A156FF"/>
<path opacity="0.5" d="M302.424 246.809C302.424 248.809 300.799 250.437 298.801 250.437C296.803 250.437 295.178 248.809 295.178 246.809C295.178 244.808 296.803 243.181 298.801 243.181C300.799 243.181 302.424 244.808 302.424 246.809Z" fill="black"/>
<path d="M339.487 204.713V213.783C339.487 215.324 338.383 216.716 336.857 216.877C335.107 217.064 333.63 215.684 333.63 213.957V204.713C333.63 193.059 327.364 182.199 317.289 176.372C311.867 173.241 305.737 171.787 299.682 172.036C303.752 171.191 308.256 170.743 313.244 170.743C313.604 170.743 313.964 170.743 314.324 170.743C318.815 170.806 323.195 172.272 326.732 175.042C332.402 179.478 339.487 188.312 339.487 204.713Z" fill="#A156FF"/>
<path opacity="0.5" d="M339.487 204.713V213.783C339.487 215.324 338.383 216.716 336.857 216.877C335.107 217.064 333.63 215.684 333.63 213.957V204.713C333.63 193.059 327.364 182.199 317.289 176.372C311.867 173.241 305.737 171.787 299.682 172.036C303.752 171.191 308.256 170.743 313.244 170.743C313.604 170.743 313.964 170.743 314.324 170.743C318.815 170.806 323.195 172.272 326.732 175.042C332.402 179.478 339.487 188.312 339.487 204.713Z" fill="black"/>
<path d="M325.54 375.655C325.54 375.655 319.535 392.243 341.001 399.648C341.001 399.648 348.011 389.348 341.001 380.911C333.99 372.475 325.54 375.655 325.54 375.655Z" fill="#A156FF"/>
<path opacity="0.7" d="M325.54 375.655C325.54 375.655 319.535 392.243 341.001 399.648C341.001 399.648 348.011 389.348 341.001 380.911C333.99 372.475 325.54 375.655 325.54 375.655Z" fill="black"/>
<path d="M333.035 376.401C333.035 376.401 312.078 384.104 312.177 387.074C312.276 390.044 321.086 388.031 321.086 388.031L317.872 390.143C314.485 392.355 311.867 395.56 310.366 399.313C309.683 401.027 310.39 402.978 312.028 403.848L319.994 408.072C321.893 409.079 324.238 408.321 325.193 406.395C326.074 404.606 327.662 403.276 329.548 402.642C333.879 401.201 341.919 397.039 345.195 385.695L333.035 376.413V376.401Z" fill="#945959"/>
<path d="M339.363 269.72C339.363 269.72 328.208 275.958 334.127 294.794C340.045 313.643 351.2 342.916 351.2 342.916L325.541 375.655C325.541 375.655 334.127 376.227 339.326 383.893C344.525 391.559 341.001 399.648 341.001 399.648L372.84 358.695C378.821 350.992 380.52 340.791 377.356 331.572L363.658 291.663C360.271 281.785 352.454 274.057 342.552 270.777L339.363 269.72Z" fill="#A156FF"/>
<path d="M113.544 199.282L64.1975 170.754C62.7086 169.897 61.3437 169.797 60.2642 170.319C60.1277 170.381 60.0036 170.456 59.8795 170.543L49.1466 176.842C49.1466 176.842 49.1962 176.818 49.2086 176.805C47.8562 177.576 47 179.365 47 181.912V236.855C47 241.502 49.8166 246.907 53.3033 248.92L102.65 277.447C104.337 278.416 105.864 278.416 106.993 277.634C106.968 277.658 106.943 277.683 106.906 277.696L117.564 271.433C118.954 270.688 119.835 268.874 119.835 266.277V211.334C119.835 206.687 117.018 201.282 113.532 199.269L113.544 199.282Z" fill="#A156FF"/>
<path d="M118.085 204.488C116.944 202.239 115.331 200.313 113.544 199.282L64.1974 170.754C62.7084 169.897 61.3436 169.797 60.2641 170.319C60.1276 170.381 60.0035 170.456 59.8794 170.543L49.1465 176.842C50.2632 176.171 51.7149 176.221 53.3156 177.153L102.662 205.681C104.511 206.749 106.161 208.775 107.315 211.123L118.085 204.488Z" fill="#A156FF"/>
<path d="M108.966 272.676C108.966 275.136 108.171 276.888 106.918 277.696L117.577 271.433C118.966 270.688 119.847 268.874 119.847 266.277V211.334C119.847 209.073 119.177 206.625 118.085 204.475L107.315 211.11C108.333 213.198 108.966 215.546 108.966 217.72V272.664V272.676Z" fill="#A156FF"/>
<path opacity="0.3" d="M118.085 204.488C116.944 202.239 115.331 200.313 113.544 199.282L64.1974 170.754C62.7084 169.897 61.3436 169.797 60.2641 170.319C60.1276 170.381 60.0035 170.456 59.8794 170.543L49.1465 176.842C50.2632 176.171 51.7149 176.221 53.3156 177.153L102.662 205.681C104.511 206.749 106.161 208.775 107.315 211.123L118.085 204.488Z" fill="black"/>
<path opacity="0.6" d="M108.966 272.676C108.966 275.136 108.171 276.888 106.918 277.696L117.577 271.433C118.966 270.688 119.847 268.874 119.847 266.277V211.334C119.847 209.073 119.177 206.625 118.085 204.475L107.315 211.11C108.333 213.198 108.966 215.546 108.966 217.72V272.664V272.676Z" fill="black"/>
<path d="M94.4978 233.488C94.4978 240.595 91.6812 243.03 87.45 240.582C85.1173 239.228 83.4671 237.091 82.7474 234.407C81.5438 235.935 79.5833 236.035 76.866 234.469C72.4363 231.91 68.9249 225.822 68.9249 219.833C68.9249 213.844 72.3991 211.831 76.866 214.403C79.1367 215.72 80.9234 217.658 82.1642 220.081V217.733L86.842 220.429V233.301C86.842 235.215 87.5617 236.258 88.4923 236.793C90.0681 237.712 91.036 236.159 91.036 231.549C91.036 223.486 85.8866 214.937 78.2557 210.526C70.5875 206.091 65.4754 209.172 65.4754 217.484C65.4754 225.797 70.4883 234.854 78.1192 239.265C80.2782 240.52 82.7226 241.415 84.894 241.427L85.9983 245.714C83.9013 245.739 80.8366 244.645 78.1316 243.067C68.1928 237.327 61.6414 225.747 61.6414 215.248C61.6414 204.749 68.2796 200.959 78.2681 206.749C87.9215 212.328 94.5226 223.498 94.5226 233.475L94.4978 233.488ZM82.2263 227.511C82.2263 224.057 80.4023 221.05 77.9331 219.621C75.4267 218.168 73.6771 219.187 73.6771 222.566C73.6771 225.946 75.4267 229.064 77.9331 230.518C80.4023 231.947 82.2263 231.015 82.2263 227.524V227.511Z" fill="#A156FF"/>
<g opacity="0.9">
<path d="M94.4978 233.488C94.4978 240.595 91.6812 243.03 87.45 240.582C85.1173 239.228 83.4671 237.091 82.7474 234.407C81.5438 235.935 79.5833 236.035 76.866 234.469C72.4363 231.91 68.9249 225.822 68.9249 219.833C68.9249 213.844 72.3991 211.831 76.866 214.403C79.1367 215.72 80.9234 217.658 82.1642 220.081V217.733L86.842 220.429V233.301C86.842 235.215 87.5617 236.258 88.4923 236.793C90.0681 237.712 91.036 236.159 91.036 231.549C91.036 223.486 85.8866 214.937 78.2557 210.526C70.5875 206.091 65.4754 209.172 65.4754 217.484C65.4754 225.797 70.4883 234.854 78.1192 239.265C80.2782 240.52 82.7226 241.415 84.894 241.427L85.9983 245.714C83.9013 245.739 80.8366 244.645 78.1316 243.067C68.1928 237.327 61.6414 225.747 61.6414 215.248C61.6414 204.749 68.2796 200.959 78.2681 206.749C87.9215 212.328 94.5226 223.498 94.5226 233.475L94.4978 233.488ZM82.2263 227.511C82.2263 224.057 80.4023 221.05 77.9331 219.621C75.4267 218.168 73.6771 219.187 73.6771 222.566C73.6771 225.946 75.4267 229.064 77.9331 230.518C80.4023 231.947 82.2263 231.015 82.2263 227.524V227.511Z" fill="white"/>
</g>
<path d="M113.544 297.153L64.1975 268.625C62.7086 267.768 61.3437 267.669 60.2642 268.191C60.1277 268.253 60.0036 268.327 59.8795 268.414L49.1466 274.714C49.1466 274.714 49.1962 274.689 49.2086 274.676C47.8562 275.447 47 277.236 47 279.783V334.726C47 339.373 49.8166 344.778 53.3033 346.791L102.65 375.318C104.337 376.288 105.864 376.288 106.993 375.505C106.968 375.53 106.943 375.555 106.906 375.567L117.564 369.305C118.954 368.559 119.835 366.745 119.835 364.148V309.205C119.835 304.558 117.018 299.154 113.532 297.141L113.544 297.153Z" fill="#A156FF"/>
<path d="M118.085 302.359C116.944 300.11 115.331 298.184 113.544 297.153L64.1974 268.625C62.7084 267.768 61.3436 267.669 60.2641 268.191C60.1276 268.253 60.0035 268.327 59.8794 268.414L49.1465 274.714C50.2632 274.043 51.7149 274.092 53.3156 275.024L102.662 303.552C104.511 304.621 106.161 306.646 107.315 308.994L118.085 302.359Z" fill="#A156FF"/>
<path d="M108.966 370.56C108.966 373.02 108.171 374.772 106.918 375.579L117.577 369.317C118.966 368.572 119.847 366.758 119.847 364.161V309.218C119.847 306.956 119.177 304.509 118.085 302.359L107.315 308.994C108.333 311.082 108.966 313.43 108.966 315.604V370.547V370.56Z" fill="#A156FF"/>
<path opacity="0.3" d="M118.085 302.359C116.944 300.11 115.331 298.184 113.544 297.153L64.1974 268.625C62.7084 267.768 61.3436 267.669 60.2641 268.191C60.1276 268.253 60.0035 268.327 59.8794 268.414L49.1465 274.714C50.2632 274.043 51.7149 274.092 53.3156 275.024L102.662 303.552C104.511 304.621 106.161 306.646 107.315 308.994L118.085 302.359Z" fill="black"/>
<path opacity="0.6" d="M108.966 370.56C108.966 373.02 108.171 374.772 106.918 375.579L117.577 369.317C118.966 368.572 119.847 366.758 119.847 364.161V309.218C119.847 306.956 119.177 304.509 118.085 302.359L107.315 308.994C108.333 311.082 108.966 313.43 108.966 315.604V370.547V370.56Z" fill="black"/>
<path d="M72.4738 321.717L60.5745 302.359V328.601L72.4738 321.717Z" fill="#A156FF"/>
<path d="M83.5293 327.296L95.4038 347.897V321.705L83.5293 327.296Z" fill="#A156FF"/>
<path d="M62.3735 301.514L74.5954 321.394C74.5954 321.394 74.6947 321.494 74.7319 321.556C74.7567 321.605 74.7691 321.655 74.7816 321.705L78.3675 327.532L81.4447 326.078C81.4447 326.078 81.5439 325.979 81.606 325.942C81.73 325.867 81.8665 325.83 82.003 325.817L94.3614 320.003L62.3859 301.514H62.3735Z" fill="#A156FF"/>
<path d="M81.7302 328.153L78.4172 329.719C78.2807 329.781 78.1318 329.818 77.9954 329.818C77.6603 329.818 77.3377 329.644 77.1516 329.346L73.5161 323.432L61.5671 330.34L93.6915 348.915L81.7302 328.178V328.153Z" fill="#A156FF"/>
<g opacity="0.9">
<path d="M72.4738 321.717L60.5745 302.359V328.601L72.4738 321.717Z" fill="white"/>
<path d="M83.5293 327.296L95.4038 347.897V321.705L83.5293 327.296Z" fill="white"/>
<path d="M62.3735 301.514L74.5954 321.394C74.5954 321.394 74.6947 321.494 74.7319 321.556C74.7567 321.605 74.7691 321.655 74.7816 321.705L78.3675 327.532L81.4447 326.078C81.4447 326.078 81.5439 325.979 81.606 325.942C81.73 325.867 81.8665 325.83 82.003 325.817L94.3614 320.003L62.3859 301.514H62.3735Z" fill="white"/>
<path d="M81.7302 328.153L78.4172 329.719C78.2807 329.781 78.1318 329.818 77.9954 329.818C77.6603 329.818 77.3377 329.644 77.1516 329.346L73.5161 323.432L61.5671 330.34L93.6915 348.915L81.7302 328.178V328.153Z" fill="white"/>
</g>
<path d="M98.7738 52.852L34.3742 15.6222C32.431 14.5034 30.6498 14.3736 29.241 15.0547C29.0629 15.1358 28.9009 15.233 28.739 15.3465L14.7321 23.5676C14.7321 23.5676 14.7968 23.5352 14.813 23.519C13.048 24.5243 11.9307 26.8593 11.9307 30.1834V101.886C11.9307 107.951 15.6065 115.004 20.1567 117.631L84.5563 154.861C86.7586 156.126 88.7503 156.126 90.2239 155.104C90.1915 155.137 90.1591 155.169 90.1105 155.185L104.02 147.013C105.834 146.04 106.984 143.673 106.984 140.284V68.5807C106.984 62.5162 103.308 55.4627 98.7576 52.8358L98.7738 52.852Z" fill="#A156FF"/>
<path d="M104.7 59.6461C103.211 56.7112 101.105 54.1978 98.7736 52.852L34.3741 15.6221C32.4309 14.5033 30.6497 14.3736 29.2409 15.0546C29.0627 15.1357 28.9008 15.233 28.7389 15.3465L14.7319 23.5675C16.1893 22.6919 18.0839 22.7568 20.1728 23.9729L84.5724 61.2028C86.9851 62.5973 89.1388 65.2403 90.6448 68.305L104.7 59.6461Z" fill="#A156FF"/>
<path d="M92.7986 148.651C92.7986 151.861 91.7622 154.148 90.1267 155.202L104.036 147.029C105.85 146.056 107 143.689 107 140.3V68.5968C107 65.6456 106.125 62.4513 104.7 59.6461L90.6449 68.3049C91.9727 71.029 92.7986 74.0937 92.7986 76.9313V148.634V148.651Z" fill="#A156FF"/>
<path opacity="0.3" d="M104.7 59.6461C103.211 56.7112 101.105 54.1978 98.7736 52.852L34.3741 15.6221C32.4309 14.5033 30.6497 14.3736 29.2409 15.0546C29.0627 15.1357 28.9008 15.233 28.7389 15.3465L14.7319 23.5675C16.1893 22.6919 18.0839 22.7568 20.1728 23.9729L84.5724 61.2028C86.9851 62.5973 89.1388 65.2403 90.6448 68.305L104.7 59.6461Z" fill="black"/>
<path opacity="0.6" d="M92.7986 148.651C92.7986 151.861 91.7622 154.148 90.1267 155.202L104.036 147.029C105.85 146.056 107 143.689 107 140.3V68.5968C107 65.6456 106.125 62.4513 104.7 59.6461L90.6449 68.3049C91.9727 71.029 92.7986 74.0937 92.7986 76.9313V148.634V148.651Z" fill="black"/>
<path d="M71.7313 117.712C69.2538 113.642 66.7601 109.572 64.2826 105.502C63.149 103.638 61.8698 102.551 60.38 102.227C59.1818 101.967 57.9673 101.708 56.7528 101.335C56.4289 101.238 55.9108 100.816 55.6841 100.427C51.5548 93.2599 48.3324 85.9145 46.0816 78.3745C45.9845 78.0178 46.0492 77.5637 46.2112 77.3854C46.9722 76.6232 47.7819 75.926 48.5915 75.245C49.5955 74.4018 49.7736 72.9911 49.2069 70.948C48.0086 66.6185 46.8589 62.2891 45.6606 57.9597C44.8833 55.122 43.1345 53.0789 41.0294 52.5601C38.0985 51.8466 35.4428 51.9439 33.0948 52.8519C32.107 53.2411 31.5889 54.1329 31.5889 55.6571C31.9937 58.6245 32.2852 61.5594 32.8357 64.5754C36.8354 86.3199 46.4702 106.362 61.6755 124.636C62.8738 126.079 64.072 126.76 65.2865 126.712C67.9584 126.598 70.2416 125.723 72.12 124.069C73.5612 122.804 73.4154 120.501 71.7151 117.696L71.7313 117.712Z" fill="#A156FF"/>
<path d="M71.5371 95.676C71.278 91.3465 69.9988 86.8712 67.7156 82.3147C66.0639 79.0069 64.0397 76.0395 61.6432 73.3802C60.9955 72.6668 60.4611 72.4397 60.1534 72.9911C59.8457 73.5424 60.1534 74.2883 60.7687 74.9855C60.9793 75.2287 61.1898 75.472 61.4003 75.7152C66.0962 81.4229 68.7843 87.536 69.4644 94.0869C69.513 94.5896 69.432 95.076 69.6101 95.5625C69.8044 96.0814 70.2093 96.7786 70.5655 97.038C70.9056 97.2813 71.278 97.038 71.5695 97.0218C71.5695 96.3894 71.5695 96.0489 71.5371 95.7084V95.676Z" fill="#A156FF"/>
<path d="M56.8662 82.3635C59.0199 84.8606 60.1534 87.5199 60.3801 90.4061C60.4125 90.844 60.7687 91.4277 60.8821 91.7033C61.8698 92.5141 62.3556 92.2385 62.3556 91.2331C62.3556 88.1847 60.2505 83.385 57.8054 80.8392C57.1901 80.2069 56.6881 80.0123 56.3966 80.5474C56.1213 81.0338 56.3318 81.7473 56.8662 82.3635Z" fill="#A156FF"/>
<g opacity="0.9">
<path d="M71.7313 117.712C69.2538 113.642 66.7601 109.572 64.2826 105.502C63.149 103.638 61.8698 102.551 60.38 102.227C59.1818 101.967 57.9673 101.708 56.7528 101.335C56.4289 101.238 55.9108 100.816 55.6841 100.427C51.5548 93.2599 48.3324 85.9145 46.0816 78.3745C45.9845 78.0178 46.0492 77.5637 46.2112 77.3854C46.9722 76.6232 47.7819 75.926 48.5915 75.245C49.5955 74.4018 49.7736 72.9911 49.2069 70.948C48.0086 66.6185 46.8589 62.2891 45.6606 57.9597C44.8833 55.122 43.1345 53.0789 41.0294 52.5601C38.0985 51.8466 35.4428 51.9439 33.0948 52.8519C32.107 53.2411 31.5889 54.1329 31.5889 55.6571C31.9937 58.6245 32.2852 61.5594 32.8357 64.5754C36.8354 86.3199 46.4702 106.362 61.6755 124.636C62.8738 126.079 64.072 126.76 65.2865 126.712C67.9584 126.598 70.2416 125.723 72.12 124.069C73.5612 122.804 73.4154 120.501 71.7151 117.696L71.7313 117.712Z" fill="white"/>
<path d="M71.5371 95.676C71.278 91.3465 69.9988 86.8712 67.7156 82.3147C66.0639 79.0069 64.0397 76.0395 61.6432 73.3802C60.9955 72.6668 60.4611 72.4397 60.1534 72.9911C59.8457 73.5424 60.1534 74.2883 60.7687 74.9855C60.9793 75.2287 61.1898 75.472 61.4003 75.7152C66.0962 81.4229 68.7843 87.536 69.4644 94.0869C69.513 94.5896 69.432 95.076 69.6101 95.5625C69.8044 96.0814 70.2093 96.7786 70.5655 97.038C70.9056 97.2813 71.278 97.038 71.5695 97.0218C71.5695 96.3894 71.5695 96.0489 71.5371 95.7084V95.676Z" fill="white"/>
<path d="M56.8662 82.3635C59.0199 84.8606 60.1534 87.5199 60.3801 90.4061C60.4125 90.844 60.7687 91.4277 60.8821 91.7033C61.8698 92.5141 62.3556 92.2385 62.3556 91.2331C62.3556 88.1847 60.2505 83.385 57.8054 80.8392C57.1901 80.2069 56.6881 80.0123 56.3966 80.5474C56.1213 81.0338 56.3318 81.7473 56.8662 82.3635Z" fill="white"/>
</g>
</g>
<defs>
<filter id="filter0_d_290_16" x="-4" y="0" width="497" height="577" filterUnits="userSpaceOnUse" color-interpolation-filters="sRGB">
<feFlood flood-opacity="0" result="BackgroundImageFix"/>
<feColorMatrix in="SourceAlpha" type="matrix" values="0 0 0 0 0 0 0 0 0 0 0 0 0 0 0 0 0 0 127 0" result="hardAlpha"/>
<feOffset dy="4"/>
<feGaussianBlur stdDeviation="2"/>
<feComposite in2="hardAlpha" operator="out"/>
<feColorMatrix type="matrix" values="0 0 0 0 0 0 0 0 0 0 0 0 0 0 0 0 0 0 0.25 0"/>
<feBlend mode="normal" in2="BackgroundImageFix" result="effect1_dropShadow_290_16"/>
<feBlend mode="normal" in="SourceGraphic" in2="effect1_dropShadow_290_16" result="shape"/>
</filter>
<filter id="filter1_f_290_16" x="-23.1001" y="271.024" width="463.075" height="299.322" filterUnits="userSpaceOnUse" color-interpolation-filters="sRGB">
<feFlood flood-opacity="0" result="BackgroundImageFix"/>
<feBlend mode="normal" in="SourceGraphic" in2="BackgroundImageFix" result="shape"/>
<feGaussianBlur stdDeviation="25" result="effect1_foregroundBlur_290_16"/>
</filter>
<clipPath id="clip0_290_16">
<rect width="489" height="569" fill="white"/>
</clipPath>
</defs>
</svg>
