<svg width="1996" height="1019" viewBox="0 0 1996 1019" fill="none" xmlns="http://www.w3.org/2000/svg">
<g clip-path="url(#clip0_290_518)">
<mask id="mask0_290_518" style="mask-type:luminance" maskUnits="userSpaceOnUse" x="859" y="-133" width="1272" height="950">
<path d="M2131 -132.167H859V342.021V816.209H2131V-132.167Z" fill="white"/>
</mask>
<g mask="url(#mask0_290_518)">
<path d="M1429.08 691.857L1114.47 850.784L1366.13 930.844L1429.08 691.857Z" stroke="white" stroke-miterlimit="10"/>
<path d="M1821.4 -0.218765L1690.63 184.001L1963.88 154.132L1821.4 -0.218765Z" stroke="white" stroke-miterlimit="10"/>
<path d="M1690.63 184.001H1380.66L1351.59 367.608L1690.63 184.001Z" stroke="white" stroke-miterlimit="10"/>
<path d="M1690.63 184.001L1649.46 472.786L1777.8 520.086L1690.63 184.001Z" stroke="white" stroke-miterlimit="10"/>
<path d="M1690.63 184.001L1952.83 418.248L1963.88 154.132L1690.63 184.001Z" stroke="white" stroke-miterlimit="10"/>
<path d="M1351.59 367.608L1649.46 472.786L1429.08 691.857L1351.59 367.608Z" stroke="white" stroke-miterlimit="10"/>
<path d="M1429.08 691.857L1777.8 816.393L1649.46 472.786L1429.08 691.857Z" stroke="white" stroke-miterlimit="10"/>
<path d="M1690.63 184.001L1569.55 -152.916L1821.4 -0.21876L1690.63 184.001Z" stroke="white" stroke-miterlimit="10"/>
<path d="M1821.4 -0.21876L1895.54 -152.916L1963.88 154.132L1821.4 -0.21876Z" stroke="white" stroke-miterlimit="10"/>
<path d="M1963.88 154.132L2095.85 -152.916H1895.54L1963.88 154.132Z" stroke="white" stroke-miterlimit="10"/>
<path d="M1963.88 154.132L2166.07 246.598L2095.85 -152.916L1963.88 154.132Z" stroke="white" stroke-miterlimit="10"/>
<path d="M1952.83 418.248L1963.88 154.132L2166.07 246.598L1952.83 418.248Z" stroke="white" stroke-miterlimit="10"/>
<path d="M1777.8 520.086L1952.83 418.248L1690.63 184.001L1777.8 520.086Z" stroke="white" stroke-miterlimit="10"/>
<path d="M1777.8 520.086L2153.16 700.649L1952.83 418.248L1777.8 520.086Z" stroke="white" stroke-miterlimit="10"/>
<path d="M1777.8 520.086V816.393L1649.46 472.786L1777.8 520.086Z" stroke="white" stroke-miterlimit="10"/>
<path d="M1777.8 816.393V520.086L2153.16 700.649L1777.8 816.393Z" stroke="white" stroke-miterlimit="10"/>
<path d="M1952.83 418.248L2213.71 472.786L2153.16 700.649L1952.83 418.248Z" stroke="white" stroke-miterlimit="10"/>
<path d="M1952.83 418.248L2166.07 246.598L2213.71 472.786L1952.83 418.248Z" stroke="white" stroke-miterlimit="10"/>
<path d="M1429.08 691.857L1148.17 833.758L1777.8 816.393L1429.08 691.857Z" stroke="white" stroke-miterlimit="10"/>
<path d="M1351.59 367.608L1114.47 850.784L1429.08 691.857L1351.59 367.608Z" stroke="white" stroke-miterlimit="10"/>
<path d="M1380.66 184.001L1337.06 15.5481L1690.63 184.001H1380.66Z" stroke="white" stroke-miterlimit="10"/>
<path d="M1337.06 15.5481L1569.55 -152.916L1690.63 184.001L1337.06 15.5481Z" stroke="white" stroke-miterlimit="10"/>
<path d="M1337.06 15.5481L1162.71 -172.767L1569.55 -152.916L1337.06 15.5481Z" stroke="white" stroke-miterlimit="10"/>
<path d="M1429.08 691.857L1603.45 943.294L1366.13 930.844L1429.08 691.857Z" stroke="white" stroke-miterlimit="10"/>
<path d="M1429.08 701.109C1434.06 701.109 1438.08 696.967 1438.08 691.857C1438.08 686.747 1434.06 682.605 1429.08 682.605C1424.11 682.605 1420.08 686.747 1420.08 691.857C1420.08 696.967 1424.11 701.109 1429.08 701.109Z" fill="white"/>
<path d="M1649.46 482.038C1654.43 482.038 1658.46 477.895 1658.46 472.786C1658.46 467.676 1654.43 463.534 1649.46 463.534C1644.49 463.534 1640.46 467.676 1640.46 472.786C1640.46 477.895 1644.49 482.038 1649.46 482.038Z" fill="white"/>
<path d="M1963.88 163.384C1968.85 163.384 1972.88 159.242 1972.88 154.132C1972.88 149.022 1968.85 144.88 1963.88 144.88C1958.91 144.88 1954.88 149.022 1954.88 154.132C1954.88 159.242 1958.91 163.384 1963.88 163.384Z" fill="white"/>
<path d="M1777.8 529.338C1782.77 529.338 1786.8 525.196 1786.8 520.086C1786.8 514.976 1782.77 510.834 1777.8 510.834C1772.83 510.834 1768.8 514.976 1768.8 520.086C1768.8 525.196 1772.83 529.338 1777.8 529.338Z" fill="white"/>
<path d="M1690.63 193.253C1695.6 193.253 1699.63 189.111 1699.63 184.001C1699.63 178.891 1695.6 174.749 1690.63 174.749C1685.66 174.749 1681.63 178.891 1681.63 184.001C1681.63 189.111 1685.66 193.253 1690.63 193.253Z" fill="white"/>
<path d="M1351.59 376.86C1356.56 376.86 1360.59 372.718 1360.59 367.608C1360.59 362.498 1356.56 358.356 1351.59 358.356C1346.62 358.356 1342.59 362.498 1342.59 367.608C1342.59 372.718 1346.62 376.86 1351.59 376.86Z" fill="white"/>
<path d="M1952.83 427.5C1957.8 427.5 1961.83 423.358 1961.83 418.248C1961.83 413.138 1957.8 408.996 1952.83 408.996C1947.86 408.996 1943.83 413.138 1943.83 418.248C1943.83 423.358 1947.86 427.5 1952.83 427.5Z" fill="white"/>
<path d="M1821.4 9.03331C1826.37 9.03331 1830.4 4.89101 1830.4 -0.218759C1830.4 -5.32853 1826.37 -9.47083 1821.4 -9.47083C1816.43 -9.47083 1812.4 -5.32853 1812.4 -0.218759C1812.4 4.89101 1816.43 9.03331 1821.4 9.03331Z" fill="white"/>
<path d="M1337.06 15.5481L1429.08 -167.018" stroke="white" stroke-miterlimit="10"/>
<path d="M1337.06 24.8001C1342.03 24.8001 1346.06 20.6578 1346.06 15.5481C1346.06 10.4383 1342.03 6.29601 1337.06 6.29601C1332.09 6.29601 1328.06 10.4383 1328.06 15.5481C1328.06 20.6578 1332.09 24.8001 1337.06 24.8001Z" fill="white"/>
<path d="M1380.66 193.253C1385.63 193.253 1389.65 189.111 1389.65 184.001C1389.65 178.891 1385.63 174.749 1380.66 174.749C1375.68 174.749 1371.66 178.891 1371.66 184.001C1371.66 189.111 1375.68 193.253 1380.66 193.253Z" fill="white"/>
<g opacity="0.2">
<path d="M1835.94 848.047L1938.82 703.102L1723.82 726.609L1835.94 848.047Z" stroke="white" stroke-width="0.79" stroke-miterlimit="10"/>
<path d="M1938.82 703.102H2182.7L2205.57 558.638L1938.82 703.102Z" stroke="white" stroke-width="0.79" stroke-miterlimit="10"/>
<path d="M1938.82 703.102L1971.21 475.895L1870.23 438.679L1938.82 703.102Z" stroke="white" stroke-width="0.79" stroke-miterlimit="10"/>
<path d="M1938.82 703.102L1732.53 518.794L1723.82 726.609L1938.82 703.102Z" stroke="white" stroke-width="0.79" stroke-miterlimit="10"/>
<path d="M2205.57 558.638L1971.21 475.895L2144.6 303.522L2205.57 558.638Z" stroke="white" stroke-width="0.79" stroke-miterlimit="10"/>
<path d="M2144.6 303.522L1870.23 205.538L1971.21 475.895L2144.6 303.522Z" stroke="white" stroke-width="0.79" stroke-miterlimit="10"/>
<path d="M1938.82 703.102L2034.08 968.181L1835.94 848.047L1938.82 703.102Z" stroke="white" stroke-width="0.79" stroke-miterlimit="10"/>
<path d="M1835.94 848.047L1777.6 968.181L1723.82 726.609L1835.94 848.047Z" stroke="white" stroke-width="0.79" stroke-miterlimit="10"/>
<path d="M1723.82 726.609L1619.99 968.181H1777.6L1723.82 726.609Z" stroke="white" stroke-width="0.79" stroke-miterlimit="10"/>
<path d="M1723.82 726.609L1564.74 653.852L1619.99 968.181L1723.82 726.609Z" stroke="white" stroke-width="0.79" stroke-miterlimit="10"/>
<path d="M1732.53 518.794L1723.82 726.609L1564.74 653.852L1732.53 518.794Z" stroke="white" stroke-width="0.79" stroke-miterlimit="10"/>
<path d="M1870.23 438.679L1732.53 518.794L1938.82 703.102L1870.23 438.679Z" stroke="white" stroke-width="0.79" stroke-miterlimit="10"/>
<path d="M1870.23 438.679L1538.35 303.522L1732.53 518.794L1870.23 438.679Z" stroke="white" stroke-width="0.79" stroke-miterlimit="10"/>
<path d="M1870.23 438.679V205.538L1971.21 475.895L1870.23 438.679Z" stroke="white" stroke-width="0.79" stroke-miterlimit="10"/>
<path d="M1870.23 205.538V438.679L1538.35 303.522L1870.23 205.538Z" stroke="white" stroke-width="0.79" stroke-miterlimit="10"/>
<path d="M1732.53 518.794L1527.26 475.895L1538.35 303.522L1732.53 518.794Z" stroke="white" stroke-width="0.79" stroke-miterlimit="10"/>
<path d="M1732.53 518.794L1564.74 653.852L1527.26 475.895L1732.53 518.794Z" stroke="white" stroke-width="0.79" stroke-miterlimit="10"/>
<path d="M2144.6 303.522L2365.62 191.874L1870.23 205.538L2144.6 303.522Z" stroke="white" stroke-width="0.79" stroke-miterlimit="10"/>
<path d="M2182.7 703.102L2217 835.641L1938.82 703.102H2182.7Z" stroke="white" stroke-width="0.79" stroke-miterlimit="10"/>
<path d="M2217 835.641L2034.08 968.181L1938.82 703.102L2217 835.641Z" stroke="white" stroke-width="0.79" stroke-miterlimit="10"/>
<path d="M2144.6 303.522L1858.72 85.3491L2194.14 115.481L2144.6 303.522Z" stroke="white" stroke-width="0.79" stroke-miterlimit="10"/>
<path d="M1964.13 475.895C1964.13 471.877 1967.3 468.614 1971.21 468.614C1975.12 468.614 1978.29 471.877 1978.29 475.895C1978.29 479.914 1975.12 483.176 1971.21 483.176C1967.3 483.176 1964.13 479.914 1964.13 475.895Z" fill="white"/>
<path d="M1723.82 733.891C1727.74 733.891 1730.91 730.631 1730.91 726.609C1730.91 722.588 1727.74 719.328 1723.82 719.328C1719.91 719.328 1716.74 722.588 1716.74 726.609C1716.74 730.631 1719.91 733.891 1723.82 733.891Z" fill="white"/>
<path d="M1863.15 438.679C1863.15 434.661 1866.32 431.398 1870.23 431.398C1874.14 431.398 1877.31 434.661 1877.31 438.679C1877.31 442.697 1874.14 445.96 1870.23 445.96C1866.32 445.96 1863.15 442.697 1863.15 438.679Z" fill="white"/>
<path d="M1931.74 703.102C1931.74 699.083 1934.91 695.82 1938.82 695.82C1942.73 695.82 1945.9 699.083 1945.9 703.102C1945.9 707.12 1942.73 710.383 1938.82 710.383C1934.91 710.383 1931.74 707.12 1931.74 703.102Z" fill="white"/>
<path d="M1725.44 518.794C1725.44 514.776 1728.62 511.513 1732.53 511.513C1736.44 511.513 1739.61 514.776 1739.61 518.794C1739.61 522.813 1736.44 526.075 1732.53 526.075C1728.62 526.075 1725.44 522.813 1725.44 518.794Z" fill="white"/>
<path d="M1678.38 -255.148L1653.94 24.6906L1822.87 -89.8049L1678.38 -255.148Z" stroke="white" stroke-width="0.79" stroke-miterlimit="10"/>
<path d="M1242.82 -192.497L1326.33 93.4953L1480.28 -149.029L1242.82 -192.497Z" stroke="white" stroke-width="0.79" stroke-miterlimit="10"/>
<path d="M1822.87 -89.8049L1858.72 85.3492L2074.14 -144.835L1822.87 -89.8049Z" stroke="white" stroke-width="0.79" stroke-miterlimit="10"/>
<path d="M1653.94 24.6906L1822.87 -89.8049L1858.72 85.3491L1653.94 24.6906Z" stroke="white" stroke-width="0.79" stroke-miterlimit="10"/>
<path d="M1510.1 -43.0848L1653.94 24.6906L1678.38 -255.148L1510.1 -43.0848Z" stroke="white" stroke-width="0.79" stroke-miterlimit="10"/>
<path d="M1510.1 -43.0848L1538.35 303.522L1653.94 24.6907L1510.1 -43.0848Z" stroke="white" stroke-width="0.79" stroke-miterlimit="10"/>
<path d="M1510.11 -43.0848L1326.33 93.4953L1480.28 -149.029L1510.11 -43.0848Z" stroke="white" stroke-width="0.79" stroke-miterlimit="10"/>
<path d="M1326.33 93.4953L1510.11 -43.0848L1538.35 303.522L1326.33 93.4953Z" stroke="white" stroke-width="0.79" stroke-miterlimit="10"/>
<path d="M1653.94 24.6906L1870.23 205.538L1538.35 303.522L1653.94 24.6906Z" stroke="white" stroke-width="0.79" stroke-miterlimit="10"/>
<path d="M1653.94 24.6906L1858.72 85.3491L1870.23 205.538L1653.94 24.6906Z" stroke="white" stroke-width="0.79" stroke-miterlimit="10"/>
<path d="M1242.82 -192.497L1025.31 -311.219L1326.33 93.4953L1242.82 -192.497Z" stroke="white" stroke-width="0.79" stroke-miterlimit="10"/>
<path d="M860 -144.835L1326.33 93.4953L1052.92 -156.299L860 -144.835Z" stroke="white" stroke-width="0.79" stroke-miterlimit="10"/>
<path d="M1862.86 91.2506C1859.7 93.6047 1855.27 92.8711 1852.98 89.6192C1850.69 86.3673 1851.4 81.8125 1854.56 79.4584C1857.73 77.1043 1862.16 77.8379 1864.45 81.0898C1866.74 84.3417 1866.02 88.8965 1862.86 91.2506Z" fill="white"/>
<path d="M1330.47 99.3969C1327.3 101.751 1322.87 101.017 1320.58 97.7654C1318.29 94.5135 1319.01 89.9587 1322.17 87.6046C1325.33 85.2506 1329.77 85.9841 1332.06 89.236C1334.35 92.488 1333.63 97.0428 1330.47 99.3969Z" fill="white"/>
<path d="M1658.1 30.5922C1654.92 32.9463 1650.5 32.2127 1648.21 28.9608C1645.92 25.7089 1646.64 21.154 1649.8 18.7999C1652.96 16.4459 1657.4 17.1795 1659.69 20.4314C1661.98 23.6833 1661.26 28.2382 1658.1 30.5922Z" fill="white"/>
<path d="M1542.49 309.424C1539.33 311.778 1534.9 311.045 1532.61 307.793C1530.32 304.541 1531.03 299.986 1534.2 297.632C1537.36 295.278 1541.79 296.011 1544.08 299.263C1546.37 302.515 1545.66 307.07 1542.49 309.424Z" fill="white"/>
<path d="M1874.37 211.44C1871.21 213.794 1866.78 213.06 1864.49 209.808C1862.2 206.545 1862.91 202.002 1866.08 199.647C1869.24 197.293 1873.67 198.027 1875.96 201.279C1878.25 204.531 1877.54 209.086 1874.37 211.44Z" fill="white"/>
</g>
</g>
</g>
<defs>
<clipPath id="clip0_290_518">
<rect width="1996" height="1019" fill="white"/>
</clipPath>
</defs>
</svg>
