<svg width="754" height="922" viewBox="0 0 754 922" fill="none" xmlns="http://www.w3.org/2000/svg">
<path opacity="0.9" d="M413.856 775.69C513.144 774.094 592.807 721.338 591.788 657.855C590.769 594.373 509.454 544.203 410.166 545.798C310.878 547.393 231.215 600.149 232.234 663.632C233.253 727.115 314.568 777.285 413.856 775.69Z" stroke="url(#paint0_linear_290_726)" stroke-width="0.25" stroke-miterlimit="10"/>
<path opacity="0.8" d="M413.994 784.246C520.699 782.532 606.313 725.848 605.219 657.64C604.124 589.431 516.734 535.527 410.029 537.241C303.323 538.956 217.709 595.639 218.804 663.848C219.899 732.056 307.288 785.96 413.994 784.246Z" stroke="url(#paint1_linear_290_726)" stroke-width="0.27" stroke-miterlimit="10"/>
<path opacity="0.7" d="M414.123 792.335C527.803 790.509 619.014 730.113 617.847 657.437C616.681 584.761 523.579 527.326 409.899 529.153C296.219 530.979 205.008 591.375 206.175 664.051C207.341 736.726 300.443 794.161 414.123 792.335Z" stroke="url(#paint2_linear_290_726)" stroke-width="0.29" stroke-miterlimit="10"/>
<path opacity="0.5" d="M414.26 800.825C535.284 798.88 632.386 734.588 631.144 657.223C629.903 579.859 530.787 518.719 409.763 520.663C288.739 522.607 191.636 586.9 192.878 664.264C194.12 741.629 293.236 802.769 414.26 800.825Z" stroke="url(#paint3_linear_290_726)" stroke-width="0.3" stroke-miterlimit="10"/>
<path opacity="0.4" d="M414.422 810.952C544.192 808.867 648.312 739.927 646.98 656.969C645.649 574.011 539.37 508.451 409.6 510.535C279.83 512.62 175.71 581.561 177.041 664.519C178.373 747.476 284.652 813.037 414.422 810.952Z" stroke="url(#paint4_linear_290_726)" stroke-width="0.33" stroke-miterlimit="10"/>
<path opacity="0.35" d="M414.597 821.882C553.796 819.645 665.481 745.689 664.053 656.694C662.624 567.7 548.623 497.369 409.425 499.606C270.226 501.842 158.541 575.799 159.969 664.793C161.398 753.787 275.399 824.118 414.597 821.882Z" stroke="url(#paint5_linear_290_726)" stroke-width="0.35" stroke-miterlimit="10"/>
<path opacity="0.3" d="M414.772 832.778C563.418 830.39 682.683 751.432 681.158 656.42C679.633 561.408 557.895 486.321 409.249 488.709C260.603 491.097 141.338 570.056 142.863 665.068C144.389 760.08 266.126 835.166 414.772 832.778Z" stroke="url(#paint6_linear_290_726)" stroke-width="0.37" stroke-miterlimit="10"/>
<path opacity="0.25" d="M414.981 845.747C574.808 843.179 703.045 758.269 701.405 656.094C699.765 553.92 568.869 473.173 409.042 475.741C249.214 478.308 120.977 563.219 122.618 665.393C124.258 767.567 255.153 848.314 414.981 845.747Z" stroke="url(#paint7_linear_290_726)" stroke-width="0.4" stroke-miterlimit="10"/>
<path opacity="0.2" d="M415.221 860.721C587.983 857.945 726.597 766.162 724.825 655.718C723.052 545.274 581.563 457.991 408.801 460.767C236.039 463.542 97.4244 555.325 99.1972 665.769C100.97 776.213 242.459 863.496 415.221 860.721Z" stroke="url(#paint8_linear_290_726)" stroke-width="0.43" stroke-miterlimit="10"/>
<path opacity="0.15" d="M415.474 876.464C601.835 873.47 751.36 774.461 749.447 655.323C747.535 536.184 594.909 442.03 408.548 445.024C222.187 448.018 72.6621 547.026 74.5744 666.165C76.4868 785.304 229.113 879.458 415.474 876.464Z" stroke="url(#paint9_linear_290_726)" stroke-width="0.47" stroke-miterlimit="10"/>
<path opacity="0.1" d="M415.804 897.053C619.971 893.773 783.782 785.315 781.688 654.805C779.593 524.295 612.385 421.155 408.218 424.435C204.051 427.715 40.2392 536.173 42.3341 666.683C44.429 797.193 211.637 900.333 415.804 897.053Z" stroke="url(#paint10_linear_290_726)" stroke-width="0.51" stroke-miterlimit="10"/>
<path opacity="0.05" d="M416.188 920.951C640.983 917.34 821.346 797.913 819.04 654.205C816.733 510.496 632.63 396.925 407.834 400.536C183.039 404.148 2.67563 523.574 4.98235 667.283C7.28907 810.991 191.392 924.562 416.188 920.951Z" stroke="url(#paint11_linear_290_726)" stroke-width="0.57" stroke-miterlimit="10"/>
<path d="M413.765 765.829C506.41 764.34 580.744 715.128 579.793 655.909C578.843 596.691 502.968 549.891 410.323 551.379C317.677 552.868 243.344 602.08 244.294 661.299C245.245 720.518 321.119 767.317 413.765 765.829Z" stroke="url(#paint12_linear_290_726)" stroke-width="0.23" stroke-miterlimit="10"/>
<path d="M412.819 751.214C488.902 749.977 549.949 709.562 549.181 660.923L549.114 644.811L273.617 650.895V665.369C274.419 714.008 336.735 752.451 412.819 751.247V751.214Z" fill="url(#paint13_linear_290_726)"/>
<path d="M412.83 736.76C488.924 735.537 549.978 695.115 549.197 646.474C548.417 597.832 486.097 559.392 410.003 560.614C333.908 561.837 272.855 602.259 273.635 650.901C274.416 699.542 336.736 737.982 412.83 736.76Z" fill="url(#paint14_linear_290_726)"/>
<path d="M412.39 709.352C464.793 708.51 506.837 680.667 506.3 647.163C505.762 613.659 462.845 587.18 410.443 588.022C358.04 588.864 315.996 616.707 316.533 650.212C317.071 683.716 359.988 710.194 412.39 709.352Z" stroke="url(#paint15_linear_290_726)" stroke-width="0.25" stroke-miterlimit="10"/>
<path d="M412.578 721.051C475.129 720.046 525.316 686.818 524.675 646.834C524.033 606.851 472.805 575.252 410.254 576.257C347.703 577.262 297.516 610.49 298.158 650.473C298.799 690.457 350.027 722.056 412.578 721.051Z" stroke="url(#paint16_linear_290_726)" stroke-miterlimit="10"/>
<path d="M411.382 779.762C437.111 779.361 457.727 765.688 457.46 749.242V489.068L364.335 491.107V750.712C364.603 767.159 385.654 780.129 411.382 779.728V779.762Z" fill="url(#paint17_linear_290_726)"/>
<path d="M411.315 779.762C433.636 779.394 451.579 767.527 451.345 753.253V527.276L370.45 529.048V754.523C370.684 768.797 388.995 780.096 411.315 779.728V779.762Z" fill="url(#paint18_linear_290_726)"/>
<path style="mix-blend-mode:color-dodge" d="M411.282 766.624C431.497 766.29 447.736 755.559 447.536 742.623V538.04L374.292 539.645V743.793C374.493 756.73 391.066 766.925 411.282 766.624Z" fill="url(#paint19_linear_290_726)"/>
<path style="mix-blend-mode:color-dodge" d="M411.182 708.325C426.719 708.091 439.149 699.834 439.015 689.906V532.825L382.78 534.062V690.808C382.947 700.737 395.644 708.593 411.182 708.325Z" fill="url(#paint20_linear_290_726)"/>
<path style="mix-blend-mode:color-dodge" d="M411.449 766.624C430.194 766.324 445.197 756.362 445.03 744.394V554.888L377.2 556.392V745.498C377.4 757.465 392.737 766.925 411.482 766.624H411.449Z" fill="url(#paint21_linear_290_726)"/>
<mask id="mask0_290_726" style="mask-type:luminance" maskUnits="userSpaceOnUse" x="270" y="473" width="41" height="35">
<path d="M298.878 480.242L310.406 473.523C298.343 480.543 288.887 492.009 283.04 500.467C282.839 500.734 282.639 500.935 282.405 501.068L270.877 507.788C271.111 507.654 271.311 507.453 271.512 507.186C277.359 498.728 286.815 487.262 298.878 480.242Z" fill="white"/>
</mask>
<g mask="url(#mask0_290_726)">
<path d="M298.878 480.242L310.406 473.523C298.343 480.543 288.887 492.009 283.04 500.467C282.839 500.734 282.639 500.935 282.405 501.068L270.877 507.788C271.111 507.654 271.311 507.453 271.512 507.186C277.359 498.728 286.815 487.262 298.878 480.242Z" fill="url(#paint22_linear_290_726)"/>
</g>
<path d="M346.459 432.506L357.987 425.787L357.853 476.03L346.292 482.75L346.459 432.506Z" fill="url(#paint23_linear_290_726)"/>
<path d="M345.958 432.172C346.125 432.273 346.259 432.373 346.359 432.406C346.392 432.406 346.459 432.473 346.459 432.473L357.987 425.754C357.987 425.754 357.953 425.754 357.887 425.687C357.82 425.654 357.686 425.553 357.519 425.453C357.486 425.453 357.419 425.386 357.352 425.353C357.218 425.253 357.051 425.152 356.851 425.052C356.784 425.052 356.784 425.019 356.717 424.985C356.584 424.918 356.416 424.818 356.249 424.718C355.782 424.45 355.247 424.149 354.612 423.815C354.579 423.815 354.545 423.782 354.512 423.748C354.044 423.481 353.543 423.213 352.975 422.946C352.841 422.879 352.674 422.812 352.54 422.712C352.273 422.578 352.039 422.444 351.739 422.311C351.605 422.244 351.438 422.177 351.271 422.077C350.669 421.776 350.068 421.508 349.4 421.208C349.166 421.107 348.932 420.974 348.698 420.873C348.598 420.807 348.464 420.773 348.33 420.706C347.729 420.439 347.094 420.171 346.459 419.904C346.125 419.77 345.824 419.637 345.49 419.503C345.39 419.469 345.323 419.436 345.223 419.403C344.655 419.169 344.02 418.935 343.418 418.734C342.984 418.567 342.617 418.433 342.182 418.266C342.115 418.266 342.015 418.233 341.948 418.199C341.447 418.032 340.879 417.865 340.344 417.664C339.843 417.497 339.342 417.33 338.807 417.163C338.707 417.163 338.607 417.096 338.54 417.096C338.106 416.962 337.638 416.862 337.17 416.728C336.602 416.561 336.067 416.394 335.499 416.26C335.366 416.227 335.199 416.193 335.032 416.16C334.564 416.06 334.096 415.959 333.595 415.826C333.094 415.725 332.592 415.592 332.091 415.491C331.857 415.458 331.623 415.425 331.389 415.391C330.888 415.291 330.387 415.224 329.919 415.157C329.485 415.09 329.084 414.99 328.65 414.957C328.315 414.923 327.981 414.89 327.647 414.856C327.146 414.789 326.645 414.756 326.11 414.689C325.776 414.689 325.475 414.622 325.141 414.589C324.707 414.589 324.272 414.589 323.838 414.555C323.303 414.555 322.769 414.522 322.234 414.489C322 414.489 321.766 414.489 321.499 414.489C320.998 414.489 320.463 414.555 319.962 414.555C319.394 414.555 318.859 414.589 318.291 414.622C318.124 414.622 317.924 414.622 317.757 414.622C317.289 414.656 316.821 414.756 316.387 414.823C315.618 414.923 314.85 415.023 314.081 415.157C313.881 415.191 313.68 415.191 313.513 415.224C312.577 415.425 311.642 415.625 310.74 415.893C310.573 415.926 310.406 415.993 310.272 416.026C309.67 416.193 309.036 416.394 308.434 416.595C308.033 416.728 307.632 416.929 307.231 417.096C306.897 417.23 306.53 417.363 306.195 417.531C305.026 418.032 303.823 418.6 302.687 419.269L291.159 425.988C292.329 425.319 293.498 424.751 294.668 424.216C295.002 424.083 295.336 423.949 295.703 423.782C296.706 423.381 297.742 423.013 298.744 422.712C298.911 422.679 299.045 422.612 299.212 422.578C300.315 422.277 301.451 422.01 302.587 421.809C303.355 421.676 304.124 421.575 304.892 421.475C305.527 421.408 306.162 421.308 306.797 421.241C307.365 421.208 307.9 421.174 308.468 421.174C309.236 421.174 309.971 421.107 310.74 421.141C311.274 421.141 311.809 421.141 312.344 421.208C313.112 421.241 313.847 421.275 314.616 421.341C315.117 421.375 315.652 421.442 316.153 421.509C316.888 421.609 317.656 421.709 318.391 421.809C318.893 421.876 319.394 421.976 319.895 422.043C320.63 422.177 321.365 422.344 322.1 422.478C322.568 422.578 323.069 422.679 323.537 422.812C324.272 422.979 324.974 423.18 325.676 423.381C326.11 423.514 326.578 423.615 327.012 423.748C327.647 423.949 328.249 424.149 328.85 424.35C329.385 424.517 329.919 424.684 330.42 424.885C330.922 425.052 331.423 425.253 331.924 425.453C332.526 425.687 333.127 425.888 333.695 426.122C334.129 426.289 334.53 426.456 334.965 426.656C335.6 426.924 336.234 427.191 336.836 427.459C337.203 427.626 337.571 427.793 337.905 427.96C338.54 428.261 339.175 428.562 339.776 428.829C340.211 429.03 340.645 429.264 341.046 429.464C341.18 429.531 341.347 429.598 341.48 429.699C342.082 429.999 342.617 430.3 343.118 430.568C343.753 430.902 344.287 431.203 344.755 431.47C344.989 431.604 345.156 431.704 345.323 431.805C345.557 431.938 345.757 432.072 345.891 432.139C345.891 432.139 345.958 432.172 345.958 432.206V432.172Z" fill="url(#paint24_linear_290_726)"/>
<path d="M344.721 431.437C345.857 432.072 346.425 432.473 346.459 432.473L346.325 482.716C344.922 481.747 343.552 480.878 342.182 480.075C309.436 461.188 283.24 490.204 271.545 507.152C270.81 508.222 269.574 508.189 268.337 507.487C266.433 506.384 264.562 503.642 264.562 500.968C265.464 390.487 332.96 424.617 344.721 431.403V431.437Z" fill="url(#paint25_linear_290_726)"/>
<mask id="mask1_290_726" style="mask-type:luminance" maskUnits="userSpaceOnUse" x="512" y="473" width="41" height="35">
<path d="M524.254 480.242L512.726 473.523C524.788 480.543 534.245 492.009 540.092 500.467C540.293 500.734 540.493 500.935 540.727 501.068L552.255 507.787C552.021 507.654 551.82 507.453 551.62 507.186C545.772 498.728 536.316 487.262 524.254 480.242Z" fill="white"/>
</mask>
<g mask="url(#mask1_290_726)">
<path d="M524.254 480.242L512.726 473.523C524.788 480.543 534.245 492.009 540.092 500.467C540.293 500.734 540.493 500.935 540.727 501.068L552.255 507.787C552.021 507.654 551.82 507.453 551.62 507.186C545.772 498.728 536.316 487.262 524.254 480.242Z" fill="url(#paint26_linear_290_726)"/>
</g>
<path d="M476.706 432.506L465.145 425.787L465.279 476.03L476.84 482.75L476.706 432.506Z" fill="url(#paint27_linear_290_726)"/>
<path d="M477.274 432.139C477.274 432.139 477.608 431.938 477.842 431.804C478.009 431.704 478.21 431.604 478.41 431.47C478.878 431.203 479.413 430.902 480.048 430.568C480.549 430.3 481.083 429.999 481.685 429.698C481.818 429.632 481.986 429.565 482.119 429.464C482.52 429.264 482.955 429.063 483.389 428.829C483.99 428.528 484.592 428.261 485.26 427.96C485.628 427.793 485.962 427.626 486.329 427.459C486.931 427.191 487.566 426.924 488.201 426.656C488.635 426.489 489.036 426.322 489.47 426.122C490.038 425.888 490.64 425.687 491.241 425.453C491.742 425.252 492.21 425.085 492.745 424.885C493.246 424.718 493.814 424.55 494.315 424.35C494.917 424.149 495.518 423.949 496.153 423.748C496.587 423.614 497.055 423.514 497.49 423.38C498.191 423.18 498.926 422.979 499.628 422.812C500.096 422.712 500.597 422.612 501.065 422.478C501.8 422.311 502.535 422.177 503.27 422.043C503.771 421.943 504.273 421.876 504.774 421.809C505.509 421.709 506.244 421.575 507.012 421.508C507.514 421.442 508.048 421.408 508.55 421.341C509.285 421.274 510.053 421.241 510.822 421.208C511.356 421.208 511.891 421.174 512.426 421.141C513.194 421.141 513.929 421.141 514.698 421.174C515.266 421.174 515.8 421.208 516.368 421.241C517.003 421.274 517.638 421.375 518.273 421.475C519.042 421.575 519.81 421.676 520.579 421.809C521.715 422.01 522.817 422.244 523.953 422.578C524.12 422.612 524.254 422.678 524.421 422.712C525.457 423.013 526.459 423.38 527.462 423.782C527.796 423.915 528.163 424.049 528.498 424.216C529.701 424.718 530.87 425.286 532.006 425.988L520.478 419.269C519.309 418.6 518.139 418.032 516.97 417.497C516.636 417.363 516.302 417.23 515.934 417.062C515.533 416.895 515.132 416.728 514.731 416.561C514.13 416.327 513.495 416.16 512.893 415.993C512.726 415.959 512.559 415.892 512.426 415.859C511.49 415.592 510.588 415.358 509.652 415.191C509.452 415.157 509.251 415.157 509.084 415.124C508.316 414.99 507.547 414.89 506.779 414.789C506.311 414.722 505.843 414.622 505.409 414.589C505.242 414.589 505.041 414.589 504.874 414.589C504.306 414.555 503.771 414.522 503.203 414.522C502.702 414.522 502.168 414.455 501.666 414.455C501.432 414.455 501.198 414.455 500.931 414.455C500.397 414.455 499.862 414.455 499.327 414.522C498.893 414.522 498.459 414.522 498.024 414.555C497.69 414.555 497.389 414.622 497.055 414.656C496.554 414.689 496.053 414.756 495.518 414.823C495.184 414.856 494.85 414.89 494.516 414.923C494.081 414.99 493.68 415.057 493.246 415.124C492.745 415.19 492.244 415.291 491.776 415.358C491.542 415.391 491.308 415.425 491.074 415.458C490.573 415.558 490.072 415.692 489.57 415.792C489.103 415.892 488.601 415.993 488.134 416.127C488 416.16 487.833 416.193 487.666 416.227C487.098 416.36 486.53 416.528 485.962 416.695C485.494 416.828 485.06 416.929 484.592 417.062C484.492 417.062 484.391 417.129 484.291 417.129C483.756 417.297 483.255 417.464 482.754 417.631C482.219 417.798 481.685 417.965 481.15 418.166C481.083 418.166 480.983 418.199 480.916 418.232C480.482 418.4 480.081 418.533 479.68 418.7C479.079 418.934 478.444 419.135 477.876 419.369C477.775 419.403 477.709 419.436 477.608 419.469C477.274 419.603 476.973 419.737 476.639 419.87C476.004 420.138 475.37 420.405 474.768 420.673C474.668 420.74 474.534 420.773 474.401 420.84C474.133 420.94 473.933 421.074 473.699 421.174C473.031 421.475 472.429 421.776 471.828 422.043C471.694 422.11 471.494 422.177 471.36 422.277C471.093 422.411 470.825 422.545 470.558 422.678C470.424 422.745 470.257 422.812 470.124 422.912C469.589 423.18 469.054 423.447 468.587 423.715C468.553 423.715 468.52 423.748 468.486 423.782C467.851 424.116 467.317 424.417 466.849 424.684C466.682 424.784 466.548 424.885 466.381 424.952C466.314 424.952 466.314 424.985 466.248 425.018C466.047 425.152 465.88 425.252 465.713 425.319C465.646 425.319 465.613 425.386 465.546 425.42C465.379 425.52 465.245 425.62 465.178 425.654C465.112 425.654 465.112 425.72 465.078 425.72L476.606 432.44C476.606 432.44 476.673 432.44 476.706 432.373C476.773 432.339 476.907 432.239 477.107 432.139C477.107 432.139 477.174 432.105 477.207 432.072L477.274 432.139Z" fill="url(#paint28_linear_290_726)"/>
<path d="M478.444 431.437C477.308 432.072 476.739 432.473 476.706 432.473L476.84 482.716C478.243 481.747 479.613 480.877 480.983 480.075C513.729 461.188 539.925 490.204 551.62 507.152C552.355 508.222 553.591 508.189 554.828 507.487C556.732 506.383 558.603 503.642 558.603 500.968C557.701 390.487 490.205 424.617 478.444 431.403V431.437Z" fill="url(#paint29_linear_290_726)"/>
<path d="M479.613 211.778L479.546 211.878C480.716 215.054 481.351 218.363 481.418 221.74C481.818 246.744 450.443 267.503 411.315 268.139C372.221 268.774 340.177 249.017 339.776 224.013C339.709 220.035 340.478 216.157 341.915 212.447C278.061 373.806 348.464 519.688 362.264 546.966C367.777 561.039 387.792 571.268 411.583 570.901C432.667 570.566 450.543 561.975 457.861 550.108H457.961C458.262 549.473 458.696 548.671 459.197 547.668C459.197 547.601 459.264 547.534 459.298 547.467C472.496 521.393 544.336 374.341 479.613 211.745V211.778Z" fill="url(#paint30_linear_290_726)"/>
<path d="M481.417 221.773C481.351 218.363 480.716 215.054 479.546 211.912L479.613 211.812C465.947 177.447 446.166 142.381 418.432 107.615H403.363C375.429 142.615 355.614 177.915 341.914 212.513C340.478 216.224 339.709 220.068 339.776 224.08C340.177 249.084 372.221 268.841 411.315 268.205C450.409 267.57 481.818 246.811 481.417 221.807V221.773Z" fill="url(#paint31_linear_290_726)"/>
<path d="M389.463 361.304C379.506 340.611 360.226 328.811 346.994 335.163L334.965 340.779L371.419 415.458L383.348 409.875C396.547 403.524 399.42 381.996 389.463 361.304Z" fill="url(#paint32_linear_290_726)"/>
<path d="M329.518 389.517C339.475 410.21 358.221 421.809 371.453 415.458C384.651 409.107 387.291 387.177 377.367 366.485C367.409 345.793 348.664 334.193 335.432 340.545C322.234 346.896 319.594 368.825 329.518 389.517Z" fill="url(#paint33_linear_290_726)"/>
<path d="M329.518 389.517C339.475 410.21 358.221 421.809 371.453 415.458C384.651 409.107 387.291 387.177 377.367 366.485C367.409 345.793 348.664 334.193 335.432 340.545C322.234 346.896 319.594 368.825 329.518 389.517Z" fill="url(#paint34_linear_290_726)"/>
<path d="M332.124 387.645C340.511 405.128 356.383 414.923 367.543 409.541C378.703 404.159 380.942 385.673 372.522 368.19C364.135 350.707 348.263 340.912 337.103 346.294C325.943 351.676 323.704 370.162 332.124 387.645Z" fill="url(#paint35_linear_290_726)"/>
<path d="M337.07 346.194C338.44 345.525 339.91 345.191 341.38 344.991C331.456 351.175 329.719 368.825 337.771 385.539C345.156 400.883 358.321 410.276 368.98 408.739C368.545 409.006 368.011 409.307 367.543 409.541C356.516 415.023 340.311 405.095 331.924 387.645C323.537 370.162 325.943 351.576 337.103 346.194H337.07Z" fill="url(#paint36_linear_290_726)"/>
<path d="M297.574 614.558C297.675 612.452 297.808 610.346 297.942 608.273C298.009 607.204 298.109 606.134 298.209 605.098C298.376 603.125 298.577 601.153 298.777 599.214C298.877 598.245 298.978 597.275 299.111 596.339C299.312 594.735 299.546 593.197 299.78 591.626C300.014 590.122 300.214 588.584 300.448 587.113C300.682 585.642 300.949 584.205 301.216 582.767C301.484 581.33 301.751 579.859 302.052 578.455C302.52 576.149 303.021 573.875 303.555 571.636C303.589 571.469 303.622 571.301 303.656 571.134C304.224 568.761 304.859 566.488 305.493 564.215C306.362 561.173 307.264 558.197 308.2 555.289C308.434 554.587 308.701 553.885 308.935 553.217C309.603 551.311 310.272 549.406 310.94 547.567C311.341 546.531 311.742 545.562 312.143 544.559C312.711 543.155 313.245 541.784 313.813 540.447C314.248 539.411 314.716 538.374 315.183 537.372C315.718 536.168 316.253 534.965 316.821 533.795C317.289 532.792 317.79 531.789 318.291 530.786C318.859 529.683 319.394 528.546 319.962 527.477C320.463 526.541 320.964 525.605 321.465 524.702C322.067 523.599 322.702 522.462 323.303 521.393C323.804 520.524 324.305 519.688 324.807 518.819C325.475 517.682 326.143 516.579 326.845 515.476C327.313 514.707 327.814 513.938 328.282 513.203C329.15 511.866 330.019 510.562 330.921 509.292C331.322 508.69 331.723 508.088 332.124 507.52C333.561 505.514 334.998 503.575 336.435 501.703C337.37 500.5 338.306 499.33 339.208 498.193C339.342 498.026 339.442 497.893 339.576 497.725C340.645 496.422 341.714 495.185 342.783 493.948C344.086 492.444 345.423 491.006 346.693 489.602C347.027 489.268 347.328 488.934 347.662 488.599C348.631 487.563 349.6 486.56 350.569 485.624C351.003 485.19 351.404 484.789 351.838 484.387C352.807 483.451 353.743 482.549 354.679 481.68C355.046 481.345 355.414 481.011 355.748 480.677C356.984 479.54 358.221 478.471 359.39 477.468C359.524 477.334 359.657 477.234 359.791 477.133C360.86 476.231 361.863 475.395 362.865 474.593C363.199 474.325 363.533 474.058 363.867 473.791C364.669 473.155 365.438 472.554 366.206 472.019C366.507 471.785 366.808 471.584 367.075 471.35C368.044 470.615 369.013 469.946 369.882 469.345C369.949 469.311 369.982 469.278 370.049 469.211C370.884 468.643 371.653 468.108 372.388 467.64C372.622 467.473 372.856 467.339 373.056 467.205C373.591 466.871 374.092 466.537 374.56 466.269C374.727 466.169 374.927 466.035 375.094 465.935C375.663 465.601 376.197 465.266 376.632 465.032C377.768 464.397 378.336 464.096 378.369 464.063L366.841 457.344C366.841 457.344 366.24 457.645 365.104 458.313C364.669 458.547 364.135 458.881 363.567 459.216C363.4 459.316 363.199 459.45 363.032 459.55C362.564 459.851 362.063 460.152 361.528 460.486C361.295 460.62 361.094 460.787 360.827 460.921C360.092 461.389 359.323 461.923 358.488 462.492C358.421 462.525 358.388 462.559 358.321 462.625C357.452 463.227 356.483 463.929 355.514 464.631C355.213 464.832 354.946 465.066 354.645 465.266C353.877 465.835 353.108 466.436 352.306 467.071C351.972 467.339 351.638 467.606 351.304 467.874C350.301 468.676 349.266 469.545 348.196 470.448C348.063 470.548 347.962 470.648 347.829 470.749C346.659 471.751 345.423 472.821 344.187 473.958C343.819 474.292 343.485 474.626 343.117 474.961C342.182 475.83 341.213 476.732 340.244 477.668C340.01 477.902 339.776 478.103 339.509 478.37C339.342 478.537 339.175 478.738 339.008 478.905C338.039 479.875 337.07 480.844 336.101 481.88C335.766 482.215 335.466 482.549 335.132 482.883C333.828 484.254 332.525 485.691 331.222 487.195C331.155 487.262 331.088 487.329 331.022 487.396C330.019 488.533 329.017 489.736 328.014 490.939C327.881 491.106 327.78 491.24 327.647 491.407C326.778 492.444 325.943 493.513 325.074 494.617C325.007 494.717 324.94 494.817 324.873 494.917C323.437 496.789 322 498.728 320.563 500.734C320.463 500.901 320.329 501.035 320.229 501.202C319.928 501.603 319.661 502.071 319.36 502.472C318.491 503.743 317.589 505.046 316.72 506.383C316.487 506.718 316.253 507.052 316.052 507.386C315.785 507.787 315.551 508.222 315.284 508.656C314.615 509.76 313.914 510.863 313.245 511.966C312.945 512.434 312.644 512.902 312.377 513.403C312.176 513.771 311.942 514.172 311.742 514.54C311.107 515.61 310.506 516.746 309.904 517.849C309.57 518.418 309.269 518.986 308.935 519.588C308.768 519.922 308.601 520.29 308.4 520.624C307.832 521.694 307.264 522.83 306.73 523.933C306.396 524.602 306.061 525.237 305.727 525.939C305.56 526.273 305.427 526.608 305.26 526.942C304.691 528.112 304.157 529.315 303.622 530.519C303.288 531.254 302.954 531.956 302.62 532.725C302.486 533.026 302.386 533.327 302.252 533.628C301.684 534.965 301.116 536.369 300.582 537.773C300.281 538.542 299.947 539.31 299.613 540.113C299.546 540.313 299.446 540.547 299.379 540.781C298.677 542.62 298.009 544.525 297.34 546.464C297.14 547.066 296.906 547.668 296.706 548.269C296.706 548.336 296.672 548.436 296.639 548.503C295.67 551.412 294.768 554.387 293.932 557.429C293.865 557.663 293.799 557.897 293.698 558.164C293.13 560.203 292.596 562.276 292.094 564.382C292.061 564.549 292.028 564.716 291.994 564.85C291.526 566.755 291.092 568.661 290.691 570.599C290.624 570.934 290.557 571.335 290.491 571.669C290.19 573.107 289.923 574.544 289.655 576.015C289.388 577.452 289.121 578.89 288.887 580.361C288.653 581.831 288.419 583.369 288.218 584.873C288.051 586.01 287.851 587.113 287.717 588.25C287.65 588.684 287.617 589.119 287.584 589.553C287.45 590.523 287.35 591.492 287.249 592.462C287.049 594.401 286.848 596.339 286.681 598.312C286.581 599.381 286.514 600.418 286.414 601.487C286.247 603.56 286.147 605.633 286.047 607.739C286.013 608.708 285.946 609.677 285.913 610.647C285.813 613.722 285.712 616.865 285.712 620.04C285.712 621.311 286.113 622.113 286.782 622.481L298.309 629.2C297.675 628.832 297.24 628.03 297.24 626.759C297.24 623.55 297.34 620.441 297.441 617.333C297.474 616.363 297.541 615.427 297.574 614.458V614.558Z" fill="url(#paint37_linear_290_726)"/>
<path d="M376.732 465.066C377.868 464.431 378.436 464.13 378.469 464.096L378.603 514.339C377.2 514.974 375.83 515.71 374.46 516.512C341.747 535.433 315.785 594.601 304.19 624.954C303.455 626.893 302.219 628.264 301.016 628.999C299.111 630.102 297.207 629.534 297.24 626.826C297.507 515.643 364.97 471.852 376.732 465.032V465.066Z" fill="url(#paint38_linear_290_726)"/>
<path d="M540.66 610.747C540.627 609.778 540.56 608.808 540.527 607.839C540.427 605.733 540.293 603.627 540.159 601.588C540.092 600.518 539.992 599.448 539.892 598.412C539.725 596.44 539.524 594.468 539.324 592.562C539.224 591.593 539.123 590.623 538.99 589.654C538.923 589.219 538.89 588.785 538.856 588.35C538.723 587.214 538.522 586.11 538.355 584.974C538.121 583.47 537.921 581.932 537.687 580.461C537.453 578.99 537.185 577.553 536.918 576.115C536.651 574.678 536.384 573.207 536.083 571.803C536.016 571.435 535.949 571.068 535.882 570.733C535.481 568.794 535.014 566.889 534.579 564.984C534.546 564.816 534.512 564.649 534.479 564.516C533.978 562.41 533.443 560.337 532.875 558.298C532.808 558.064 532.741 557.83 532.641 557.562C531.772 554.52 530.87 551.512 529.935 548.637C529.935 548.57 529.901 548.47 529.868 548.403C529.667 547.768 529.433 547.2 529.233 546.598C528.565 544.692 527.896 542.787 527.195 540.915C527.128 540.715 527.028 540.48 526.961 540.246C526.66 539.444 526.326 538.709 525.992 537.906C525.424 536.502 524.889 535.132 524.321 533.761C524.187 533.461 524.087 533.16 523.954 532.859C523.619 532.09 523.285 531.388 522.951 530.652C522.417 529.449 521.882 528.246 521.314 527.076C521.147 526.741 521.013 526.407 520.846 526.073C520.512 525.371 520.178 524.736 519.844 524.067C519.276 522.964 518.741 521.827 518.173 520.758C518.006 520.423 517.839 520.056 517.638 519.721C517.338 519.12 517.003 518.585 516.669 517.983C516.068 516.847 515.433 515.743 514.832 514.674C514.631 514.306 514.397 513.905 514.197 513.537C513.896 513.036 513.595 512.601 513.328 512.1C512.66 510.963 511.991 509.86 511.29 508.79C511.022 508.389 510.788 507.921 510.521 507.52C510.287 507.152 510.053 506.851 509.82 506.484C508.951 505.147 508.082 503.843 507.18 502.573C506.879 502.171 506.612 501.703 506.311 501.302C506.211 501.135 506.077 501.001 505.977 500.834C504.54 498.829 503.103 496.856 501.667 495.018C501.6 494.917 501.533 494.817 501.466 494.717C500.597 493.614 499.729 492.544 498.86 491.474C498.76 491.341 498.626 491.173 498.526 491.04C497.523 489.803 496.521 488.633 495.518 487.463C495.452 487.396 495.385 487.329 495.318 487.262C494.015 485.758 492.712 484.321 491.408 482.95C491.074 482.616 490.774 482.281 490.439 481.947C489.47 480.911 488.501 479.941 487.532 478.972C487.365 478.805 487.198 478.604 487.031 478.437C486.797 478.203 486.563 477.969 486.296 477.735C485.327 476.799 484.358 475.897 483.423 475.027C483.055 474.693 482.721 474.359 482.353 474.025C481.117 472.888 479.881 471.818 478.711 470.816C478.578 470.715 478.477 470.615 478.344 470.515C477.274 469.612 476.239 468.743 475.236 467.941C474.902 467.673 474.568 467.406 474.234 467.138C473.432 466.503 472.663 465.902 471.895 465.333C471.594 465.099 471.293 464.899 471.026 464.698C470.057 463.963 469.088 463.294 468.219 462.692C468.152 462.659 468.119 462.626 468.052 462.559C467.217 461.99 466.448 461.456 465.713 460.988C465.479 460.82 465.245 460.687 465.012 460.553C464.477 460.219 463.976 459.884 463.508 459.617C463.307 459.517 463.14 459.383 462.973 459.283C462.405 458.948 461.871 458.614 461.436 458.38C460.3 457.745 459.732 457.444 459.699 457.411L448.171 464.13C448.171 464.13 448.906 464.531 449.908 465.099C450.343 465.333 450.877 465.668 451.445 466.002C451.613 466.102 451.813 466.236 451.98 466.336C452.448 466.603 452.949 466.938 453.484 467.272C453.718 467.406 453.952 467.573 454.185 467.707C454.887 468.175 455.656 468.676 456.491 469.244C456.558 469.278 456.625 469.345 456.691 469.378C457.56 469.98 458.496 470.682 459.498 471.384C459.799 471.584 460.1 471.818 460.367 472.052C461.102 472.621 461.904 473.222 462.706 473.824C463.04 474.091 463.374 474.359 463.742 474.626C464.744 475.429 465.747 476.264 466.816 477.167C466.949 477.267 467.083 477.401 467.217 477.501C468.386 478.504 469.623 479.574 470.859 480.71C471.226 481.045 471.594 481.379 471.928 481.713C472.864 482.582 473.799 483.485 474.768 484.421C475.169 484.822 475.604 485.223 476.038 485.658C477.007 486.627 477.976 487.597 478.945 488.633C479.279 488.967 479.58 489.301 479.914 489.636C481.217 491.006 482.52 492.477 483.824 493.981C484.893 495.185 485.962 496.455 487.031 497.759C487.165 497.893 487.265 498.06 487.399 498.227C488.334 499.363 489.27 500.533 490.172 501.737C491.609 503.609 493.046 505.548 494.483 507.553C494.883 508.122 495.284 508.723 495.685 509.325C496.554 510.595 497.456 511.899 498.325 513.236C498.826 513.972 499.294 514.741 499.795 515.509C500.464 516.613 501.165 517.716 501.834 518.819C502.335 519.655 502.836 520.524 503.337 521.393C503.972 522.463 504.574 523.566 505.175 524.702C505.676 525.638 506.177 526.541 506.679 527.477C507.247 528.547 507.781 529.65 508.349 530.786C508.851 531.789 509.352 532.759 509.82 533.795C510.388 534.965 510.922 536.168 511.457 537.372C511.925 538.408 512.392 539.411 512.827 540.48C513.395 541.818 513.963 543.222 514.497 544.592C514.898 545.595 515.299 546.564 515.7 547.601C516.402 549.439 517.07 551.345 517.705 553.25C517.939 553.952 518.206 554.621 518.44 555.323C519.409 558.198 520.311 561.206 521.147 564.248C521.782 566.521 522.417 568.828 522.985 571.168C523.018 571.335 523.051 571.502 523.085 571.669C523.619 573.909 524.121 576.182 524.588 578.489C524.889 579.893 525.156 581.364 525.424 582.801C525.691 584.238 525.958 585.676 526.192 587.147C526.426 588.618 526.66 590.155 526.861 591.66C527.094 593.231 527.328 594.768 527.529 596.373C527.662 597.309 527.763 598.312 527.863 599.248C528.063 601.187 528.264 603.125 528.431 605.131C528.531 606.167 528.598 607.237 528.698 608.307C528.865 610.379 528.966 612.452 529.066 614.591C529.099 615.561 529.166 616.497 529.2 617.466C529.3 620.542 529.4 623.684 529.4 626.893C529.4 628.163 528.999 628.966 528.331 629.333L539.859 622.614C540.493 622.247 540.928 621.444 540.928 620.174C540.928 616.965 540.828 613.856 540.727 610.781L540.66 610.747Z" fill="url(#paint39_linear_290_726)"/>
<path d="M449.841 465.066C448.705 464.431 448.137 464.13 448.104 464.096L447.97 514.339C449.374 514.974 450.744 515.71 452.114 516.512C484.826 535.433 510.788 594.601 522.383 624.954C523.118 626.893 524.354 628.264 525.557 628.999C527.462 630.102 529.366 629.534 529.333 626.826C529.066 515.643 461.603 471.852 449.841 465.032V465.066Z" fill="url(#paint40_linear_290_726)"/>
<path d="M410.747 104.071C406.336 104.138 402.794 106.478 402.828 109.32C402.861 112.128 406.503 114.367 410.914 114.301C415.325 114.234 418.867 111.894 418.833 109.052C418.8 106.244 415.158 104.005 410.747 104.071Z" fill="url(#paint41_linear_290_726)"/>
<path d="M410.847 67.3669L408.441 108.618C408.441 109.487 409.544 110.155 410.881 110.122C412.217 110.122 413.286 109.387 413.286 108.517L410.881 67.3335L410.847 67.3669Z" fill="url(#paint42_linear_290_726)"/>
<path d="M496.554 360.201C496.019 389.083 459.498 412.884 414.122 413.586C368.111 414.321 330.42 391.089 329.952 361.638V642.404C330.453 671.821 368.144 695.087 414.155 694.352C460.166 693.617 497.088 669.18 496.62 639.73V360.167L496.554 360.201Z" fill="url(#paint43_linear_290_726)"/>
<path d="M537.452 559.869V559.2H537.419C537.419 559.434 537.419 559.668 537.452 559.869Z" fill="url(#paint44_linear_290_726)"/>
<path opacity="0.4" d="M537.452 9.10095C536.65 52.1569 482.186 87.6245 414.523 88.7276C345.891 89.8308 289.689 55.1654 288.987 11.2738V648.923C289.722 692.781 345.924 727.446 414.556 726.376C483.188 725.273 538.254 688.836 537.553 644.945L537.486 9.10095H537.452Z" fill="url(#paint45_linear_290_726)"/>
<path d="M579.654 541.483V540.547H579.587C579.587 540.848 579.621 541.149 579.654 541.483Z" fill="url(#paint46_linear_290_726)"/>
<path opacity="0.5" d="M283.507 -131.566C259.349 -149.718 244.647 -173.185 244.246 -199.058V661.726C244.68 687.566 259.383 711.066 283.507 729.184V-131.566Z" fill="url(#paint47_linear_290_726)"/>
<path opacity="0.5" d="M335.633 755.225C353.944 761.042 374.159 764.786 395.577 765.922V-94.8616C374.159 -95.9982 353.944 -99.7088 335.633 -105.525V755.225Z" fill="url(#paint48_linear_290_726)"/>
<path opacity="0.5" d="M429.76 765.488C451.245 763.85 471.46 759.604 489.704 753.32V-107.464C471.46 -101.18 451.211 -96.9342 429.76 -95.2962V765.454V765.488Z" fill="url(#paint49_linear_290_726)"/>
<path opacity="0.5" d="M511.022 744.628C518.641 740.985 525.791 736.973 532.34 732.594V-128.257C525.758 -123.878 518.641 -119.833 511.022 -116.156V744.628Z" fill="url(#paint50_linear_290_726)"/>
<path opacity="0.5" d="M545.673 -138.285V722.499C567.358 704.013 580.122 681.047 579.721 656.344L579.621 -202C579.187 -178.232 566.59 -156.17 545.639 -138.285H545.673Z" fill="url(#paint51_linear_290_726)"/>
<defs>
<linearGradient id="paint0_linear_290_726" x1="231.778" y1="660.768" x2="592.213" y2="660.768" gradientUnits="userSpaceOnUse">
<stop stop-color="#27FFF9"/>
<stop offset="0.05" stop-color="#43E2F2"/>
<stop offset="0.12" stop-color="#6FB6E8"/>
<stop offset="0.21" stop-color="#9590DF"/>
<stop offset="0.3" stop-color="#B66FD7"/>
<stop offset="0.4" stop-color="#D154D1"/>
<stop offset="0.5" stop-color="#E540CC"/>
<stop offset="0.62" stop-color="#F332C9"/>
<stop offset="0.77" stop-color="#FC29C7"/>
<stop offset="1" stop-color="#FF27C7"/>
</linearGradient>
<linearGradient id="paint1_linear_290_726" x1="218.312" y1="660.768" x2="605.679" y2="660.768" gradientUnits="userSpaceOnUse">
<stop stop-color="#27FFF9"/>
<stop offset="0.05" stop-color="#43E2F2"/>
<stop offset="0.12" stop-color="#6FB6E8"/>
<stop offset="0.21" stop-color="#9590DF"/>
<stop offset="0.3" stop-color="#B66FD7"/>
<stop offset="0.4" stop-color="#D154D1"/>
<stop offset="0.5" stop-color="#E540CC"/>
<stop offset="0.62" stop-color="#F332C9"/>
<stop offset="0.77" stop-color="#FC29C7"/>
<stop offset="1" stop-color="#FF27C7"/>
</linearGradient>
<linearGradient id="paint2_linear_290_726" x1="205.648" y1="660.768" x2="618.309" y2="660.768" gradientUnits="userSpaceOnUse">
<stop stop-color="#27FFF9"/>
<stop offset="0.05" stop-color="#43E2F2"/>
<stop offset="0.12" stop-color="#6FB6E8"/>
<stop offset="0.21" stop-color="#9590DF"/>
<stop offset="0.3" stop-color="#B66FD7"/>
<stop offset="0.4" stop-color="#D154D1"/>
<stop offset="0.5" stop-color="#E540CC"/>
<stop offset="0.62" stop-color="#F332C9"/>
<stop offset="0.77" stop-color="#FC29C7"/>
<stop offset="1" stop-color="#FF27C7"/>
</linearGradient>
<linearGradient id="paint3_linear_290_726" x1="192.35" y1="660.768" x2="631.642" y2="660.768" gradientUnits="userSpaceOnUse">
<stop stop-color="#27FFF9"/>
<stop offset="0.05" stop-color="#43E2F2"/>
<stop offset="0.12" stop-color="#6FB6E8"/>
<stop offset="0.21" stop-color="#9590DF"/>
<stop offset="0.3" stop-color="#B66FD7"/>
<stop offset="0.4" stop-color="#D154D1"/>
<stop offset="0.5" stop-color="#E540CC"/>
<stop offset="0.62" stop-color="#F332C9"/>
<stop offset="0.77" stop-color="#FC29C7"/>
<stop offset="1" stop-color="#FF27C7"/>
</linearGradient>
<linearGradient id="paint4_linear_290_726" x1="176.478" y1="660.768" x2="647.513" y2="660.768" gradientUnits="userSpaceOnUse">
<stop stop-color="#27FFF9"/>
<stop offset="0.05" stop-color="#43E2F2"/>
<stop offset="0.12" stop-color="#6FB6E8"/>
<stop offset="0.21" stop-color="#9590DF"/>
<stop offset="0.3" stop-color="#B66FD7"/>
<stop offset="0.4" stop-color="#D154D1"/>
<stop offset="0.5" stop-color="#E540CC"/>
<stop offset="0.62" stop-color="#F332C9"/>
<stop offset="0.77" stop-color="#FC29C7"/>
<stop offset="1" stop-color="#FF27C7"/>
</linearGradient>
<linearGradient id="paint5_linear_290_726" x1="159.337" y1="660.768" x2="664.654" y2="660.768" gradientUnits="userSpaceOnUse">
<stop stop-color="#27FFF9"/>
<stop offset="0.05" stop-color="#43E2F2"/>
<stop offset="0.12" stop-color="#6FB6E8"/>
<stop offset="0.21" stop-color="#9590DF"/>
<stop offset="0.3" stop-color="#B66FD7"/>
<stop offset="0.4" stop-color="#D154D1"/>
<stop offset="0.5" stop-color="#E540CC"/>
<stop offset="0.62" stop-color="#F332C9"/>
<stop offset="0.77" stop-color="#FC29C7"/>
<stop offset="1" stop-color="#FF27C7"/>
</linearGradient>
<linearGradient id="paint6_linear_290_726" x1="142.229" y1="660.768" x2="681.762" y2="660.768" gradientUnits="userSpaceOnUse">
<stop stop-color="#27FFF9"/>
<stop offset="0.05" stop-color="#43E2F2"/>
<stop offset="0.12" stop-color="#6FB6E8"/>
<stop offset="0.21" stop-color="#9590DF"/>
<stop offset="0.3" stop-color="#B66FD7"/>
<stop offset="0.4" stop-color="#D154D1"/>
<stop offset="0.5" stop-color="#E540CC"/>
<stop offset="0.62" stop-color="#F332C9"/>
<stop offset="0.77" stop-color="#FC29C7"/>
<stop offset="1" stop-color="#FF27C7"/>
</linearGradient>
<linearGradient id="paint7_linear_290_726" x1="121.913" y1="660.768" x2="702.078" y2="660.768" gradientUnits="userSpaceOnUse">
<stop stop-color="#27FFF9"/>
<stop offset="0.05" stop-color="#43E2F2"/>
<stop offset="0.12" stop-color="#6FB6E8"/>
<stop offset="0.21" stop-color="#9590DF"/>
<stop offset="0.3" stop-color="#B66FD7"/>
<stop offset="0.4" stop-color="#D154D1"/>
<stop offset="0.5" stop-color="#E540CC"/>
<stop offset="0.62" stop-color="#F332C9"/>
<stop offset="0.77" stop-color="#FC29C7"/>
<stop offset="1" stop-color="#FF27C7"/>
</linearGradient>
<linearGradient id="paint8_linear_290_726" x1="98.4565" y1="660.768" x2="725.534" y2="660.768" gradientUnits="userSpaceOnUse">
<stop stop-color="#27FFF9"/>
<stop offset="0.05" stop-color="#43E2F2"/>
<stop offset="0.12" stop-color="#6FB6E8"/>
<stop offset="0.21" stop-color="#9590DF"/>
<stop offset="0.3" stop-color="#B66FD7"/>
<stop offset="0.4" stop-color="#D154D1"/>
<stop offset="0.5" stop-color="#E540CC"/>
<stop offset="0.62" stop-color="#F332C9"/>
<stop offset="0.77" stop-color="#FC29C7"/>
<stop offset="1" stop-color="#FF27C7"/>
</linearGradient>
<linearGradient id="paint9_linear_290_726" x1="73.7637" y1="660.768" x2="750.227" y2="660.768" gradientUnits="userSpaceOnUse">
<stop stop-color="#27FFF9"/>
<stop offset="0.05" stop-color="#43E2F2"/>
<stop offset="0.12" stop-color="#6FB6E8"/>
<stop offset="0.21" stop-color="#9590DF"/>
<stop offset="0.3" stop-color="#B66FD7"/>
<stop offset="0.4" stop-color="#D154D1"/>
<stop offset="0.5" stop-color="#E540CC"/>
<stop offset="0.62" stop-color="#F332C9"/>
<stop offset="0.77" stop-color="#FC29C7"/>
<stop offset="1" stop-color="#FF27C7"/>
</linearGradient>
<linearGradient id="paint10_linear_290_726" x1="41.4524" y1="660.768" x2="782.539" y2="660.768" gradientUnits="userSpaceOnUse">
<stop stop-color="#27FFF9"/>
<stop offset="0.05" stop-color="#43E2F2"/>
<stop offset="0.12" stop-color="#6FB6E8"/>
<stop offset="0.21" stop-color="#9590DF"/>
<stop offset="0.3" stop-color="#B66FD7"/>
<stop offset="0.4" stop-color="#D154D1"/>
<stop offset="0.5" stop-color="#E540CC"/>
<stop offset="0.62" stop-color="#F332C9"/>
<stop offset="0.77" stop-color="#FC29C7"/>
<stop offset="1" stop-color="#FF27C7"/>
</linearGradient>
<linearGradient id="paint11_linear_290_726" x1="3.99561" y1="660.768" x2="819.996" y2="660.768" gradientUnits="userSpaceOnUse">
<stop stop-color="#27FFF9"/>
<stop offset="0.05" stop-color="#43E2F2"/>
<stop offset="0.12" stop-color="#6FB6E8"/>
<stop offset="0.21" stop-color="#9590DF"/>
<stop offset="0.3" stop-color="#B66FD7"/>
<stop offset="0.4" stop-color="#D154D1"/>
<stop offset="0.5" stop-color="#E540CC"/>
<stop offset="0.62" stop-color="#F332C9"/>
<stop offset="0.77" stop-color="#FC29C7"/>
<stop offset="1" stop-color="#FF27C7"/>
</linearGradient>
<linearGradient id="paint12_linear_290_726" x1="243.841" y1="658.629" x2="580.151" y2="658.629" gradientUnits="userSpaceOnUse">
<stop stop-color="#27FFF9"/>
<stop offset="0.05" stop-color="#43E2F2"/>
<stop offset="0.12" stop-color="#6FB6E8"/>
<stop offset="0.21" stop-color="#9590DF"/>
<stop offset="0.3" stop-color="#B66FD7"/>
<stop offset="0.4" stop-color="#D154D1"/>
<stop offset="0.5" stop-color="#E540CC"/>
<stop offset="0.62" stop-color="#F332C9"/>
<stop offset="0.77" stop-color="#FC29C7"/>
<stop offset="1" stop-color="#FF27C7"/>
</linearGradient>
<linearGradient id="paint13_linear_290_726" x1="273.583" y1="698.029" x2="549.181" y2="698.029" gradientUnits="userSpaceOnUse">
<stop stop-color="#1BCCC3"/>
<stop offset="0.01" stop-color="#1BC0BA"/>
<stop offset="0.07" stop-color="#1C949C"/>
<stop offset="0.13" stop-color="#1D6D81"/>
<stop offset="0.2" stop-color="#1E4D6A"/>
<stop offset="0.27" stop-color="#1F3258"/>
<stop offset="0.35" stop-color="#201E49"/>
<stop offset="0.43" stop-color="#20103F"/>
<stop offset="0.54" stop-color="#200739"/>
<stop offset="0.71" stop-color="#210538"/>
<stop offset="0.82" stop-color="#220539"/>
<stop offset="0.86" stop-color="#29063F"/>
<stop offset="0.89" stop-color="#350849"/>
<stop offset="0.91" stop-color="#460B57"/>
<stop offset="0.93" stop-color="#5C0F6A"/>
<stop offset="0.95" stop-color="#771481"/>
<stop offset="0.97" stop-color="#981A9C"/>
<stop offset="0.98" stop-color="#BD21BC"/>
<stop offset="0.99" stop-color="#E629DF"/>
<stop offset="1" stop-color="#FF2EF4"/>
</linearGradient>
<linearGradient id="paint14_linear_290_726" x1="273.579" y1="648.704" x2="549.143" y2="648.704" gradientUnits="userSpaceOnUse">
<stop stop-color="#21197E"/>
<stop offset="0.12" stop-color="#1C4B63"/>
<stop offset="0.24" stop-color="#263060"/>
<stop offset="0.37" stop-color="#2E1C5E"/>
<stop offset="0.52" stop-color="#330E5C"/>
<stop offset="0.7" stop-color="#37055B"/>
<stop offset="1" stop-color="#38035B"/>
</linearGradient>
<linearGradient id="paint15_linear_290_726" x1="316.081" y1="648.67" x2="506.707" y2="648.67" gradientUnits="userSpaceOnUse">
<stop stop-color="#27FFF9"/>
<stop offset="0.05" stop-color="#43E2F2"/>
<stop offset="0.12" stop-color="#6FB6E8"/>
<stop offset="0.21" stop-color="#9590DF"/>
<stop offset="0.3" stop-color="#B66FD7"/>
<stop offset="0.4" stop-color="#D154D1"/>
<stop offset="0.5" stop-color="#E540CC"/>
<stop offset="0.62" stop-color="#F332C9"/>
<stop offset="0.77" stop-color="#FC29C7"/>
<stop offset="1" stop-color="#FF27C7"/>
</linearGradient>
<linearGradient id="paint16_linear_290_726" x1="296.467" y1="648.67" x2="526.321" y2="648.67" gradientUnits="userSpaceOnUse">
<stop stop-color="#27FFF9"/>
<stop offset="0.05" stop-color="#43E2F2"/>
<stop offset="0.12" stop-color="#6FB6E8"/>
<stop offset="0.21" stop-color="#9590DF"/>
<stop offset="0.3" stop-color="#B66FD7"/>
<stop offset="0.4" stop-color="#D154D1"/>
<stop offset="0.5" stop-color="#E540CC"/>
<stop offset="0.62" stop-color="#F332C9"/>
<stop offset="0.77" stop-color="#FC29C7"/>
<stop offset="1" stop-color="#FF27C7"/>
</linearGradient>
<linearGradient id="paint17_linear_290_726" x1="410.914" y1="779.762" x2="410.914" y2="489.068" gradientUnits="userSpaceOnUse">
<stop stop-color="#9027FF" stop-opacity="0"/>
<stop offset="0.22" stop-color="#9127FE" stop-opacity="0.01"/>
<stop offset="0.36" stop-color="#9427FD" stop-opacity="0.04"/>
<stop offset="0.47" stop-color="#9B27FB" stop-opacity="0.1"/>
<stop offset="0.57" stop-color="#A327F7" stop-opacity="0.18"/>
<stop offset="0.66" stop-color="#AF27F3" stop-opacity="0.28"/>
<stop offset="0.75" stop-color="#BD27EE" stop-opacity="0.41"/>
<stop offset="0.83" stop-color="#CE28E8" stop-opacity="0.56"/>
<stop offset="0.91" stop-color="#E228E1" stop-opacity="0.74"/>
<stop offset="0.98" stop-color="#F728D9" stop-opacity="0.93"/>
<stop offset="1" stop-color="#FF29D7"/>
</linearGradient>
<linearGradient id="paint18_linear_290_726" x1="410.914" y1="779.762" x2="410.914" y2="527.276" gradientUnits="userSpaceOnUse">
<stop stop-color="#9027FF" stop-opacity="0"/>
<stop offset="0.22" stop-color="#9127FE" stop-opacity="0.01"/>
<stop offset="0.36" stop-color="#9427FD" stop-opacity="0.04"/>
<stop offset="0.47" stop-color="#9B27FB" stop-opacity="0.1"/>
<stop offset="0.57" stop-color="#A327F7" stop-opacity="0.18"/>
<stop offset="0.66" stop-color="#AF27F3" stop-opacity="0.28"/>
<stop offset="0.75" stop-color="#BD27EE" stop-opacity="0.41"/>
<stop offset="0.83" stop-color="#CE28E8" stop-opacity="0.56"/>
<stop offset="0.91" stop-color="#E228E1" stop-opacity="0.74"/>
<stop offset="0.98" stop-color="#F728D9" stop-opacity="0.93"/>
<stop offset="1" stop-color="#FF29D7"/>
</linearGradient>
<linearGradient id="paint19_linear_290_726" x1="410.914" y1="766.658" x2="410.914" y2="538.04" gradientUnits="userSpaceOnUse">
<stop stop-color="#9027FF" stop-opacity="0"/>
<stop offset="0.22" stop-color="#9127FE" stop-opacity="0.01"/>
<stop offset="0.36" stop-color="#9427FD" stop-opacity="0.04"/>
<stop offset="0.47" stop-color="#9B27FB" stop-opacity="0.1"/>
<stop offset="0.57" stop-color="#A327F7" stop-opacity="0.18"/>
<stop offset="0.66" stop-color="#AF27F3" stop-opacity="0.28"/>
<stop offset="0.75" stop-color="#BD27EE" stop-opacity="0.41"/>
<stop offset="0.83" stop-color="#CE28E8" stop-opacity="0.56"/>
<stop offset="0.91" stop-color="#E228E1" stop-opacity="0.74"/>
<stop offset="0.98" stop-color="#F728D9" stop-opacity="0.93"/>
<stop offset="1" stop-color="#FF29D7"/>
</linearGradient>
<linearGradient id="paint20_linear_290_726" x1="410.914" y1="708.359" x2="410.914" y2="532.859" gradientUnits="userSpaceOnUse">
<stop stop-color="#9027FF" stop-opacity="0"/>
<stop offset="0.22" stop-color="#9127FE" stop-opacity="0.01"/>
<stop offset="0.36" stop-color="#9429FE" stop-opacity="0.04"/>
<stop offset="0.47" stop-color="#9B2DFC" stop-opacity="0.1"/>
<stop offset="0.57" stop-color="#A331FB" stop-opacity="0.18"/>
<stop offset="0.66" stop-color="#AF38F8" stop-opacity="0.28"/>
<stop offset="0.75" stop-color="#BD40F5" stop-opacity="0.41"/>
<stop offset="0.83" stop-color="#CE49F2" stop-opacity="0.56"/>
<stop offset="0.91" stop-color="#E254EE" stop-opacity="0.74"/>
<stop offset="0.98" stop-color="#F760EA" stop-opacity="0.93"/>
<stop offset="1" stop-color="#FF64E9"/>
</linearGradient>
<linearGradient id="paint21_linear_290_726" x1="411.081" y1="766.658" x2="411.081" y2="554.888" gradientUnits="userSpaceOnUse">
<stop offset="0.36" stop-color="white" stop-opacity="0"/>
<stop offset="0.6" stop-color="#FFFEFE" stop-opacity="0"/>
<stop offset="0.68" stop-color="#FFFEFE" stop-opacity="0.03"/>
<stop offset="0.74" stop-color="#FFFEFE" stop-opacity="0.08"/>
<stop offset="0.79" stop-color="#FFFDFE" stop-opacity="0.15"/>
<stop offset="0.84" stop-color="#FFFDFE" stop-opacity="0.23"/>
<stop offset="0.87" stop-color="#FFFCFE" stop-opacity="0.34"/>
<stop offset="0.91" stop-color="#FFFBFE" stop-opacity="0.47"/>
<stop offset="0.94" stop-color="#FFFAFE" stop-opacity="0.61"/>
<stop offset="0.97" stop-color="#FFF9FE" stop-opacity="0.78"/>
<stop offset="1" stop-color="#FFF8FE"/>
</linearGradient>
<linearGradient id="paint22_linear_290_726" x1="270.877" y1="490.672" x2="310.406" y2="490.672" gradientUnits="userSpaceOnUse">
<stop stop-color="#BC46FA"/>
<stop offset="0.09" stop-color="#9836CE"/>
<stop offset="0.18" stop-color="#7829A7"/>
<stop offset="0.27" stop-color="#5E1D87"/>
<stop offset="0.37" stop-color="#48146C"/>
<stop offset="0.48" stop-color="#370D58"/>
<stop offset="0.61" stop-color="#2C074A"/>
<stop offset="0.76" stop-color="#250441"/>
<stop offset="1" stop-color="#23043F"/>
</linearGradient>
<linearGradient id="paint23_linear_290_726" x1="352.139" y1="482.75" x2="352.139" y2="425.787" gradientUnits="userSpaceOnUse">
<stop stop-color="#BC46FA"/>
<stop offset="0.09" stop-color="#9836CE"/>
<stop offset="0.18" stop-color="#7829A7"/>
<stop offset="0.27" stop-color="#5E1D87"/>
<stop offset="0.37" stop-color="#48146C"/>
<stop offset="0.48" stop-color="#370D58"/>
<stop offset="0.61" stop-color="#2C074A"/>
<stop offset="0.76" stop-color="#250441"/>
<stop offset="1" stop-color="#23043F"/>
</linearGradient>
<linearGradient id="paint24_linear_290_726" x1="291.126" y1="423.481" x2="357.987" y2="423.481" gradientUnits="userSpaceOnUse">
<stop stop-color="#BC46FA"/>
<stop offset="0.09" stop-color="#9836CE"/>
<stop offset="0.18" stop-color="#7829A7"/>
<stop offset="0.27" stop-color="#5E1D87"/>
<stop offset="0.37" stop-color="#48146C"/>
<stop offset="0.48" stop-color="#370D58"/>
<stop offset="0.61" stop-color="#2C074A"/>
<stop offset="0.76" stop-color="#250441"/>
<stop offset="1" stop-color="#23043F"/>
</linearGradient>
<linearGradient id="paint25_linear_290_726" x1="262.523" y1="501.202" x2="345.62" y2="431.506" gradientUnits="userSpaceOnUse">
<stop stop-color="#BC46FA"/>
<stop offset="0.09" stop-color="#9836CE"/>
<stop offset="0.18" stop-color="#7829A7"/>
<stop offset="0.27" stop-color="#5E1D87"/>
<stop offset="0.37" stop-color="#48146C"/>
<stop offset="0.48" stop-color="#370D58"/>
<stop offset="0.61" stop-color="#2C074A"/>
<stop offset="0.76" stop-color="#250441"/>
<stop offset="1" stop-color="#23043F"/>
</linearGradient>
<linearGradient id="paint26_linear_290_726" x1="512.726" y1="490.672" x2="552.255" y2="490.672" gradientUnits="userSpaceOnUse">
<stop stop-color="#23043F"/>
<stop offset="0.24" stop-color="#250441"/>
<stop offset="0.39" stop-color="#2C074A"/>
<stop offset="0.52" stop-color="#370D58"/>
<stop offset="0.63" stop-color="#48146C"/>
<stop offset="0.73" stop-color="#5E1D87"/>
<stop offset="0.82" stop-color="#7829A7"/>
<stop offset="0.91" stop-color="#9836CE"/>
<stop offset="0.99" stop-color="#BC46FA"/>
<stop offset="1" stop-color="#C048FF"/>
</linearGradient>
<linearGradient id="paint27_linear_290_726" x1="465.145" y1="454.268" x2="476.84" y2="454.268" gradientUnits="userSpaceOnUse">
<stop stop-color="#BC46FA"/>
<stop offset="0.09" stop-color="#9836CE"/>
<stop offset="0.18" stop-color="#7829A7"/>
<stop offset="0.27" stop-color="#5E1D87"/>
<stop offset="0.37" stop-color="#48146C"/>
<stop offset="0.48" stop-color="#370D58"/>
<stop offset="0.61" stop-color="#2C074A"/>
<stop offset="0.76" stop-color="#250441"/>
<stop offset="1" stop-color="#23043F"/>
</linearGradient>
<linearGradient id="paint28_linear_290_726" x1="465.145" y1="423.481" x2="532.006" y2="423.481" gradientUnits="userSpaceOnUse">
<stop stop-color="#23043F"/>
<stop offset="0.24" stop-color="#250441"/>
<stop offset="0.39" stop-color="#2C074A"/>
<stop offset="0.52" stop-color="#370D58"/>
<stop offset="0.63" stop-color="#48146C"/>
<stop offset="0.73" stop-color="#5E1D87"/>
<stop offset="0.82" stop-color="#7829A7"/>
<stop offset="0.91" stop-color="#9836CE"/>
<stop offset="0.99" stop-color="#BC46FA"/>
<stop offset="1" stop-color="#C048FF"/>
</linearGradient>
<linearGradient id="paint29_linear_290_726" x1="517.638" y1="508.021" x2="517.638" y2="421.141" gradientUnits="userSpaceOnUse">
<stop stop-color="#BC46FA"/>
<stop offset="0.09" stop-color="#9836CE"/>
<stop offset="0.18" stop-color="#7829A7"/>
<stop offset="0.27" stop-color="#5E1D87"/>
<stop offset="0.37" stop-color="#48146C"/>
<stop offset="0.48" stop-color="#370D58"/>
<stop offset="0.61" stop-color="#2C074A"/>
<stop offset="0.76" stop-color="#250441"/>
<stop offset="1" stop-color="#23043F"/>
</linearGradient>
<linearGradient id="paint30_linear_290_726" x1="410.914" y1="570.934" x2="410.914" y2="211.778" gradientUnits="userSpaceOnUse">
<stop stop-color="#C048FF"/>
<stop offset="0.07" stop-color="#9F3ADA"/>
<stop offset="0.16" stop-color="#7E2CB4"/>
<stop offset="0.26" stop-color="#612094"/>
<stop offset="0.36" stop-color="#491679"/>
<stop offset="0.47" stop-color="#370F65"/>
<stop offset="0.6" stop-color="#2A0A57"/>
<stop offset="0.75" stop-color="#23064E"/>
<stop offset="1" stop-color="#21064C"/>
</linearGradient>
<linearGradient id="paint31_linear_290_726" x1="339.776" y1="187.877" x2="481.417" y2="187.877" gradientUnits="userSpaceOnUse">
<stop stop-color="#27FFF9"/>
<stop offset="0.02" stop-color="#27F1F0"/>
<stop offset="0.09" stop-color="#2BBFD1"/>
<stop offset="0.17" stop-color="#2E92B5"/>
<stop offset="0.25" stop-color="#306C9C"/>
<stop offset="0.33" stop-color="#334B88"/>
<stop offset="0.43" stop-color="#343077"/>
<stop offset="0.53" stop-color="#361C6A"/>
<stop offset="0.64" stop-color="#370E61"/>
<stop offset="0.78" stop-color="#37055C"/>
<stop offset="1" stop-color="#38035B"/>
</linearGradient>
<linearGradient id="paint32_linear_290_726" x1="390.566" y1="405.764" x2="348.537" y2="332.972" gradientUnits="userSpaceOnUse">
<stop stop-color="#38035B"/>
<stop offset="0.07" stop-color="#370B60"/>
<stop offset="0.17" stop-color="#35216E"/>
<stop offset="0.3" stop-color="#334685"/>
<stop offset="0.44" stop-color="#3079A5"/>
<stop offset="0.6" stop-color="#2BB9CD"/>
<stop offset="0.76" stop-color="#27FFF9"/>
<stop offset="1" stop-color="#38035B"/>
</linearGradient>
<linearGradient id="paint33_linear_290_726" x1="323.47" y1="378.018" x2="383.348" y2="378.018" gradientUnits="userSpaceOnUse">
<stop stop-color="#812BB9"/>
<stop offset="0.28" stop-color="#334685"/>
<stop offset="0.94" stop-color="#28EEEE"/>
<stop offset="1" stop-color="#27FFF9"/>
</linearGradient>
<linearGradient id="paint34_linear_290_726" x1="323.47" y1="378.018" x2="383.348" y2="378.018" gradientUnits="userSpaceOnUse">
<stop stop-color="#812BB9"/>
<stop offset="0.28" stop-color="#334685"/>
<stop offset="0.94" stop-color="#28EEEE"/>
<stop offset="1" stop-color="#27FFF9"/>
</linearGradient>
<linearGradient id="paint35_linear_290_726" x1="327.045" y1="377.918" x2="377.601" y2="377.918" gradientUnits="userSpaceOnUse">
<stop stop-color="#952BA0"/>
<stop offset="0.5" stop-color="#68177F"/>
<stop offset="1" stop-color="#38035B"/>
</linearGradient>
<linearGradient id="paint36_linear_290_726" x1="350.402" y1="412.249" x2="343.278" y2="344.791" gradientUnits="userSpaceOnUse">
<stop stop-color="#27FFF9"/>
<stop offset="0.06" stop-color="#28EAEC"/>
<stop offset="0.26" stop-color="#2DA5C0"/>
<stop offset="0.45" stop-color="#306B9C"/>
<stop offset="0.63" stop-color="#343E80"/>
<stop offset="0.78" stop-color="#361D6B"/>
<stop offset="0.91" stop-color="#370A5F"/>
<stop offset="1" stop-color="#38035B"/>
</linearGradient>
<linearGradient id="paint37_linear_290_726" x1="285.712" y1="543.355" x2="378.469" y2="543.355" gradientUnits="userSpaceOnUse">
<stop stop-color="#BC46FA"/>
<stop offset="0.09" stop-color="#9836CE"/>
<stop offset="0.18" stop-color="#7829A7"/>
<stop offset="0.27" stop-color="#5E1D87"/>
<stop offset="0.37" stop-color="#48146C"/>
<stop offset="0.48" stop-color="#370D58"/>
<stop offset="0.61" stop-color="#2C074A"/>
<stop offset="0.76" stop-color="#250441"/>
<stop offset="1" stop-color="#23043F"/>
</linearGradient>
<linearGradient id="paint38_linear_290_726" x1="337.938" y1="629.534" x2="337.938" y2="464.13" gradientUnits="userSpaceOnUse">
<stop stop-color="#BC46FA"/>
<stop offset="0.09" stop-color="#9836CE"/>
<stop offset="0.18" stop-color="#7829A7"/>
<stop offset="0.27" stop-color="#5E1D87"/>
<stop offset="0.37" stop-color="#48146C"/>
<stop offset="0.48" stop-color="#370D58"/>
<stop offset="0.61" stop-color="#2C074A"/>
<stop offset="0.76" stop-color="#250441"/>
<stop offset="1" stop-color="#23043F"/>
</linearGradient>
<linearGradient id="paint39_linear_290_726" x1="448.104" y1="543.355" x2="540.861" y2="543.355" gradientUnits="userSpaceOnUse">
<stop stop-color="#23043F"/>
<stop offset="0.24" stop-color="#250441"/>
<stop offset="0.39" stop-color="#2C074A"/>
<stop offset="0.52" stop-color="#370D58"/>
<stop offset="0.63" stop-color="#48146C"/>
<stop offset="0.73" stop-color="#5E1D87"/>
<stop offset="0.82" stop-color="#7829A7"/>
<stop offset="0.91" stop-color="#9836CE"/>
<stop offset="0.99" stop-color="#BC46FA"/>
<stop offset="1" stop-color="#C048FF"/>
</linearGradient>
<linearGradient id="paint40_linear_290_726" x1="488.635" y1="629.534" x2="488.635" y2="464.13" gradientUnits="userSpaceOnUse">
<stop stop-color="#BC46FA"/>
<stop offset="0.09" stop-color="#9836CE"/>
<stop offset="0.18" stop-color="#7829A7"/>
<stop offset="0.27" stop-color="#5E1D87"/>
<stop offset="0.37" stop-color="#48146C"/>
<stop offset="0.48" stop-color="#370D58"/>
<stop offset="0.61" stop-color="#2C074A"/>
<stop offset="0.76" stop-color="#250441"/>
<stop offset="1" stop-color="#23043F"/>
</linearGradient>
<linearGradient id="paint41_linear_290_726" x1="402.828" y1="109.186" x2="418.833" y2="109.186" gradientUnits="userSpaceOnUse">
<stop stop-color="#27FFF9"/>
<stop offset="0.02" stop-color="#27F1F0"/>
<stop offset="0.09" stop-color="#2BBFD1"/>
<stop offset="0.17" stop-color="#2E92B5"/>
<stop offset="0.25" stop-color="#306C9C"/>
<stop offset="0.33" stop-color="#334B88"/>
<stop offset="0.43" stop-color="#343077"/>
<stop offset="0.53" stop-color="#361C6A"/>
<stop offset="0.64" stop-color="#370E61"/>
<stop offset="0.78" stop-color="#37055C"/>
<stop offset="1" stop-color="#38035B"/>
</linearGradient>
<linearGradient id="paint42_linear_290_726" x1="408.408" y1="88.7612" x2="413.253" y2="88.7612" gradientUnits="userSpaceOnUse">
<stop stop-color="#27FFF9"/>
<stop offset="0.02" stop-color="#27F1F0"/>
<stop offset="0.09" stop-color="#2BBFD1"/>
<stop offset="0.17" stop-color="#2E92B5"/>
<stop offset="0.25" stop-color="#306C9C"/>
<stop offset="0.33" stop-color="#334B88"/>
<stop offset="0.43" stop-color="#343077"/>
<stop offset="0.53" stop-color="#361C6A"/>
<stop offset="0.64" stop-color="#370E61"/>
<stop offset="0.78" stop-color="#37055C"/>
<stop offset="1" stop-color="#38035B"/>
</linearGradient>
<linearGradient id="paint43_linear_290_726" x1="413.253" y1="694.352" x2="413.253" y2="360.201" gradientUnits="userSpaceOnUse">
<stop stop-color="#D529FF" stop-opacity="0.96"/>
<stop offset="0.05" stop-color="#D529FF" stop-opacity="0.78"/>
<stop offset="0.09" stop-color="#D529FF" stop-opacity="0.61"/>
<stop offset="0.14" stop-color="#D529FF" stop-opacity="0.47"/>
<stop offset="0.2" stop-color="#D529FF" stop-opacity="0.34"/>
<stop offset="0.25" stop-color="#D529FF" stop-opacity="0.23"/>
<stop offset="0.32" stop-color="#D529FF" stop-opacity="0.15"/>
<stop offset="0.4" stop-color="#D529FF" stop-opacity="0.08"/>
<stop offset="0.49" stop-color="#D529FF" stop-opacity="0.03"/>
<stop offset="0.63" stop-color="#D529FF" stop-opacity="0"/>
<stop offset="1" stop-color="#D529FF" stop-opacity="0"/>
</linearGradient>
<linearGradient id="paint44_linear_290_726" x1="537.419" y1="559.535" x2="537.452" y2="559.535" gradientUnits="userSpaceOnUse">
<stop stop-color="#D529FF" stop-opacity="0.96"/>
<stop offset="0.05" stop-color="#D529FF" stop-opacity="0.78"/>
<stop offset="0.09" stop-color="#D529FF" stop-opacity="0.61"/>
<stop offset="0.14" stop-color="#D529FF" stop-opacity="0.47"/>
<stop offset="0.2" stop-color="#D529FF" stop-opacity="0.34"/>
<stop offset="0.25" stop-color="#D529FF" stop-opacity="0.23"/>
<stop offset="0.32" stop-color="#D529FF" stop-opacity="0.15"/>
<stop offset="0.4" stop-color="#D529FF" stop-opacity="0.08"/>
<stop offset="0.49" stop-color="#D529FF" stop-opacity="0.03"/>
<stop offset="0.63" stop-color="#D529FF" stop-opacity="0"/>
<stop offset="1" stop-color="#D529FF" stop-opacity="0"/>
</linearGradient>
<linearGradient id="paint45_linear_290_726" x1="413.253" y1="726.41" x2="413.253" y2="9.10095" gradientUnits="userSpaceOnUse">
<stop stop-color="#D529FF" stop-opacity="0.96"/>
<stop offset="0.05" stop-color="#D529FF" stop-opacity="0.78"/>
<stop offset="0.09" stop-color="#D529FF" stop-opacity="0.61"/>
<stop offset="0.14" stop-color="#D529FF" stop-opacity="0.47"/>
<stop offset="0.2" stop-color="#D529FF" stop-opacity="0.34"/>
<stop offset="0.25" stop-color="#D529FF" stop-opacity="0.23"/>
<stop offset="0.32" stop-color="#D529FF" stop-opacity="0.15"/>
<stop offset="0.4" stop-color="#D529FF" stop-opacity="0.08"/>
<stop offset="0.49" stop-color="#D529FF" stop-opacity="0.03"/>
<stop offset="0.63" stop-color="#D529FF" stop-opacity="0"/>
<stop offset="1" stop-color="#D529FF" stop-opacity="0"/>
</linearGradient>
<linearGradient id="paint46_linear_290_726" x1="579.621" y1="541.483" x2="579.621" y2="540.581" gradientUnits="userSpaceOnUse">
<stop stop-color="#D529FF" stop-opacity="0.4"/>
<stop offset="0.05" stop-color="#D529FF" stop-opacity="0.28"/>
<stop offset="0.11" stop-color="#D529FF" stop-opacity="0.18"/>
<stop offset="0.17" stop-color="#D529FF" stop-opacity="0.1"/>
<stop offset="0.24" stop-color="#D529FF" stop-opacity="0.04"/>
<stop offset="0.32" stop-color="#D529FF" stop-opacity="0.01"/>
<stop offset="0.46" stop-color="#D529FF" stop-opacity="0"/>
</linearGradient>
<linearGradient id="paint47_linear_290_726" x1="263.893" y1="729.151" x2="263.893" y2="-199.058" gradientUnits="userSpaceOnUse">
<stop stop-color="#D529FF" stop-opacity="0"/>
<stop offset="0.02" stop-color="#D529FF" stop-opacity="0.12"/>
<stop offset="0.04" stop-color="#D529FF" stop-opacity="0.22"/>
<stop offset="0.07" stop-color="#D529FF" stop-opacity="0.3"/>
<stop offset="0.1" stop-color="#D529FF" stop-opacity="0.36"/>
<stop offset="0.14" stop-color="#D529FF" stop-opacity="0.39"/>
<stop offset="0.2" stop-color="#D529FF" stop-opacity="0.4"/>
<stop offset="0.22" stop-color="#D529FF" stop-opacity="0.28"/>
<stop offset="0.26" stop-color="#D529FF" stop-opacity="0.18"/>
<stop offset="0.29" stop-color="#D529FF" stop-opacity="0.1"/>
<stop offset="0.33" stop-color="#D529FF" stop-opacity="0.04"/>
<stop offset="0.38" stop-color="#D529FF" stop-opacity="0.01"/>
<stop offset="0.46" stop-color="#D529FF" stop-opacity="0"/>
</linearGradient>
<linearGradient id="paint48_linear_290_726" x1="365.605" y1="765.889" x2="365.605" y2="-105.525" gradientUnits="userSpaceOnUse">
<stop stop-color="#D529FF" stop-opacity="0"/>
<stop offset="0.02" stop-color="#D529FF" stop-opacity="0.12"/>
<stop offset="0.04" stop-color="#D529FF" stop-opacity="0.22"/>
<stop offset="0.07" stop-color="#D529FF" stop-opacity="0.3"/>
<stop offset="0.1" stop-color="#D529FF" stop-opacity="0.36"/>
<stop offset="0.14" stop-color="#D529FF" stop-opacity="0.39"/>
<stop offset="0.2" stop-color="#D529FF" stop-opacity="0.4"/>
<stop offset="0.22" stop-color="#D529FF" stop-opacity="0.28"/>
<stop offset="0.26" stop-color="#D529FF" stop-opacity="0.18"/>
<stop offset="0.29" stop-color="#D529FF" stop-opacity="0.1"/>
<stop offset="0.33" stop-color="#D529FF" stop-opacity="0.04"/>
<stop offset="0.38" stop-color="#D529FF" stop-opacity="0.01"/>
<stop offset="0.46" stop-color="#D529FF" stop-opacity="0"/>
</linearGradient>
<linearGradient id="paint49_linear_290_726" x1="459.732" y1="765.488" x2="459.732" y2="-107.464" gradientUnits="userSpaceOnUse">
<stop stop-color="#D529FF" stop-opacity="0"/>
<stop offset="0.02" stop-color="#D529FF" stop-opacity="0.12"/>
<stop offset="0.04" stop-color="#D529FF" stop-opacity="0.22"/>
<stop offset="0.07" stop-color="#D529FF" stop-opacity="0.3"/>
<stop offset="0.1" stop-color="#D529FF" stop-opacity="0.36"/>
<stop offset="0.14" stop-color="#D529FF" stop-opacity="0.39"/>
<stop offset="0.2" stop-color="#D529FF" stop-opacity="0.4"/>
<stop offset="0.22" stop-color="#D529FF" stop-opacity="0.28"/>
<stop offset="0.26" stop-color="#D529FF" stop-opacity="0.18"/>
<stop offset="0.29" stop-color="#D529FF" stop-opacity="0.1"/>
<stop offset="0.33" stop-color="#D529FF" stop-opacity="0.04"/>
<stop offset="0.38" stop-color="#D529FF" stop-opacity="0.01"/>
<stop offset="0.46" stop-color="#D529FF" stop-opacity="0"/>
</linearGradient>
<linearGradient id="paint50_linear_290_726" x1="521.681" y1="744.628" x2="521.681" y2="-128.257" gradientUnits="userSpaceOnUse">
<stop stop-color="#D529FF" stop-opacity="0"/>
<stop offset="0.02" stop-color="#D529FF" stop-opacity="0.12"/>
<stop offset="0.04" stop-color="#D529FF" stop-opacity="0.22"/>
<stop offset="0.07" stop-color="#D529FF" stop-opacity="0.3"/>
<stop offset="0.1" stop-color="#D529FF" stop-opacity="0.36"/>
<stop offset="0.14" stop-color="#D529FF" stop-opacity="0.39"/>
<stop offset="0.2" stop-color="#D529FF" stop-opacity="0.4"/>
<stop offset="0.22" stop-color="#D529FF" stop-opacity="0.28"/>
<stop offset="0.26" stop-color="#D529FF" stop-opacity="0.18"/>
<stop offset="0.29" stop-color="#D529FF" stop-opacity="0.1"/>
<stop offset="0.33" stop-color="#D529FF" stop-opacity="0.04"/>
<stop offset="0.38" stop-color="#D529FF" stop-opacity="0.01"/>
<stop offset="0.46" stop-color="#D529FF" stop-opacity="0"/>
</linearGradient>
<linearGradient id="paint51_linear_290_726" x1="562.714" y1="722.499" x2="562.714" y2="-202" gradientUnits="userSpaceOnUse">
<stop stop-color="#D529FF" stop-opacity="0"/>
<stop offset="0.02" stop-color="#D529FF" stop-opacity="0.12"/>
<stop offset="0.04" stop-color="#D529FF" stop-opacity="0.22"/>
<stop offset="0.07" stop-color="#D529FF" stop-opacity="0.3"/>
<stop offset="0.1" stop-color="#D529FF" stop-opacity="0.36"/>
<stop offset="0.14" stop-color="#D529FF" stop-opacity="0.39"/>
<stop offset="0.2" stop-color="#D529FF" stop-opacity="0.4"/>
<stop offset="0.22" stop-color="#D529FF" stop-opacity="0.28"/>
<stop offset="0.26" stop-color="#D529FF" stop-opacity="0.18"/>
<stop offset="0.29" stop-color="#D529FF" stop-opacity="0.1"/>
<stop offset="0.33" stop-color="#D529FF" stop-opacity="0.04"/>
<stop offset="0.38" stop-color="#D529FF" stop-opacity="0.01"/>
<stop offset="0.46" stop-color="#D529FF" stop-opacity="0"/>
</linearGradient>
</defs>
</svg>
