<svg width="1571" height="1010" viewBox="0 0 1571 1010" fill="none" xmlns="http://www.w3.org/2000/svg">
<g clip-path="url(#clip0_311_91)">
<g clip-path="url(#clip1_311_91)">
<path opacity="0.9" d="M1230.86 888.69C1330.14 887.094 1409.81 834.338 1408.79 770.856C1407.77 707.373 1326.45 657.203 1227.17 658.798C1127.88 660.393 1048.22 713.149 1049.23 776.632C1050.25 840.115 1131.57 890.285 1230.86 888.69Z" stroke="url(#paint0_linear_311_91)" stroke-width="0.25" stroke-miterlimit="10"/>
<path opacity="0.8" d="M1230.99 897.246C1337.7 895.532 1423.31 838.848 1422.22 770.64C1421.12 702.431 1333.73 648.527 1227.03 650.241C1120.32 651.956 1034.71 708.639 1035.8 776.848C1036.9 845.056 1124.29 898.96 1230.99 897.246Z" stroke="url(#paint1_linear_311_91)" stroke-width="0.27" stroke-miterlimit="10"/>
<path opacity="0.7" d="M1231.12 905.335C1344.8 903.509 1436.01 843.113 1434.85 770.437C1433.68 697.761 1340.58 640.326 1226.9 642.153C1113.22 643.979 1022.01 704.375 1023.17 777.051C1024.34 849.726 1117.44 907.161 1231.12 905.335Z" stroke="url(#paint2_linear_311_91)" stroke-width="0.29" stroke-miterlimit="10"/>
<path opacity="0.5" d="M1231.26 913.825C1352.28 911.88 1449.39 847.588 1448.14 770.223C1446.9 692.859 1347.79 631.719 1226.76 633.663C1105.74 635.607 1008.64 699.9 1009.88 777.264C1011.12 854.629 1110.24 915.769 1231.26 913.825Z" stroke="url(#paint3_linear_311_91)" stroke-width="0.3" stroke-miterlimit="10"/>
<path opacity="0.4" d="M1231.42 923.952C1361.19 921.867 1465.31 852.927 1463.98 769.969C1462.65 687.011 1356.37 621.451 1226.6 623.535C1096.83 625.62 992.71 694.561 994.042 777.519C995.373 860.476 1101.65 926.037 1231.42 923.952Z" stroke="url(#paint4_linear_311_91)" stroke-width="0.33" stroke-miterlimit="10"/>
<path opacity="0.35" d="M1231.6 934.882C1370.8 932.645 1482.48 858.689 1481.05 769.695C1479.62 680.7 1365.62 610.369 1226.42 612.606C1087.23 614.842 975.541 688.799 976.969 777.793C978.398 866.787 1092.4 937.118 1231.6 934.882Z" stroke="url(#paint5_linear_311_91)" stroke-width="0.35" stroke-miterlimit="10"/>
<path opacity="0.3" d="M1231.77 945.778C1380.42 943.39 1499.68 864.432 1498.16 769.42C1496.63 674.408 1374.9 599.321 1226.25 601.709C1077.6 604.097 958.339 683.056 959.864 778.068C961.389 873.08 1083.13 948.166 1231.77 945.778Z" stroke="url(#paint6_linear_311_91)" stroke-width="0.37" stroke-miterlimit="10"/>
<path opacity="0.25" d="M1231.98 958.747C1391.81 956.179 1520.04 871.269 1518.4 769.094C1516.76 666.92 1385.87 586.173 1226.04 588.741C1066.21 591.308 937.977 676.219 939.618 778.393C941.258 880.567 1072.15 961.314 1231.98 958.747Z" stroke="url(#paint7_linear_311_91)" stroke-width="0.4" stroke-miterlimit="10"/>
<path opacity="0.2" d="M1232.22 973.721C1404.98 970.945 1543.6 879.163 1541.82 768.718C1540.05 658.274 1398.56 570.991 1225.8 573.767C1053.04 576.542 914.424 668.325 916.197 778.769C917.97 889.213 1059.46 976.496 1232.22 973.721Z" stroke="url(#paint8_linear_311_91)" stroke-width="0.43" stroke-miterlimit="10"/>
<path opacity="0.15" d="M1232.47 989.464C1418.83 986.47 1568.36 887.461 1566.45 768.323C1564.54 649.184 1411.91 555.03 1225.55 558.024C1039.19 561.018 889.662 660.026 891.574 779.165C893.487 898.304 1046.11 992.458 1232.47 989.464Z" stroke="url(#paint9_linear_311_91)" stroke-width="0.47" stroke-miterlimit="10"/>
<path opacity="0.1" d="M1232.8 1010.05C1436.97 1006.77 1600.78 898.315 1598.69 767.805C1596.59 637.295 1429.38 534.155 1225.22 537.435C1021.05 540.715 857.239 649.173 859.334 779.683C861.429 910.193 1028.64 1013.33 1232.8 1010.05Z" stroke="url(#paint10_linear_311_91)" stroke-width="0.51" stroke-miterlimit="10"/>
<path opacity="0.05" d="M1233.19 1033.95C1457.98 1030.34 1638.35 910.913 1636.04 767.205C1633.73 623.496 1449.63 509.925 1224.83 513.536C1000.04 517.148 819.676 636.574 821.982 780.283C824.289 923.991 1008.39 1037.56 1233.19 1033.95Z" stroke="url(#paint11_linear_311_91)" stroke-width="0.57" stroke-miterlimit="10"/>
<path d="M1230.76 878.829C1323.41 877.34 1397.74 828.128 1396.79 768.909C1395.84 709.691 1319.97 662.891 1227.32 664.379C1134.68 665.868 1060.34 715.08 1061.29 774.299C1062.24 833.518 1138.12 880.317 1230.76 878.829Z" stroke="url(#paint12_linear_311_91)" stroke-width="0.23" stroke-miterlimit="10"/>
<path d="M1229.82 864.214C1305.9 862.977 1366.95 822.562 1366.18 773.923L1366.11 757.811L1090.62 763.895V778.369C1091.42 827.008 1153.74 865.451 1229.82 864.247V864.214Z" fill="url(#paint13_linear_311_91)"/>
<path d="M1229.83 849.76C1305.92 848.537 1366.98 808.115 1366.2 759.474C1365.42 710.832 1303.1 672.392 1227 673.615C1150.91 674.837 1089.85 715.26 1090.64 763.901C1091.42 812.542 1153.74 850.982 1229.83 849.76Z" fill="url(#paint14_linear_311_91)"/>
<path d="M1229.39 822.352C1281.79 821.51 1323.84 793.667 1323.3 760.163C1322.76 726.659 1279.85 700.18 1227.44 701.022C1175.04 701.864 1133 729.707 1133.53 763.212C1134.07 796.716 1176.99 823.194 1229.39 822.352Z" stroke="url(#paint15_linear_311_91)" stroke-width="0.25" stroke-miterlimit="10"/>
<path d="M1229.58 834.051C1292.13 833.046 1342.32 799.818 1341.67 759.834C1341.03 719.851 1289.8 688.252 1227.25 689.257C1164.7 690.262 1114.52 723.49 1115.16 763.473C1115.8 803.457 1167.03 835.056 1229.58 834.051Z" stroke="url(#paint16_linear_311_91)" stroke-miterlimit="10"/>
<path d="M1228.38 892.762C1254.11 892.361 1274.73 878.688 1274.46 862.242V602.068L1181.34 604.107V863.712C1181.6 880.159 1202.65 893.129 1228.38 892.728V892.762Z" fill="url(#paint17_linear_311_91)"/>
<path d="M1228.32 892.762C1250.64 892.394 1268.58 880.527 1268.34 866.253V640.276L1187.45 642.048V867.523C1187.68 881.797 1205.99 893.096 1228.32 892.728V892.762Z" fill="url(#paint18_linear_311_91)"/>
<path style="mix-blend-mode:color-dodge" d="M1228.28 879.624C1248.5 879.29 1264.74 868.559 1264.54 855.623V651.04L1191.29 652.645V856.793C1191.49 869.73 1208.07 879.925 1228.28 879.624Z" fill="url(#paint19_linear_311_91)"/>
<path style="mix-blend-mode:color-dodge" d="M1228.18 821.325C1243.72 821.091 1256.15 812.834 1256.02 802.906V645.825L1199.78 647.062V803.808C1199.95 813.737 1212.64 821.592 1228.18 821.325Z" fill="url(#paint20_linear_311_91)"/>
<path style="mix-blend-mode:color-dodge" d="M1228.45 879.624C1247.19 879.324 1262.2 869.362 1262.03 857.394V667.888L1194.2 669.392V858.498C1194.4 870.465 1209.74 879.925 1228.48 879.624H1228.45Z" fill="url(#paint21_linear_311_91)"/>
<mask id="mask0_311_91" style="mask-type:luminance" maskUnits="userSpaceOnUse" x="1087" y="586" width="41" height="35">
<path d="M1115.88 593.242L1127.41 586.523C1115.34 593.543 1105.89 605.009 1100.04 613.467C1099.84 613.734 1099.64 613.935 1099.4 614.068L1087.88 620.787C1088.11 620.654 1088.31 620.453 1088.51 620.186C1094.36 611.728 1103.82 600.262 1115.88 593.242Z" fill="white"/>
</mask>
<g mask="url(#mask0_311_91)">
<path d="M1115.88 593.242L1127.41 586.523C1115.34 593.543 1105.89 605.009 1100.04 613.467C1099.84 613.734 1099.64 613.935 1099.4 614.068L1087.88 620.787C1088.11 620.654 1088.31 620.453 1088.51 620.186C1094.36 611.728 1103.82 600.262 1115.88 593.242Z" fill="url(#paint22_linear_311_91)"/>
</g>
<path d="M1163.46 545.506L1174.99 538.787L1174.85 589.03L1163.29 595.749L1163.46 545.506Z" fill="url(#paint23_linear_311_91)"/>
<path d="M1162.96 545.172C1163.12 545.272 1163.26 545.373 1163.36 545.406C1163.39 545.406 1163.46 545.473 1163.46 545.473L1174.99 538.754C1174.99 538.754 1174.95 538.754 1174.89 538.687C1174.82 538.654 1174.69 538.553 1174.52 538.453C1174.49 538.453 1174.42 538.386 1174.35 538.353C1174.22 538.252 1174.05 538.152 1173.85 538.052C1173.78 538.052 1173.78 538.018 1173.72 537.985C1173.58 537.918 1173.42 537.818 1173.25 537.718C1172.78 537.45 1172.25 537.149 1171.61 536.815C1171.58 536.815 1171.55 536.782 1171.51 536.748C1171.04 536.481 1170.54 536.213 1169.97 535.946C1169.84 535.879 1169.67 535.812 1169.54 535.712C1169.27 535.578 1169.04 535.444 1168.74 535.311C1168.6 535.244 1168.44 535.177 1168.27 535.077C1167.67 534.776 1167.07 534.508 1166.4 534.208C1166.17 534.107 1165.93 533.974 1165.7 533.873C1165.6 533.806 1165.46 533.773 1165.33 533.706C1164.73 533.439 1164.09 533.171 1163.46 532.904C1163.12 532.77 1162.82 532.636 1162.49 532.503C1162.39 532.469 1162.32 532.436 1162.22 532.402C1161.65 532.168 1161.02 531.934 1160.42 531.734C1159.98 531.567 1159.62 531.433 1159.18 531.266C1159.12 531.266 1159.01 531.232 1158.95 531.199C1158.45 531.032 1157.88 530.865 1157.34 530.664C1156.84 530.497 1156.34 530.33 1155.81 530.163C1155.71 530.163 1155.61 530.096 1155.54 530.096C1155.11 529.962 1154.64 529.862 1154.17 529.728C1153.6 529.561 1153.07 529.394 1152.5 529.26C1152.37 529.227 1152.2 529.193 1152.03 529.16C1151.56 529.06 1151.1 528.959 1150.59 528.826C1150.09 528.725 1149.59 528.592 1149.09 528.491C1148.86 528.458 1148.62 528.424 1148.39 528.391C1147.89 528.291 1147.39 528.224 1146.92 528.157C1146.48 528.09 1146.08 527.99 1145.65 527.956C1145.32 527.923 1144.98 527.89 1144.65 527.856C1144.15 527.789 1143.64 527.756 1143.11 527.689C1142.78 527.689 1142.47 527.622 1142.14 527.589C1141.71 527.589 1141.27 527.589 1140.84 527.555C1140.3 527.555 1139.77 527.522 1139.23 527.488C1139 527.488 1138.77 527.488 1138.5 527.488C1138 527.488 1137.46 527.555 1136.96 527.555C1136.39 527.555 1135.86 527.589 1135.29 527.622C1135.12 527.622 1134.92 527.622 1134.76 527.622C1134.29 527.656 1133.82 527.756 1133.39 527.823C1132.62 527.923 1131.85 528.023 1131.08 528.157C1130.88 528.19 1130.68 528.19 1130.51 528.224C1129.58 528.424 1128.64 528.625 1127.74 528.892C1127.57 528.926 1127.41 528.993 1127.27 529.026C1126.67 529.193 1126.04 529.394 1125.43 529.594C1125.03 529.728 1124.63 529.929 1124.23 530.096C1123.9 530.23 1123.53 530.363 1123.2 530.53C1122.03 531.032 1120.82 531.6 1119.69 532.269L1108.16 538.988C1109.33 538.319 1110.5 537.751 1111.67 537.216C1112 537.082 1112.34 536.949 1112.7 536.782C1113.71 536.38 1114.74 536.013 1115.74 535.712C1115.91 535.678 1116.04 535.612 1116.21 535.578C1117.31 535.277 1118.45 535.01 1119.59 534.809C1120.35 534.676 1121.12 534.575 1121.89 534.475C1122.53 534.408 1123.16 534.308 1123.8 534.241C1124.36 534.208 1124.9 534.174 1125.47 534.174C1126.24 534.174 1126.97 534.107 1127.74 534.141C1128.27 534.141 1128.81 534.141 1129.34 534.208C1130.11 534.241 1130.85 534.274 1131.62 534.341C1132.12 534.375 1132.65 534.442 1133.15 534.508C1133.89 534.609 1134.66 534.709 1135.39 534.809C1135.89 534.876 1136.39 534.976 1136.89 535.043C1137.63 535.177 1138.37 535.344 1139.1 535.478C1139.57 535.578 1140.07 535.678 1140.54 535.812C1141.27 535.979 1141.97 536.18 1142.68 536.38C1143.11 536.514 1143.58 536.614 1144.01 536.748C1144.65 536.949 1145.25 537.149 1145.85 537.35C1146.38 537.517 1146.92 537.684 1147.42 537.885C1147.92 538.052 1148.42 538.252 1148.92 538.453C1149.53 538.687 1150.13 538.888 1150.69 539.122C1151.13 539.289 1151.53 539.456 1151.96 539.656C1152.6 539.924 1153.23 540.191 1153.84 540.459C1154.2 540.626 1154.57 540.793 1154.9 540.96C1155.54 541.261 1156.17 541.562 1156.78 541.829C1157.21 542.03 1157.64 542.264 1158.05 542.464C1158.18 542.531 1158.35 542.598 1158.48 542.698C1159.08 542.999 1159.62 543.3 1160.12 543.568C1160.75 543.902 1161.29 544.203 1161.75 544.47C1161.99 544.604 1162.16 544.704 1162.32 544.804C1162.56 544.938 1162.76 545.072 1162.89 545.139C1162.89 545.139 1162.96 545.172 1162.96 545.206V545.172Z" fill="url(#paint24_linear_311_91)"/>
<path d="M1161.72 544.437C1162.86 545.072 1163.43 545.473 1163.46 545.473L1163.33 595.716C1161.92 594.747 1160.55 593.877 1159.18 593.075C1126.44 574.188 1100.24 603.204 1088.55 620.152C1087.81 621.222 1086.57 621.189 1085.34 620.487C1083.43 619.383 1081.56 616.642 1081.56 613.968C1082.46 503.487 1149.96 537.617 1161.72 544.403V544.437Z" fill="url(#paint25_linear_311_91)"/>
<mask id="mask1_311_91" style="mask-type:luminance" maskUnits="userSpaceOnUse" x="1329" y="586" width="41" height="35">
<path d="M1341.25 593.242L1329.73 586.523C1341.79 593.543 1351.24 605.009 1357.09 613.467C1357.29 613.734 1357.49 613.935 1357.73 614.068L1369.25 620.787C1369.02 620.654 1368.82 620.453 1368.62 620.186C1362.77 611.728 1353.32 600.262 1341.25 593.242Z" fill="white"/>
</mask>
<g mask="url(#mask1_311_91)">
<path d="M1341.25 593.242L1329.73 586.523C1341.79 593.543 1351.24 605.009 1357.09 613.467C1357.29 613.734 1357.49 613.935 1357.73 614.068L1369.25 620.787C1369.02 620.654 1368.82 620.453 1368.62 620.186C1362.77 611.728 1353.32 600.262 1341.25 593.242Z" fill="url(#paint26_linear_311_91)"/>
</g>
<path d="M1293.71 545.506L1282.15 538.787L1282.28 589.03L1293.84 595.749L1293.71 545.506Z" fill="url(#paint27_linear_311_91)"/>
<path d="M1294.27 545.139C1294.27 545.139 1294.61 544.938 1294.84 544.804C1295.01 544.704 1295.21 544.604 1295.41 544.47C1295.88 544.203 1296.41 543.902 1297.05 543.568C1297.55 543.3 1298.08 542.999 1298.68 542.698C1298.82 542.632 1298.99 542.565 1299.12 542.464C1299.52 542.264 1299.95 542.063 1300.39 541.829C1300.99 541.528 1301.59 541.261 1302.26 540.96C1302.63 540.793 1302.96 540.626 1303.33 540.459C1303.93 540.191 1304.57 539.924 1305.2 539.656C1305.63 539.489 1306.04 539.322 1306.47 539.122C1307.04 538.888 1307.64 538.687 1308.24 538.453C1308.74 538.252 1309.21 538.085 1309.74 537.885C1310.25 537.718 1310.81 537.55 1311.32 537.35C1311.92 537.149 1312.52 536.949 1313.15 536.748C1313.59 536.614 1314.06 536.514 1314.49 536.38C1315.19 536.18 1315.93 535.979 1316.63 535.812C1317.1 535.712 1317.6 535.612 1318.06 535.478C1318.8 535.311 1319.54 535.177 1320.27 535.043C1320.77 534.943 1321.27 534.876 1321.77 534.809C1322.51 534.709 1323.24 534.575 1324.01 534.508C1324.51 534.442 1325.05 534.408 1325.55 534.341C1326.28 534.274 1327.05 534.241 1327.82 534.208C1328.36 534.208 1328.89 534.174 1329.43 534.141C1330.19 534.141 1330.93 534.141 1331.7 534.174C1332.27 534.174 1332.8 534.208 1333.37 534.241C1334 534.274 1334.64 534.375 1335.27 534.475C1336.04 534.575 1336.81 534.676 1337.58 534.809C1338.71 535.01 1339.82 535.244 1340.95 535.578C1341.12 535.612 1341.25 535.678 1341.42 535.712C1342.46 536.013 1343.46 536.38 1344.46 536.782C1344.8 536.915 1345.16 537.049 1345.5 537.216C1346.7 537.718 1347.87 538.286 1349.01 538.988L1337.48 532.269C1336.31 531.6 1335.14 531.032 1333.97 530.497C1333.64 530.363 1333.3 530.23 1332.93 530.062C1332.53 529.895 1332.13 529.728 1331.73 529.561C1331.13 529.327 1330.49 529.16 1329.89 528.993C1329.73 528.959 1329.56 528.892 1329.43 528.859C1328.49 528.592 1327.59 528.358 1326.65 528.191C1326.45 528.157 1326.25 528.157 1326.08 528.124C1325.32 527.99 1324.55 527.89 1323.78 527.789C1323.31 527.722 1322.84 527.622 1322.41 527.589C1322.24 527.589 1322.04 527.589 1321.87 527.589C1321.31 527.555 1320.77 527.522 1320.2 527.522C1319.7 527.522 1319.17 527.455 1318.67 527.455C1318.43 527.455 1318.2 527.455 1317.93 527.455C1317.4 527.455 1316.86 527.455 1316.33 527.522C1315.89 527.522 1315.46 527.522 1315.02 527.555C1314.69 527.555 1314.39 527.622 1314.06 527.656C1313.55 527.689 1313.05 527.756 1312.52 527.823C1312.18 527.856 1311.85 527.89 1311.52 527.923C1311.08 527.99 1310.68 528.057 1310.25 528.124C1309.74 528.19 1309.24 528.291 1308.78 528.358C1308.54 528.391 1308.31 528.425 1308.07 528.458C1307.57 528.558 1307.07 528.692 1306.57 528.792C1306.1 528.892 1305.6 528.993 1305.13 529.127C1305 529.16 1304.83 529.193 1304.67 529.227C1304.1 529.36 1303.53 529.528 1302.96 529.695C1302.49 529.828 1302.06 529.929 1301.59 530.062C1301.49 530.062 1301.39 530.129 1301.29 530.129C1300.76 530.297 1300.26 530.464 1299.75 530.631C1299.22 530.798 1298.68 530.965 1298.15 531.166C1298.08 531.166 1297.98 531.199 1297.92 531.232C1297.48 531.4 1297.08 531.533 1296.68 531.7C1296.08 531.934 1295.44 532.135 1294.88 532.369C1294.78 532.403 1294.71 532.436 1294.61 532.469C1294.27 532.603 1293.97 532.737 1293.64 532.87C1293 533.138 1292.37 533.405 1291.77 533.673C1291.67 533.74 1291.53 533.773 1291.4 533.84C1291.13 533.94 1290.93 534.074 1290.7 534.174C1290.03 534.475 1289.43 534.776 1288.83 535.043C1288.69 535.11 1288.49 535.177 1288.36 535.277C1288.09 535.411 1287.83 535.545 1287.56 535.678C1287.42 535.745 1287.26 535.812 1287.12 535.912C1286.59 536.18 1286.05 536.447 1285.59 536.715C1285.55 536.715 1285.52 536.748 1285.49 536.782C1284.85 537.116 1284.32 537.417 1283.85 537.684C1283.68 537.784 1283.55 537.885 1283.38 537.952C1283.31 537.952 1283.31 537.985 1283.25 538.018C1283.05 538.152 1282.88 538.252 1282.71 538.319C1282.65 538.319 1282.61 538.386 1282.55 538.42C1282.38 538.52 1282.25 538.62 1282.18 538.654C1282.11 538.654 1282.11 538.72 1282.08 538.72L1293.61 545.44C1293.61 545.44 1293.67 545.44 1293.71 545.373C1293.77 545.339 1293.91 545.239 1294.11 545.139C1294.11 545.139 1294.17 545.105 1294.21 545.072L1294.27 545.139Z" fill="url(#paint28_linear_311_91)"/>
<path d="M1295.44 544.437C1294.31 545.072 1293.74 545.473 1293.71 545.473L1293.84 595.716C1295.24 594.747 1296.61 593.877 1297.98 593.075C1330.73 574.188 1356.93 603.204 1368.62 620.152C1369.36 621.222 1370.59 621.189 1371.83 620.487C1373.73 619.383 1375.6 616.642 1375.6 613.968C1374.7 503.487 1307.21 537.617 1295.44 544.403V544.437Z" fill="url(#paint29_linear_311_91)"/>
<path d="M1296.61 324.778L1296.55 324.878C1297.72 328.054 1298.35 331.363 1298.42 334.74C1298.82 359.744 1267.44 380.503 1228.32 381.138C1189.22 381.774 1157.18 362.017 1156.78 337.013C1156.71 333.035 1157.48 329.157 1158.91 325.447C1095.06 486.806 1165.46 632.688 1179.26 659.966C1184.78 674.039 1204.79 684.268 1228.58 683.901C1249.67 683.566 1267.54 674.975 1274.86 663.108H1274.96C1275.26 662.473 1275.7 661.671 1276.2 660.668C1276.2 660.601 1276.26 660.534 1276.3 660.467C1289.5 634.393 1361.34 487.341 1296.61 324.745V324.778Z" fill="url(#paint30_linear_311_91)"/>
<path d="M1298.42 334.773C1298.35 331.363 1297.72 328.054 1296.55 324.912L1296.61 324.811C1282.95 290.447 1263.17 255.38 1235.43 220.615H1220.36C1192.43 255.614 1172.61 290.915 1158.91 325.513C1157.48 329.224 1156.71 333.068 1156.78 337.08C1157.18 362.084 1189.22 381.841 1228.32 381.205C1267.41 380.57 1298.82 359.811 1298.42 334.807V334.773Z" fill="url(#paint31_linear_311_91)"/>
<path d="M1206.46 474.304C1196.51 453.611 1177.23 441.811 1163.99 448.163L1151.96 453.779L1188.42 528.458L1200.35 522.875C1213.55 516.524 1216.42 494.996 1206.46 474.304Z" fill="url(#paint32_linear_311_91)"/>
<path d="M1146.52 502.517C1156.48 523.21 1175.22 534.809 1188.45 528.458C1201.65 522.107 1204.29 500.177 1194.37 479.485C1184.41 458.793 1165.66 447.193 1152.43 453.545C1139.23 459.896 1136.59 481.825 1146.52 502.517Z" fill="url(#paint33_linear_311_91)"/>
<path d="M1146.52 502.517C1156.48 523.21 1175.22 534.809 1188.45 528.458C1201.65 522.107 1204.29 500.177 1194.37 479.485C1184.41 458.793 1165.66 447.193 1152.43 453.545C1139.23 459.896 1136.59 481.825 1146.52 502.517Z" fill="url(#paint34_linear_311_91)"/>
<path d="M1149.12 500.645C1157.51 518.129 1173.38 527.923 1184.54 522.541C1195.7 517.159 1197.94 498.673 1189.52 481.19C1181.13 463.707 1165.26 453.912 1154.1 459.294C1142.94 464.676 1140.7 483.162 1149.12 500.645Z" fill="url(#paint35_linear_311_91)"/>
<path d="M1154.07 459.194C1155.44 458.525 1156.91 458.191 1158.38 457.991C1148.46 464.175 1146.72 481.825 1154.77 498.539C1162.16 513.883 1175.32 523.276 1185.98 521.739C1185.55 522.006 1185.01 522.307 1184.54 522.541C1173.52 528.023 1157.31 518.095 1148.92 500.645C1140.54 483.162 1142.94 464.576 1154.1 459.194H1154.07Z" fill="url(#paint36_linear_311_91)"/>
<path d="M1114.57 727.558C1114.67 725.452 1114.81 723.346 1114.94 721.273C1115.01 720.204 1115.11 719.134 1115.21 718.098C1115.38 716.125 1115.58 714.153 1115.78 712.214C1115.88 711.245 1115.98 710.276 1116.11 709.34C1116.31 707.735 1116.55 706.197 1116.78 704.626C1117.01 703.122 1117.21 701.584 1117.45 700.113C1117.68 698.642 1117.95 697.205 1118.22 695.768C1118.48 694.33 1118.75 692.859 1119.05 691.455C1119.52 689.149 1120.02 686.876 1120.56 684.636C1120.59 684.469 1120.62 684.302 1120.66 684.134C1121.22 681.761 1121.86 679.488 1122.49 677.215C1123.36 674.173 1124.26 671.198 1125.2 668.289C1125.43 667.587 1125.7 666.885 1125.94 666.217C1126.6 664.311 1127.27 662.406 1127.94 660.567C1128.34 659.531 1128.74 658.562 1129.14 657.559C1129.71 656.155 1130.25 654.784 1130.81 653.447C1131.25 652.411 1131.72 651.374 1132.18 650.372C1132.72 649.168 1133.25 647.965 1133.82 646.795C1134.29 645.792 1134.79 644.789 1135.29 643.786C1135.86 642.683 1136.39 641.547 1136.96 640.477C1137.46 639.541 1137.96 638.605 1138.47 637.702C1139.07 636.599 1139.7 635.462 1140.3 634.393C1140.8 633.524 1141.31 632.688 1141.81 631.819C1142.47 630.682 1143.14 629.579 1143.84 628.476C1144.31 627.707 1144.81 626.938 1145.28 626.203C1146.15 624.866 1147.02 623.562 1147.92 622.292C1148.32 621.69 1148.72 621.088 1149.12 620.52C1150.56 618.514 1152 616.575 1153.43 614.703C1154.37 613.5 1155.31 612.33 1156.21 611.193C1156.34 611.026 1156.44 610.893 1156.58 610.725C1157.64 609.422 1158.71 608.185 1159.78 606.948C1161.09 605.444 1162.42 604.006 1163.69 602.602C1164.03 602.268 1164.33 601.934 1164.66 601.599C1165.63 600.563 1166.6 599.56 1167.57 598.624C1168 598.19 1168.4 597.789 1168.84 597.387C1169.81 596.451 1170.74 595.549 1171.68 594.68C1172.05 594.345 1172.41 594.011 1172.75 593.677C1173.98 592.54 1175.22 591.471 1176.39 590.468C1176.52 590.334 1176.66 590.234 1176.79 590.133C1177.86 589.231 1178.86 588.395 1179.87 587.593C1180.2 587.325 1180.53 587.058 1180.87 586.791C1181.67 586.155 1182.44 585.554 1183.21 585.019C1183.51 584.785 1183.81 584.584 1184.08 584.35C1185.04 583.615 1186.01 582.946 1186.88 582.345C1186.95 582.311 1186.98 582.278 1187.05 582.211C1187.88 581.643 1188.65 581.108 1189.39 580.64C1189.62 580.473 1189.86 580.339 1190.06 580.205C1190.59 579.871 1191.09 579.537 1191.56 579.269C1191.73 579.169 1191.93 579.035 1192.09 578.935C1192.66 578.601 1193.2 578.266 1193.63 578.032C1194.77 577.397 1195.34 577.096 1195.37 577.063L1183.84 570.344C1183.84 570.344 1183.24 570.645 1182.1 571.313C1181.67 571.547 1181.13 571.882 1180.57 572.216C1180.4 572.316 1180.2 572.45 1180.03 572.55C1179.56 572.851 1179.06 573.152 1178.53 573.486C1178.29 573.62 1178.09 573.787 1177.83 573.921C1177.09 574.389 1176.32 574.923 1175.49 575.492C1175.42 575.525 1175.39 575.559 1175.32 575.626C1174.45 576.227 1173.48 576.929 1172.51 577.631C1172.21 577.832 1171.95 578.066 1171.65 578.266C1170.88 578.835 1170.11 579.436 1169.31 580.071C1168.97 580.339 1168.64 580.606 1168.3 580.874C1167.3 581.676 1166.27 582.545 1165.2 583.448C1165.06 583.548 1164.96 583.648 1164.83 583.749C1163.66 584.751 1162.42 585.821 1161.19 586.958C1160.82 587.292 1160.48 587.626 1160.12 587.961C1159.18 588.83 1158.21 589.732 1157.24 590.668C1157.01 590.902 1156.78 591.103 1156.51 591.37C1156.34 591.537 1156.17 591.738 1156.01 591.905C1155.04 592.875 1154.07 593.844 1153.1 594.88C1152.77 595.215 1152.47 595.549 1152.13 595.883C1150.83 597.254 1149.53 598.691 1148.22 600.195C1148.16 600.262 1148.09 600.329 1148.02 600.396C1147.02 601.533 1146.02 602.736 1145.01 603.939C1144.88 604.107 1144.78 604.24 1144.65 604.407C1143.78 605.444 1142.94 606.513 1142.07 607.617C1142.01 607.717 1141.94 607.817 1141.87 607.917C1140.44 609.789 1139 611.728 1137.56 613.734C1137.46 613.901 1137.33 614.035 1137.23 614.202C1136.93 614.603 1136.66 615.071 1136.36 615.472C1135.49 616.743 1134.59 618.046 1133.72 619.383C1133.49 619.718 1133.25 620.052 1133.05 620.386C1132.78 620.787 1132.55 621.222 1132.28 621.657C1131.62 622.76 1130.91 623.863 1130.25 624.966C1129.94 625.434 1129.64 625.902 1129.38 626.403C1129.18 626.771 1128.94 627.172 1128.74 627.54C1128.11 628.61 1127.51 629.746 1126.9 630.849C1126.57 631.418 1126.27 631.986 1125.94 632.588C1125.77 632.922 1125.6 633.29 1125.4 633.624C1124.83 634.694 1124.26 635.83 1123.73 636.933C1123.4 637.602 1123.06 638.237 1122.73 638.939C1122.56 639.273 1122.43 639.608 1122.26 639.942C1121.69 641.112 1121.16 642.315 1120.62 643.519C1120.29 644.254 1119.95 644.956 1119.62 645.725C1119.49 646.026 1119.39 646.327 1119.25 646.628C1118.68 647.965 1118.12 649.369 1117.58 650.773C1117.28 651.542 1116.95 652.31 1116.61 653.113C1116.55 653.313 1116.45 653.547 1116.38 653.781C1115.68 655.62 1115.01 657.525 1114.34 659.464C1114.14 660.066 1113.91 660.668 1113.71 661.269C1113.71 661.336 1113.67 661.436 1113.64 661.503C1112.67 664.412 1111.77 667.387 1110.93 670.429C1110.87 670.663 1110.8 670.897 1110.7 671.164C1110.13 673.203 1109.6 675.276 1109.09 677.382C1109.06 677.549 1109.03 677.716 1108.99 677.85C1108.53 679.755 1108.09 681.661 1107.69 683.6C1107.62 683.934 1107.56 684.335 1107.49 684.669C1107.19 686.107 1106.92 687.544 1106.66 689.015C1106.39 690.452 1106.12 691.89 1105.89 693.361C1105.65 694.832 1105.42 696.369 1105.22 697.874C1105.05 699.01 1104.85 700.113 1104.72 701.25C1104.65 701.684 1104.62 702.119 1104.58 702.553C1104.45 703.523 1104.35 704.492 1104.25 705.462C1104.05 707.401 1103.85 709.34 1103.68 711.312C1103.58 712.382 1103.51 713.418 1103.41 714.487C1103.25 716.56 1103.15 718.633 1103.05 720.739C1103.01 721.708 1102.95 722.677 1102.91 723.647C1102.81 726.722 1102.71 729.865 1102.71 733.04C1102.71 734.311 1103.11 735.113 1103.78 735.481L1115.31 742.2C1114.67 741.832 1114.24 741.03 1114.24 739.759C1114.24 736.55 1114.34 733.441 1114.44 730.333C1114.47 729.363 1114.54 728.427 1114.57 727.458V727.558Z" fill="url(#paint37_linear_311_91)"/>
<path d="M1193.73 578.066C1194.87 577.431 1195.44 577.13 1195.47 577.096L1195.6 627.339C1194.2 627.975 1192.83 628.71 1191.46 629.512C1158.75 648.433 1132.78 707.601 1121.19 737.954C1120.46 739.893 1119.22 741.264 1118.02 741.999C1116.11 743.102 1114.21 742.534 1114.24 739.826C1114.51 628.643 1181.97 584.852 1193.73 578.032V578.066Z" fill="url(#paint38_linear_311_91)"/>
<path d="M1357.66 723.747C1357.63 722.778 1357.56 721.808 1357.53 720.839C1357.43 718.733 1357.29 716.627 1357.16 714.588C1357.09 713.518 1356.99 712.448 1356.89 711.412C1356.72 709.44 1356.52 707.468 1356.32 705.562C1356.22 704.593 1356.12 703.623 1355.99 702.654C1355.92 702.219 1355.89 701.785 1355.86 701.35C1355.72 700.214 1355.52 699.11 1355.35 697.974C1355.12 696.47 1354.92 694.932 1354.69 693.461C1354.45 691.99 1354.19 690.553 1353.92 689.115C1353.65 687.678 1353.38 686.207 1353.08 684.803C1353.02 684.435 1352.95 684.068 1352.88 683.733C1352.48 681.794 1352.01 679.889 1351.58 677.984C1351.55 677.816 1351.51 677.649 1351.48 677.516C1350.98 675.41 1350.44 673.337 1349.87 671.298C1349.81 671.064 1349.74 670.83 1349.64 670.562C1348.77 667.52 1347.87 664.512 1346.93 661.637C1346.93 661.57 1346.9 661.47 1346.87 661.403C1346.67 660.768 1346.43 660.2 1346.23 659.598C1345.56 657.692 1344.9 655.787 1344.19 653.915C1344.13 653.715 1344.03 653.48 1343.96 653.246C1343.66 652.444 1343.33 651.709 1342.99 650.906C1342.42 649.502 1341.89 648.132 1341.32 646.761C1341.19 646.461 1341.09 646.16 1340.95 645.859C1340.62 645.09 1340.29 644.388 1339.95 643.653C1339.42 642.449 1338.88 641.246 1338.31 640.076C1338.15 639.741 1338.01 639.407 1337.85 639.073C1337.51 638.371 1337.18 637.736 1336.84 637.067C1336.28 635.964 1335.74 634.827 1335.17 633.758C1335.01 633.423 1334.84 633.056 1334.64 632.721C1334.34 632.12 1334 631.585 1333.67 630.983C1333.07 629.847 1332.43 628.743 1331.83 627.674C1331.63 627.306 1331.4 626.905 1331.2 626.537C1330.9 626.036 1330.59 625.601 1330.33 625.1C1329.66 623.963 1328.99 622.86 1328.29 621.79C1328.02 621.389 1327.79 620.921 1327.52 620.52C1327.29 620.152 1327.05 619.851 1326.82 619.484C1325.95 618.147 1325.08 616.843 1324.18 615.573C1323.88 615.171 1323.61 614.703 1323.31 614.302C1323.21 614.135 1323.08 614.001 1322.98 613.834C1321.54 611.829 1320.1 609.856 1318.67 608.018C1318.6 607.917 1318.53 607.817 1318.47 607.717C1317.6 606.614 1316.73 605.544 1315.86 604.474C1315.76 604.341 1315.63 604.173 1315.53 604.04C1314.52 602.803 1313.52 601.633 1312.52 600.463C1312.45 600.396 1312.38 600.329 1312.32 600.262C1311.01 598.758 1309.71 597.321 1308.41 595.95C1308.07 595.616 1307.77 595.282 1307.44 594.947C1306.47 593.911 1305.5 592.942 1304.53 591.972C1304.37 591.805 1304.2 591.604 1304.03 591.437C1303.8 591.203 1303.56 590.969 1303.3 590.735C1302.33 589.799 1301.36 588.897 1300.42 588.027C1300.05 587.693 1299.72 587.359 1299.35 587.025C1298.12 585.888 1296.88 584.818 1295.71 583.816C1295.58 583.715 1295.48 583.615 1295.34 583.515C1294.27 582.612 1293.24 581.743 1292.24 580.941C1291.9 580.673 1291.57 580.406 1291.23 580.138C1290.43 579.503 1289.66 578.902 1288.89 578.333C1288.59 578.099 1288.29 577.899 1288.03 577.698C1287.06 576.963 1286.09 576.294 1285.22 575.692C1285.15 575.659 1285.12 575.626 1285.05 575.559C1284.22 574.99 1283.45 574.456 1282.71 573.988C1282.48 573.82 1282.25 573.687 1282.01 573.553C1281.48 573.219 1280.98 572.884 1280.51 572.617C1280.31 572.517 1280.14 572.383 1279.97 572.283C1279.4 571.948 1278.87 571.614 1278.44 571.38C1277.3 570.745 1276.73 570.444 1276.7 570.411L1265.17 577.13C1265.17 577.13 1265.91 577.531 1266.91 578.099C1267.34 578.333 1267.88 578.668 1268.45 579.002C1268.61 579.102 1268.81 579.236 1268.98 579.336C1269.45 579.603 1269.95 579.938 1270.48 580.272C1270.72 580.406 1270.95 580.573 1271.19 580.707C1271.89 581.175 1272.66 581.676 1273.49 582.244C1273.56 582.278 1273.62 582.345 1273.69 582.378C1274.56 582.98 1275.5 583.682 1276.5 584.384C1276.8 584.584 1277.1 584.818 1277.37 585.052C1278.1 585.621 1278.9 586.222 1279.71 586.824C1280.04 587.091 1280.37 587.359 1280.74 587.626C1281.74 588.429 1282.75 589.264 1283.82 590.167C1283.95 590.267 1284.08 590.401 1284.22 590.501C1285.39 591.504 1286.62 592.574 1287.86 593.71C1288.23 594.045 1288.59 594.379 1288.93 594.713C1289.86 595.582 1290.8 596.485 1291.77 597.421C1292.17 597.822 1292.6 598.223 1293.04 598.658C1294.01 599.627 1294.98 600.597 1295.94 601.633C1296.28 601.967 1296.58 602.301 1296.91 602.636C1298.22 604.006 1299.52 605.477 1300.82 606.981C1301.89 608.185 1302.96 609.455 1304.03 610.759C1304.16 610.893 1304.26 611.06 1304.4 611.227C1305.33 612.363 1306.27 613.533 1307.17 614.737C1308.61 616.609 1310.05 618.548 1311.48 620.553C1311.88 621.122 1312.28 621.723 1312.69 622.325C1313.55 623.595 1314.46 624.899 1315.32 626.236C1315.83 626.972 1316.29 627.741 1316.8 628.509C1317.46 629.613 1318.17 630.716 1318.83 631.819C1319.33 632.655 1319.84 633.524 1320.34 634.393C1320.97 635.463 1321.57 636.566 1322.17 637.702C1322.68 638.638 1323.18 639.541 1323.68 640.477C1324.25 641.547 1324.78 642.65 1325.35 643.786C1325.85 644.789 1326.35 645.759 1326.82 646.795C1327.39 647.965 1327.92 649.168 1328.46 650.372C1328.92 651.408 1329.39 652.411 1329.83 653.481C1330.39 654.818 1330.96 656.222 1331.5 657.592C1331.9 658.595 1332.3 659.565 1332.7 660.601C1333.4 662.439 1334.07 664.345 1334.7 666.25C1334.94 666.952 1335.21 667.621 1335.44 668.323C1336.41 671.198 1337.31 674.206 1338.15 677.248C1338.78 679.521 1339.42 681.828 1339.98 684.168C1340.02 684.335 1340.05 684.502 1340.08 684.669C1340.62 686.909 1341.12 689.182 1341.59 691.489C1341.89 692.893 1342.16 694.364 1342.42 695.801C1342.69 697.238 1342.96 698.676 1343.19 700.147C1343.43 701.618 1343.66 703.155 1343.86 704.66C1344.09 706.231 1344.33 707.768 1344.53 709.373C1344.66 710.309 1344.76 711.312 1344.86 712.248C1345.06 714.187 1345.26 716.125 1345.43 718.131C1345.53 719.167 1345.6 720.237 1345.7 721.307C1345.87 723.379 1345.97 725.452 1346.07 727.591C1346.1 728.561 1346.17 729.497 1346.2 730.466C1346.3 733.542 1346.4 736.684 1346.4 739.893C1346.4 741.163 1346 741.966 1345.33 742.333L1356.86 735.614C1357.49 735.247 1357.93 734.444 1357.93 733.174C1357.93 729.965 1357.83 726.856 1357.73 723.781L1357.66 723.747Z" fill="url(#paint39_linear_311_91)"/>
<path d="M1266.84 578.066C1265.71 577.431 1265.14 577.13 1265.1 577.096L1264.97 627.339C1266.37 627.975 1267.74 628.71 1269.11 629.512C1301.83 648.433 1327.79 707.601 1339.38 737.954C1340.12 739.893 1341.35 741.264 1342.56 741.999C1344.46 743.102 1346.37 742.534 1346.33 739.826C1346.07 628.643 1278.6 584.852 1266.84 578.032V578.066Z" fill="url(#paint40_linear_311_91)"/>
<path d="M1227.75 217.071C1223.34 217.138 1219.79 219.478 1219.83 222.32C1219.86 225.128 1223.5 227.367 1227.91 227.301C1232.32 227.234 1235.87 224.894 1235.83 222.052C1235.8 219.244 1232.16 217.005 1227.75 217.071Z" fill="url(#paint41_linear_311_91)"/>
<path d="M1227.85 180.367L1225.44 221.618C1225.44 222.487 1226.54 223.155 1227.88 223.122C1229.22 223.122 1230.29 222.387 1230.29 221.517L1227.88 180.333L1227.85 180.367Z" fill="url(#paint42_linear_311_91)"/>
<path d="M1313.55 473.201C1313.02 502.083 1276.5 525.884 1231.12 526.586C1185.11 527.321 1147.42 504.089 1146.95 474.638V755.404C1147.45 784.821 1185.14 808.087 1231.16 807.352C1277.17 806.617 1314.09 782.18 1313.62 752.73V473.167L1313.55 473.201Z" fill="url(#paint43_linear_311_91)"/>
<path d="M1354.45 672.869V672.201H1354.42C1354.42 672.435 1354.42 672.668 1354.45 672.869Z" fill="url(#paint44_linear_311_91)"/>
<path opacity="0.4" d="M1354.45 122.101C1353.65 165.157 1299.19 200.625 1231.52 201.728C1162.89 202.831 1106.69 168.165 1105.99 124.274V761.923C1106.72 805.781 1162.92 840.446 1231.56 839.376C1300.19 838.273 1355.25 801.836 1354.55 757.945L1354.49 122.101H1354.45Z" fill="url(#paint45_linear_311_91)"/>
<path d="M1396.65 654.483V653.547H1396.59C1396.59 653.848 1396.62 654.149 1396.65 654.483Z" fill="url(#paint46_linear_311_91)"/>
<path opacity="0.5" d="M1100.51 -18.5661C1076.35 -36.7178 1061.65 -60.1846 1061.25 -86.0583V774.726C1061.68 800.566 1076.38 824.066 1100.51 842.184V-18.5661Z" fill="url(#paint47_linear_311_91)"/>
<path opacity="0.5" d="M1152.63 868.225C1170.94 874.042 1191.16 877.786 1212.58 878.922V18.1384C1191.16 17.0018 1170.94 13.2912 1152.63 7.47467V868.225Z" fill="url(#paint48_linear_311_91)"/>
<path opacity="0.5" d="M1246.76 878.488C1268.24 876.85 1288.46 872.604 1306.7 866.32V5.53583C1288.46 11.8204 1268.21 16.0658 1246.76 17.7038V878.454V878.488Z" fill="url(#paint49_linear_311_91)"/>
<path opacity="0.5" d="M1328.02 857.628C1335.64 853.985 1342.79 849.973 1349.34 845.594V-15.2567C1342.76 -10.8776 1335.64 -6.83273 1328.02 -3.15559V857.628Z" fill="url(#paint50_linear_311_91)"/>
<path opacity="0.5" d="M1362.67 -25.2853V835.499C1384.36 817.013 1397.12 794.047 1396.72 769.344L1396.62 -89C1396.19 -65.2323 1383.59 -43.1695 1362.64 -25.2853H1362.67Z" fill="url(#paint51_linear_311_91)"/>
<g filter="url(#filter0_f_311_91)">
<rect x="1521" y="331" width="91" height="84" fill="url(#paint52_linear_311_91)"/>
</g>
<g filter="url(#filter1_f_311_91)">
<rect x="1430" y="185" width="91" height="84" fill="url(#paint53_linear_311_91)"/>
</g>
<g filter="url(#filter2_f_311_91)">
<rect x="963" y="143" width="29" height="29" fill="url(#paint54_linear_311_91)"/>
</g>
<g filter="url(#filter3_f_311_91)">
<rect x="1013" y="157" width="38" height="35" fill="url(#paint55_linear_311_91)"/>
</g>
<g filter="url(#filter4_f_311_91)">
<rect x="992" y="202" width="11" height="10" fill="url(#paint56_linear_311_91)"/>
</g>
<g filter="url(#filter5_f_311_91)">
<ellipse cx="1240.5" cy="311.5" rx="85.5" ry="88.5" fill="#EBC7FF" fill-opacity="0.2"/>
</g>
<g filter="url(#filter6_f_311_91)">
<ellipse cx="1170.5" cy="486.5" rx="85.5" ry="88.5" fill="#EBC7FF" fill-opacity="0.2"/>
</g>
</g>
<g filter="url(#filter7_f_311_91)">
<ellipse cx="641.5" cy="88.064" rx="79.4326" ry="88.064" fill="#EBC7FF" fill-opacity="0.2"/>
</g>
<g clip-path="url(#clip2_311_91)">
<g filter="url(#filter8_f_311_91)">
<ellipse cx="154.5" cy="923.5" rx="85.5" ry="88.5" fill="#EBC7FF" fill-opacity="0.2"/>
</g>
</g>
<g filter="url(#filter9_f_311_91)">
<rect x="101" y="157" width="91" height="84" fill="url(#paint57_linear_311_91)"/>
</g>
<g filter="url(#filter10_f_311_91)">
<rect x="45" y="260" width="91" height="84" fill="url(#paint58_linear_311_91)"/>
</g>
</g>
<defs>
<filter id="filter0_f_311_91" x="1517" y="327" width="99" height="92" filterUnits="userSpaceOnUse" color-interpolation-filters="sRGB">
<feFlood flood-opacity="0" result="BackgroundImageFix"/>
<feBlend mode="normal" in="SourceGraphic" in2="BackgroundImageFix" result="shape"/>
<feGaussianBlur stdDeviation="2" result="effect1_foregroundBlur_311_91"/>
</filter>
<filter id="filter1_f_311_91" x="1426" y="181" width="99" height="92" filterUnits="userSpaceOnUse" color-interpolation-filters="sRGB">
<feFlood flood-opacity="0" result="BackgroundImageFix"/>
<feBlend mode="normal" in="SourceGraphic" in2="BackgroundImageFix" result="shape"/>
<feGaussianBlur stdDeviation="2" result="effect1_foregroundBlur_311_91"/>
</filter>
<filter id="filter2_f_311_91" x="953" y="133" width="49" height="49" filterUnits="userSpaceOnUse" color-interpolation-filters="sRGB">
<feFlood flood-opacity="0" result="BackgroundImageFix"/>
<feBlend mode="normal" in="SourceGraphic" in2="BackgroundImageFix" result="shape"/>
<feGaussianBlur stdDeviation="5" result="effect1_foregroundBlur_311_91"/>
</filter>
<filter id="filter3_f_311_91" x="1003" y="147" width="58" height="55" filterUnits="userSpaceOnUse" color-interpolation-filters="sRGB">
<feFlood flood-opacity="0" result="BackgroundImageFix"/>
<feBlend mode="normal" in="SourceGraphic" in2="BackgroundImageFix" result="shape"/>
<feGaussianBlur stdDeviation="5" result="effect1_foregroundBlur_311_91"/>
</filter>
<filter id="filter4_f_311_91" x="982" y="192" width="31" height="30" filterUnits="userSpaceOnUse" color-interpolation-filters="sRGB">
<feFlood flood-opacity="0" result="BackgroundImageFix"/>
<feBlend mode="normal" in="SourceGraphic" in2="BackgroundImageFix" result="shape"/>
<feGaussianBlur stdDeviation="5" result="effect1_foregroundBlur_311_91"/>
</filter>
<filter id="filter5_f_311_91" x="1055" y="123" width="371" height="377" filterUnits="userSpaceOnUse" color-interpolation-filters="sRGB">
<feFlood flood-opacity="0" result="BackgroundImageFix"/>
<feBlend mode="normal" in="SourceGraphic" in2="BackgroundImageFix" result="shape"/>
<feGaussianBlur stdDeviation="50" result="effect1_foregroundBlur_311_91"/>
</filter>
<filter id="filter6_f_311_91" x="985" y="298" width="371" height="377" filterUnits="userSpaceOnUse" color-interpolation-filters="sRGB">
<feFlood flood-opacity="0" result="BackgroundImageFix"/>
<feBlend mode="normal" in="SourceGraphic" in2="BackgroundImageFix" result="shape"/>
<feGaussianBlur stdDeviation="50" result="effect1_foregroundBlur_311_91"/>
</filter>
<filter id="filter7_f_311_91" x="462.067" y="-100" width="358.865" height="376.128" filterUnits="userSpaceOnUse" color-interpolation-filters="sRGB">
<feFlood flood-opacity="0" result="BackgroundImageFix"/>
<feBlend mode="normal" in="SourceGraphic" in2="BackgroundImageFix" result="shape"/>
<feGaussianBlur stdDeviation="50" result="effect1_foregroundBlur_311_91"/>
</filter>
<filter id="filter8_f_311_91" x="-31" y="735" width="371" height="377" filterUnits="userSpaceOnUse" color-interpolation-filters="sRGB">
<feFlood flood-opacity="0" result="BackgroundImageFix"/>
<feBlend mode="normal" in="SourceGraphic" in2="BackgroundImageFix" result="shape"/>
<feGaussianBlur stdDeviation="50" result="effect1_foregroundBlur_311_91"/>
</filter>
<filter id="filter9_f_311_91" x="91" y="147" width="111" height="104" filterUnits="userSpaceOnUse" color-interpolation-filters="sRGB">
<feFlood flood-opacity="0" result="BackgroundImageFix"/>
<feBlend mode="normal" in="SourceGraphic" in2="BackgroundImageFix" result="shape"/>
<feGaussianBlur stdDeviation="5" result="effect1_foregroundBlur_311_91"/>
</filter>
<filter id="filter10_f_311_91" x="35" y="250" width="111" height="104" filterUnits="userSpaceOnUse" color-interpolation-filters="sRGB">
<feFlood flood-opacity="0" result="BackgroundImageFix"/>
<feBlend mode="normal" in="SourceGraphic" in2="BackgroundImageFix" result="shape"/>
<feGaussianBlur stdDeviation="5" result="effect1_foregroundBlur_311_91"/>
</filter>
<linearGradient id="paint0_linear_311_91" x1="1048.78" y1="773.768" x2="1409.21" y2="773.768" gradientUnits="userSpaceOnUse">
<stop stop-color="#27FFF9"/>
<stop offset="0.05" stop-color="#43E2F2"/>
<stop offset="0.12" stop-color="#6FB6E8"/>
<stop offset="0.21" stop-color="#9590DF"/>
<stop offset="0.3" stop-color="#B66FD7"/>
<stop offset="0.4" stop-color="#D154D1"/>
<stop offset="0.5" stop-color="#E540CC"/>
<stop offset="0.62" stop-color="#F332C9"/>
<stop offset="0.77" stop-color="#FC29C7"/>
<stop offset="1" stop-color="#FF27C7"/>
</linearGradient>
<linearGradient id="paint1_linear_311_91" x1="1035.31" y1="773.768" x2="1422.68" y2="773.768" gradientUnits="userSpaceOnUse">
<stop stop-color="#27FFF9"/>
<stop offset="0.05" stop-color="#43E2F2"/>
<stop offset="0.12" stop-color="#6FB6E8"/>
<stop offset="0.21" stop-color="#9590DF"/>
<stop offset="0.3" stop-color="#B66FD7"/>
<stop offset="0.4" stop-color="#D154D1"/>
<stop offset="0.5" stop-color="#E540CC"/>
<stop offset="0.62" stop-color="#F332C9"/>
<stop offset="0.77" stop-color="#FC29C7"/>
<stop offset="1" stop-color="#FF27C7"/>
</linearGradient>
<linearGradient id="paint2_linear_311_91" x1="1022.65" y1="773.768" x2="1435.31" y2="773.768" gradientUnits="userSpaceOnUse">
<stop stop-color="#27FFF9"/>
<stop offset="0.05" stop-color="#43E2F2"/>
<stop offset="0.12" stop-color="#6FB6E8"/>
<stop offset="0.21" stop-color="#9590DF"/>
<stop offset="0.3" stop-color="#B66FD7"/>
<stop offset="0.4" stop-color="#D154D1"/>
<stop offset="0.5" stop-color="#E540CC"/>
<stop offset="0.62" stop-color="#F332C9"/>
<stop offset="0.77" stop-color="#FC29C7"/>
<stop offset="1" stop-color="#FF27C7"/>
</linearGradient>
<linearGradient id="paint3_linear_311_91" x1="1009.35" y1="773.768" x2="1448.64" y2="773.768" gradientUnits="userSpaceOnUse">
<stop stop-color="#27FFF9"/>
<stop offset="0.05" stop-color="#43E2F2"/>
<stop offset="0.12" stop-color="#6FB6E8"/>
<stop offset="0.21" stop-color="#9590DF"/>
<stop offset="0.3" stop-color="#B66FD7"/>
<stop offset="0.4" stop-color="#D154D1"/>
<stop offset="0.5" stop-color="#E540CC"/>
<stop offset="0.62" stop-color="#F332C9"/>
<stop offset="0.77" stop-color="#FC29C7"/>
<stop offset="1" stop-color="#FF27C7"/>
</linearGradient>
<linearGradient id="paint4_linear_311_91" x1="993.478" y1="773.768" x2="1464.51" y2="773.768" gradientUnits="userSpaceOnUse">
<stop stop-color="#27FFF9"/>
<stop offset="0.05" stop-color="#43E2F2"/>
<stop offset="0.12" stop-color="#6FB6E8"/>
<stop offset="0.21" stop-color="#9590DF"/>
<stop offset="0.3" stop-color="#B66FD7"/>
<stop offset="0.4" stop-color="#D154D1"/>
<stop offset="0.5" stop-color="#E540CC"/>
<stop offset="0.62" stop-color="#F332C9"/>
<stop offset="0.77" stop-color="#FC29C7"/>
<stop offset="1" stop-color="#FF27C7"/>
</linearGradient>
<linearGradient id="paint5_linear_311_91" x1="976.337" y1="773.768" x2="1481.65" y2="773.768" gradientUnits="userSpaceOnUse">
<stop stop-color="#27FFF9"/>
<stop offset="0.05" stop-color="#43E2F2"/>
<stop offset="0.12" stop-color="#6FB6E8"/>
<stop offset="0.21" stop-color="#9590DF"/>
<stop offset="0.3" stop-color="#B66FD7"/>
<stop offset="0.4" stop-color="#D154D1"/>
<stop offset="0.5" stop-color="#E540CC"/>
<stop offset="0.62" stop-color="#F332C9"/>
<stop offset="0.77" stop-color="#FC29C7"/>
<stop offset="1" stop-color="#FF27C7"/>
</linearGradient>
<linearGradient id="paint6_linear_311_91" x1="959.229" y1="773.768" x2="1498.76" y2="773.768" gradientUnits="userSpaceOnUse">
<stop stop-color="#27FFF9"/>
<stop offset="0.05" stop-color="#43E2F2"/>
<stop offset="0.12" stop-color="#6FB6E8"/>
<stop offset="0.21" stop-color="#9590DF"/>
<stop offset="0.3" stop-color="#B66FD7"/>
<stop offset="0.4" stop-color="#D154D1"/>
<stop offset="0.5" stop-color="#E540CC"/>
<stop offset="0.62" stop-color="#F332C9"/>
<stop offset="0.77" stop-color="#FC29C7"/>
<stop offset="1" stop-color="#FF27C7"/>
</linearGradient>
<linearGradient id="paint7_linear_311_91" x1="938.913" y1="773.768" x2="1519.08" y2="773.768" gradientUnits="userSpaceOnUse">
<stop stop-color="#27FFF9"/>
<stop offset="0.05" stop-color="#43E2F2"/>
<stop offset="0.12" stop-color="#6FB6E8"/>
<stop offset="0.21" stop-color="#9590DF"/>
<stop offset="0.3" stop-color="#B66FD7"/>
<stop offset="0.4" stop-color="#D154D1"/>
<stop offset="0.5" stop-color="#E540CC"/>
<stop offset="0.62" stop-color="#F332C9"/>
<stop offset="0.77" stop-color="#FC29C7"/>
<stop offset="1" stop-color="#FF27C7"/>
</linearGradient>
<linearGradient id="paint8_linear_311_91" x1="915.457" y1="773.768" x2="1542.53" y2="773.768" gradientUnits="userSpaceOnUse">
<stop stop-color="#27FFF9"/>
<stop offset="0.05" stop-color="#43E2F2"/>
<stop offset="0.12" stop-color="#6FB6E8"/>
<stop offset="0.21" stop-color="#9590DF"/>
<stop offset="0.3" stop-color="#B66FD7"/>
<stop offset="0.4" stop-color="#D154D1"/>
<stop offset="0.5" stop-color="#E540CC"/>
<stop offset="0.62" stop-color="#F332C9"/>
<stop offset="0.77" stop-color="#FC29C7"/>
<stop offset="1" stop-color="#FF27C7"/>
</linearGradient>
<linearGradient id="paint9_linear_311_91" x1="890.764" y1="773.768" x2="1567.23" y2="773.768" gradientUnits="userSpaceOnUse">
<stop stop-color="#27FFF9"/>
<stop offset="0.05" stop-color="#43E2F2"/>
<stop offset="0.12" stop-color="#6FB6E8"/>
<stop offset="0.21" stop-color="#9590DF"/>
<stop offset="0.3" stop-color="#B66FD7"/>
<stop offset="0.4" stop-color="#D154D1"/>
<stop offset="0.5" stop-color="#E540CC"/>
<stop offset="0.62" stop-color="#F332C9"/>
<stop offset="0.77" stop-color="#FC29C7"/>
<stop offset="1" stop-color="#FF27C7"/>
</linearGradient>
<linearGradient id="paint10_linear_311_91" x1="858.453" y1="773.768" x2="1599.54" y2="773.768" gradientUnits="userSpaceOnUse">
<stop stop-color="#27FFF9"/>
<stop offset="0.05" stop-color="#43E2F2"/>
<stop offset="0.12" stop-color="#6FB6E8"/>
<stop offset="0.21" stop-color="#9590DF"/>
<stop offset="0.3" stop-color="#B66FD7"/>
<stop offset="0.4" stop-color="#D154D1"/>
<stop offset="0.5" stop-color="#E540CC"/>
<stop offset="0.62" stop-color="#F332C9"/>
<stop offset="0.77" stop-color="#FC29C7"/>
<stop offset="1" stop-color="#FF27C7"/>
</linearGradient>
<linearGradient id="paint11_linear_311_91" x1="820.996" y1="773.768" x2="1637" y2="773.768" gradientUnits="userSpaceOnUse">
<stop stop-color="#27FFF9"/>
<stop offset="0.05" stop-color="#43E2F2"/>
<stop offset="0.12" stop-color="#6FB6E8"/>
<stop offset="0.21" stop-color="#9590DF"/>
<stop offset="0.3" stop-color="#B66FD7"/>
<stop offset="0.4" stop-color="#D154D1"/>
<stop offset="0.5" stop-color="#E540CC"/>
<stop offset="0.62" stop-color="#F332C9"/>
<stop offset="0.77" stop-color="#FC29C7"/>
<stop offset="1" stop-color="#FF27C7"/>
</linearGradient>
<linearGradient id="paint12_linear_311_91" x1="1060.84" y1="771.629" x2="1397.15" y2="771.629" gradientUnits="userSpaceOnUse">
<stop stop-color="#27FFF9"/>
<stop offset="0.05" stop-color="#43E2F2"/>
<stop offset="0.12" stop-color="#6FB6E8"/>
<stop offset="0.21" stop-color="#9590DF"/>
<stop offset="0.3" stop-color="#B66FD7"/>
<stop offset="0.4" stop-color="#D154D1"/>
<stop offset="0.5" stop-color="#E540CC"/>
<stop offset="0.62" stop-color="#F332C9"/>
<stop offset="0.77" stop-color="#FC29C7"/>
<stop offset="1" stop-color="#FF27C7"/>
</linearGradient>
<linearGradient id="paint13_linear_311_91" x1="1090.58" y1="811.029" x2="1366.18" y2="811.029" gradientUnits="userSpaceOnUse">
<stop stop-color="#1BCCC3"/>
<stop offset="0.01" stop-color="#1BC0BA"/>
<stop offset="0.07" stop-color="#1C949C"/>
<stop offset="0.13" stop-color="#1D6D81"/>
<stop offset="0.2" stop-color="#1E4D6A"/>
<stop offset="0.27" stop-color="#1F3258"/>
<stop offset="0.35" stop-color="#201E49"/>
<stop offset="0.43" stop-color="#20103F"/>
<stop offset="0.54" stop-color="#200739"/>
<stop offset="0.71" stop-color="#210538"/>
<stop offset="0.82" stop-color="#220539"/>
<stop offset="0.86" stop-color="#29063F"/>
<stop offset="0.89" stop-color="#350849"/>
<stop offset="0.91" stop-color="#460B57"/>
<stop offset="0.93" stop-color="#5C0F6A"/>
<stop offset="0.95" stop-color="#771481"/>
<stop offset="0.97" stop-color="#981A9C"/>
<stop offset="0.98" stop-color="#BD21BC"/>
<stop offset="0.99" stop-color="#E629DF"/>
<stop offset="1" stop-color="#FF2EF4"/>
</linearGradient>
<linearGradient id="paint14_linear_311_91" x1="1090.58" y1="761.704" x2="1366.14" y2="761.704" gradientUnits="userSpaceOnUse">
<stop stop-color="#21197E"/>
<stop offset="0.12" stop-color="#1C4B63"/>
<stop offset="0.24" stop-color="#263060"/>
<stop offset="0.37" stop-color="#2E1C5E"/>
<stop offset="0.52" stop-color="#330E5C"/>
<stop offset="0.7" stop-color="#37055B"/>
<stop offset="1" stop-color="#38035B"/>
</linearGradient>
<linearGradient id="paint15_linear_311_91" x1="1133.08" y1="761.67" x2="1323.71" y2="761.67" gradientUnits="userSpaceOnUse">
<stop stop-color="#27FFF9"/>
<stop offset="0.05" stop-color="#43E2F2"/>
<stop offset="0.12" stop-color="#6FB6E8"/>
<stop offset="0.21" stop-color="#9590DF"/>
<stop offset="0.3" stop-color="#B66FD7"/>
<stop offset="0.4" stop-color="#D154D1"/>
<stop offset="0.5" stop-color="#E540CC"/>
<stop offset="0.62" stop-color="#F332C9"/>
<stop offset="0.77" stop-color="#FC29C7"/>
<stop offset="1" stop-color="#FF27C7"/>
</linearGradient>
<linearGradient id="paint16_linear_311_91" x1="1113.47" y1="761.67" x2="1343.32" y2="761.67" gradientUnits="userSpaceOnUse">
<stop stop-color="#27FFF9"/>
<stop offset="0.05" stop-color="#43E2F2"/>
<stop offset="0.12" stop-color="#6FB6E8"/>
<stop offset="0.21" stop-color="#9590DF"/>
<stop offset="0.3" stop-color="#B66FD7"/>
<stop offset="0.4" stop-color="#D154D1"/>
<stop offset="0.5" stop-color="#E540CC"/>
<stop offset="0.62" stop-color="#F332C9"/>
<stop offset="0.77" stop-color="#FC29C7"/>
<stop offset="1" stop-color="#FF27C7"/>
</linearGradient>
<linearGradient id="paint17_linear_311_91" x1="1227.91" y1="892.762" x2="1227.91" y2="602.068" gradientUnits="userSpaceOnUse">
<stop stop-color="#9027FF" stop-opacity="0"/>
<stop offset="0.22" stop-color="#9127FE" stop-opacity="0.01"/>
<stop offset="0.36" stop-color="#9427FD" stop-opacity="0.04"/>
<stop offset="0.47" stop-color="#9B27FB" stop-opacity="0.1"/>
<stop offset="0.57" stop-color="#A327F7" stop-opacity="0.18"/>
<stop offset="0.66" stop-color="#AF27F3" stop-opacity="0.28"/>
<stop offset="0.75" stop-color="#BD27EE" stop-opacity="0.41"/>
<stop offset="0.83" stop-color="#CE28E8" stop-opacity="0.56"/>
<stop offset="0.91" stop-color="#E228E1" stop-opacity="0.74"/>
<stop offset="0.98" stop-color="#F728D9" stop-opacity="0.93"/>
<stop offset="1" stop-color="#FF29D7"/>
</linearGradient>
<linearGradient id="paint18_linear_311_91" x1="1227.91" y1="892.762" x2="1227.91" y2="640.276" gradientUnits="userSpaceOnUse">
<stop stop-color="#9027FF" stop-opacity="0"/>
<stop offset="0.22" stop-color="#9127FE" stop-opacity="0.01"/>
<stop offset="0.36" stop-color="#9427FD" stop-opacity="0.04"/>
<stop offset="0.47" stop-color="#9B27FB" stop-opacity="0.1"/>
<stop offset="0.57" stop-color="#A327F7" stop-opacity="0.18"/>
<stop offset="0.66" stop-color="#AF27F3" stop-opacity="0.28"/>
<stop offset="0.75" stop-color="#BD27EE" stop-opacity="0.41"/>
<stop offset="0.83" stop-color="#CE28E8" stop-opacity="0.56"/>
<stop offset="0.91" stop-color="#E228E1" stop-opacity="0.74"/>
<stop offset="0.98" stop-color="#F728D9" stop-opacity="0.93"/>
<stop offset="1" stop-color="#FF29D7"/>
</linearGradient>
<linearGradient id="paint19_linear_311_91" x1="1227.91" y1="879.658" x2="1227.91" y2="651.04" gradientUnits="userSpaceOnUse">
<stop stop-color="#9027FF" stop-opacity="0"/>
<stop offset="0.22" stop-color="#9127FE" stop-opacity="0.01"/>
<stop offset="0.36" stop-color="#9427FD" stop-opacity="0.04"/>
<stop offset="0.47" stop-color="#9B27FB" stop-opacity="0.1"/>
<stop offset="0.57" stop-color="#A327F7" stop-opacity="0.18"/>
<stop offset="0.66" stop-color="#AF27F3" stop-opacity="0.28"/>
<stop offset="0.75" stop-color="#BD27EE" stop-opacity="0.41"/>
<stop offset="0.83" stop-color="#CE28E8" stop-opacity="0.56"/>
<stop offset="0.91" stop-color="#E228E1" stop-opacity="0.74"/>
<stop offset="0.98" stop-color="#F728D9" stop-opacity="0.93"/>
<stop offset="1" stop-color="#FF29D7"/>
</linearGradient>
<linearGradient id="paint20_linear_311_91" x1="1227.91" y1="821.358" x2="1227.91" y2="645.859" gradientUnits="userSpaceOnUse">
<stop stop-color="#9027FF" stop-opacity="0"/>
<stop offset="0.22" stop-color="#9127FE" stop-opacity="0.01"/>
<stop offset="0.36" stop-color="#9429FE" stop-opacity="0.04"/>
<stop offset="0.47" stop-color="#9B2DFC" stop-opacity="0.1"/>
<stop offset="0.57" stop-color="#A331FB" stop-opacity="0.18"/>
<stop offset="0.66" stop-color="#AF38F8" stop-opacity="0.28"/>
<stop offset="0.75" stop-color="#BD40F5" stop-opacity="0.41"/>
<stop offset="0.83" stop-color="#CE49F2" stop-opacity="0.56"/>
<stop offset="0.91" stop-color="#E254EE" stop-opacity="0.74"/>
<stop offset="0.98" stop-color="#F760EA" stop-opacity="0.93"/>
<stop offset="1" stop-color="#FF64E9"/>
</linearGradient>
<linearGradient id="paint21_linear_311_91" x1="1228.08" y1="879.658" x2="1228.08" y2="667.888" gradientUnits="userSpaceOnUse">
<stop offset="0.36" stop-color="white" stop-opacity="0"/>
<stop offset="0.6" stop-color="#FFFEFE" stop-opacity="0"/>
<stop offset="0.68" stop-color="#FFFEFE" stop-opacity="0.03"/>
<stop offset="0.74" stop-color="#FFFEFE" stop-opacity="0.08"/>
<stop offset="0.79" stop-color="#FFFDFE" stop-opacity="0.15"/>
<stop offset="0.84" stop-color="#FFFDFE" stop-opacity="0.23"/>
<stop offset="0.87" stop-color="#FFFCFE" stop-opacity="0.34"/>
<stop offset="0.91" stop-color="#FFFBFE" stop-opacity="0.47"/>
<stop offset="0.94" stop-color="#FFFAFE" stop-opacity="0.61"/>
<stop offset="0.97" stop-color="#FFF9FE" stop-opacity="0.78"/>
<stop offset="1" stop-color="#FFF8FE"/>
</linearGradient>
<linearGradient id="paint22_linear_311_91" x1="1087.88" y1="603.672" x2="1127.41" y2="603.672" gradientUnits="userSpaceOnUse">
<stop stop-color="#BC46FA"/>
<stop offset="0.09" stop-color="#9836CE"/>
<stop offset="0.18" stop-color="#7829A7"/>
<stop offset="0.27" stop-color="#5E1D87"/>
<stop offset="0.37" stop-color="#48146C"/>
<stop offset="0.48" stop-color="#370D58"/>
<stop offset="0.61" stop-color="#2C074A"/>
<stop offset="0.76" stop-color="#250441"/>
<stop offset="1" stop-color="#23043F"/>
</linearGradient>
<linearGradient id="paint23_linear_311_91" x1="1169.14" y1="595.749" x2="1169.14" y2="538.787" gradientUnits="userSpaceOnUse">
<stop stop-color="#BC46FA"/>
<stop offset="0.09" stop-color="#9836CE"/>
<stop offset="0.18" stop-color="#7829A7"/>
<stop offset="0.27" stop-color="#5E1D87"/>
<stop offset="0.37" stop-color="#48146C"/>
<stop offset="0.48" stop-color="#370D58"/>
<stop offset="0.61" stop-color="#2C074A"/>
<stop offset="0.76" stop-color="#250441"/>
<stop offset="1" stop-color="#23043F"/>
</linearGradient>
<linearGradient id="paint24_linear_311_91" x1="1108.13" y1="536.481" x2="1174.99" y2="536.481" gradientUnits="userSpaceOnUse">
<stop stop-color="#BC46FA"/>
<stop offset="0.09" stop-color="#9836CE"/>
<stop offset="0.18" stop-color="#7829A7"/>
<stop offset="0.27" stop-color="#5E1D87"/>
<stop offset="0.37" stop-color="#48146C"/>
<stop offset="0.48" stop-color="#370D58"/>
<stop offset="0.61" stop-color="#2C074A"/>
<stop offset="0.76" stop-color="#250441"/>
<stop offset="1" stop-color="#23043F"/>
</linearGradient>
<linearGradient id="paint25_linear_311_91" x1="1079.52" y1="614.202" x2="1162.62" y2="544.506" gradientUnits="userSpaceOnUse">
<stop stop-color="#BC46FA"/>
<stop offset="0.09" stop-color="#9836CE"/>
<stop offset="0.18" stop-color="#7829A7"/>
<stop offset="0.27" stop-color="#5E1D87"/>
<stop offset="0.37" stop-color="#48146C"/>
<stop offset="0.48" stop-color="#370D58"/>
<stop offset="0.61" stop-color="#2C074A"/>
<stop offset="0.76" stop-color="#250441"/>
<stop offset="1" stop-color="#23043F"/>
</linearGradient>
<linearGradient id="paint26_linear_311_91" x1="1329.73" y1="603.672" x2="1369.25" y2="603.672" gradientUnits="userSpaceOnUse">
<stop stop-color="#23043F"/>
<stop offset="0.24" stop-color="#250441"/>
<stop offset="0.39" stop-color="#2C074A"/>
<stop offset="0.52" stop-color="#370D58"/>
<stop offset="0.63" stop-color="#48146C"/>
<stop offset="0.73" stop-color="#5E1D87"/>
<stop offset="0.82" stop-color="#7829A7"/>
<stop offset="0.91" stop-color="#9836CE"/>
<stop offset="0.99" stop-color="#BC46FA"/>
<stop offset="1" stop-color="#C048FF"/>
</linearGradient>
<linearGradient id="paint27_linear_311_91" x1="1282.15" y1="567.268" x2="1293.84" y2="567.268" gradientUnits="userSpaceOnUse">
<stop stop-color="#BC46FA"/>
<stop offset="0.09" stop-color="#9836CE"/>
<stop offset="0.18" stop-color="#7829A7"/>
<stop offset="0.27" stop-color="#5E1D87"/>
<stop offset="0.37" stop-color="#48146C"/>
<stop offset="0.48" stop-color="#370D58"/>
<stop offset="0.61" stop-color="#2C074A"/>
<stop offset="0.76" stop-color="#250441"/>
<stop offset="1" stop-color="#23043F"/>
</linearGradient>
<linearGradient id="paint28_linear_311_91" x1="1282.14" y1="536.481" x2="1349.01" y2="536.481" gradientUnits="userSpaceOnUse">
<stop stop-color="#23043F"/>
<stop offset="0.24" stop-color="#250441"/>
<stop offset="0.39" stop-color="#2C074A"/>
<stop offset="0.52" stop-color="#370D58"/>
<stop offset="0.63" stop-color="#48146C"/>
<stop offset="0.73" stop-color="#5E1D87"/>
<stop offset="0.82" stop-color="#7829A7"/>
<stop offset="0.91" stop-color="#9836CE"/>
<stop offset="0.99" stop-color="#BC46FA"/>
<stop offset="1" stop-color="#C048FF"/>
</linearGradient>
<linearGradient id="paint29_linear_311_91" x1="1334.64" y1="621.021" x2="1334.64" y2="534.141" gradientUnits="userSpaceOnUse">
<stop stop-color="#BC46FA"/>
<stop offset="0.09" stop-color="#9836CE"/>
<stop offset="0.18" stop-color="#7829A7"/>
<stop offset="0.27" stop-color="#5E1D87"/>
<stop offset="0.37" stop-color="#48146C"/>
<stop offset="0.48" stop-color="#370D58"/>
<stop offset="0.61" stop-color="#2C074A"/>
<stop offset="0.76" stop-color="#250441"/>
<stop offset="1" stop-color="#23043F"/>
</linearGradient>
<linearGradient id="paint30_linear_311_91" x1="1227.91" y1="683.934" x2="1227.91" y2="324.778" gradientUnits="userSpaceOnUse">
<stop stop-color="#C048FF"/>
<stop offset="0.07" stop-color="#9F3ADA"/>
<stop offset="0.16" stop-color="#7E2CB4"/>
<stop offset="0.26" stop-color="#612094"/>
<stop offset="0.36" stop-color="#491679"/>
<stop offset="0.47" stop-color="#370F65"/>
<stop offset="0.6" stop-color="#2A0A57"/>
<stop offset="0.75" stop-color="#23064E"/>
<stop offset="1" stop-color="#21064C"/>
</linearGradient>
<linearGradient id="paint31_linear_311_91" x1="1156.78" y1="300.877" x2="1298.42" y2="300.877" gradientUnits="userSpaceOnUse">
<stop stop-color="#27FFF9"/>
<stop offset="0.02" stop-color="#27F1F0"/>
<stop offset="0.09" stop-color="#2BBFD1"/>
<stop offset="0.17" stop-color="#2E92B5"/>
<stop offset="0.25" stop-color="#306C9C"/>
<stop offset="0.33" stop-color="#334B88"/>
<stop offset="0.43" stop-color="#343077"/>
<stop offset="0.53" stop-color="#361C6A"/>
<stop offset="0.64" stop-color="#370E61"/>
<stop offset="0.78" stop-color="#37055C"/>
<stop offset="1" stop-color="#38035B"/>
</linearGradient>
<linearGradient id="paint32_linear_311_91" x1="1207.57" y1="518.764" x2="1165.54" y2="445.972" gradientUnits="userSpaceOnUse">
<stop stop-color="#38035B"/>
<stop offset="0.07" stop-color="#370B60"/>
<stop offset="0.17" stop-color="#35216E"/>
<stop offset="0.3" stop-color="#334685"/>
<stop offset="0.44" stop-color="#3079A5"/>
<stop offset="0.6" stop-color="#2BB9CD"/>
<stop offset="0.76" stop-color="#27FFF9"/>
<stop offset="1" stop-color="#38035B"/>
</linearGradient>
<linearGradient id="paint33_linear_311_91" x1="1140.47" y1="491.018" x2="1200.35" y2="491.018" gradientUnits="userSpaceOnUse">
<stop stop-color="#812BB9"/>
<stop offset="0.28" stop-color="#334685"/>
<stop offset="0.94" stop-color="#28EEEE"/>
<stop offset="1" stop-color="#27FFF9"/>
</linearGradient>
<linearGradient id="paint34_linear_311_91" x1="1140.47" y1="491.018" x2="1200.35" y2="491.018" gradientUnits="userSpaceOnUse">
<stop stop-color="#812BB9"/>
<stop offset="0.28" stop-color="#334685"/>
<stop offset="0.94" stop-color="#28EEEE"/>
<stop offset="1" stop-color="#27FFF9"/>
</linearGradient>
<linearGradient id="paint35_linear_311_91" x1="1144.05" y1="490.918" x2="1194.6" y2="490.918" gradientUnits="userSpaceOnUse">
<stop stop-color="#952BA0"/>
<stop offset="0.5" stop-color="#68177F"/>
<stop offset="1" stop-color="#38035B"/>
</linearGradient>
<linearGradient id="paint36_linear_311_91" x1="1167.4" y1="525.249" x2="1160.28" y2="457.791" gradientUnits="userSpaceOnUse">
<stop stop-color="#27FFF9"/>
<stop offset="0.06" stop-color="#28EAEC"/>
<stop offset="0.26" stop-color="#2DA5C0"/>
<stop offset="0.45" stop-color="#306B9C"/>
<stop offset="0.63" stop-color="#343E80"/>
<stop offset="0.78" stop-color="#361D6B"/>
<stop offset="0.91" stop-color="#370A5F"/>
<stop offset="1" stop-color="#38035B"/>
</linearGradient>
<linearGradient id="paint37_linear_311_91" x1="1102.71" y1="656.355" x2="1195.47" y2="656.355" gradientUnits="userSpaceOnUse">
<stop stop-color="#BC46FA"/>
<stop offset="0.09" stop-color="#9836CE"/>
<stop offset="0.18" stop-color="#7829A7"/>
<stop offset="0.27" stop-color="#5E1D87"/>
<stop offset="0.37" stop-color="#48146C"/>
<stop offset="0.48" stop-color="#370D58"/>
<stop offset="0.61" stop-color="#2C074A"/>
<stop offset="0.76" stop-color="#250441"/>
<stop offset="1" stop-color="#23043F"/>
</linearGradient>
<linearGradient id="paint38_linear_311_91" x1="1154.94" y1="742.534" x2="1154.94" y2="577.13" gradientUnits="userSpaceOnUse">
<stop stop-color="#BC46FA"/>
<stop offset="0.09" stop-color="#9836CE"/>
<stop offset="0.18" stop-color="#7829A7"/>
<stop offset="0.27" stop-color="#5E1D87"/>
<stop offset="0.37" stop-color="#48146C"/>
<stop offset="0.48" stop-color="#370D58"/>
<stop offset="0.61" stop-color="#2C074A"/>
<stop offset="0.76" stop-color="#250441"/>
<stop offset="1" stop-color="#23043F"/>
</linearGradient>
<linearGradient id="paint39_linear_311_91" x1="1265.1" y1="656.355" x2="1357.86" y2="656.355" gradientUnits="userSpaceOnUse">
<stop stop-color="#23043F"/>
<stop offset="0.24" stop-color="#250441"/>
<stop offset="0.39" stop-color="#2C074A"/>
<stop offset="0.52" stop-color="#370D58"/>
<stop offset="0.63" stop-color="#48146C"/>
<stop offset="0.73" stop-color="#5E1D87"/>
<stop offset="0.82" stop-color="#7829A7"/>
<stop offset="0.91" stop-color="#9836CE"/>
<stop offset="0.99" stop-color="#BC46FA"/>
<stop offset="1" stop-color="#C048FF"/>
</linearGradient>
<linearGradient id="paint40_linear_311_91" x1="1305.63" y1="742.534" x2="1305.63" y2="577.13" gradientUnits="userSpaceOnUse">
<stop stop-color="#BC46FA"/>
<stop offset="0.09" stop-color="#9836CE"/>
<stop offset="0.18" stop-color="#7829A7"/>
<stop offset="0.27" stop-color="#5E1D87"/>
<stop offset="0.37" stop-color="#48146C"/>
<stop offset="0.48" stop-color="#370D58"/>
<stop offset="0.61" stop-color="#2C074A"/>
<stop offset="0.76" stop-color="#250441"/>
<stop offset="1" stop-color="#23043F"/>
</linearGradient>
<linearGradient id="paint41_linear_311_91" x1="1219.83" y1="222.186" x2="1235.83" y2="222.186" gradientUnits="userSpaceOnUse">
<stop stop-color="#27FFF9"/>
<stop offset="0.02" stop-color="#27F1F0"/>
<stop offset="0.09" stop-color="#2BBFD1"/>
<stop offset="0.17" stop-color="#2E92B5"/>
<stop offset="0.25" stop-color="#306C9C"/>
<stop offset="0.33" stop-color="#334B88"/>
<stop offset="0.43" stop-color="#343077"/>
<stop offset="0.53" stop-color="#361C6A"/>
<stop offset="0.64" stop-color="#370E61"/>
<stop offset="0.78" stop-color="#37055C"/>
<stop offset="1" stop-color="#38035B"/>
</linearGradient>
<linearGradient id="paint42_linear_311_91" x1="1225.41" y1="201.761" x2="1230.25" y2="201.761" gradientUnits="userSpaceOnUse">
<stop stop-color="#27FFF9"/>
<stop offset="0.02" stop-color="#27F1F0"/>
<stop offset="0.09" stop-color="#2BBFD1"/>
<stop offset="0.17" stop-color="#2E92B5"/>
<stop offset="0.25" stop-color="#306C9C"/>
<stop offset="0.33" stop-color="#334B88"/>
<stop offset="0.43" stop-color="#343077"/>
<stop offset="0.53" stop-color="#361C6A"/>
<stop offset="0.64" stop-color="#370E61"/>
<stop offset="0.78" stop-color="#37055C"/>
<stop offset="1" stop-color="#38035B"/>
</linearGradient>
<linearGradient id="paint43_linear_311_91" x1="1230.25" y1="807.352" x2="1230.25" y2="473.201" gradientUnits="userSpaceOnUse">
<stop stop-color="#D529FF" stop-opacity="0.96"/>
<stop offset="0.05" stop-color="#D529FF" stop-opacity="0.78"/>
<stop offset="0.09" stop-color="#D529FF" stop-opacity="0.61"/>
<stop offset="0.14" stop-color="#D529FF" stop-opacity="0.47"/>
<stop offset="0.2" stop-color="#D529FF" stop-opacity="0.34"/>
<stop offset="0.25" stop-color="#D529FF" stop-opacity="0.23"/>
<stop offset="0.32" stop-color="#D529FF" stop-opacity="0.15"/>
<stop offset="0.4" stop-color="#D529FF" stop-opacity="0.08"/>
<stop offset="0.49" stop-color="#D529FF" stop-opacity="0.03"/>
<stop offset="0.63" stop-color="#D529FF" stop-opacity="0"/>
<stop offset="1" stop-color="#D529FF" stop-opacity="0"/>
</linearGradient>
<linearGradient id="paint44_linear_311_91" x1="1354.42" y1="672.535" x2="1354.45" y2="672.535" gradientUnits="userSpaceOnUse">
<stop stop-color="#D529FF" stop-opacity="0.96"/>
<stop offset="0.05" stop-color="#D529FF" stop-opacity="0.78"/>
<stop offset="0.09" stop-color="#D529FF" stop-opacity="0.61"/>
<stop offset="0.14" stop-color="#D529FF" stop-opacity="0.47"/>
<stop offset="0.2" stop-color="#D529FF" stop-opacity="0.34"/>
<stop offset="0.25" stop-color="#D529FF" stop-opacity="0.23"/>
<stop offset="0.32" stop-color="#D529FF" stop-opacity="0.15"/>
<stop offset="0.4" stop-color="#D529FF" stop-opacity="0.08"/>
<stop offset="0.49" stop-color="#D529FF" stop-opacity="0.03"/>
<stop offset="0.63" stop-color="#D529FF" stop-opacity="0"/>
<stop offset="1" stop-color="#D529FF" stop-opacity="0"/>
</linearGradient>
<linearGradient id="paint45_linear_311_91" x1="1230.25" y1="839.41" x2="1230.25" y2="122.101" gradientUnits="userSpaceOnUse">
<stop stop-color="#D529FF" stop-opacity="0.96"/>
<stop offset="0.05" stop-color="#D529FF" stop-opacity="0.78"/>
<stop offset="0.09" stop-color="#D529FF" stop-opacity="0.61"/>
<stop offset="0.14" stop-color="#D529FF" stop-opacity="0.47"/>
<stop offset="0.2" stop-color="#D529FF" stop-opacity="0.34"/>
<stop offset="0.25" stop-color="#D529FF" stop-opacity="0.23"/>
<stop offset="0.32" stop-color="#D529FF" stop-opacity="0.15"/>
<stop offset="0.4" stop-color="#D529FF" stop-opacity="0.08"/>
<stop offset="0.49" stop-color="#D529FF" stop-opacity="0.03"/>
<stop offset="0.63" stop-color="#D529FF" stop-opacity="0"/>
<stop offset="1" stop-color="#D529FF" stop-opacity="0"/>
</linearGradient>
<linearGradient id="paint46_linear_311_91" x1="1396.62" y1="654.483" x2="1396.62" y2="653.581" gradientUnits="userSpaceOnUse">
<stop stop-color="#D529FF" stop-opacity="0.4"/>
<stop offset="0.05" stop-color="#D529FF" stop-opacity="0.28"/>
<stop offset="0.11" stop-color="#D529FF" stop-opacity="0.18"/>
<stop offset="0.17" stop-color="#D529FF" stop-opacity="0.1"/>
<stop offset="0.24" stop-color="#D529FF" stop-opacity="0.04"/>
<stop offset="0.32" stop-color="#D529FF" stop-opacity="0.01"/>
<stop offset="0.46" stop-color="#D529FF" stop-opacity="0"/>
</linearGradient>
<linearGradient id="paint47_linear_311_91" x1="1080.89" y1="842.151" x2="1080.89" y2="-86.0583" gradientUnits="userSpaceOnUse">
<stop stop-color="#D529FF" stop-opacity="0"/>
<stop offset="0.02" stop-color="#D529FF" stop-opacity="0.12"/>
<stop offset="0.04" stop-color="#D529FF" stop-opacity="0.22"/>
<stop offset="0.07" stop-color="#D529FF" stop-opacity="0.3"/>
<stop offset="0.1" stop-color="#D529FF" stop-opacity="0.36"/>
<stop offset="0.14" stop-color="#D529FF" stop-opacity="0.39"/>
<stop offset="0.2" stop-color="#D529FF" stop-opacity="0.4"/>
<stop offset="0.22" stop-color="#D529FF" stop-opacity="0.28"/>
<stop offset="0.26" stop-color="#D529FF" stop-opacity="0.18"/>
<stop offset="0.29" stop-color="#D529FF" stop-opacity="0.1"/>
<stop offset="0.33" stop-color="#D529FF" stop-opacity="0.04"/>
<stop offset="0.38" stop-color="#D529FF" stop-opacity="0.01"/>
<stop offset="0.46" stop-color="#D529FF" stop-opacity="0"/>
</linearGradient>
<linearGradient id="paint48_linear_311_91" x1="1182.61" y1="878.889" x2="1182.61" y2="7.47467" gradientUnits="userSpaceOnUse">
<stop stop-color="#D529FF" stop-opacity="0"/>
<stop offset="0.02" stop-color="#D529FF" stop-opacity="0.12"/>
<stop offset="0.04" stop-color="#D529FF" stop-opacity="0.22"/>
<stop offset="0.07" stop-color="#D529FF" stop-opacity="0.3"/>
<stop offset="0.1" stop-color="#D529FF" stop-opacity="0.36"/>
<stop offset="0.14" stop-color="#D529FF" stop-opacity="0.39"/>
<stop offset="0.2" stop-color="#D529FF" stop-opacity="0.4"/>
<stop offset="0.22" stop-color="#D529FF" stop-opacity="0.28"/>
<stop offset="0.26" stop-color="#D529FF" stop-opacity="0.18"/>
<stop offset="0.29" stop-color="#D529FF" stop-opacity="0.1"/>
<stop offset="0.33" stop-color="#D529FF" stop-opacity="0.04"/>
<stop offset="0.38" stop-color="#D529FF" stop-opacity="0.01"/>
<stop offset="0.46" stop-color="#D529FF" stop-opacity="0"/>
</linearGradient>
<linearGradient id="paint49_linear_311_91" x1="1276.73" y1="878.488" x2="1276.73" y2="5.53583" gradientUnits="userSpaceOnUse">
<stop stop-color="#D529FF" stop-opacity="0"/>
<stop offset="0.02" stop-color="#D529FF" stop-opacity="0.12"/>
<stop offset="0.04" stop-color="#D529FF" stop-opacity="0.22"/>
<stop offset="0.07" stop-color="#D529FF" stop-opacity="0.3"/>
<stop offset="0.1" stop-color="#D529FF" stop-opacity="0.36"/>
<stop offset="0.14" stop-color="#D529FF" stop-opacity="0.39"/>
<stop offset="0.2" stop-color="#D529FF" stop-opacity="0.4"/>
<stop offset="0.22" stop-color="#D529FF" stop-opacity="0.28"/>
<stop offset="0.26" stop-color="#D529FF" stop-opacity="0.18"/>
<stop offset="0.29" stop-color="#D529FF" stop-opacity="0.1"/>
<stop offset="0.33" stop-color="#D529FF" stop-opacity="0.04"/>
<stop offset="0.38" stop-color="#D529FF" stop-opacity="0.01"/>
<stop offset="0.46" stop-color="#D529FF" stop-opacity="0"/>
</linearGradient>
<linearGradient id="paint50_linear_311_91" x1="1338.68" y1="857.628" x2="1338.68" y2="-15.2567" gradientUnits="userSpaceOnUse">
<stop stop-color="#D529FF" stop-opacity="0"/>
<stop offset="0.02" stop-color="#D529FF" stop-opacity="0.12"/>
<stop offset="0.04" stop-color="#D529FF" stop-opacity="0.22"/>
<stop offset="0.07" stop-color="#D529FF" stop-opacity="0.3"/>
<stop offset="0.1" stop-color="#D529FF" stop-opacity="0.36"/>
<stop offset="0.14" stop-color="#D529FF" stop-opacity="0.39"/>
<stop offset="0.2" stop-color="#D529FF" stop-opacity="0.4"/>
<stop offset="0.22" stop-color="#D529FF" stop-opacity="0.28"/>
<stop offset="0.26" stop-color="#D529FF" stop-opacity="0.18"/>
<stop offset="0.29" stop-color="#D529FF" stop-opacity="0.1"/>
<stop offset="0.33" stop-color="#D529FF" stop-opacity="0.04"/>
<stop offset="0.38" stop-color="#D529FF" stop-opacity="0.01"/>
<stop offset="0.46" stop-color="#D529FF" stop-opacity="0"/>
</linearGradient>
<linearGradient id="paint51_linear_311_91" x1="1379.71" y1="835.499" x2="1379.71" y2="-89" gradientUnits="userSpaceOnUse">
<stop stop-color="#D529FF" stop-opacity="0"/>
<stop offset="0.02" stop-color="#D529FF" stop-opacity="0.12"/>
<stop offset="0.04" stop-color="#D529FF" stop-opacity="0.22"/>
<stop offset="0.07" stop-color="#D529FF" stop-opacity="0.3"/>
<stop offset="0.1" stop-color="#D529FF" stop-opacity="0.36"/>
<stop offset="0.14" stop-color="#D529FF" stop-opacity="0.39"/>
<stop offset="0.2" stop-color="#D529FF" stop-opacity="0.4"/>
<stop offset="0.22" stop-color="#D529FF" stop-opacity="0.28"/>
<stop offset="0.26" stop-color="#D529FF" stop-opacity="0.18"/>
<stop offset="0.29" stop-color="#D529FF" stop-opacity="0.1"/>
<stop offset="0.33" stop-color="#D529FF" stop-opacity="0.04"/>
<stop offset="0.38" stop-color="#D529FF" stop-opacity="0.01"/>
<stop offset="0.46" stop-color="#D529FF" stop-opacity="0"/>
</linearGradient>
<linearGradient id="paint52_linear_311_91" x1="1566.5" y1="331" x2="1566.5" y2="415" gradientUnits="userSpaceOnUse">
<stop stop-color="#8448CE"/>
<stop offset="1" stop-color="#18131E" stop-opacity="0.87"/>
</linearGradient>
<linearGradient id="paint53_linear_311_91" x1="1475.5" y1="185" x2="1475.5" y2="269" gradientUnits="userSpaceOnUse">
<stop stop-color="#8448CE"/>
<stop offset="0.239583" stop-color="#7CA0FE"/>
<stop offset="1" stop-color="#18131E" stop-opacity="0.87"/>
</linearGradient>
<linearGradient id="paint54_linear_311_91" x1="977.5" y1="143" x2="977.5" y2="172" gradientUnits="userSpaceOnUse">
<stop stop-color="#8448CE"/>
<stop offset="1" stop-color="#18131E" stop-opacity="0.87"/>
</linearGradient>
<linearGradient id="paint55_linear_311_91" x1="1032" y1="157" x2="1032" y2="192" gradientUnits="userSpaceOnUse">
<stop stop-color="#8448CE"/>
<stop offset="1" stop-color="#18131E" stop-opacity="0.87"/>
</linearGradient>
<linearGradient id="paint56_linear_311_91" x1="997.5" y1="202" x2="997.5" y2="212" gradientUnits="userSpaceOnUse">
<stop stop-color="#8448CE"/>
<stop offset="1" stop-color="#18131E" stop-opacity="0.87"/>
</linearGradient>
<linearGradient id="paint57_linear_311_91" x1="146.5" y1="157" x2="146.5" y2="241" gradientUnits="userSpaceOnUse">
<stop stop-color="#A561FA"/>
<stop offset="1" stop-color="#3D0E78"/>
</linearGradient>
<linearGradient id="paint58_linear_311_91" x1="90.5" y1="260" x2="90.5" y2="344" gradientUnits="userSpaceOnUse">
<stop stop-color="#A561FA"/>
<stop offset="1" stop-color="#3D0E78"/>
</linearGradient>
<clipPath id="clip0_311_91">
<rect width="1571" height="1010" fill="white"/>
</clipPath>
<clipPath id="clip1_311_91">
<rect width="774" height="922" fill="white" transform="translate(797 113)"/>
</clipPath>
<clipPath id="clip2_311_91">
<rect width="324" height="339" fill="white" transform="translate(69 645)"/>
</clipPath>
</defs>
</svg>
