<svg width="472" height="651" viewBox="0 0 472 651" fill="none" xmlns="http://www.w3.org/2000/svg">
<g clip-path="url(#clip0_290_641)">
<path opacity="0.9" d="M237.074 566.26C294.505 565.336 340.584 534.78 339.995 498.012C339.406 461.244 292.371 432.187 234.939 433.111C177.508 434.035 131.428 464.59 132.018 501.358C132.607 538.126 179.642 567.184 237.074 566.26Z" stroke="url(#paint0_linear_290_641)" stroke-width="0.25" stroke-miterlimit="10"/>
<path opacity="0.8" d="M237.153 571.216C298.875 570.223 348.397 537.393 347.764 497.887C347.13 458.382 296.582 427.162 234.86 428.155C173.138 429.148 123.616 461.978 124.249 501.483C124.883 540.988 175.431 572.208 237.153 571.216Z" stroke="url(#paint1_linear_290_641)" stroke-width="0.27" stroke-miterlimit="10"/>
<path opacity="0.7" d="M237.228 575.9C302.985 574.843 355.743 539.862 355.069 497.77C354.394 455.678 300.541 422.412 234.785 423.47C169.029 424.528 116.27 459.508 116.944 501.601C117.619 543.693 171.472 576.958 237.228 575.9Z" stroke="url(#paint2_linear_290_641)" stroke-width="0.29" stroke-miterlimit="10"/>
<path opacity="0.5" d="M237.307 580.817C307.311 579.691 363.478 542.454 362.76 497.646C362.042 452.838 304.71 417.427 234.706 418.553C164.702 419.679 108.534 456.916 109.253 501.724C109.971 546.532 167.303 581.944 237.307 580.817Z" stroke="url(#paint3_linear_290_641)" stroke-width="0.3" stroke-miterlimit="10"/>
<path opacity="0.4" d="M237.401 586.683C312.464 585.476 372.69 545.547 371.92 497.499C371.15 449.451 309.675 411.48 234.612 412.687C159.549 413.895 99.3226 453.824 100.093 501.872C100.863 549.919 162.338 587.891 237.401 586.683Z" stroke="url(#paint4_linear_290_641)" stroke-width="0.33" stroke-miterlimit="10"/>
<path opacity="0.35" d="M237.503 593.013C318.02 591.718 382.622 548.884 381.795 497.34C380.969 445.796 315.027 405.062 234.511 406.357C153.994 407.652 89.3915 450.487 90.2178 502.03C91.0441 553.574 156.986 594.309 237.503 593.013Z" stroke="url(#paint5_linear_290_641)" stroke-width="0.35" stroke-miterlimit="10"/>
<path opacity="0.3" d="M237.604 599.324C323.585 597.941 392.572 552.21 391.69 497.181C390.808 442.152 320.391 398.663 234.409 400.046C148.428 401.429 79.4412 447.16 80.3233 502.19C81.2055 557.219 151.622 600.707 237.604 599.324Z" stroke="url(#paint6_linear_290_641)" stroke-width="0.37" stroke-miterlimit="10"/>
<path opacity="0.25" d="M237.724 606.835C330.174 605.348 404.35 556.17 403.401 496.992C402.452 437.815 326.738 391.048 234.289 392.535C141.84 394.022 67.6636 443.2 68.6122 502.378C69.5609 561.555 145.275 608.323 237.724 606.835Z" stroke="url(#paint7_linear_290_641)" stroke-width="0.4" stroke-miterlimit="10"/>
<path opacity="0.2" d="M237.863 615.508C337.794 613.901 417.973 560.742 416.948 496.775C415.922 432.807 334.081 382.255 234.15 383.862C134.219 385.47 54.0398 438.629 55.0652 502.596C56.0906 566.563 137.932 617.116 237.863 615.508Z" stroke="url(#paint8_linear_290_641)" stroke-width="0.43" stroke-miterlimit="10"/>
<path opacity="0.15" d="M238.009 624.626C345.807 622.892 432.297 565.548 431.19 496.545C430.084 427.543 341.801 373.01 234.004 374.744C126.207 376.478 39.7165 433.822 40.8227 502.825C41.9289 571.828 130.212 626.36 238.009 624.626Z" stroke="url(#paint9_linear_290_641)" stroke-width="0.47" stroke-miterlimit="10"/>
<path opacity="0.1" d="M238.2 636.551C356.297 634.651 451.051 571.834 449.839 496.245C448.627 420.656 351.909 360.92 233.812 362.819C115.716 364.719 20.9618 427.536 22.1735 503.125C23.3853 578.714 120.104 638.451 238.2 636.551Z" stroke="url(#paint10_linear_290_641)" stroke-width="0.51" stroke-miterlimit="10"/>
<path opacity="0.05" d="M238.422 650.393C368.451 648.301 472.779 579.131 471.445 495.898C470.11 412.665 363.619 346.886 233.59 348.978C103.562 351.07 -0.766009 420.239 0.56827 503.473C1.90255 586.706 108.393 652.484 238.422 650.393Z" stroke="url(#paint11_linear_290_641)" stroke-width="0.57" stroke-miterlimit="10"/>
<path d="M237.021 560.549C290.61 559.687 333.606 531.183 333.057 496.885C332.507 462.587 288.619 435.481 235.03 436.343C181.441 437.205 138.444 465.709 138.994 500.007C139.543 534.305 183.432 561.411 237.021 560.549Z" stroke="url(#paint12_linear_290_641)" stroke-width="0.23" stroke-miterlimit="10"/>
<path d="M236.473 552.084C280.482 551.367 315.794 527.96 315.35 499.789L315.311 490.457L155.955 493.981V502.364C156.418 530.535 192.464 552.8 236.473 552.103V552.084Z" fill="url(#paint13_linear_290_641)"/>
<path d="M236.48 543.712C280.496 543.004 315.811 519.592 315.359 491.42C314.908 463.248 278.86 440.984 234.845 441.692C190.829 442.4 155.514 465.812 155.966 493.984C156.417 522.156 192.465 544.42 236.48 543.712Z" fill="url(#paint14_linear_290_641)"/>
<path d="M236.226 527.838C266.537 527.351 290.857 511.225 290.546 491.819C290.235 472.414 265.41 457.079 235.099 457.566C204.788 458.054 180.468 474.18 180.779 493.585C181.09 512.99 205.914 528.326 236.226 527.838Z" stroke="url(#paint15_linear_290_641)" stroke-width="0.25" stroke-miterlimit="10"/>
<path d="M236.334 534.614C272.516 534.032 301.545 514.787 301.174 491.629C300.803 468.471 271.171 450.17 234.99 450.752C198.808 451.334 169.778 470.579 170.15 493.737C170.521 516.895 200.153 535.196 236.334 534.614Z" stroke="url(#paint16_linear_290_641)" stroke-miterlimit="10"/>
<path d="M235.643 568.618C250.525 568.386 262.45 560.467 262.295 550.941V400.254L208.429 401.435V551.793C208.584 561.319 220.76 568.831 235.643 568.599V568.618Z" fill="url(#paint17_linear_290_641)"/>
<path d="M235.604 568.618C248.515 568.405 258.894 561.532 258.759 553.265V422.383L211.966 423.41V554.001C212.102 562.268 222.693 568.812 235.604 568.599V568.618Z" fill="url(#paint18_linear_290_641)"/>
<path style="mix-blend-mode:color-dodge" d="M235.585 561.009C247.278 560.816 256.671 554.601 256.555 547.108V428.618L214.189 429.547V547.786C214.305 555.278 223.891 561.184 235.585 561.009Z" fill="url(#paint19_linear_290_641)"/>
<path style="mix-blend-mode:color-dodge" d="M235.527 527.243C244.514 527.108 251.704 522.326 251.627 516.575V425.597L219.098 426.314V517.098C219.195 522.848 226.539 527.398 235.527 527.243Z" fill="url(#paint20_linear_290_641)"/>
<path style="mix-blend-mode:color-dodge" d="M235.681 561.009C246.524 560.835 255.202 555.065 255.106 548.134V438.376L215.871 439.247V548.773C215.987 555.704 224.858 561.184 235.701 561.009H235.681Z" fill="url(#paint21_linear_290_641)"/>
<mask id="mask0_290_641" style="mask-type:luminance" maskUnits="userSpaceOnUse" x="154" y="391" width="24" height="21">
<path d="M170.566 395.142L177.234 391.251C170.257 395.316 164.787 401.957 161.405 406.856C161.289 407.011 161.173 407.127 161.038 407.204L154.37 411.096C154.505 411.018 154.621 410.902 154.737 410.747C158.119 405.849 163.589 399.208 170.566 395.142Z" fill="white"/>
</mask>
<g mask="url(#mask0_290_641)">
<path d="M170.566 395.142L177.234 391.251C170.257 395.316 164.787 401.957 161.405 406.856C161.289 407.011 161.173 407.127 161.038 407.204L154.37 411.096C154.505 411.018 154.621 410.902 154.737 410.747C158.119 405.849 163.589 399.208 170.566 395.142Z" fill="url(#paint22_linear_290_641)"/>
</g>
<path d="M198.089 367.494L204.757 363.603L204.68 392.703L197.992 396.594L198.089 367.494Z" fill="url(#paint23_linear_290_641)"/>
<path d="M197.799 367.301C197.895 367.359 197.973 367.417 198.031 367.436C198.05 367.436 198.089 367.475 198.089 367.475L204.757 363.583C204.757 363.583 204.737 363.583 204.699 363.545C204.66 363.525 204.583 363.467 204.486 363.409C204.467 363.409 204.428 363.37 204.39 363.351C204.312 363.293 204.216 363.235 204.1 363.177C204.061 363.177 204.061 363.157 204.022 363.138C203.945 363.099 203.848 363.041 203.752 362.983C203.481 362.828 203.172 362.654 202.805 362.46C202.785 362.46 202.766 362.441 202.747 362.422C202.476 362.267 202.186 362.112 201.858 361.957C201.78 361.918 201.684 361.88 201.606 361.822C201.452 361.744 201.316 361.667 201.143 361.589C201.065 361.551 200.969 361.512 200.872 361.454C200.524 361.279 200.176 361.125 199.79 360.95C199.654 360.892 199.519 360.815 199.384 360.757C199.326 360.718 199.248 360.699 199.171 360.66C198.823 360.505 198.456 360.35 198.089 360.195C197.895 360.118 197.722 360.04 197.528 359.963C197.47 359.944 197.432 359.924 197.374 359.905C197.045 359.769 196.678 359.634 196.33 359.518C196.079 359.421 195.866 359.343 195.615 359.247C195.576 359.247 195.518 359.227 195.48 359.208C195.19 359.111 194.861 359.014 194.552 358.898C194.262 358.801 193.972 358.704 193.663 358.608C193.605 358.608 193.547 358.569 193.508 358.569C193.257 358.491 192.986 358.433 192.716 358.356C192.387 358.259 192.078 358.162 191.749 358.085C191.672 358.065 191.575 358.046 191.479 358.027C191.208 357.969 190.938 357.911 190.648 357.833C190.358 357.775 190.068 357.698 189.778 357.64C189.643 357.62 189.507 357.601 189.372 357.581C189.082 357.523 188.792 357.485 188.522 357.446C188.27 357.407 188.038 357.349 187.787 357.33C187.594 357.31 187.401 357.291 187.207 357.272C186.917 357.233 186.627 357.214 186.318 357.175C186.125 357.175 185.951 357.136 185.758 357.117C185.506 357.117 185.255 357.117 185.004 357.097C184.695 357.097 184.385 357.078 184.076 357.059C183.941 357.059 183.806 357.059 183.651 357.059C183.361 357.059 183.052 357.097 182.762 357.097C182.433 357.097 182.124 357.117 181.796 357.136C181.699 357.136 181.583 357.136 181.486 357.136C181.216 357.156 180.945 357.214 180.694 357.252C180.249 357.31 179.805 357.368 179.36 357.446C179.244 357.465 179.128 357.465 179.032 357.485C178.491 357.601 177.949 357.717 177.428 357.872C177.331 357.891 177.234 357.93 177.157 357.949C176.809 358.046 176.442 358.162 176.094 358.278C175.862 358.356 175.63 358.472 175.398 358.569C175.205 358.646 174.992 358.724 174.799 358.821C174.123 359.111 173.427 359.44 172.77 359.827L166.102 363.719C166.778 363.332 167.454 363.003 168.131 362.693C168.324 362.615 168.518 362.538 168.73 362.441C169.31 362.209 169.909 361.996 170.489 361.822C170.586 361.802 170.663 361.763 170.76 361.744C171.397 361.57 172.054 361.415 172.712 361.299C173.156 361.221 173.601 361.163 174.045 361.105C174.412 361.066 174.78 361.008 175.147 360.97C175.475 360.95 175.785 360.931 176.113 360.931C176.558 360.931 176.983 360.892 177.428 360.912C177.737 360.912 178.046 360.912 178.355 360.95C178.8 360.97 179.225 360.989 179.67 361.028C179.959 361.047 180.269 361.086 180.559 361.125C180.984 361.183 181.428 361.241 181.854 361.299C182.143 361.338 182.433 361.396 182.723 361.434C183.149 361.512 183.574 361.609 183.999 361.686C184.27 361.744 184.559 361.802 184.83 361.88C185.255 361.976 185.661 362.093 186.067 362.209C186.318 362.286 186.589 362.344 186.84 362.422C187.207 362.538 187.555 362.654 187.903 362.77C188.212 362.867 188.522 362.964 188.812 363.08C189.101 363.177 189.391 363.293 189.681 363.409C190.029 363.545 190.377 363.661 190.706 363.796C190.957 363.893 191.189 363.99 191.44 364.106C191.807 364.261 192.175 364.416 192.522 364.571C192.735 364.668 192.948 364.764 193.141 364.861C193.508 365.036 193.875 365.21 194.223 365.365C194.475 365.481 194.726 365.616 194.958 365.733C195.035 365.771 195.132 365.81 195.209 365.868C195.557 366.042 195.866 366.217 196.156 366.371C196.523 366.565 196.832 366.739 197.103 366.894C197.238 366.972 197.335 367.03 197.432 367.088C197.567 367.165 197.683 367.243 197.76 367.281C197.76 367.281 197.799 367.301 197.799 367.32V367.301Z" fill="url(#paint24_linear_290_641)"/>
<path d="M197.084 366.875C197.741 367.243 198.069 367.475 198.089 367.475L198.011 396.575C197.2 396.013 196.407 395.51 195.615 395.045C176.674 384.106 161.521 400.912 154.756 410.728C154.331 411.347 153.616 411.328 152.901 410.921C151.799 410.283 150.717 408.695 150.717 407.146C151.239 343.157 190.28 362.925 197.084 366.855V366.875Z" fill="url(#paint25_linear_290_641)"/>
<mask id="mask1_290_641" style="mask-type:luminance" maskUnits="userSpaceOnUse" x="294" y="391" width="24" height="21">
<path d="M300.931 395.142L294.263 391.251C301.24 395.316 306.71 401.957 310.093 406.856C310.208 407.011 310.324 407.127 310.46 407.204L317.128 411.096C316.992 411.018 316.877 410.902 316.761 410.747C313.378 405.849 307.908 399.208 300.931 395.142Z" fill="white"/>
</mask>
<g mask="url(#mask1_290_641)">
<path d="M300.931 395.142L294.263 391.251C301.24 395.316 306.71 401.957 310.093 406.856C310.208 407.011 310.324 407.127 310.46 407.204L317.128 411.096C316.992 411.018 316.877 410.902 316.761 410.747C313.378 405.849 307.908 399.208 300.931 395.142Z" fill="url(#paint26_linear_290_641)"/>
</g>
<path d="M273.428 367.494L266.741 363.603L266.818 392.703L273.505 396.594L273.428 367.494Z" fill="url(#paint27_linear_290_641)"/>
<path d="M273.757 367.281C273.757 367.281 273.95 367.165 274.085 367.088C274.182 367.03 274.298 366.972 274.414 366.894C274.684 366.739 274.994 366.565 275.361 366.371C275.651 366.217 275.96 366.042 276.308 365.868C276.385 365.829 276.482 365.791 276.559 365.733C276.791 365.616 277.042 365.5 277.294 365.365C277.642 365.19 277.989 365.036 278.376 364.861C278.589 364.764 278.782 364.668 278.995 364.571C279.342 364.416 279.71 364.261 280.077 364.106C280.328 364.009 280.56 363.913 280.811 363.796C281.14 363.661 281.488 363.545 281.836 363.409C282.126 363.293 282.396 363.196 282.705 363.08C282.995 362.983 283.324 362.886 283.614 362.77C283.962 362.654 284.31 362.538 284.677 362.422C284.928 362.344 285.199 362.286 285.45 362.209C285.856 362.093 286.281 361.976 286.687 361.88C286.957 361.822 287.247 361.763 287.518 361.686C287.943 361.589 288.368 361.512 288.794 361.434C289.084 361.376 289.373 361.338 289.663 361.299C290.089 361.241 290.514 361.163 290.958 361.125C291.248 361.086 291.557 361.066 291.847 361.028C292.273 360.989 292.717 360.97 293.162 360.95C293.471 360.95 293.78 360.931 294.089 360.912C294.534 360.912 294.959 360.912 295.404 360.931C295.732 360.931 296.041 360.95 296.37 360.97C296.737 360.989 297.105 361.047 297.472 361.105C297.916 361.163 298.361 361.221 298.805 361.299C299.462 361.415 300.1 361.551 300.757 361.744C300.854 361.763 300.931 361.802 301.028 361.822C301.627 361.996 302.207 362.209 302.787 362.441C302.98 362.519 303.193 362.596 303.386 362.693C304.082 362.983 304.758 363.312 305.415 363.719L298.747 359.827C298.071 359.44 297.394 359.111 296.718 358.801C296.525 358.724 296.331 358.646 296.119 358.55C295.887 358.453 295.655 358.356 295.423 358.259C295.075 358.124 294.708 358.027 294.36 357.93C294.263 357.911 294.167 357.872 294.089 357.853C293.548 357.698 293.026 357.562 292.485 357.465C292.369 357.446 292.253 357.446 292.157 357.427C291.712 357.349 291.268 357.291 290.823 357.233C290.552 357.194 290.282 357.136 290.031 357.117C289.934 357.117 289.818 357.117 289.721 357.117C289.393 357.097 289.084 357.078 288.755 357.078C288.465 357.078 288.156 357.039 287.866 357.039C287.731 357.039 287.595 357.039 287.441 357.039C287.131 357.039 286.822 357.039 286.513 357.078C286.262 357.078 286.01 357.078 285.759 357.097C285.566 357.097 285.392 357.136 285.199 357.156C284.909 357.175 284.619 357.214 284.31 357.252C284.116 357.272 283.923 357.291 283.73 357.31C283.479 357.349 283.247 357.388 282.995 357.427C282.705 357.465 282.415 357.523 282.145 357.562C282.01 357.581 281.874 357.601 281.739 357.62C281.449 357.678 281.159 357.756 280.869 357.814C280.599 357.872 280.309 357.93 280.038 358.007C279.961 358.027 279.864 358.046 279.768 358.066C279.439 358.143 279.11 358.24 278.782 358.337C278.511 358.414 278.26 358.472 277.989 358.55C277.931 358.55 277.874 358.588 277.816 358.588C277.506 358.685 277.216 358.782 276.926 358.879C276.617 358.975 276.308 359.072 275.999 359.188C275.96 359.188 275.902 359.208 275.863 359.227C275.612 359.324 275.38 359.401 275.148 359.498C274.8 359.634 274.433 359.75 274.105 359.885C274.047 359.905 274.008 359.924 273.95 359.944C273.757 360.021 273.583 360.098 273.389 360.176C273.022 360.331 272.655 360.486 272.307 360.641C272.249 360.679 272.172 360.699 272.095 360.737C271.94 360.795 271.824 360.873 271.689 360.931C271.302 361.105 270.954 361.279 270.606 361.434C270.529 361.473 270.413 361.512 270.336 361.57C270.181 361.647 270.026 361.725 269.872 361.802C269.795 361.841 269.698 361.88 269.621 361.938C269.311 362.093 269.002 362.248 268.732 362.402C268.712 362.402 268.693 362.422 268.674 362.441C268.306 362.635 267.997 362.809 267.727 362.964C267.63 363.022 267.553 363.08 267.456 363.119C267.417 363.119 267.417 363.138 267.379 363.158C267.263 363.235 267.166 363.293 267.069 363.332C267.031 363.332 267.011 363.37 266.973 363.39C266.876 363.448 266.799 363.506 266.76 363.525C266.721 363.525 266.721 363.564 266.702 363.564L273.37 367.456C273.37 367.456 273.409 367.456 273.428 367.417C273.467 367.398 273.544 367.339 273.66 367.281C273.66 367.281 273.699 367.262 273.718 367.243L273.757 367.281Z" fill="url(#paint28_linear_290_641)"/>
<path d="M274.433 366.875C273.776 367.243 273.448 367.475 273.428 367.475L273.506 396.575C274.317 396.013 275.11 395.51 275.902 395.045C294.843 384.106 309.996 400.912 316.761 410.728C317.186 411.347 317.901 411.328 318.616 410.921C319.718 410.283 320.8 408.695 320.8 407.146C320.278 343.157 281.237 362.925 274.433 366.855V366.875Z" fill="url(#paint29_linear_290_641)"/>
<path d="M275.11 239.653L275.071 239.711C275.747 241.55 276.115 243.467 276.153 245.422C276.385 259.904 258.237 271.928 235.604 272.296C212.991 272.663 194.455 261.221 194.224 246.739C194.185 244.435 194.629 242.189 195.46 240.04C158.525 333.496 199.249 417.988 207.231 433.787C210.42 441.938 221.997 447.863 235.759 447.65C247.954 447.456 258.295 442.48 262.527 435.607H262.585C262.759 435.239 263.011 434.774 263.3 434.194C263.3 434.155 263.339 434.116 263.358 434.077C270.993 418.976 312.547 333.806 275.11 239.633V239.653Z" fill="url(#paint30_linear_290_641)"/>
<path d="M276.153 245.442C276.115 243.467 275.747 241.55 275.071 239.73L275.11 239.672C267.205 219.769 255.763 199.459 239.721 179.323H231.004C214.846 199.594 203.385 220.04 195.46 240.079C194.629 242.228 194.185 244.454 194.224 246.777C194.455 261.26 212.991 272.702 235.604 272.334C258.217 271.966 276.385 259.943 276.153 245.461V245.442Z" fill="url(#paint31_linear_290_641)"/>
<path d="M222.963 326.255C217.204 314.271 206.052 307.436 198.398 311.115L191.44 314.367L212.526 357.62L219.426 354.387C227.061 350.708 228.723 338.24 222.963 326.255Z" fill="url(#paint32_linear_290_641)"/>
<path d="M188.29 342.596C194.049 354.58 204.892 361.299 212.546 357.62C220.18 353.942 221.707 341.241 215.967 329.256C210.207 317.272 199.364 310.553 191.711 314.232C184.076 317.91 182.549 330.611 188.29 342.596Z" fill="url(#paint33_linear_290_641)"/>
<path d="M188.29 342.596C194.049 354.58 204.892 361.299 212.546 357.62C220.18 353.942 221.707 341.241 215.967 329.256C210.207 317.272 199.364 310.553 191.711 314.232C184.076 317.91 182.549 330.611 188.29 342.596Z" fill="url(#paint34_linear_290_641)"/>
<path d="M189.797 341.512C194.648 351.638 203.829 357.31 210.284 354.193C216.74 351.076 218.035 340.369 213.164 330.244C208.313 320.118 199.132 314.445 192.677 317.562C186.221 320.679 184.926 331.386 189.797 341.512Z" fill="url(#paint35_linear_290_641)"/>
<path d="M192.658 317.504C193.45 317.117 194.301 316.923 195.151 316.807C189.411 320.389 188.406 330.611 193.064 340.292C197.335 349.179 204.95 354.619 211.116 353.729C210.864 353.883 210.555 354.058 210.285 354.193C203.907 357.369 194.533 351.618 189.681 341.512C184.83 331.386 186.222 320.621 192.677 317.504H192.658Z" fill="url(#paint36_linear_290_641)"/>
<path d="M169.812 472.935C169.87 471.716 169.948 470.496 170.025 469.295C170.064 468.676 170.122 468.056 170.18 467.456C170.276 466.314 170.392 465.171 170.508 464.049C170.566 463.487 170.624 462.926 170.702 462.383C170.818 461.454 170.953 460.564 171.088 459.654C171.223 458.782 171.339 457.892 171.475 457.04C171.61 456.188 171.765 455.355 171.919 454.523C172.074 453.69 172.228 452.838 172.402 452.025C172.673 450.689 172.963 449.373 173.272 448.076C173.291 447.979 173.311 447.882 173.33 447.785C173.659 446.41 174.026 445.094 174.393 443.777C174.896 442.016 175.417 440.292 175.959 438.608C176.094 438.201 176.249 437.795 176.384 437.408C176.77 436.304 177.157 435.2 177.544 434.136C177.775 433.535 178.007 432.974 178.239 432.393C178.568 431.58 178.877 430.786 179.206 430.012C179.457 429.411 179.728 428.811 179.998 428.23C180.307 427.533 180.617 426.836 180.945 426.159C181.216 425.578 181.506 424.997 181.796 424.416C182.124 423.777 182.433 423.119 182.762 422.499C183.052 421.957 183.342 421.415 183.632 420.892C183.98 420.254 184.347 419.595 184.695 418.976C184.985 418.472 185.275 417.988 185.565 417.485C185.951 416.827 186.338 416.188 186.743 415.549C187.014 415.103 187.304 414.658 187.575 414.232C188.077 413.458 188.58 412.703 189.101 411.967C189.333 411.618 189.565 411.27 189.797 410.941C190.628 409.779 191.459 408.656 192.291 407.572C192.832 406.875 193.373 406.197 193.895 405.539C193.972 405.442 194.03 405.365 194.107 405.268C194.726 404.513 195.344 403.797 195.963 403.08C196.717 402.209 197.49 401.376 198.224 400.563C198.417 400.37 198.591 400.176 198.785 399.982C199.345 399.382 199.906 398.801 200.466 398.259C200.717 398.008 200.949 397.775 201.201 397.543C201.761 397.001 202.302 396.478 202.843 395.975C203.056 395.781 203.269 395.587 203.462 395.394C204.177 394.736 204.892 394.116 205.569 393.535C205.646 393.458 205.723 393.4 205.801 393.342C206.419 392.819 206.999 392.335 207.579 391.87C207.772 391.715 207.965 391.56 208.158 391.405C208.622 391.038 209.067 390.689 209.511 390.379C209.685 390.244 209.859 390.128 210.014 389.992C210.574 389.566 211.135 389.179 211.637 388.83C211.676 388.811 211.695 388.792 211.734 388.753C212.217 388.424 212.662 388.114 213.087 387.843C213.222 387.746 213.358 387.669 213.474 387.591C213.783 387.398 214.073 387.204 214.343 387.049C214.44 386.991 214.556 386.914 214.653 386.856C214.981 386.662 215.29 386.468 215.542 386.333C216.199 385.965 216.527 385.791 216.547 385.771L209.879 381.88C209.879 381.88 209.531 382.054 208.874 382.441C208.622 382.577 208.313 382.77 207.985 382.964C207.888 383.022 207.772 383.099 207.675 383.158C207.405 383.332 207.115 383.506 206.806 383.7C206.67 383.777 206.554 383.874 206.4 383.951C205.974 384.222 205.53 384.532 205.047 384.861C205.008 384.881 204.989 384.9 204.95 384.939C204.448 385.287 203.887 385.694 203.327 386.1C203.153 386.217 202.998 386.352 202.824 386.468C202.38 386.797 201.935 387.146 201.471 387.514C201.278 387.669 201.085 387.824 200.891 387.978C200.311 388.443 199.712 388.947 199.094 389.469C199.017 389.527 198.959 389.585 198.881 389.644C198.205 390.224 197.49 390.844 196.775 391.502C196.562 391.696 196.369 391.889 196.156 392.083C195.615 392.586 195.054 393.109 194.494 393.651C194.359 393.787 194.223 393.903 194.069 394.058C193.972 394.155 193.875 394.271 193.779 394.368C193.218 394.929 192.658 395.491 192.097 396.091C191.904 396.284 191.73 396.478 191.537 396.672C190.783 397.465 190.029 398.298 189.275 399.169C189.237 399.208 189.198 399.247 189.159 399.285C188.58 399.944 188 400.641 187.42 401.338C187.343 401.434 187.285 401.512 187.207 401.609C186.705 402.209 186.222 402.829 185.719 403.467C185.68 403.526 185.642 403.584 185.603 403.642C184.772 404.726 183.941 405.849 183.11 407.011C183.052 407.107 182.975 407.185 182.917 407.282C182.743 407.514 182.588 407.785 182.414 408.017C181.912 408.753 181.39 409.508 180.887 410.283C180.752 410.476 180.617 410.67 180.501 410.863C180.346 411.096 180.211 411.347 180.056 411.599C179.67 412.238 179.264 412.877 178.877 413.516C178.703 413.787 178.529 414.058 178.375 414.348C178.259 414.561 178.123 414.794 178.007 415.007C177.64 415.626 177.292 416.285 176.944 416.923C176.751 417.253 176.577 417.582 176.384 417.93C176.287 418.124 176.191 418.337 176.075 418.53C175.746 419.15 175.417 419.808 175.108 420.447C174.915 420.834 174.722 421.202 174.528 421.609C174.432 421.802 174.354 421.996 174.258 422.19C173.929 422.867 173.62 423.564 173.311 424.261C173.118 424.687 172.924 425.094 172.731 425.539C172.654 425.713 172.596 425.888 172.518 426.062C172.19 426.836 171.861 427.65 171.552 428.463C171.378 428.908 171.185 429.353 170.991 429.818C170.953 429.934 170.895 430.07 170.856 430.205C170.45 431.27 170.064 432.374 169.677 433.497C169.561 433.845 169.426 434.194 169.31 434.542C169.31 434.581 169.291 434.639 169.271 434.678C168.711 436.362 168.189 438.085 167.706 439.847C167.667 439.983 167.628 440.118 167.57 440.273C167.242 441.454 166.933 442.654 166.643 443.874C166.623 443.971 166.604 444.068 166.585 444.145C166.314 445.249 166.063 446.352 165.831 447.475C165.792 447.669 165.754 447.901 165.715 448.095C165.541 448.927 165.386 449.76 165.232 450.612C165.077 451.444 164.923 452.277 164.787 453.129C164.652 453.981 164.517 454.871 164.401 455.743C164.304 456.401 164.188 457.04 164.111 457.698C164.072 457.95 164.053 458.201 164.034 458.453C163.956 459.015 163.898 459.576 163.84 460.138C163.724 461.261 163.608 462.383 163.512 463.526C163.454 464.145 163.415 464.746 163.357 465.365C163.26 466.565 163.202 467.766 163.144 468.986C163.125 469.547 163.086 470.109 163.067 470.67C163.009 472.451 162.951 474.271 162.951 476.111C162.951 476.846 163.183 477.311 163.57 477.524L170.238 481.415C169.87 481.203 169.619 480.738 169.619 480.002C169.619 478.143 169.677 476.343 169.735 474.542C169.755 473.981 169.793 473.439 169.812 472.877V472.935Z" fill="url(#paint37_linear_290_641)"/>
<path d="M215.6 386.352C216.257 385.984 216.586 385.81 216.605 385.791L216.682 414.891C215.87 415.258 215.078 415.684 214.286 416.149C195.364 427.107 180.346 461.377 173.64 478.957C173.214 480.08 172.499 480.873 171.803 481.299C170.702 481.938 169.6 481.609 169.619 480.041C169.774 415.646 208.796 390.282 215.6 386.333V386.352Z" fill="url(#paint38_linear_290_641)"/>
<path d="M310.421 470.728C310.402 470.167 310.363 469.605 310.344 469.044C310.286 467.824 310.209 466.604 310.131 465.423C310.093 464.804 310.035 464.184 309.977 463.584C309.88 462.442 309.764 461.299 309.648 460.196C309.59 459.634 309.532 459.073 309.455 458.511C309.416 458.26 309.397 458.008 309.378 457.756C309.3 457.098 309.184 456.459 309.088 455.801C308.952 454.929 308.836 454.039 308.701 453.187C308.566 452.335 308.411 451.503 308.257 450.67C308.102 449.837 307.947 448.986 307.773 448.172C307.735 447.959 307.696 447.746 307.657 447.553C307.425 446.43 307.155 445.326 306.904 444.223C306.884 444.126 306.865 444.029 306.846 443.952C306.556 442.732 306.246 441.532 305.918 440.35C305.879 440.215 305.841 440.079 305.783 439.925C305.28 438.163 304.758 436.42 304.217 434.755C304.217 434.716 304.198 434.658 304.178 434.62C304.062 434.252 303.927 433.923 303.811 433.574C303.425 432.47 303.038 431.367 302.632 430.283C302.594 430.167 302.536 430.031 302.497 429.895C302.323 429.431 302.13 429.005 301.936 428.54C301.608 427.727 301.299 426.933 300.97 426.139C300.893 425.965 300.835 425.791 300.757 425.617C300.564 425.171 300.371 424.765 300.178 424.339C299.868 423.642 299.559 422.945 299.231 422.267C299.134 422.074 299.057 421.88 298.96 421.686C298.767 421.28 298.573 420.912 298.38 420.525C298.052 419.886 297.742 419.227 297.414 418.608C297.317 418.414 297.22 418.201 297.105 418.008C296.931 417.659 296.737 417.349 296.544 417.001C296.196 416.343 295.829 415.704 295.481 415.084C295.365 414.871 295.23 414.639 295.114 414.426C294.94 414.135 294.766 413.884 294.611 413.593C294.225 412.935 293.838 412.296 293.432 411.677C293.278 411.444 293.142 411.173 292.988 410.941C292.852 410.728 292.717 410.554 292.582 410.341C292.079 409.566 291.577 408.811 291.055 408.075C290.881 407.843 290.726 407.572 290.552 407.34C290.494 407.243 290.417 407.165 290.359 407.069C289.528 405.907 288.697 404.765 287.866 403.7C287.827 403.642 287.789 403.584 287.75 403.526C287.247 402.887 286.745 402.267 286.242 401.647C286.184 401.57 286.107 401.473 286.049 401.396C285.469 400.679 284.889 400.002 284.31 399.324C284.271 399.285 284.232 399.247 284.194 399.208C283.44 398.337 282.686 397.504 281.932 396.71C281.739 396.517 281.565 396.323 281.372 396.13C280.811 395.529 280.251 394.968 279.69 394.406C279.594 394.31 279.497 394.193 279.4 394.097C279.265 393.961 279.13 393.826 278.975 393.69C278.415 393.148 277.854 392.625 277.313 392.122C277.1 391.928 276.907 391.735 276.695 391.541C275.979 390.883 275.264 390.263 274.588 389.682C274.511 389.624 274.453 389.566 274.375 389.508C273.757 388.985 273.158 388.482 272.578 388.017C272.384 387.862 272.191 387.707 271.998 387.553C271.534 387.185 271.09 386.836 270.645 386.507C270.471 386.372 270.297 386.255 270.142 386.139C269.582 385.713 269.021 385.326 268.519 384.978C268.48 384.958 268.461 384.939 268.422 384.9C267.939 384.571 267.495 384.261 267.069 383.99C266.934 383.893 266.799 383.816 266.664 383.738C266.354 383.545 266.064 383.351 265.794 383.196C265.678 383.138 265.581 383.061 265.485 383.003C265.156 382.809 264.847 382.615 264.595 382.48C263.938 382.112 263.61 381.938 263.59 381.918L256.922 385.81C256.922 385.81 257.348 386.042 257.927 386.372C258.179 386.507 258.488 386.701 258.816 386.894C258.913 386.952 259.029 387.03 259.126 387.088C259.396 387.243 259.686 387.436 259.995 387.63C260.131 387.707 260.266 387.804 260.401 387.882C260.807 388.153 261.252 388.443 261.735 388.772C261.774 388.792 261.812 388.83 261.851 388.85C262.353 389.198 262.895 389.605 263.474 390.011C263.648 390.128 263.822 390.263 263.977 390.399C264.402 390.728 264.866 391.076 265.33 391.425C265.523 391.58 265.716 391.735 265.929 391.889C266.509 392.354 267.089 392.838 267.707 393.361C267.784 393.419 267.862 393.496 267.939 393.555C268.616 394.135 269.331 394.755 270.046 395.413C270.258 395.607 270.471 395.8 270.664 395.994C271.205 396.497 271.747 397.02 272.307 397.562C272.539 397.795 272.79 398.027 273.042 398.279C273.602 398.84 274.163 399.402 274.723 400.002C274.916 400.195 275.09 400.389 275.284 400.583C276.037 401.376 276.791 402.228 277.545 403.1C278.163 403.797 278.782 404.532 279.4 405.287C279.478 405.365 279.536 405.462 279.613 405.558C280.154 406.217 280.695 406.894 281.217 407.591C282.048 408.676 282.879 409.799 283.71 410.96C283.942 411.289 284.174 411.638 284.406 411.986C284.909 412.722 285.431 413.477 285.933 414.252C286.223 414.678 286.494 415.123 286.784 415.568C287.17 416.207 287.576 416.846 287.963 417.485C288.252 417.969 288.542 418.472 288.832 418.976C289.2 419.595 289.547 420.234 289.895 420.893C290.185 421.435 290.475 421.957 290.765 422.499C291.094 423.119 291.403 423.758 291.731 424.416C292.021 424.997 292.311 425.559 292.582 426.159C292.91 426.836 293.22 427.533 293.529 428.23C293.799 428.831 294.07 429.411 294.321 430.031C294.65 430.805 294.978 431.619 295.288 432.412C295.52 432.993 295.752 433.555 295.984 434.155C296.389 435.22 296.776 436.323 297.143 437.427C297.278 437.834 297.433 438.221 297.568 438.627C298.129 440.292 298.651 442.035 299.134 443.797C299.501 445.113 299.868 446.449 300.197 447.805C300.216 447.901 300.236 447.998 300.255 448.095C300.564 449.392 300.854 450.709 301.125 452.045C301.299 452.858 301.453 453.71 301.608 454.542C301.762 455.375 301.917 456.207 302.052 457.059C302.188 457.911 302.323 458.802 302.439 459.673C302.574 460.583 302.71 461.474 302.825 462.403C302.903 462.945 302.961 463.526 303.019 464.068C303.135 465.191 303.251 466.314 303.347 467.475C303.405 468.076 303.444 468.695 303.502 469.315C303.599 470.515 303.657 471.716 303.715 472.955C303.734 473.516 303.773 474.058 303.792 474.62C303.85 476.401 303.908 478.221 303.908 480.08C303.908 480.815 303.676 481.28 303.289 481.493L309.957 477.601C310.325 477.388 310.576 476.924 310.576 476.188C310.576 474.329 310.518 472.529 310.46 470.748L310.421 470.728Z" fill="url(#paint39_linear_290_641)"/>
<path d="M257.888 386.352C257.231 385.984 256.903 385.81 256.883 385.791L256.806 414.891C257.618 415.258 258.41 415.684 259.203 416.149C278.125 427.107 293.142 461.377 299.849 478.957C300.274 480.08 300.989 480.873 301.685 481.299C302.787 481.938 303.888 481.609 303.869 480.041C303.714 415.646 264.692 390.282 257.888 386.333V386.352Z" fill="url(#paint40_linear_290_641)"/>
<path d="M235.275 177.271C232.724 177.31 230.675 178.665 230.694 180.311C230.714 181.937 232.821 183.234 235.372 183.195C237.923 183.157 239.972 181.801 239.952 180.156C239.933 178.529 237.826 177.232 235.275 177.271Z" fill="url(#paint41_linear_290_641)"/>
<path d="M235.333 156.012L233.942 179.904C233.942 180.407 234.58 180.795 235.353 180.775C236.126 180.775 236.744 180.349 236.744 179.846L235.353 155.993L235.333 156.012Z" fill="url(#paint42_linear_290_641)"/>
<path d="M284.909 325.616C284.599 342.344 263.474 356.129 237.227 356.536C210.613 356.962 188.812 343.506 188.541 326.449V489.063C188.831 506.101 210.632 519.576 237.247 519.15C263.861 518.725 285.218 504.572 284.947 487.514V325.597L284.909 325.616Z" fill="url(#paint43_linear_290_641)"/>
<path d="M308.566 441.26V440.873H308.546C308.546 441.009 308.546 441.144 308.566 441.26Z" fill="url(#paint44_linear_290_641)"/>
<path opacity="0.4" d="M308.566 122.266C308.102 147.203 276.598 167.745 237.46 168.384C197.761 169.023 165.252 148.945 164.846 123.524V492.839C165.271 518.24 197.78 538.318 237.479 537.698C277.178 537.06 309.03 515.956 308.624 490.535L308.585 122.266H308.566Z" fill="url(#paint45_linear_290_641)"/>
<path d="M332.977 430.612V430.07H332.938C332.938 430.244 332.957 430.418 332.977 430.612Z" fill="url(#paint46_linear_290_641)"/>
<path opacity="0.5" d="M161.676 40.794C147.702 30.2809 139.198 16.6893 138.966 1.7038V500.254C139.217 515.22 147.721 528.831 161.676 539.325V40.794Z" fill="url(#paint47_linear_290_641)"/>
<path opacity="0.5" d="M191.827 554.407C202.418 557.776 214.111 559.944 226.5 560.603V62.0526C214.111 61.3943 202.418 59.2452 191.827 55.8763V554.407Z" fill="url(#paint48_linear_290_641)"/>
<path opacity="0.5" d="M246.273 560.351C258.701 559.402 270.394 556.943 280.947 553.304V54.7534C270.394 58.3933 258.681 60.8522 246.273 61.8009V560.332V560.351Z" fill="url(#paint49_linear_290_641)"/>
<path opacity="0.5" d="M293.278 548.27C297.685 546.159 301.821 543.836 305.609 541.3V42.7108C301.801 45.2471 297.685 47.5898 293.278 49.7195V548.27Z" fill="url(#paint50_linear_290_641)"/>
<path opacity="0.5" d="M313.32 36.9024V535.453C325.864 524.746 333.247 511.445 333.015 497.137L332.957 0C332.706 13.7658 325.419 26.5442 313.301 36.9024H313.32Z" fill="url(#paint51_linear_290_641)"/>
<g filter="url(#filter0_f_290_641)">
<rect x="404.902" y="243.256" width="52.6373" height="48.6512" fill="url(#paint52_linear_290_641)"/>
</g>
<g filter="url(#filter1_f_290_641)">
<rect x="352.265" y="158.696" width="52.6373" height="48.6512" fill="url(#paint53_linear_290_641)"/>
</g>
<g filter="url(#filter2_f_290_641)">
<rect x="82.1372" y="134.37" width="16.7745" height="16.7963" fill="url(#paint54_linear_290_641)"/>
</g>
<g filter="url(#filter3_f_290_641)">
<rect x="111.059" y="142.479" width="21.9804" height="20.2714" fill="url(#paint55_linear_290_641)"/>
</g>
<g filter="url(#filter4_f_290_641)">
<rect x="98.9116" y="168.542" width="6.36275" height="5.79181" fill="url(#paint56_linear_290_641)"/>
</g>
<g filter="url(#filter5_f_290_641)">
<ellipse cx="242.652" cy="231.962" rx="49.4559" ry="51.2576" fill="#EBC7FF" fill-opacity="0.2"/>
</g>
<g filter="url(#filter6_f_290_641)">
<ellipse cx="202.162" cy="333.319" rx="49.4559" ry="51.2576" fill="#EBC7FF" fill-opacity="0.2"/>
</g>
</g>
<defs>
<filter id="filter0_f_290_641" x="400.902" y="239.256" width="60.6372" height="56.6512" filterUnits="userSpaceOnUse" color-interpolation-filters="sRGB">
<feFlood flood-opacity="0" result="BackgroundImageFix"/>
<feBlend mode="normal" in="SourceGraphic" in2="BackgroundImageFix" result="shape"/>
<feGaussianBlur stdDeviation="2" result="effect1_foregroundBlur_290_641"/>
</filter>
<filter id="filter1_f_290_641" x="348.265" y="154.696" width="60.6372" height="56.6512" filterUnits="userSpaceOnUse" color-interpolation-filters="sRGB">
<feFlood flood-opacity="0" result="BackgroundImageFix"/>
<feBlend mode="normal" in="SourceGraphic" in2="BackgroundImageFix" result="shape"/>
<feGaussianBlur stdDeviation="2" result="effect1_foregroundBlur_290_641"/>
</filter>
<filter id="filter2_f_290_641" x="72.1372" y="124.37" width="36.7744" height="36.7963" filterUnits="userSpaceOnUse" color-interpolation-filters="sRGB">
<feFlood flood-opacity="0" result="BackgroundImageFix"/>
<feBlend mode="normal" in="SourceGraphic" in2="BackgroundImageFix" result="shape"/>
<feGaussianBlur stdDeviation="5" result="effect1_foregroundBlur_290_641"/>
</filter>
<filter id="filter3_f_290_641" x="101.059" y="132.479" width="41.9805" height="40.2714" filterUnits="userSpaceOnUse" color-interpolation-filters="sRGB">
<feFlood flood-opacity="0" result="BackgroundImageFix"/>
<feBlend mode="normal" in="SourceGraphic" in2="BackgroundImageFix" result="shape"/>
<feGaussianBlur stdDeviation="5" result="effect1_foregroundBlur_290_641"/>
</filter>
<filter id="filter4_f_290_641" x="88.9116" y="158.542" width="26.3628" height="25.7918" filterUnits="userSpaceOnUse" color-interpolation-filters="sRGB">
<feFlood flood-opacity="0" result="BackgroundImageFix"/>
<feBlend mode="normal" in="SourceGraphic" in2="BackgroundImageFix" result="shape"/>
<feGaussianBlur stdDeviation="5" result="effect1_foregroundBlur_290_641"/>
</filter>
<filter id="filter5_f_290_641" x="93.1963" y="80.7047" width="298.912" height="302.515" filterUnits="userSpaceOnUse" color-interpolation-filters="sRGB">
<feFlood flood-opacity="0" result="BackgroundImageFix"/>
<feBlend mode="normal" in="SourceGraphic" in2="BackgroundImageFix" result="shape"/>
<feGaussianBlur stdDeviation="50" result="effect1_foregroundBlur_290_641"/>
</filter>
<filter id="filter6_f_290_641" x="52.7061" y="182.061" width="298.912" height="302.515" filterUnits="userSpaceOnUse" color-interpolation-filters="sRGB">
<feFlood flood-opacity="0" result="BackgroundImageFix"/>
<feBlend mode="normal" in="SourceGraphic" in2="BackgroundImageFix" result="shape"/>
<feGaussianBlur stdDeviation="50" result="effect1_foregroundBlur_290_641"/>
</filter>
<linearGradient id="paint0_linear_290_641" x1="131.754" y1="499.699" x2="340.241" y2="499.699" gradientUnits="userSpaceOnUse">
<stop stop-color="#27FFF9"/>
<stop offset="0.05" stop-color="#43E2F2"/>
<stop offset="0.12" stop-color="#6FB6E8"/>
<stop offset="0.21" stop-color="#9590DF"/>
<stop offset="0.3" stop-color="#B66FD7"/>
<stop offset="0.4" stop-color="#D154D1"/>
<stop offset="0.5" stop-color="#E540CC"/>
<stop offset="0.62" stop-color="#F332C9"/>
<stop offset="0.77" stop-color="#FC29C7"/>
<stop offset="1" stop-color="#FF27C7"/>
</linearGradient>
<linearGradient id="paint1_linear_290_641" x1="123.965" y1="499.699" x2="348.03" y2="499.699" gradientUnits="userSpaceOnUse">
<stop stop-color="#27FFF9"/>
<stop offset="0.05" stop-color="#43E2F2"/>
<stop offset="0.12" stop-color="#6FB6E8"/>
<stop offset="0.21" stop-color="#9590DF"/>
<stop offset="0.3" stop-color="#B66FD7"/>
<stop offset="0.4" stop-color="#D154D1"/>
<stop offset="0.5" stop-color="#E540CC"/>
<stop offset="0.62" stop-color="#F332C9"/>
<stop offset="0.77" stop-color="#FC29C7"/>
<stop offset="1" stop-color="#FF27C7"/>
</linearGradient>
<linearGradient id="paint2_linear_290_641" x1="116.64" y1="499.699" x2="355.336" y2="499.699" gradientUnits="userSpaceOnUse">
<stop stop-color="#27FFF9"/>
<stop offset="0.05" stop-color="#43E2F2"/>
<stop offset="0.12" stop-color="#6FB6E8"/>
<stop offset="0.21" stop-color="#9590DF"/>
<stop offset="0.3" stop-color="#B66FD7"/>
<stop offset="0.4" stop-color="#D154D1"/>
<stop offset="0.5" stop-color="#E540CC"/>
<stop offset="0.62" stop-color="#F332C9"/>
<stop offset="0.77" stop-color="#FC29C7"/>
<stop offset="1" stop-color="#FF27C7"/>
</linearGradient>
<linearGradient id="paint3_linear_290_641" x1="108.947" y1="499.699" x2="363.048" y2="499.699" gradientUnits="userSpaceOnUse">
<stop stop-color="#27FFF9"/>
<stop offset="0.05" stop-color="#43E2F2"/>
<stop offset="0.12" stop-color="#6FB6E8"/>
<stop offset="0.21" stop-color="#9590DF"/>
<stop offset="0.3" stop-color="#B66FD7"/>
<stop offset="0.4" stop-color="#D154D1"/>
<stop offset="0.5" stop-color="#E540CC"/>
<stop offset="0.62" stop-color="#F332C9"/>
<stop offset="0.77" stop-color="#FC29C7"/>
<stop offset="1" stop-color="#FF27C7"/>
</linearGradient>
<linearGradient id="paint4_linear_290_641" x1="99.7669" y1="499.699" x2="372.228" y2="499.699" gradientUnits="userSpaceOnUse">
<stop stop-color="#27FFF9"/>
<stop offset="0.05" stop-color="#43E2F2"/>
<stop offset="0.12" stop-color="#6FB6E8"/>
<stop offset="0.21" stop-color="#9590DF"/>
<stop offset="0.3" stop-color="#B66FD7"/>
<stop offset="0.4" stop-color="#D154D1"/>
<stop offset="0.5" stop-color="#E540CC"/>
<stop offset="0.62" stop-color="#F332C9"/>
<stop offset="0.77" stop-color="#FC29C7"/>
<stop offset="1" stop-color="#FF27C7"/>
</linearGradient>
<linearGradient id="paint5_linear_290_641" x1="89.8519" y1="499.699" x2="382.144" y2="499.699" gradientUnits="userSpaceOnUse">
<stop stop-color="#27FFF9"/>
<stop offset="0.05" stop-color="#43E2F2"/>
<stop offset="0.12" stop-color="#6FB6E8"/>
<stop offset="0.21" stop-color="#9590DF"/>
<stop offset="0.3" stop-color="#B66FD7"/>
<stop offset="0.4" stop-color="#D154D1"/>
<stop offset="0.5" stop-color="#E540CC"/>
<stop offset="0.62" stop-color="#F332C9"/>
<stop offset="0.77" stop-color="#FC29C7"/>
<stop offset="1" stop-color="#FF27C7"/>
</linearGradient>
<linearGradient id="paint6_linear_290_641" x1="79.9561" y1="499.699" x2="392.039" y2="499.699" gradientUnits="userSpaceOnUse">
<stop stop-color="#27FFF9"/>
<stop offset="0.05" stop-color="#43E2F2"/>
<stop offset="0.12" stop-color="#6FB6E8"/>
<stop offset="0.21" stop-color="#9590DF"/>
<stop offset="0.3" stop-color="#B66FD7"/>
<stop offset="0.4" stop-color="#D154D1"/>
<stop offset="0.5" stop-color="#E540CC"/>
<stop offset="0.62" stop-color="#F332C9"/>
<stop offset="0.77" stop-color="#FC29C7"/>
<stop offset="1" stop-color="#FF27C7"/>
</linearGradient>
<linearGradient id="paint7_linear_290_641" x1="68.2048" y1="499.699" x2="403.79" y2="499.699" gradientUnits="userSpaceOnUse">
<stop stop-color="#27FFF9"/>
<stop offset="0.05" stop-color="#43E2F2"/>
<stop offset="0.12" stop-color="#6FB6E8"/>
<stop offset="0.21" stop-color="#9590DF"/>
<stop offset="0.3" stop-color="#B66FD7"/>
<stop offset="0.4" stop-color="#D154D1"/>
<stop offset="0.5" stop-color="#E540CC"/>
<stop offset="0.62" stop-color="#F332C9"/>
<stop offset="0.77" stop-color="#FC29C7"/>
<stop offset="1" stop-color="#FF27C7"/>
</linearGradient>
<linearGradient id="paint8_linear_290_641" x1="54.6368" y1="499.699" x2="417.358" y2="499.699" gradientUnits="userSpaceOnUse">
<stop stop-color="#27FFF9"/>
<stop offset="0.05" stop-color="#43E2F2"/>
<stop offset="0.12" stop-color="#6FB6E8"/>
<stop offset="0.21" stop-color="#9590DF"/>
<stop offset="0.3" stop-color="#B66FD7"/>
<stop offset="0.4" stop-color="#D154D1"/>
<stop offset="0.5" stop-color="#E540CC"/>
<stop offset="0.62" stop-color="#F332C9"/>
<stop offset="0.77" stop-color="#FC29C7"/>
<stop offset="1" stop-color="#FF27C7"/>
</linearGradient>
<linearGradient id="paint9_linear_290_641" x1="40.3538" y1="499.7" x2="431.642" y2="499.7" gradientUnits="userSpaceOnUse">
<stop stop-color="#27FFF9"/>
<stop offset="0.05" stop-color="#43E2F2"/>
<stop offset="0.12" stop-color="#6FB6E8"/>
<stop offset="0.21" stop-color="#9590DF"/>
<stop offset="0.3" stop-color="#B66FD7"/>
<stop offset="0.4" stop-color="#D154D1"/>
<stop offset="0.5" stop-color="#E540CC"/>
<stop offset="0.62" stop-color="#F332C9"/>
<stop offset="0.77" stop-color="#FC29C7"/>
<stop offset="1" stop-color="#FF27C7"/>
</linearGradient>
<linearGradient id="paint10_linear_290_641" x1="21.6635" y1="499.699" x2="450.331" y2="499.699" gradientUnits="userSpaceOnUse">
<stop stop-color="#27FFF9"/>
<stop offset="0.05" stop-color="#43E2F2"/>
<stop offset="0.12" stop-color="#6FB6E8"/>
<stop offset="0.21" stop-color="#9590DF"/>
<stop offset="0.3" stop-color="#B66FD7"/>
<stop offset="0.4" stop-color="#D154D1"/>
<stop offset="0.5" stop-color="#E540CC"/>
<stop offset="0.62" stop-color="#F332C9"/>
<stop offset="0.77" stop-color="#FC29C7"/>
<stop offset="1" stop-color="#FF27C7"/>
</linearGradient>
<linearGradient id="paint11_linear_290_641" x1="-0.00249182" y1="499.699" x2="471.997" y2="499.699" gradientUnits="userSpaceOnUse">
<stop stop-color="#27FFF9"/>
<stop offset="0.05" stop-color="#43E2F2"/>
<stop offset="0.12" stop-color="#6FB6E8"/>
<stop offset="0.21" stop-color="#9590DF"/>
<stop offset="0.3" stop-color="#B66FD7"/>
<stop offset="0.4" stop-color="#D154D1"/>
<stop offset="0.5" stop-color="#E540CC"/>
<stop offset="0.62" stop-color="#F332C9"/>
<stop offset="0.77" stop-color="#FC29C7"/>
<stop offset="1" stop-color="#FF27C7"/>
</linearGradient>
<linearGradient id="paint12_linear_290_641" x1="138.731" y1="498.461" x2="333.264" y2="498.461" gradientUnits="userSpaceOnUse">
<stop stop-color="#27FFF9"/>
<stop offset="0.05" stop-color="#43E2F2"/>
<stop offset="0.12" stop-color="#6FB6E8"/>
<stop offset="0.21" stop-color="#9590DF"/>
<stop offset="0.3" stop-color="#B66FD7"/>
<stop offset="0.4" stop-color="#D154D1"/>
<stop offset="0.5" stop-color="#E540CC"/>
<stop offset="0.62" stop-color="#F332C9"/>
<stop offset="0.77" stop-color="#FC29C7"/>
<stop offset="1" stop-color="#FF27C7"/>
</linearGradient>
<linearGradient id="paint13_linear_290_641" x1="155.935" y1="521.28" x2="315.35" y2="521.28" gradientUnits="userSpaceOnUse">
<stop stop-color="#1BCCC3"/>
<stop offset="0.01" stop-color="#1BC0BA"/>
<stop offset="0.07" stop-color="#1C949C"/>
<stop offset="0.13" stop-color="#1D6D81"/>
<stop offset="0.2" stop-color="#1E4D6A"/>
<stop offset="0.27" stop-color="#1F3258"/>
<stop offset="0.35" stop-color="#201E49"/>
<stop offset="0.43" stop-color="#20103F"/>
<stop offset="0.54" stop-color="#200739"/>
<stop offset="0.71" stop-color="#210538"/>
<stop offset="0.82" stop-color="#220539"/>
<stop offset="0.86" stop-color="#29063F"/>
<stop offset="0.89" stop-color="#350849"/>
<stop offset="0.91" stop-color="#460B57"/>
<stop offset="0.93" stop-color="#5C0F6A"/>
<stop offset="0.95" stop-color="#771481"/>
<stop offset="0.97" stop-color="#981A9C"/>
<stop offset="0.98" stop-color="#BD21BC"/>
<stop offset="0.99" stop-color="#E629DF"/>
<stop offset="1" stop-color="#FF2EF4"/>
</linearGradient>
<linearGradient id="paint14_linear_290_641" x1="155.933" y1="492.712" x2="315.328" y2="492.712" gradientUnits="userSpaceOnUse">
<stop stop-color="#21197E"/>
<stop offset="0.12" stop-color="#1C4B63"/>
<stop offset="0.24" stop-color="#263060"/>
<stop offset="0.37" stop-color="#2E1C5E"/>
<stop offset="0.52" stop-color="#330E5C"/>
<stop offset="0.7" stop-color="#37055B"/>
<stop offset="1" stop-color="#38035B"/>
</linearGradient>
<linearGradient id="paint15_linear_290_641" x1="180.518" y1="492.692" x2="290.782" y2="492.692" gradientUnits="userSpaceOnUse">
<stop stop-color="#27FFF9"/>
<stop offset="0.05" stop-color="#43E2F2"/>
<stop offset="0.12" stop-color="#6FB6E8"/>
<stop offset="0.21" stop-color="#9590DF"/>
<stop offset="0.3" stop-color="#B66FD7"/>
<stop offset="0.4" stop-color="#D154D1"/>
<stop offset="0.5" stop-color="#E540CC"/>
<stop offset="0.62" stop-color="#F332C9"/>
<stop offset="0.77" stop-color="#FC29C7"/>
<stop offset="1" stop-color="#FF27C7"/>
</linearGradient>
<linearGradient id="paint16_linear_290_641" x1="169.172" y1="492.692" x2="302.127" y2="492.692" gradientUnits="userSpaceOnUse">
<stop stop-color="#27FFF9"/>
<stop offset="0.05" stop-color="#43E2F2"/>
<stop offset="0.12" stop-color="#6FB6E8"/>
<stop offset="0.21" stop-color="#9590DF"/>
<stop offset="0.3" stop-color="#B66FD7"/>
<stop offset="0.4" stop-color="#D154D1"/>
<stop offset="0.5" stop-color="#E540CC"/>
<stop offset="0.62" stop-color="#F332C9"/>
<stop offset="0.77" stop-color="#FC29C7"/>
<stop offset="1" stop-color="#FF27C7"/>
</linearGradient>
<linearGradient id="paint17_linear_290_641" x1="235.372" y1="568.618" x2="235.372" y2="400.254" gradientUnits="userSpaceOnUse">
<stop stop-color="#9027FF" stop-opacity="0"/>
<stop offset="0.22" stop-color="#9127FE" stop-opacity="0.01"/>
<stop offset="0.36" stop-color="#9427FD" stop-opacity="0.04"/>
<stop offset="0.47" stop-color="#9B27FB" stop-opacity="0.1"/>
<stop offset="0.57" stop-color="#A327F7" stop-opacity="0.18"/>
<stop offset="0.66" stop-color="#AF27F3" stop-opacity="0.28"/>
<stop offset="0.75" stop-color="#BD27EE" stop-opacity="0.41"/>
<stop offset="0.83" stop-color="#CE28E8" stop-opacity="0.56"/>
<stop offset="0.91" stop-color="#E228E1" stop-opacity="0.74"/>
<stop offset="0.98" stop-color="#F728D9" stop-opacity="0.93"/>
<stop offset="1" stop-color="#FF29D7"/>
</linearGradient>
<linearGradient id="paint18_linear_290_641" x1="235.372" y1="568.618" x2="235.372" y2="422.383" gradientUnits="userSpaceOnUse">
<stop stop-color="#9027FF" stop-opacity="0"/>
<stop offset="0.22" stop-color="#9127FE" stop-opacity="0.01"/>
<stop offset="0.36" stop-color="#9427FD" stop-opacity="0.04"/>
<stop offset="0.47" stop-color="#9B27FB" stop-opacity="0.1"/>
<stop offset="0.57" stop-color="#A327F7" stop-opacity="0.18"/>
<stop offset="0.66" stop-color="#AF27F3" stop-opacity="0.28"/>
<stop offset="0.75" stop-color="#BD27EE" stop-opacity="0.41"/>
<stop offset="0.83" stop-color="#CE28E8" stop-opacity="0.56"/>
<stop offset="0.91" stop-color="#E228E1" stop-opacity="0.74"/>
<stop offset="0.98" stop-color="#F728D9" stop-opacity="0.93"/>
<stop offset="1" stop-color="#FF29D7"/>
</linearGradient>
<linearGradient id="paint19_linear_290_641" x1="235.372" y1="561.029" x2="235.372" y2="428.618" gradientUnits="userSpaceOnUse">
<stop stop-color="#9027FF" stop-opacity="0"/>
<stop offset="0.22" stop-color="#9127FE" stop-opacity="0.01"/>
<stop offset="0.36" stop-color="#9427FD" stop-opacity="0.04"/>
<stop offset="0.47" stop-color="#9B27FB" stop-opacity="0.1"/>
<stop offset="0.57" stop-color="#A327F7" stop-opacity="0.18"/>
<stop offset="0.66" stop-color="#AF27F3" stop-opacity="0.28"/>
<stop offset="0.75" stop-color="#BD27EE" stop-opacity="0.41"/>
<stop offset="0.83" stop-color="#CE28E8" stop-opacity="0.56"/>
<stop offset="0.91" stop-color="#E228E1" stop-opacity="0.74"/>
<stop offset="0.98" stop-color="#F728D9" stop-opacity="0.93"/>
<stop offset="1" stop-color="#FF29D7"/>
</linearGradient>
<linearGradient id="paint20_linear_290_641" x1="235.372" y1="527.263" x2="235.372" y2="425.617" gradientUnits="userSpaceOnUse">
<stop stop-color="#9027FF" stop-opacity="0"/>
<stop offset="0.22" stop-color="#9127FE" stop-opacity="0.01"/>
<stop offset="0.36" stop-color="#9429FE" stop-opacity="0.04"/>
<stop offset="0.47" stop-color="#9B2DFC" stop-opacity="0.1"/>
<stop offset="0.57" stop-color="#A331FB" stop-opacity="0.18"/>
<stop offset="0.66" stop-color="#AF38F8" stop-opacity="0.28"/>
<stop offset="0.75" stop-color="#BD40F5" stop-opacity="0.41"/>
<stop offset="0.83" stop-color="#CE49F2" stop-opacity="0.56"/>
<stop offset="0.91" stop-color="#E254EE" stop-opacity="0.74"/>
<stop offset="0.98" stop-color="#F760EA" stop-opacity="0.93"/>
<stop offset="1" stop-color="#FF64E9"/>
</linearGradient>
<linearGradient id="paint21_linear_290_641" x1="235.469" y1="561.029" x2="235.469" y2="438.376" gradientUnits="userSpaceOnUse">
<stop offset="0.36" stop-color="white" stop-opacity="0"/>
<stop offset="0.6" stop-color="#FFFEFE" stop-opacity="0"/>
<stop offset="0.68" stop-color="#FFFEFE" stop-opacity="0.03"/>
<stop offset="0.74" stop-color="#FFFEFE" stop-opacity="0.08"/>
<stop offset="0.79" stop-color="#FFFDFE" stop-opacity="0.15"/>
<stop offset="0.84" stop-color="#FFFDFE" stop-opacity="0.23"/>
<stop offset="0.87" stop-color="#FFFCFE" stop-opacity="0.34"/>
<stop offset="0.91" stop-color="#FFFBFE" stop-opacity="0.47"/>
<stop offset="0.94" stop-color="#FFFAFE" stop-opacity="0.61"/>
<stop offset="0.97" stop-color="#FFF9FE" stop-opacity="0.78"/>
<stop offset="1" stop-color="#FFF8FE"/>
</linearGradient>
<linearGradient id="paint22_linear_290_641" x1="154.37" y1="401.183" x2="177.234" y2="401.183" gradientUnits="userSpaceOnUse">
<stop stop-color="#BC46FA"/>
<stop offset="0.09" stop-color="#9836CE"/>
<stop offset="0.18" stop-color="#7829A7"/>
<stop offset="0.27" stop-color="#5E1D87"/>
<stop offset="0.37" stop-color="#48146C"/>
<stop offset="0.48" stop-color="#370D58"/>
<stop offset="0.61" stop-color="#2C074A"/>
<stop offset="0.76" stop-color="#250441"/>
<stop offset="1" stop-color="#23043F"/>
</linearGradient>
<linearGradient id="paint23_linear_290_641" x1="201.375" y1="396.594" x2="201.375" y2="363.603" gradientUnits="userSpaceOnUse">
<stop stop-color="#BC46FA"/>
<stop offset="0.09" stop-color="#9836CE"/>
<stop offset="0.18" stop-color="#7829A7"/>
<stop offset="0.27" stop-color="#5E1D87"/>
<stop offset="0.37" stop-color="#48146C"/>
<stop offset="0.48" stop-color="#370D58"/>
<stop offset="0.61" stop-color="#2C074A"/>
<stop offset="0.76" stop-color="#250441"/>
<stop offset="1" stop-color="#23043F"/>
</linearGradient>
<linearGradient id="paint24_linear_290_641" x1="166.082" y1="362.267" x2="204.757" y2="362.267" gradientUnits="userSpaceOnUse">
<stop stop-color="#BC46FA"/>
<stop offset="0.09" stop-color="#9836CE"/>
<stop offset="0.18" stop-color="#7829A7"/>
<stop offset="0.27" stop-color="#5E1D87"/>
<stop offset="0.37" stop-color="#48146C"/>
<stop offset="0.48" stop-color="#370D58"/>
<stop offset="0.61" stop-color="#2C074A"/>
<stop offset="0.76" stop-color="#250441"/>
<stop offset="1" stop-color="#23043F"/>
</linearGradient>
<linearGradient id="paint25_linear_290_641" x1="149.538" y1="407.282" x2="197.655" y2="366.976" gradientUnits="userSpaceOnUse">
<stop stop-color="#BC46FA"/>
<stop offset="0.09" stop-color="#9836CE"/>
<stop offset="0.18" stop-color="#7829A7"/>
<stop offset="0.27" stop-color="#5E1D87"/>
<stop offset="0.37" stop-color="#48146C"/>
<stop offset="0.48" stop-color="#370D58"/>
<stop offset="0.61" stop-color="#2C074A"/>
<stop offset="0.76" stop-color="#250441"/>
<stop offset="1" stop-color="#23043F"/>
</linearGradient>
<linearGradient id="paint26_linear_290_641" x1="294.263" y1="401.183" x2="317.128" y2="401.183" gradientUnits="userSpaceOnUse">
<stop stop-color="#23043F"/>
<stop offset="0.24" stop-color="#250441"/>
<stop offset="0.39" stop-color="#2C074A"/>
<stop offset="0.52" stop-color="#370D58"/>
<stop offset="0.63" stop-color="#48146C"/>
<stop offset="0.73" stop-color="#5E1D87"/>
<stop offset="0.82" stop-color="#7829A7"/>
<stop offset="0.91" stop-color="#9836CE"/>
<stop offset="0.99" stop-color="#BC46FA"/>
<stop offset="1" stop-color="#C048FF"/>
</linearGradient>
<linearGradient id="paint27_linear_290_641" x1="266.741" y1="380.099" x2="273.505" y2="380.099" gradientUnits="userSpaceOnUse">
<stop stop-color="#BC46FA"/>
<stop offset="0.09" stop-color="#9836CE"/>
<stop offset="0.18" stop-color="#7829A7"/>
<stop offset="0.27" stop-color="#5E1D87"/>
<stop offset="0.37" stop-color="#48146C"/>
<stop offset="0.48" stop-color="#370D58"/>
<stop offset="0.61" stop-color="#2C074A"/>
<stop offset="0.76" stop-color="#250441"/>
<stop offset="1" stop-color="#23043F"/>
</linearGradient>
<linearGradient id="paint28_linear_290_641" x1="266.741" y1="362.267" x2="305.415" y2="362.267" gradientUnits="userSpaceOnUse">
<stop stop-color="#23043F"/>
<stop offset="0.24" stop-color="#250441"/>
<stop offset="0.39" stop-color="#2C074A"/>
<stop offset="0.52" stop-color="#370D58"/>
<stop offset="0.63" stop-color="#48146C"/>
<stop offset="0.73" stop-color="#5E1D87"/>
<stop offset="0.82" stop-color="#7829A7"/>
<stop offset="0.91" stop-color="#9836CE"/>
<stop offset="0.99" stop-color="#BC46FA"/>
<stop offset="1" stop-color="#C048FF"/>
</linearGradient>
<linearGradient id="paint29_linear_290_641" x1="297.105" y1="411.231" x2="297.105" y2="360.912" gradientUnits="userSpaceOnUse">
<stop stop-color="#BC46FA"/>
<stop offset="0.09" stop-color="#9836CE"/>
<stop offset="0.18" stop-color="#7829A7"/>
<stop offset="0.27" stop-color="#5E1D87"/>
<stop offset="0.37" stop-color="#48146C"/>
<stop offset="0.48" stop-color="#370D58"/>
<stop offset="0.61" stop-color="#2C074A"/>
<stop offset="0.76" stop-color="#250441"/>
<stop offset="1" stop-color="#23043F"/>
</linearGradient>
<linearGradient id="paint30_linear_290_641" x1="235.372" y1="447.669" x2="235.372" y2="239.653" gradientUnits="userSpaceOnUse">
<stop stop-color="#C048FF"/>
<stop offset="0.07" stop-color="#9F3ADA"/>
<stop offset="0.16" stop-color="#7E2CB4"/>
<stop offset="0.26" stop-color="#612094"/>
<stop offset="0.36" stop-color="#491679"/>
<stop offset="0.47" stop-color="#370F65"/>
<stop offset="0.6" stop-color="#2A0A57"/>
<stop offset="0.75" stop-color="#23064E"/>
<stop offset="1" stop-color="#21064C"/>
</linearGradient>
<linearGradient id="paint31_linear_290_641" x1="194.224" y1="225.809" x2="276.153" y2="225.809" gradientUnits="userSpaceOnUse">
<stop stop-color="#27FFF9"/>
<stop offset="0.02" stop-color="#27F1F0"/>
<stop offset="0.09" stop-color="#2BBFD1"/>
<stop offset="0.17" stop-color="#2E92B5"/>
<stop offset="0.25" stop-color="#306C9C"/>
<stop offset="0.33" stop-color="#334B88"/>
<stop offset="0.43" stop-color="#343077"/>
<stop offset="0.53" stop-color="#361C6A"/>
<stop offset="0.64" stop-color="#370E61"/>
<stop offset="0.78" stop-color="#37055C"/>
<stop offset="1" stop-color="#38035B"/>
</linearGradient>
<linearGradient id="paint32_linear_290_641" x1="223.601" y1="352.005" x2="199.243" y2="309.873" gradientUnits="userSpaceOnUse">
<stop stop-color="#38035B"/>
<stop offset="0.07" stop-color="#370B60"/>
<stop offset="0.17" stop-color="#35216E"/>
<stop offset="0.3" stop-color="#334685"/>
<stop offset="0.44" stop-color="#3079A5"/>
<stop offset="0.6" stop-color="#2BB9CD"/>
<stop offset="0.76" stop-color="#27FFF9"/>
<stop offset="1" stop-color="#38035B"/>
</linearGradient>
<linearGradient id="paint33_linear_290_641" x1="184.791" y1="335.936" x2="219.426" y2="335.936" gradientUnits="userSpaceOnUse">
<stop stop-color="#812BB9"/>
<stop offset="0.28" stop-color="#334685"/>
<stop offset="0.94" stop-color="#28EEEE"/>
<stop offset="1" stop-color="#27FFF9"/>
</linearGradient>
<linearGradient id="paint34_linear_290_641" x1="184.791" y1="335.936" x2="219.426" y2="335.936" gradientUnits="userSpaceOnUse">
<stop stop-color="#812BB9"/>
<stop offset="0.28" stop-color="#334685"/>
<stop offset="0.94" stop-color="#28EEEE"/>
<stop offset="1" stop-color="#27FFF9"/>
</linearGradient>
<linearGradient id="paint35_linear_290_641" x1="186.859" y1="335.878" x2="216.102" y2="335.878" gradientUnits="userSpaceOnUse">
<stop stop-color="#952BA0"/>
<stop offset="0.5" stop-color="#68177F"/>
<stop offset="1" stop-color="#38035B"/>
</linearGradient>
<linearGradient id="paint36_linear_290_641" x1="200.37" y1="355.762" x2="196.239" y2="316.692" gradientUnits="userSpaceOnUse">
<stop stop-color="#27FFF9"/>
<stop offset="0.06" stop-color="#28EAEC"/>
<stop offset="0.26" stop-color="#2DA5C0"/>
<stop offset="0.45" stop-color="#306B9C"/>
<stop offset="0.63" stop-color="#343E80"/>
<stop offset="0.78" stop-color="#361D6B"/>
<stop offset="0.91" stop-color="#370A5F"/>
<stop offset="1" stop-color="#38035B"/>
</linearGradient>
<linearGradient id="paint37_linear_290_641" x1="162.951" y1="431.696" x2="216.605" y2="431.696" gradientUnits="userSpaceOnUse">
<stop stop-color="#BC46FA"/>
<stop offset="0.09" stop-color="#9836CE"/>
<stop offset="0.18" stop-color="#7829A7"/>
<stop offset="0.27" stop-color="#5E1D87"/>
<stop offset="0.37" stop-color="#48146C"/>
<stop offset="0.48" stop-color="#370D58"/>
<stop offset="0.61" stop-color="#2C074A"/>
<stop offset="0.76" stop-color="#250441"/>
<stop offset="1" stop-color="#23043F"/>
</linearGradient>
<linearGradient id="paint38_linear_290_641" x1="193.16" y1="481.609" x2="193.16" y2="385.81" gradientUnits="userSpaceOnUse">
<stop stop-color="#BC46FA"/>
<stop offset="0.09" stop-color="#9836CE"/>
<stop offset="0.18" stop-color="#7829A7"/>
<stop offset="0.27" stop-color="#5E1D87"/>
<stop offset="0.37" stop-color="#48146C"/>
<stop offset="0.48" stop-color="#370D58"/>
<stop offset="0.61" stop-color="#2C074A"/>
<stop offset="0.76" stop-color="#250441"/>
<stop offset="1" stop-color="#23043F"/>
</linearGradient>
<linearGradient id="paint39_linear_290_641" x1="256.884" y1="431.696" x2="310.537" y2="431.696" gradientUnits="userSpaceOnUse">
<stop stop-color="#23043F"/>
<stop offset="0.24" stop-color="#250441"/>
<stop offset="0.39" stop-color="#2C074A"/>
<stop offset="0.52" stop-color="#370D58"/>
<stop offset="0.63" stop-color="#48146C"/>
<stop offset="0.73" stop-color="#5E1D87"/>
<stop offset="0.82" stop-color="#7829A7"/>
<stop offset="0.91" stop-color="#9836CE"/>
<stop offset="0.99" stop-color="#BC46FA"/>
<stop offset="1" stop-color="#C048FF"/>
</linearGradient>
<linearGradient id="paint40_linear_290_641" x1="280.328" y1="481.609" x2="280.328" y2="385.81" gradientUnits="userSpaceOnUse">
<stop stop-color="#BC46FA"/>
<stop offset="0.09" stop-color="#9836CE"/>
<stop offset="0.18" stop-color="#7829A7"/>
<stop offset="0.27" stop-color="#5E1D87"/>
<stop offset="0.37" stop-color="#48146C"/>
<stop offset="0.48" stop-color="#370D58"/>
<stop offset="0.61" stop-color="#2C074A"/>
<stop offset="0.76" stop-color="#250441"/>
<stop offset="1" stop-color="#23043F"/>
</linearGradient>
<linearGradient id="paint41_linear_290_641" x1="230.694" y1="180.233" x2="239.952" y2="180.233" gradientUnits="userSpaceOnUse">
<stop stop-color="#27FFF9"/>
<stop offset="0.02" stop-color="#27F1F0"/>
<stop offset="0.09" stop-color="#2BBFD1"/>
<stop offset="0.17" stop-color="#2E92B5"/>
<stop offset="0.25" stop-color="#306C9C"/>
<stop offset="0.33" stop-color="#334B88"/>
<stop offset="0.43" stop-color="#343077"/>
<stop offset="0.53" stop-color="#361C6A"/>
<stop offset="0.64" stop-color="#370E61"/>
<stop offset="0.78" stop-color="#37055C"/>
<stop offset="1" stop-color="#38035B"/>
</linearGradient>
<linearGradient id="paint42_linear_290_641" x1="233.923" y1="168.403" x2="236.725" y2="168.403" gradientUnits="userSpaceOnUse">
<stop stop-color="#27FFF9"/>
<stop offset="0.02" stop-color="#27F1F0"/>
<stop offset="0.09" stop-color="#2BBFD1"/>
<stop offset="0.17" stop-color="#2E92B5"/>
<stop offset="0.25" stop-color="#306C9C"/>
<stop offset="0.33" stop-color="#334B88"/>
<stop offset="0.43" stop-color="#343077"/>
<stop offset="0.53" stop-color="#361C6A"/>
<stop offset="0.64" stop-color="#370E61"/>
<stop offset="0.78" stop-color="#37055C"/>
<stop offset="1" stop-color="#38035B"/>
</linearGradient>
<linearGradient id="paint43_linear_290_641" x1="236.725" y1="519.15" x2="236.725" y2="325.616" gradientUnits="userSpaceOnUse">
<stop stop-color="#D529FF" stop-opacity="0.96"/>
<stop offset="0.05" stop-color="#D529FF" stop-opacity="0.78"/>
<stop offset="0.09" stop-color="#D529FF" stop-opacity="0.61"/>
<stop offset="0.14" stop-color="#D529FF" stop-opacity="0.47"/>
<stop offset="0.2" stop-color="#D529FF" stop-opacity="0.34"/>
<stop offset="0.25" stop-color="#D529FF" stop-opacity="0.23"/>
<stop offset="0.32" stop-color="#D529FF" stop-opacity="0.15"/>
<stop offset="0.4" stop-color="#D529FF" stop-opacity="0.08"/>
<stop offset="0.49" stop-color="#D529FF" stop-opacity="0.03"/>
<stop offset="0.63" stop-color="#D529FF" stop-opacity="0"/>
<stop offset="1" stop-color="#D529FF" stop-opacity="0"/>
</linearGradient>
<linearGradient id="paint44_linear_290_641" x1="308.546" y1="441.067" x2="308.566" y2="441.067" gradientUnits="userSpaceOnUse">
<stop stop-color="#D529FF" stop-opacity="0.96"/>
<stop offset="0.05" stop-color="#D529FF" stop-opacity="0.78"/>
<stop offset="0.09" stop-color="#D529FF" stop-opacity="0.61"/>
<stop offset="0.14" stop-color="#D529FF" stop-opacity="0.47"/>
<stop offset="0.2" stop-color="#D529FF" stop-opacity="0.34"/>
<stop offset="0.25" stop-color="#D529FF" stop-opacity="0.23"/>
<stop offset="0.32" stop-color="#D529FF" stop-opacity="0.15"/>
<stop offset="0.4" stop-color="#D529FF" stop-opacity="0.08"/>
<stop offset="0.49" stop-color="#D529FF" stop-opacity="0.03"/>
<stop offset="0.63" stop-color="#D529FF" stop-opacity="0"/>
<stop offset="1" stop-color="#D529FF" stop-opacity="0"/>
</linearGradient>
<linearGradient id="paint45_linear_290_641" x1="236.725" y1="537.718" x2="236.725" y2="122.266" gradientUnits="userSpaceOnUse">
<stop stop-color="#D529FF" stop-opacity="0.96"/>
<stop offset="0.05" stop-color="#D529FF" stop-opacity="0.78"/>
<stop offset="0.09" stop-color="#D529FF" stop-opacity="0.61"/>
<stop offset="0.14" stop-color="#D529FF" stop-opacity="0.47"/>
<stop offset="0.2" stop-color="#D529FF" stop-opacity="0.34"/>
<stop offset="0.25" stop-color="#D529FF" stop-opacity="0.23"/>
<stop offset="0.32" stop-color="#D529FF" stop-opacity="0.15"/>
<stop offset="0.4" stop-color="#D529FF" stop-opacity="0.08"/>
<stop offset="0.49" stop-color="#D529FF" stop-opacity="0.03"/>
<stop offset="0.63" stop-color="#D529FF" stop-opacity="0"/>
<stop offset="1" stop-color="#D529FF" stop-opacity="0"/>
</linearGradient>
<linearGradient id="paint46_linear_290_641" x1="332.957" y1="430.612" x2="332.957" y2="430.089" gradientUnits="userSpaceOnUse">
<stop stop-color="#D529FF" stop-opacity="0.4"/>
<stop offset="0.05" stop-color="#D529FF" stop-opacity="0.28"/>
<stop offset="0.11" stop-color="#D529FF" stop-opacity="0.18"/>
<stop offset="0.17" stop-color="#D529FF" stop-opacity="0.1"/>
<stop offset="0.24" stop-color="#D529FF" stop-opacity="0.04"/>
<stop offset="0.32" stop-color="#D529FF" stop-opacity="0.01"/>
<stop offset="0.46" stop-color="#D529FF" stop-opacity="0"/>
</linearGradient>
<linearGradient id="paint47_linear_290_641" x1="150.33" y1="539.305" x2="150.33" y2="1.7038" gradientUnits="userSpaceOnUse">
<stop stop-color="#D529FF" stop-opacity="0"/>
<stop offset="0.02" stop-color="#D529FF" stop-opacity="0.12"/>
<stop offset="0.04" stop-color="#D529FF" stop-opacity="0.22"/>
<stop offset="0.07" stop-color="#D529FF" stop-opacity="0.3"/>
<stop offset="0.1" stop-color="#D529FF" stop-opacity="0.36"/>
<stop offset="0.14" stop-color="#D529FF" stop-opacity="0.39"/>
<stop offset="0.2" stop-color="#D529FF" stop-opacity="0.4"/>
<stop offset="0.22" stop-color="#D529FF" stop-opacity="0.28"/>
<stop offset="0.26" stop-color="#D529FF" stop-opacity="0.18"/>
<stop offset="0.29" stop-color="#D529FF" stop-opacity="0.1"/>
<stop offset="0.33" stop-color="#D529FF" stop-opacity="0.04"/>
<stop offset="0.38" stop-color="#D529FF" stop-opacity="0.01"/>
<stop offset="0.46" stop-color="#D529FF" stop-opacity="0"/>
</linearGradient>
<linearGradient id="paint48_linear_290_641" x1="209.164" y1="560.583" x2="209.164" y2="55.8763" gradientUnits="userSpaceOnUse">
<stop stop-color="#D529FF" stop-opacity="0"/>
<stop offset="0.02" stop-color="#D529FF" stop-opacity="0.12"/>
<stop offset="0.04" stop-color="#D529FF" stop-opacity="0.22"/>
<stop offset="0.07" stop-color="#D529FF" stop-opacity="0.3"/>
<stop offset="0.1" stop-color="#D529FF" stop-opacity="0.36"/>
<stop offset="0.14" stop-color="#D529FF" stop-opacity="0.39"/>
<stop offset="0.2" stop-color="#D529FF" stop-opacity="0.4"/>
<stop offset="0.22" stop-color="#D529FF" stop-opacity="0.28"/>
<stop offset="0.26" stop-color="#D529FF" stop-opacity="0.18"/>
<stop offset="0.29" stop-color="#D529FF" stop-opacity="0.1"/>
<stop offset="0.33" stop-color="#D529FF" stop-opacity="0.04"/>
<stop offset="0.38" stop-color="#D529FF" stop-opacity="0.01"/>
<stop offset="0.46" stop-color="#D529FF" stop-opacity="0"/>
</linearGradient>
<linearGradient id="paint49_linear_290_641" x1="263.61" y1="560.351" x2="263.61" y2="54.7534" gradientUnits="userSpaceOnUse">
<stop stop-color="#D529FF" stop-opacity="0"/>
<stop offset="0.02" stop-color="#D529FF" stop-opacity="0.12"/>
<stop offset="0.04" stop-color="#D529FF" stop-opacity="0.22"/>
<stop offset="0.07" stop-color="#D529FF" stop-opacity="0.3"/>
<stop offset="0.1" stop-color="#D529FF" stop-opacity="0.36"/>
<stop offset="0.14" stop-color="#D529FF" stop-opacity="0.39"/>
<stop offset="0.2" stop-color="#D529FF" stop-opacity="0.4"/>
<stop offset="0.22" stop-color="#D529FF" stop-opacity="0.28"/>
<stop offset="0.26" stop-color="#D529FF" stop-opacity="0.18"/>
<stop offset="0.29" stop-color="#D529FF" stop-opacity="0.1"/>
<stop offset="0.33" stop-color="#D529FF" stop-opacity="0.04"/>
<stop offset="0.38" stop-color="#D529FF" stop-opacity="0.01"/>
<stop offset="0.46" stop-color="#D529FF" stop-opacity="0"/>
</linearGradient>
<linearGradient id="paint50_linear_290_641" x1="299.443" y1="548.27" x2="299.443" y2="42.7108" gradientUnits="userSpaceOnUse">
<stop stop-color="#D529FF" stop-opacity="0"/>
<stop offset="0.02" stop-color="#D529FF" stop-opacity="0.12"/>
<stop offset="0.04" stop-color="#D529FF" stop-opacity="0.22"/>
<stop offset="0.07" stop-color="#D529FF" stop-opacity="0.3"/>
<stop offset="0.1" stop-color="#D529FF" stop-opacity="0.36"/>
<stop offset="0.14" stop-color="#D529FF" stop-opacity="0.39"/>
<stop offset="0.2" stop-color="#D529FF" stop-opacity="0.4"/>
<stop offset="0.22" stop-color="#D529FF" stop-opacity="0.28"/>
<stop offset="0.26" stop-color="#D529FF" stop-opacity="0.18"/>
<stop offset="0.29" stop-color="#D529FF" stop-opacity="0.1"/>
<stop offset="0.33" stop-color="#D529FF" stop-opacity="0.04"/>
<stop offset="0.38" stop-color="#D529FF" stop-opacity="0.01"/>
<stop offset="0.46" stop-color="#D529FF" stop-opacity="0"/>
</linearGradient>
<linearGradient id="paint51_linear_290_641" x1="323.177" y1="535.453" x2="323.177" y2="0" gradientUnits="userSpaceOnUse">
<stop stop-color="#D529FF" stop-opacity="0"/>
<stop offset="0.02" stop-color="#D529FF" stop-opacity="0.12"/>
<stop offset="0.04" stop-color="#D529FF" stop-opacity="0.22"/>
<stop offset="0.07" stop-color="#D529FF" stop-opacity="0.3"/>
<stop offset="0.1" stop-color="#D529FF" stop-opacity="0.36"/>
<stop offset="0.14" stop-color="#D529FF" stop-opacity="0.39"/>
<stop offset="0.2" stop-color="#D529FF" stop-opacity="0.4"/>
<stop offset="0.22" stop-color="#D529FF" stop-opacity="0.28"/>
<stop offset="0.26" stop-color="#D529FF" stop-opacity="0.18"/>
<stop offset="0.29" stop-color="#D529FF" stop-opacity="0.1"/>
<stop offset="0.33" stop-color="#D529FF" stop-opacity="0.04"/>
<stop offset="0.38" stop-color="#D529FF" stop-opacity="0.01"/>
<stop offset="0.46" stop-color="#D529FF" stop-opacity="0"/>
</linearGradient>
<linearGradient id="paint52_linear_290_641" x1="431.22" y1="243.256" x2="431.22" y2="291.907" gradientUnits="userSpaceOnUse">
<stop stop-color="#8448CE"/>
<stop offset="1" stop-color="#18131E" stop-opacity="0.87"/>
</linearGradient>
<linearGradient id="paint53_linear_290_641" x1="378.583" y1="158.696" x2="378.583" y2="207.347" gradientUnits="userSpaceOnUse">
<stop stop-color="#8448CE"/>
<stop offset="0.239583" stop-color="#7CA0FE"/>
<stop offset="1" stop-color="#18131E" stop-opacity="0.87"/>
</linearGradient>
<linearGradient id="paint54_linear_290_641" x1="90.5245" y1="134.37" x2="90.5245" y2="151.166" gradientUnits="userSpaceOnUse">
<stop stop-color="#8448CE"/>
<stop offset="1" stop-color="#18131E" stop-opacity="0.87"/>
</linearGradient>
<linearGradient id="paint55_linear_290_641" x1="122.049" y1="142.479" x2="122.049" y2="162.75" gradientUnits="userSpaceOnUse">
<stop stop-color="#8448CE"/>
<stop offset="1" stop-color="#18131E" stop-opacity="0.87"/>
</linearGradient>
<linearGradient id="paint56_linear_290_641" x1="102.093" y1="168.542" x2="102.093" y2="174.334" gradientUnits="userSpaceOnUse">
<stop stop-color="#8448CE"/>
<stop offset="1" stop-color="#18131E" stop-opacity="0.87"/>
</linearGradient>
<clipPath id="clip0_290_641">
<rect width="472" height="651" fill="white"/>
</clipPath>
</defs>
</svg>
